M48
; DRILL file KiCad 10.0.1 date 2026-05-03T19:23:28
; FORMAT={-:-/ absolute / metric / decimal}
; #@! TF.CreationDate,2026-05-03T19:23:28-06:00
; #@! TF.GenerationSoftware,Kicad,Pcbnew,10.0.1
; #@! TF.FileFunction,Plated,1,2,PTH
FMAT,2
METRIC
; #@! TA.AperFunction,Plated,PTH,ViaDrill
T1C0.300
; #@! TA.AperFunction,Plated,PTH,ComponentDrill
T2C0.600
; #@! TA.AperFunction,Plated,PTH,ComponentDrill
T3C0.950
; #@! TA.AperFunction,Plated,PTH,ComponentDrill
T4C1.000
%
G90
G05
T1
X103.0Y-81.5
X104.5Y-89.0
X105.0Y-75.0
X106.5Y-82.0
X109.0Y-75.0
X109.0Y-111.0
X111.0Y-81.0
X112.0Y-92.0
X112.0Y-111.0
X112.18Y-73.43
X113.0Y-106.0
X115.0Y-97.373
X115.0Y-99.127
X115.0Y-115.0
X116.5Y-102.0
X118.5Y-104.0
X119.0Y-80.5
X122.5Y-95.5
X122.5Y-99.5
X122.5Y-113.5
X123.0Y-84.873
X123.5Y-89.0
X124.0Y-79.0
X124.5Y-66.898
X124.5Y-68.0
X125.5Y-92.5
X126.5Y-76.0
X127.5Y-104.0
X128.0Y-66.898
X128.0Y-68.0
X129.0Y-102.5
X129.5Y-95.5
X130.0Y-90.152
X130.5Y-66.0
X130.5Y-88.5
X130.5Y-107.5
X130.68Y-85.93
X131.68Y-79.93
X132.5Y-88.0
X135.5Y-110.0
X135.5Y-117.0
X137.18Y-88.43
X138.5Y-92.5
X139.0Y-72.0
X139.0Y-103.5
X139.18Y-80.93
X143.0Y-89.0
X146.0Y-78.0
X146.5Y-89.0
X147.98Y-116.13
X148.0Y-76.0
X148.0Y-85.0
X148.0Y-119.5
X148.5Y-101.5
X149.0Y-68.5
X153.0Y-68.5
X153.5Y-83.0
X155.0Y-85.5
X155.5Y-79.5
X156.0Y-108.5
X156.0Y-112.0
X160.0Y-62.0
X162.127Y-62.0
X164.0Y-89.5
X165.0Y-118.5
X165.5Y-76.5
T3
X138.0Y-57.5
X140.5Y-57.5
X143.0Y-57.5
X143.155Y-96.43
X143.155Y-98.93
X143.155Y-101.43
X143.155Y-103.93
X143.155Y-106.43
X145.5Y-57.5
T4
X115.4Y-63.93
X117.94Y-63.93
X119.0Y-56.5
X120.48Y-63.93
X121.5Y-56.5
X123.02Y-63.93
X125.56Y-63.93
X128.1Y-63.93
X130.64Y-63.93
X133.18Y-63.93
X137.43Y-123.905
X139.93Y-123.905
X150.926Y-56.546
X150.926Y-59.086
X153.466Y-56.546
X153.466Y-59.086
X156.006Y-56.546
X156.006Y-59.086
X158.546Y-56.546
X158.546Y-59.086
X165.5Y-65.96
X165.5Y-68.5
X165.5Y-71.04
X165.5Y-73.58
X166.18Y-111.93
X166.18Y-114.43
T2
G00X162.77Y-78.36
M15
G01X163.87Y-78.36
M16
G05
G00X162.77Y-87.0
M15
G01X163.87Y-87.0
M16
G05
G00X167.2Y-78.36
M15
G01X167.8Y-78.36
M16
G05
G00X167.2Y-87.0
M15
G01X167.8Y-87.0
M16
G05
M30
