%TF.GenerationSoftware,KiCad,Pcbnew,10.0.0*%
%TF.CreationDate,2026-05-05T13:40:19-06:00*%
%TF.ProjectId,2026_12_2Wheel_Balance_Robot_v1,32303236-5f31-4325-9f32-576865656c5f,rev?*%
%TF.SameCoordinates,Original*%
%TF.FileFunction,Soldermask,Bot*%
%TF.FilePolarity,Negative*%
%FSLAX46Y46*%
G04 Gerber Fmt 4.6, Leading zero omitted, Abs format (unit mm)*
G04 Created by KiCad (PCBNEW 10.0.0) date 2026-05-05 13:40:19*
%MOMM*%
%LPD*%
G01*
G04 APERTURE LIST*
G04 Aperture macros list*
%AMRoundRect*
0 Rectangle with rounded corners*
0 $1 Rounding radius*
0 $2 $3 $4 $5 $6 $7 $8 $9 X,Y pos of 4 corners*
0 Add a 4 corners polygon primitive as box body*
4,1,4,$2,$3,$4,$5,$6,$7,$8,$9,$2,$3,0*
0 Add four circle primitives for the rounded corners*
1,1,$1+$1,$2,$3*
1,1,$1+$1,$4,$5*
1,1,$1+$1,$6,$7*
1,1,$1+$1,$8,$9*
0 Add four rect primitives between the rounded corners*
20,1,$1+$1,$2,$3,$4,$5,0*
20,1,$1+$1,$4,$5,$6,$7,0*
20,1,$1+$1,$6,$7,$8,$9,0*
20,1,$1+$1,$8,$9,$2,$3,0*%
G04 Aperture macros list end*
%ADD10RoundRect,0.250000X-0.600000X-0.750000X0.600000X-0.750000X0.600000X0.750000X-0.600000X0.750000X0*%
%ADD11O,1.700000X2.000000*%
%ADD12C,2.200000*%
%ADD13RoundRect,0.250000X-0.750000X0.600000X-0.750000X-0.600000X0.750000X-0.600000X0.750000X0.600000X0*%
%ADD14O,2.000000X1.700000*%
%ADD15R,1.700000X1.700000*%
%ADD16C,1.700000*%
%ADD17C,0.650000*%
%ADD18O,2.100000X1.000000*%
%ADD19O,1.600000X1.000000*%
%ADD20RoundRect,0.250000X0.725000X-0.600000X0.725000X0.600000X-0.725000X0.600000X-0.725000X-0.600000X0*%
%ADD21O,1.950000X1.700000*%
%ADD22C,0.900000*%
%ADD23RoundRect,0.250000X-0.600000X-0.725000X0.600000X-0.725000X0.600000X0.725000X-0.600000X0.725000X0*%
%ADD24O,1.700000X1.950000*%
G04 APERTURE END LIST*
D10*
%TO.C,J7*%
X119000000Y-56500000D03*
D11*
X121500000Y-56500000D03*
%TD*%
D12*
%TO.C,H4*%
X166000000Y-57500000D03*
%TD*%
%TO.C,H3*%
X98500000Y-57500000D03*
%TD*%
%TO.C,H2*%
X166000000Y-124500000D03*
%TD*%
%TO.C,H1*%
X99500000Y-123500000D03*
%TD*%
D10*
%TO.C,J6*%
X137430000Y-123905000D03*
D11*
X139930000Y-123905000D03*
%TD*%
D13*
%TO.C,J5*%
X166180000Y-111930000D03*
D14*
X166180000Y-114430000D03*
%TD*%
D15*
%TO.C,J4*%
X158546000Y-59086000D03*
D16*
X158546000Y-56546000D03*
X156006000Y-59086000D03*
X156006000Y-56546000D03*
X153466000Y-59086000D03*
X153466000Y-56546000D03*
X150926000Y-59086000D03*
X150926000Y-56546000D03*
%TD*%
D17*
%TO.C,J3*%
X163820000Y-85570000D03*
X163820000Y-79790000D03*
D18*
X163320000Y-87000000D03*
D19*
X167500000Y-87000000D03*
D18*
X163320000Y-78360000D03*
D19*
X167500000Y-78360000D03*
%TD*%
D15*
%TO.C,J2*%
X133180000Y-63930000D03*
D16*
X130640000Y-63930000D03*
X128100000Y-63930000D03*
X125560000Y-63930000D03*
X123020000Y-63930000D03*
X120480000Y-63930000D03*
X117940000Y-63930000D03*
X115400000Y-63930000D03*
%TD*%
D20*
%TO.C,J9*%
X143155000Y-106430000D03*
D21*
X143155000Y-103930000D03*
X143155000Y-101430000D03*
X143155000Y-98930000D03*
X143155000Y-96430000D03*
%TD*%
D22*
%TO.C,S3*%
X131680000Y-113930000D03*
X128680000Y-113930000D03*
%TD*%
D15*
%TO.C,J1*%
X165500000Y-65960000D03*
D16*
X165500000Y-68500000D03*
X165500000Y-71040000D03*
X165500000Y-73580000D03*
%TD*%
D22*
%TO.C,S4*%
X139430000Y-69855000D03*
X136430000Y-69855000D03*
%TD*%
D23*
%TO.C,J8*%
X138000000Y-57500000D03*
D24*
X140500000Y-57500000D03*
X143000000Y-57500000D03*
X145500000Y-57500000D03*
%TD*%
M02*
