%TF.GenerationSoftware,KiCad,Pcbnew,10.0.0*%
%TF.CreationDate,2026-04-30T13:09:26-06:00*%
%TF.ProjectId,2026_12_2Wheel_Balance_Robot_v1,32303236-5f31-4325-9f32-576865656c5f,rev?*%
%TF.SameCoordinates,Original*%
%TF.FileFunction,Copper,L2,Bot*%
%TF.FilePolarity,Positive*%
%FSLAX46Y46*%
G04 Gerber Fmt 4.6, Leading zero omitted, Abs format (unit mm)*
G04 Created by KiCad (PCBNEW 10.0.0) date 2026-04-30 13:09:26*
%MOMM*%
%LPD*%
G01*
G04 APERTURE LIST*
G04 Aperture macros list*
%AMRoundRect*
0 Rectangle with rounded corners*
0 $1 Rounding radius*
0 $2 $3 $4 $5 $6 $7 $8 $9 X,Y pos of 4 corners*
0 Add a 4 corners polygon primitive as box body*
4,1,4,$2,$3,$4,$5,$6,$7,$8,$9,$2,$3,0*
0 Add four circle primitives for the rounded corners*
1,1,$1+$1,$2,$3*
1,1,$1+$1,$4,$5*
1,1,$1+$1,$6,$7*
1,1,$1+$1,$8,$9*
0 Add four rect primitives between the rounded corners*
20,1,$1+$1,$2,$3,$4,$5,0*
20,1,$1+$1,$4,$5,$6,$7,0*
20,1,$1+$1,$6,$7,$8,$9,0*
20,1,$1+$1,$8,$9,$2,$3,0*%
G04 Aperture macros list end*
%TA.AperFunction,ComponentPad*%
%ADD10RoundRect,0.250000X0.750000X-0.600000X0.750000X0.600000X-0.750000X0.600000X-0.750000X-0.600000X0*%
%TD*%
%TA.AperFunction,ComponentPad*%
%ADD11O,2.000000X1.700000*%
%TD*%
%TA.AperFunction,ComponentPad*%
%ADD12RoundRect,0.250000X-0.750000X0.600000X-0.750000X-0.600000X0.750000X-0.600000X0.750000X0.600000X0*%
%TD*%
%TA.AperFunction,ComponentPad*%
%ADD13R,1.700000X1.700000*%
%TD*%
%TA.AperFunction,ComponentPad*%
%ADD14C,1.700000*%
%TD*%
%TA.AperFunction,ComponentPad*%
%ADD15O,2.100000X1.000000*%
%TD*%
%TA.AperFunction,ComponentPad*%
%ADD16O,1.600000X1.000000*%
%TD*%
%TA.AperFunction,ComponentPad*%
%ADD17RoundRect,0.250000X0.725000X-0.600000X0.725000X0.600000X-0.725000X0.600000X-0.725000X-0.600000X0*%
%TD*%
%TA.AperFunction,ComponentPad*%
%ADD18O,1.950000X1.700000*%
%TD*%
%TA.AperFunction,SMDPad,CuDef*%
%ADD19RoundRect,0.250000X0.337500X0.475000X-0.337500X0.475000X-0.337500X-0.475000X0.337500X-0.475000X0*%
%TD*%
%TA.AperFunction,ViaPad*%
%ADD20C,0.600000*%
%TD*%
G04 APERTURE END LIST*
D10*
%TO.P,J6,1,Pin_1_1*%
%TO.N,/MD_AO1*%
X153525000Y-104250000D03*
D11*
%TO.P,J6,2,Pin_2_2*%
%TO.N,/MD_AO2*%
X153525000Y-101750000D03*
%TD*%
D12*
%TO.P,J5,1,Pin_1_1*%
%TO.N,VM*%
X153500000Y-111500000D03*
D11*
%TO.P,J5,2,Pin_2_2*%
%TO.N,GND*%
X153500000Y-114000000D03*
%TD*%
D13*
%TO.P,J4,1,Pin_1_1*%
%TO.N,GND*%
X154540000Y-62920000D03*
D14*
%TO.P,J4,2,Pin_2_2*%
%TO.N,/ESP_TX*%
X152000000Y-62920000D03*
%TO.P,J4,3,Pin_3_3*%
%TO.N,unconnected-(J4-Pin_3-Pad3)*%
X154540000Y-65460000D03*
%TO.P,J4,4,Pin_4_4*%
%TO.N,+3.3V*%
X152000000Y-65460000D03*
%TO.P,J4,5,Pin_5_5*%
%TO.N,Net-(J4-Pin_5)*%
X154540000Y-68000000D03*
%TO.P,J4,6,Pin_6_6*%
%TO.N,+3.3V*%
X152000000Y-68000000D03*
%TO.P,J4,7,Pin_7_7*%
%TO.N,/ESP_RX*%
X154540000Y-70540000D03*
%TO.P,J4,8,Pin_8_8*%
%TO.N,+3.3V*%
X152000000Y-70540000D03*
%TD*%
D15*
%TO.P,J3,SH,SHIELD_SH*%
%TO.N,GND*%
X150640000Y-86570000D03*
D16*
X154820000Y-86570000D03*
D15*
X150640000Y-77930000D03*
D16*
X154820000Y-77930000D03*
%TD*%
D13*
%TO.P,J2,1,Pin_1_1*%
%TO.N,+5V*%
X115580000Y-57500000D03*
D14*
%TO.P,J2,2,Pin_2_2*%
%TO.N,GND*%
X113040000Y-57500000D03*
%TO.P,J2,3,Pin_3_3*%
%TO.N,/IMU_SCL*%
X110500000Y-57500000D03*
%TO.P,J2,4,Pin_4_4*%
%TO.N,/IMU_SDA*%
X107960000Y-57500000D03*
%TO.P,J2,5,Pin_5_5*%
%TO.N,unconnected-(J2-Pin_5-Pad5)*%
X105420000Y-57500000D03*
%TO.P,J2,6,Pin_6_6*%
%TO.N,unconnected-(J2-Pin_6-Pad6)*%
X102880000Y-57500000D03*
%TO.P,J2,7,Pin_7_7*%
%TO.N,unconnected-(J2-Pin_7-Pad7)*%
X100340000Y-57500000D03*
%TO.P,J2,8,Pin_8_8*%
%TO.N,/IMU_INT*%
X97800000Y-57500000D03*
%TD*%
D17*
%TO.P,J9,1,Pin_1_1*%
%TO.N,+3.3V*%
X134000000Y-110000000D03*
D18*
%TO.P,J9,2,Pin_2_2*%
%TO.N,GND*%
X134000000Y-107500000D03*
%TO.P,J9,3,Pin_3_3*%
%TO.N,/MT_PWM*%
X134000000Y-105000000D03*
%TO.P,J9,4,Pin_4_4*%
%TO.N,/MT_SCL*%
X134000000Y-102500000D03*
%TO.P,J9,5,Pin_5_5*%
%TO.N,/MT_SDA*%
X134000000Y-100000000D03*
%TD*%
D13*
%TO.P,J1,1,Pin_1_1*%
%TO.N,+3.3V*%
X145000000Y-56000000D03*
D14*
%TO.P,J1,2,Pin_2_2*%
%TO.N,/SWCLK*%
X147540000Y-56000000D03*
%TO.P,J1,3,Pin_3_3*%
%TO.N,GND*%
X150080000Y-56000000D03*
%TO.P,J1,4,Pin_4_4*%
%TO.N,/SWDIO*%
X152620000Y-56000000D03*
%TD*%
D17*
%TO.P,J8,1,Pin_1_1*%
%TO.N,+3.3V*%
X145500000Y-72000000D03*
D18*
%TO.P,J8,2,Pin_2_2*%
%TO.N,/ENC_A*%
X145500000Y-69500000D03*
%TO.P,J8,3,Pin_3_3*%
%TO.N,/ENC_B*%
X145500000Y-67000000D03*
%TO.P,J8,4,Pin_4_4*%
%TO.N,GND*%
X145500000Y-64500000D03*
%TD*%
D12*
%TO.P,J7,1,Pin_1_1*%
%TO.N,/MD_BO1*%
X153525000Y-93250000D03*
D11*
%TO.P,J7,2,Pin_2_2*%
%TO.N,/MD_BO2*%
X153525000Y-95750000D03*
%TD*%
D19*
%TO.P,C24,1,~_1*%
%TO.N,+3.3V*%
X115500000Y-90500000D03*
%TO.P,C24,2,~_2*%
%TO.N,GND*%
X113425000Y-90500000D03*
%TD*%
D20*
%TO.N,GND*%
X156500000Y-60500000D03*
X122000000Y-110500000D03*
X111000000Y-101000000D03*
X108000000Y-92000000D03*
X113000000Y-77000000D03*
X153000000Y-54500000D03*
X149000000Y-65000000D03*
X125500000Y-69500000D03*
X124500000Y-88000000D03*
X99500000Y-73000000D03*
X113000000Y-55000000D03*
X133000000Y-54000000D03*
X133000000Y-61000000D03*
X140000000Y-59500000D03*
X121500000Y-63000000D03*
X120500000Y-54500000D03*
X152820000Y-88070000D03*
X152820000Y-76570000D03*
X148320000Y-78070000D03*
X148320000Y-85570000D03*
X140820000Y-82570000D03*
X142820000Y-79070000D03*
X142820000Y-84570000D03*
X137000000Y-75000000D03*
X130500000Y-75500000D03*
X126500000Y-80500000D03*
X119000000Y-79500000D03*
X119000000Y-88000000D03*
X118000000Y-85500000D03*
X120500000Y-106500000D03*
X133500000Y-107500000D03*
X153525000Y-117250000D03*
X147525000Y-118250000D03*
X146500000Y-124000000D03*
X146500000Y-116500000D03*
X133500000Y-117000000D03*
X117500000Y-110000000D03*
X111500000Y-110500000D03*
%TD*%
%TA.AperFunction,Conductor*%
%TO.N,GND*%
G36*
X156442539Y-53520185D02*
G01*
X156488294Y-53572989D01*
X156499500Y-53624500D01*
X156499500Y-128575500D01*
X156479815Y-128642539D01*
X156427011Y-128688294D01*
X156375500Y-128699500D01*
X95624500Y-128699500D01*
X95557461Y-128679815D01*
X95511706Y-128627011D01*
X95500500Y-128575500D01*
X95500500Y-99893713D01*
X132524500Y-99893713D01*
X132524500Y-100106286D01*
X132557753Y-100316239D01*
X132623444Y-100518414D01*
X132719951Y-100707820D01*
X132844890Y-100879786D01*
X132995209Y-101030105D01*
X132995214Y-101030109D01*
X133159793Y-101149682D01*
X133202459Y-101205011D01*
X133208438Y-101274625D01*
X133175833Y-101336420D01*
X133159793Y-101350318D01*
X132995214Y-101469890D01*
X132995209Y-101469894D01*
X132844890Y-101620213D01*
X132719951Y-101792179D01*
X132623444Y-101981585D01*
X132557753Y-102183760D01*
X132524500Y-102393713D01*
X132524500Y-102606287D01*
X132557754Y-102816243D01*
X132605055Y-102961821D01*
X132623444Y-103018414D01*
X132719951Y-103207820D01*
X132844890Y-103379786D01*
X132995209Y-103530105D01*
X132995214Y-103530109D01*
X133159793Y-103649682D01*
X133202459Y-103705011D01*
X133208438Y-103774625D01*
X133175833Y-103836420D01*
X133159793Y-103850318D01*
X132995214Y-103969890D01*
X132995209Y-103969894D01*
X132844890Y-104120213D01*
X132719951Y-104292179D01*
X132623444Y-104481585D01*
X132557753Y-104683760D01*
X132524500Y-104893713D01*
X132524500Y-105106287D01*
X132557754Y-105316243D01*
X132598846Y-105442712D01*
X132623444Y-105518414D01*
X132719951Y-105707820D01*
X132844890Y-105879786D01*
X132995209Y-106030105D01*
X132995214Y-106030109D01*
X133160218Y-106149991D01*
X133202884Y-106205320D01*
X133208863Y-106274934D01*
X133176258Y-106336729D01*
X133160218Y-106350627D01*
X132995540Y-106470272D01*
X132995535Y-106470276D01*
X132845276Y-106620535D01*
X132845272Y-106620540D01*
X132720379Y-106792442D01*
X132623904Y-106981782D01*
X132558242Y-107183870D01*
X132558242Y-107183873D01*
X132547769Y-107250000D01*
X133595854Y-107250000D01*
X133557370Y-107316657D01*
X133525000Y-107437465D01*
X133525000Y-107562535D01*
X133557370Y-107683343D01*
X133595854Y-107750000D01*
X132547769Y-107750000D01*
X132558242Y-107816126D01*
X132558242Y-107816129D01*
X132623904Y-108018217D01*
X132720379Y-108207557D01*
X132845272Y-108379459D01*
X132845276Y-108379464D01*
X132984143Y-108518331D01*
X133017628Y-108579654D01*
X133012644Y-108649346D01*
X132970772Y-108705279D01*
X132961559Y-108711551D01*
X132806342Y-108807289D01*
X132682289Y-108931342D01*
X132590187Y-109080663D01*
X132590186Y-109080666D01*
X132535001Y-109247203D01*
X132535001Y-109247204D01*
X132535000Y-109247204D01*
X132524500Y-109349983D01*
X132524500Y-110650001D01*
X132524501Y-110650018D01*
X132535000Y-110752796D01*
X132535001Y-110752799D01*
X132567205Y-110849983D01*
X132590186Y-110919334D01*
X132682288Y-111068656D01*
X132806344Y-111192712D01*
X132955666Y-111284814D01*
X133122203Y-111339999D01*
X133224991Y-111350500D01*
X134775008Y-111350499D01*
X134877797Y-111339999D01*
X135044334Y-111284814D01*
X135193656Y-111192712D01*
X135317712Y-111068656D01*
X135409814Y-110919334D01*
X135432795Y-110849983D01*
X151999500Y-110849983D01*
X151999500Y-112150001D01*
X151999501Y-112150018D01*
X152010000Y-112252796D01*
X152010001Y-112252799D01*
X152065185Y-112419331D01*
X152065187Y-112419336D01*
X152157289Y-112568657D01*
X152281344Y-112692712D01*
X152436558Y-112788448D01*
X152483283Y-112840396D01*
X152494506Y-112909358D01*
X152466663Y-112973441D01*
X152459144Y-112981668D01*
X152320271Y-113120541D01*
X152195379Y-113292442D01*
X152098904Y-113481782D01*
X152033242Y-113683870D01*
X152033242Y-113683873D01*
X152022769Y-113750000D01*
X153066988Y-113750000D01*
X153034075Y-113807007D01*
X153000000Y-113934174D01*
X153000000Y-114065826D01*
X153034075Y-114192993D01*
X153066988Y-114250000D01*
X152022769Y-114250000D01*
X152033242Y-114316126D01*
X152033242Y-114316129D01*
X152098904Y-114518217D01*
X152195379Y-114707557D01*
X152320272Y-114879459D01*
X152320276Y-114879464D01*
X152470535Y-115029723D01*
X152470540Y-115029727D01*
X152642442Y-115154620D01*
X152831782Y-115251095D01*
X153033870Y-115316757D01*
X153243754Y-115350000D01*
X153250000Y-115350000D01*
X153250000Y-114433012D01*
X153307007Y-114465925D01*
X153434174Y-114500000D01*
X153565826Y-114500000D01*
X153692993Y-114465925D01*
X153750000Y-114433012D01*
X153750000Y-115350000D01*
X153756246Y-115350000D01*
X153966127Y-115316757D01*
X153966130Y-115316757D01*
X154168217Y-115251095D01*
X154357557Y-115154620D01*
X154529459Y-115029727D01*
X154529464Y-115029723D01*
X154679723Y-114879464D01*
X154679727Y-114879459D01*
X154804620Y-114707557D01*
X154901095Y-114518217D01*
X154966757Y-114316129D01*
X154966757Y-114316126D01*
X154977231Y-114250000D01*
X153933012Y-114250000D01*
X153965925Y-114192993D01*
X154000000Y-114065826D01*
X154000000Y-113934174D01*
X153965925Y-113807007D01*
X153933012Y-113750000D01*
X154977231Y-113750000D01*
X154966757Y-113683873D01*
X154966757Y-113683870D01*
X154901095Y-113481782D01*
X154804620Y-113292442D01*
X154679727Y-113120540D01*
X154679723Y-113120535D01*
X154540856Y-112981668D01*
X154507371Y-112920345D01*
X154512355Y-112850653D01*
X154554227Y-112794720D01*
X154563441Y-112788448D01*
X154569331Y-112784814D01*
X154569334Y-112784814D01*
X154718656Y-112692712D01*
X154842712Y-112568656D01*
X154934814Y-112419334D01*
X154989999Y-112252797D01*
X155000500Y-112150009D01*
X155000499Y-110849992D01*
X154989999Y-110747203D01*
X154934814Y-110580666D01*
X154842712Y-110431344D01*
X154718656Y-110307288D01*
X154569334Y-110215186D01*
X154402797Y-110160001D01*
X154402795Y-110160000D01*
X154300010Y-110149500D01*
X152699998Y-110149500D01*
X152699981Y-110149501D01*
X152597203Y-110160000D01*
X152597200Y-110160001D01*
X152430668Y-110215185D01*
X152430663Y-110215187D01*
X152281342Y-110307289D01*
X152157289Y-110431342D01*
X152065187Y-110580663D01*
X152065186Y-110580666D01*
X152010001Y-110747203D01*
X152010001Y-110747204D01*
X152010000Y-110747204D01*
X151999500Y-110849983D01*
X135432795Y-110849983D01*
X135464999Y-110752797D01*
X135475500Y-110650009D01*
X135475499Y-109349992D01*
X135464999Y-109247203D01*
X135409814Y-109080666D01*
X135317712Y-108931344D01*
X135193656Y-108807288D01*
X135044334Y-108715186D01*
X135044332Y-108715185D01*
X135038440Y-108711551D01*
X134991716Y-108659603D01*
X134980493Y-108590641D01*
X135008337Y-108526558D01*
X135015856Y-108518330D01*
X135154728Y-108379458D01*
X135279620Y-108207557D01*
X135376095Y-108018217D01*
X135441757Y-107816129D01*
X135441757Y-107816126D01*
X135452231Y-107750000D01*
X134404146Y-107750000D01*
X134442630Y-107683343D01*
X134475000Y-107562535D01*
X134475000Y-107437465D01*
X134442630Y-107316657D01*
X134404146Y-107250000D01*
X135452231Y-107250000D01*
X135441757Y-107183873D01*
X135441757Y-107183870D01*
X135376095Y-106981782D01*
X135279620Y-106792442D01*
X135154727Y-106620540D01*
X135154723Y-106620535D01*
X135004464Y-106470276D01*
X135004459Y-106470272D01*
X134839781Y-106350627D01*
X134797115Y-106295297D01*
X134791136Y-106225684D01*
X134823741Y-106163889D01*
X134839776Y-106149994D01*
X135004792Y-106030104D01*
X135155104Y-105879792D01*
X135155106Y-105879788D01*
X135155109Y-105879786D01*
X135280048Y-105707820D01*
X135280047Y-105707820D01*
X135280051Y-105707816D01*
X135376557Y-105518412D01*
X135442246Y-105316243D01*
X135475500Y-105106287D01*
X135475500Y-104893713D01*
X135442246Y-104683757D01*
X135376557Y-104481588D01*
X135280051Y-104292184D01*
X135280049Y-104292181D01*
X135280048Y-104292179D01*
X135155109Y-104120213D01*
X135004792Y-103969896D01*
X135004784Y-103969890D01*
X134840204Y-103850316D01*
X134797540Y-103794989D01*
X134791561Y-103725376D01*
X134824166Y-103663580D01*
X134840199Y-103649686D01*
X135004792Y-103530104D01*
X135155104Y-103379792D01*
X135155106Y-103379788D01*
X135155109Y-103379786D01*
X135280048Y-103207820D01*
X135280047Y-103207820D01*
X135280051Y-103207816D01*
X135376557Y-103018412D01*
X135442246Y-102816243D01*
X135475500Y-102606287D01*
X135475500Y-102393713D01*
X135442246Y-102183757D01*
X135376557Y-101981588D01*
X135280051Y-101792184D01*
X135273532Y-101783211D01*
X135221596Y-101711726D01*
X135172182Y-101643713D01*
X152024500Y-101643713D01*
X152024500Y-101856286D01*
X152057753Y-102066239D01*
X152123444Y-102268414D01*
X152219951Y-102457820D01*
X152344890Y-102629786D01*
X152483705Y-102768601D01*
X152517190Y-102829924D01*
X152512206Y-102899616D01*
X152470334Y-102955549D01*
X152461121Y-102961821D01*
X152306342Y-103057289D01*
X152182289Y-103181342D01*
X152090187Y-103330663D01*
X152090186Y-103330666D01*
X152035001Y-103497203D01*
X152035001Y-103497204D01*
X152035000Y-103497204D01*
X152024500Y-103599983D01*
X152024500Y-104900001D01*
X152024501Y-104900018D01*
X152035000Y-105002796D01*
X152035001Y-105002799D01*
X152069294Y-105106286D01*
X152090186Y-105169334D01*
X152182288Y-105318656D01*
X152306344Y-105442712D01*
X152455666Y-105534814D01*
X152622203Y-105589999D01*
X152724991Y-105600500D01*
X154325008Y-105600499D01*
X154427797Y-105589999D01*
X154594334Y-105534814D01*
X154743656Y-105442712D01*
X154867712Y-105318656D01*
X154959814Y-105169334D01*
X155014999Y-105002797D01*
X155025500Y-104900009D01*
X155025499Y-103599992D01*
X155014999Y-103497203D01*
X154959814Y-103330666D01*
X154867712Y-103181344D01*
X154743656Y-103057288D01*
X154594334Y-102965186D01*
X154594333Y-102965185D01*
X154588878Y-102961821D01*
X154542154Y-102909873D01*
X154530931Y-102840910D01*
X154558775Y-102776828D01*
X154566272Y-102768623D01*
X154705104Y-102629792D01*
X154830051Y-102457816D01*
X154926557Y-102268412D01*
X154992246Y-102066243D01*
X155025500Y-101856287D01*
X155025500Y-101643713D01*
X154992246Y-101433757D01*
X154926557Y-101231588D01*
X154830051Y-101042184D01*
X154830049Y-101042181D01*
X154830048Y-101042179D01*
X154705109Y-100870213D01*
X154554786Y-100719890D01*
X154382820Y-100594951D01*
X154193414Y-100498444D01*
X154193413Y-100498443D01*
X154193412Y-100498443D01*
X153991243Y-100432754D01*
X153991241Y-100432753D01*
X153991240Y-100432753D01*
X153829957Y-100407208D01*
X153781287Y-100399500D01*
X153268713Y-100399500D01*
X153220042Y-100407208D01*
X153058760Y-100432753D01*
X152856585Y-100498444D01*
X152667179Y-100594951D01*
X152495213Y-100719890D01*
X152344890Y-100870213D01*
X152219951Y-101042179D01*
X152123444Y-101231585D01*
X152057753Y-101433760D01*
X152024500Y-101643713D01*
X135172182Y-101643713D01*
X135155109Y-101620213D01*
X135004792Y-101469896D01*
X135004784Y-101469890D01*
X134840204Y-101350316D01*
X134797540Y-101294989D01*
X134791561Y-101225376D01*
X134824166Y-101163580D01*
X134840199Y-101149686D01*
X135004792Y-101030104D01*
X135155104Y-100879792D01*
X135155106Y-100879788D01*
X135155109Y-100879786D01*
X135280048Y-100707820D01*
X135280047Y-100707820D01*
X135280051Y-100707816D01*
X135376557Y-100518412D01*
X135442246Y-100316243D01*
X135475500Y-100106287D01*
X135475500Y-99893713D01*
X135442246Y-99683757D01*
X135376557Y-99481588D01*
X135280051Y-99292184D01*
X135280049Y-99292181D01*
X135280048Y-99292179D01*
X135155109Y-99120213D01*
X135004786Y-98969890D01*
X134832820Y-98844951D01*
X134643414Y-98748444D01*
X134643413Y-98748443D01*
X134643412Y-98748443D01*
X134441243Y-98682754D01*
X134441241Y-98682753D01*
X134441240Y-98682753D01*
X134279957Y-98657208D01*
X134231287Y-98649500D01*
X133768713Y-98649500D01*
X133720042Y-98657208D01*
X133558760Y-98682753D01*
X133356585Y-98748444D01*
X133167179Y-98844951D01*
X132995213Y-98969890D01*
X132844890Y-99120213D01*
X132719951Y-99292179D01*
X132623444Y-99481585D01*
X132557753Y-99683760D01*
X132524500Y-99893713D01*
X95500500Y-99893713D01*
X95500500Y-92599983D01*
X152024500Y-92599983D01*
X152024500Y-93900001D01*
X152024501Y-93900018D01*
X152035000Y-94002796D01*
X152035001Y-94002799D01*
X152090185Y-94169331D01*
X152090187Y-94169336D01*
X152182289Y-94318657D01*
X152306344Y-94442712D01*
X152461120Y-94538178D01*
X152507845Y-94590126D01*
X152519068Y-94659088D01*
X152491224Y-94723171D01*
X152483706Y-94731398D01*
X152344889Y-94870215D01*
X152219951Y-95042179D01*
X152123444Y-95231585D01*
X152057753Y-95433760D01*
X152024500Y-95643713D01*
X152024500Y-95856286D01*
X152057753Y-96066239D01*
X152123444Y-96268414D01*
X152219951Y-96457820D01*
X152344890Y-96629786D01*
X152495213Y-96780109D01*
X152667179Y-96905048D01*
X152667181Y-96905049D01*
X152667184Y-96905051D01*
X152856588Y-97001557D01*
X153058757Y-97067246D01*
X153268713Y-97100500D01*
X153268714Y-97100500D01*
X153781286Y-97100500D01*
X153781287Y-97100500D01*
X153991243Y-97067246D01*
X154193412Y-97001557D01*
X154382816Y-96905051D01*
X154404789Y-96889086D01*
X154554786Y-96780109D01*
X154554788Y-96780106D01*
X154554792Y-96780104D01*
X154705104Y-96629792D01*
X154705106Y-96629788D01*
X154705109Y-96629786D01*
X154830048Y-96457820D01*
X154830047Y-96457820D01*
X154830051Y-96457816D01*
X154926557Y-96268412D01*
X154992246Y-96066243D01*
X155025500Y-95856287D01*
X155025500Y-95643713D01*
X154992246Y-95433757D01*
X154926557Y-95231588D01*
X154830051Y-95042184D01*
X154830049Y-95042181D01*
X154830048Y-95042179D01*
X154705109Y-94870213D01*
X154566294Y-94731398D01*
X154532809Y-94670075D01*
X154537793Y-94600383D01*
X154579665Y-94544450D01*
X154588879Y-94538178D01*
X154594331Y-94534814D01*
X154594334Y-94534814D01*
X154743656Y-94442712D01*
X154867712Y-94318656D01*
X154959814Y-94169334D01*
X155014999Y-94002797D01*
X155025500Y-93900009D01*
X155025499Y-92599992D01*
X155014999Y-92497203D01*
X154959814Y-92330666D01*
X154867712Y-92181344D01*
X154743656Y-92057288D01*
X154594334Y-91965186D01*
X154427797Y-91910001D01*
X154427795Y-91910000D01*
X154325010Y-91899500D01*
X152724998Y-91899500D01*
X152724981Y-91899501D01*
X152622203Y-91910000D01*
X152622200Y-91910001D01*
X152455668Y-91965185D01*
X152455663Y-91965187D01*
X152306342Y-92057289D01*
X152182289Y-92181342D01*
X152090187Y-92330663D01*
X152090186Y-92330666D01*
X152035001Y-92497203D01*
X152035001Y-92497204D01*
X152035000Y-92497204D01*
X152024500Y-92599983D01*
X95500500Y-92599983D01*
X95500500Y-91024986D01*
X112337501Y-91024986D01*
X112347994Y-91127697D01*
X112403141Y-91294119D01*
X112403143Y-91294124D01*
X112495184Y-91443345D01*
X112619154Y-91567315D01*
X112768375Y-91659356D01*
X112768380Y-91659358D01*
X112934802Y-91714505D01*
X112934809Y-91714506D01*
X113037519Y-91724999D01*
X113174999Y-91724999D01*
X113175000Y-91724998D01*
X113175000Y-90750000D01*
X112337501Y-90750000D01*
X112337501Y-91024986D01*
X95500500Y-91024986D01*
X95500500Y-89975013D01*
X112337500Y-89975013D01*
X112337500Y-90250000D01*
X113175000Y-90250000D01*
X113175000Y-89275000D01*
X113675000Y-89275000D01*
X113675000Y-91724999D01*
X113812472Y-91724999D01*
X113812486Y-91724998D01*
X113915197Y-91714505D01*
X114081619Y-91659358D01*
X114081624Y-91659356D01*
X114230845Y-91567315D01*
X114354818Y-91443342D01*
X114356665Y-91440348D01*
X114358469Y-91438724D01*
X114359298Y-91437677D01*
X114359476Y-91437818D01*
X114408610Y-91393621D01*
X114477573Y-91382396D01*
X114541656Y-91410236D01*
X114567743Y-91440341D01*
X114569788Y-91443656D01*
X114693844Y-91567712D01*
X114843166Y-91659814D01*
X115009703Y-91714999D01*
X115112491Y-91725500D01*
X115887508Y-91725499D01*
X115887516Y-91725498D01*
X115887519Y-91725498D01*
X115943802Y-91719748D01*
X115990297Y-91714999D01*
X116156834Y-91659814D01*
X116306156Y-91567712D01*
X116430212Y-91443656D01*
X116522314Y-91294334D01*
X116577499Y-91127797D01*
X116588000Y-91025009D01*
X116587999Y-89974992D01*
X116577499Y-89872203D01*
X116522314Y-89705666D01*
X116430212Y-89556344D01*
X116306156Y-89432288D01*
X116156834Y-89340186D01*
X115990297Y-89285001D01*
X115990295Y-89285000D01*
X115887510Y-89274500D01*
X115112498Y-89274500D01*
X115112480Y-89274501D01*
X115009703Y-89285000D01*
X115009700Y-89285001D01*
X114843168Y-89340185D01*
X114843163Y-89340187D01*
X114693842Y-89432289D01*
X114569788Y-89556343D01*
X114569783Y-89556349D01*
X114567741Y-89559661D01*
X114565747Y-89561453D01*
X114565307Y-89562011D01*
X114565211Y-89561935D01*
X114515791Y-89606383D01*
X114446828Y-89617602D01*
X114382747Y-89589755D01*
X114356668Y-89559656D01*
X114354819Y-89556659D01*
X114354816Y-89556655D01*
X114230845Y-89432684D01*
X114081624Y-89340643D01*
X114081619Y-89340641D01*
X113915197Y-89285494D01*
X113915190Y-89285493D01*
X113812486Y-89275000D01*
X113675000Y-89275000D01*
X113175000Y-89275000D01*
X113037527Y-89275000D01*
X113037512Y-89275001D01*
X112934802Y-89285494D01*
X112768380Y-89340641D01*
X112768375Y-89340643D01*
X112619154Y-89432684D01*
X112495184Y-89556654D01*
X112403143Y-89705875D01*
X112403141Y-89705880D01*
X112347994Y-89872302D01*
X112347993Y-89872309D01*
X112337500Y-89975013D01*
X95500500Y-89975013D01*
X95500500Y-86320000D01*
X149120138Y-86320000D01*
X149923012Y-86320000D01*
X149905795Y-86329940D01*
X149849940Y-86385795D01*
X149810444Y-86454204D01*
X149790000Y-86530504D01*
X149790000Y-86609496D01*
X149810444Y-86685796D01*
X149849940Y-86754205D01*
X149905795Y-86810060D01*
X149923012Y-86820000D01*
X149120138Y-86820000D01*
X149128430Y-86861690D01*
X149128430Y-86861692D01*
X149203807Y-87043671D01*
X149203814Y-87043684D01*
X149313248Y-87207462D01*
X149313251Y-87207466D01*
X149452533Y-87346748D01*
X149452537Y-87346751D01*
X149616315Y-87456185D01*
X149616328Y-87456192D01*
X149798306Y-87531569D01*
X149798318Y-87531572D01*
X149991504Y-87569999D01*
X149991508Y-87570000D01*
X150390000Y-87570000D01*
X150390000Y-86870000D01*
X150890000Y-86870000D01*
X150890000Y-87570000D01*
X151288492Y-87570000D01*
X151288495Y-87569999D01*
X151481681Y-87531572D01*
X151481693Y-87531569D01*
X151663671Y-87456192D01*
X151663684Y-87456185D01*
X151827462Y-87346751D01*
X151827466Y-87346748D01*
X151966748Y-87207466D01*
X151966751Y-87207462D01*
X152076185Y-87043684D01*
X152076192Y-87043671D01*
X152151569Y-86861692D01*
X152151569Y-86861690D01*
X152159862Y-86820000D01*
X151356988Y-86820000D01*
X151374205Y-86810060D01*
X151430060Y-86754205D01*
X151469556Y-86685796D01*
X151490000Y-86609496D01*
X151490000Y-86530504D01*
X151469556Y-86454204D01*
X151430060Y-86385795D01*
X151374205Y-86329940D01*
X151356988Y-86320000D01*
X152159862Y-86320000D01*
X153550138Y-86320000D01*
X154353012Y-86320000D01*
X154335795Y-86329940D01*
X154279940Y-86385795D01*
X154240444Y-86454204D01*
X154220000Y-86530504D01*
X154220000Y-86609496D01*
X154240444Y-86685796D01*
X154279940Y-86754205D01*
X154335795Y-86810060D01*
X154353012Y-86820000D01*
X153550138Y-86820000D01*
X153558430Y-86861690D01*
X153558430Y-86861692D01*
X153633807Y-87043671D01*
X153633814Y-87043684D01*
X153743248Y-87207462D01*
X153743251Y-87207466D01*
X153882533Y-87346748D01*
X153882537Y-87346751D01*
X154046315Y-87456185D01*
X154046328Y-87456192D01*
X154228306Y-87531569D01*
X154228318Y-87531572D01*
X154421504Y-87569999D01*
X154421508Y-87570000D01*
X154570000Y-87570000D01*
X154570000Y-86870000D01*
X155070000Y-86870000D01*
X155070000Y-87570000D01*
X155218492Y-87570000D01*
X155218495Y-87569999D01*
X155411681Y-87531572D01*
X155411693Y-87531569D01*
X155593671Y-87456192D01*
X155593684Y-87456185D01*
X155757462Y-87346751D01*
X155757466Y-87346748D01*
X155896748Y-87207466D01*
X155896751Y-87207462D01*
X156006185Y-87043684D01*
X156006192Y-87043671D01*
X156081569Y-86861692D01*
X156081569Y-86861690D01*
X156089862Y-86820000D01*
X155286988Y-86820000D01*
X155304205Y-86810060D01*
X155360060Y-86754205D01*
X155399556Y-86685796D01*
X155420000Y-86609496D01*
X155420000Y-86530504D01*
X155399556Y-86454204D01*
X155360060Y-86385795D01*
X155304205Y-86329940D01*
X155286988Y-86320000D01*
X156089862Y-86320000D01*
X156081569Y-86278309D01*
X156081569Y-86278307D01*
X156006192Y-86096328D01*
X156006185Y-86096315D01*
X155896751Y-85932537D01*
X155896748Y-85932533D01*
X155757466Y-85793251D01*
X155757462Y-85793248D01*
X155593684Y-85683814D01*
X155593671Y-85683807D01*
X155411693Y-85608430D01*
X155411681Y-85608427D01*
X155218495Y-85570000D01*
X155070000Y-85570000D01*
X155070000Y-86270000D01*
X154570000Y-86270000D01*
X154570000Y-85570000D01*
X154421504Y-85570000D01*
X154228318Y-85608427D01*
X154228306Y-85608430D01*
X154046328Y-85683807D01*
X154046315Y-85683814D01*
X153882537Y-85793248D01*
X153882533Y-85793251D01*
X153743251Y-85932533D01*
X153743248Y-85932537D01*
X153633814Y-86096315D01*
X153633807Y-86096328D01*
X153558430Y-86278307D01*
X153558430Y-86278309D01*
X153550138Y-86320000D01*
X152159862Y-86320000D01*
X152151569Y-86278309D01*
X152151569Y-86278307D01*
X152076192Y-86096328D01*
X152076185Y-86096315D01*
X151966751Y-85932537D01*
X151966748Y-85932533D01*
X151827466Y-85793251D01*
X151827462Y-85793248D01*
X151663684Y-85683814D01*
X151663671Y-85683807D01*
X151481693Y-85608430D01*
X151481681Y-85608427D01*
X151288495Y-85570000D01*
X150890000Y-85570000D01*
X150890000Y-86270000D01*
X150390000Y-86270000D01*
X150390000Y-85570000D01*
X149991504Y-85570000D01*
X149798318Y-85608427D01*
X149798306Y-85608430D01*
X149616328Y-85683807D01*
X149616315Y-85683814D01*
X149452537Y-85793248D01*
X149452533Y-85793251D01*
X149313251Y-85932533D01*
X149313248Y-85932537D01*
X149203814Y-86096315D01*
X149203807Y-86096328D01*
X149128430Y-86278307D01*
X149128430Y-86278309D01*
X149120138Y-86320000D01*
X95500500Y-86320000D01*
X95500500Y-77680000D01*
X149120138Y-77680000D01*
X149923012Y-77680000D01*
X149905795Y-77689940D01*
X149849940Y-77745795D01*
X149810444Y-77814204D01*
X149790000Y-77890504D01*
X149790000Y-77969496D01*
X149810444Y-78045796D01*
X149849940Y-78114205D01*
X149905795Y-78170060D01*
X149923012Y-78180000D01*
X149120138Y-78180000D01*
X149128430Y-78221690D01*
X149128430Y-78221692D01*
X149203807Y-78403671D01*
X149203814Y-78403684D01*
X149313248Y-78567462D01*
X149313251Y-78567466D01*
X149452533Y-78706748D01*
X149452537Y-78706751D01*
X149616315Y-78816185D01*
X149616328Y-78816192D01*
X149798306Y-78891569D01*
X149798318Y-78891572D01*
X149991504Y-78929999D01*
X149991508Y-78930000D01*
X150390000Y-78930000D01*
X150390000Y-78230000D01*
X150890000Y-78230000D01*
X150890000Y-78930000D01*
X151288492Y-78930000D01*
X151288495Y-78929999D01*
X151481681Y-78891572D01*
X151481693Y-78891569D01*
X151663671Y-78816192D01*
X151663684Y-78816185D01*
X151827462Y-78706751D01*
X151827466Y-78706748D01*
X151966748Y-78567466D01*
X151966751Y-78567462D01*
X152076185Y-78403684D01*
X152076192Y-78403671D01*
X152151569Y-78221692D01*
X152151569Y-78221690D01*
X152159862Y-78180000D01*
X151356988Y-78180000D01*
X151374205Y-78170060D01*
X151430060Y-78114205D01*
X151469556Y-78045796D01*
X151490000Y-77969496D01*
X151490000Y-77890504D01*
X151469556Y-77814204D01*
X151430060Y-77745795D01*
X151374205Y-77689940D01*
X151356988Y-77680000D01*
X152159862Y-77680000D01*
X153550138Y-77680000D01*
X154353012Y-77680000D01*
X154335795Y-77689940D01*
X154279940Y-77745795D01*
X154240444Y-77814204D01*
X154220000Y-77890504D01*
X154220000Y-77969496D01*
X154240444Y-78045796D01*
X154279940Y-78114205D01*
X154335795Y-78170060D01*
X154353012Y-78180000D01*
X153550138Y-78180000D01*
X153558430Y-78221690D01*
X153558430Y-78221692D01*
X153633807Y-78403671D01*
X153633814Y-78403684D01*
X153743248Y-78567462D01*
X153743251Y-78567466D01*
X153882533Y-78706748D01*
X153882537Y-78706751D01*
X154046315Y-78816185D01*
X154046328Y-78816192D01*
X154228306Y-78891569D01*
X154228318Y-78891572D01*
X154421504Y-78929999D01*
X154421508Y-78930000D01*
X154570000Y-78930000D01*
X154570000Y-78230000D01*
X155070000Y-78230000D01*
X155070000Y-78930000D01*
X155218492Y-78930000D01*
X155218495Y-78929999D01*
X155411681Y-78891572D01*
X155411693Y-78891569D01*
X155593671Y-78816192D01*
X155593684Y-78816185D01*
X155757462Y-78706751D01*
X155757466Y-78706748D01*
X155896748Y-78567466D01*
X155896751Y-78567462D01*
X156006185Y-78403684D01*
X156006192Y-78403671D01*
X156081569Y-78221692D01*
X156081569Y-78221690D01*
X156089862Y-78180000D01*
X155286988Y-78180000D01*
X155304205Y-78170060D01*
X155360060Y-78114205D01*
X155399556Y-78045796D01*
X155420000Y-77969496D01*
X155420000Y-77890504D01*
X155399556Y-77814204D01*
X155360060Y-77745795D01*
X155304205Y-77689940D01*
X155286988Y-77680000D01*
X156089862Y-77680000D01*
X156081569Y-77638309D01*
X156081569Y-77638307D01*
X156006192Y-77456328D01*
X156006185Y-77456315D01*
X155896751Y-77292537D01*
X155896748Y-77292533D01*
X155757466Y-77153251D01*
X155757462Y-77153248D01*
X155593684Y-77043814D01*
X155593671Y-77043807D01*
X155411693Y-76968430D01*
X155411681Y-76968427D01*
X155218495Y-76930000D01*
X155070000Y-76930000D01*
X155070000Y-77630000D01*
X154570000Y-77630000D01*
X154570000Y-76930000D01*
X154421504Y-76930000D01*
X154228318Y-76968427D01*
X154228306Y-76968430D01*
X154046328Y-77043807D01*
X154046315Y-77043814D01*
X153882537Y-77153248D01*
X153882533Y-77153251D01*
X153743251Y-77292533D01*
X153743248Y-77292537D01*
X153633814Y-77456315D01*
X153633807Y-77456328D01*
X153558430Y-77638307D01*
X153558430Y-77638309D01*
X153550138Y-77680000D01*
X152159862Y-77680000D01*
X152151569Y-77638309D01*
X152151569Y-77638307D01*
X152076192Y-77456328D01*
X152076185Y-77456315D01*
X151966751Y-77292537D01*
X151966748Y-77292533D01*
X151827466Y-77153251D01*
X151827462Y-77153248D01*
X151663684Y-77043814D01*
X151663671Y-77043807D01*
X151481693Y-76968430D01*
X151481681Y-76968427D01*
X151288495Y-76930000D01*
X150890000Y-76930000D01*
X150890000Y-77630000D01*
X150390000Y-77630000D01*
X150390000Y-76930000D01*
X149991504Y-76930000D01*
X149798318Y-76968427D01*
X149798306Y-76968430D01*
X149616328Y-77043807D01*
X149616315Y-77043814D01*
X149452537Y-77153248D01*
X149452533Y-77153251D01*
X149313251Y-77292533D01*
X149313248Y-77292537D01*
X149203814Y-77456315D01*
X149203807Y-77456328D01*
X149128430Y-77638307D01*
X149128430Y-77638309D01*
X149120138Y-77680000D01*
X95500500Y-77680000D01*
X95500500Y-67493995D01*
X122599499Y-67493995D01*
X122626418Y-67629322D01*
X122626421Y-67629332D01*
X122679221Y-67756804D01*
X122679228Y-67756817D01*
X122755885Y-67871541D01*
X122755888Y-67871545D01*
X122853454Y-67969111D01*
X122853458Y-67969114D01*
X122968182Y-68045771D01*
X122968195Y-68045778D01*
X123095667Y-68098578D01*
X123095672Y-68098580D01*
X123095676Y-68098580D01*
X123095677Y-68098581D01*
X123231004Y-68125500D01*
X123231007Y-68125500D01*
X123368995Y-68125500D01*
X123460041Y-68107389D01*
X123504328Y-68098580D01*
X123631811Y-68045775D01*
X123746542Y-67969114D01*
X123844114Y-67871542D01*
X123920775Y-67756811D01*
X123973580Y-67629328D01*
X123991677Y-67538349D01*
X124000500Y-67493995D01*
X125599499Y-67493995D01*
X125626418Y-67629322D01*
X125626421Y-67629332D01*
X125679221Y-67756804D01*
X125679228Y-67756817D01*
X125755885Y-67871541D01*
X125755888Y-67871545D01*
X125853454Y-67969111D01*
X125853458Y-67969114D01*
X125968182Y-68045771D01*
X125968195Y-68045778D01*
X126095667Y-68098578D01*
X126095672Y-68098580D01*
X126095676Y-68098580D01*
X126095677Y-68098581D01*
X126231004Y-68125500D01*
X126231007Y-68125500D01*
X126368995Y-68125500D01*
X126460041Y-68107389D01*
X126504328Y-68098580D01*
X126631811Y-68045775D01*
X126709305Y-67993995D01*
X134549499Y-67993995D01*
X134576418Y-68129322D01*
X134576421Y-68129332D01*
X134629221Y-68256804D01*
X134629228Y-68256817D01*
X134705885Y-68371541D01*
X134705888Y-68371545D01*
X134803454Y-68469111D01*
X134803458Y-68469114D01*
X134918182Y-68545771D01*
X134918195Y-68545778D01*
X135045667Y-68598578D01*
X135045672Y-68598580D01*
X135045676Y-68598580D01*
X135045677Y-68598581D01*
X135181004Y-68625500D01*
X135181007Y-68625500D01*
X135318995Y-68625500D01*
X135410041Y-68607389D01*
X135454328Y-68598580D01*
X135581811Y-68545775D01*
X135696542Y-68469114D01*
X135794114Y-68371542D01*
X135870775Y-68256811D01*
X135923580Y-68129328D01*
X135950500Y-67993995D01*
X137549499Y-67993995D01*
X137576418Y-68129322D01*
X137576421Y-68129332D01*
X137629221Y-68256804D01*
X137629228Y-68256817D01*
X137705885Y-68371541D01*
X137705888Y-68371545D01*
X137803454Y-68469111D01*
X137803458Y-68469114D01*
X137918182Y-68545771D01*
X137918195Y-68545778D01*
X138045667Y-68598578D01*
X138045672Y-68598580D01*
X138045676Y-68598580D01*
X138045677Y-68598581D01*
X138181004Y-68625500D01*
X138181007Y-68625500D01*
X138318995Y-68625500D01*
X138410041Y-68607389D01*
X138454328Y-68598580D01*
X138581811Y-68545775D01*
X138696542Y-68469114D01*
X138794114Y-68371542D01*
X138870775Y-68256811D01*
X138923580Y-68129328D01*
X138950500Y-67993993D01*
X138950500Y-67856007D01*
X138950500Y-67856004D01*
X138923581Y-67720677D01*
X138923580Y-67720676D01*
X138923580Y-67720672D01*
X138908291Y-67683760D01*
X138870778Y-67593195D01*
X138870771Y-67593182D01*
X138794114Y-67478458D01*
X138794111Y-67478454D01*
X138696545Y-67380888D01*
X138696541Y-67380885D01*
X138581817Y-67304228D01*
X138581804Y-67304221D01*
X138454332Y-67251421D01*
X138454322Y-67251418D01*
X138318995Y-67224500D01*
X138318993Y-67224500D01*
X138181007Y-67224500D01*
X138181005Y-67224500D01*
X138045677Y-67251418D01*
X138045667Y-67251421D01*
X137918195Y-67304221D01*
X137918182Y-67304228D01*
X137803458Y-67380885D01*
X137803454Y-67380888D01*
X137705888Y-67478454D01*
X137705885Y-67478458D01*
X137629228Y-67593182D01*
X137629221Y-67593195D01*
X137576421Y-67720667D01*
X137576418Y-67720677D01*
X137549500Y-67856004D01*
X137549500Y-67856007D01*
X137549500Y-67993993D01*
X137549500Y-67993995D01*
X137549499Y-67993995D01*
X135950500Y-67993995D01*
X135950500Y-67993993D01*
X135950500Y-67856007D01*
X135950500Y-67856004D01*
X135923581Y-67720677D01*
X135923580Y-67720676D01*
X135923580Y-67720672D01*
X135908291Y-67683760D01*
X135870778Y-67593195D01*
X135870771Y-67593182D01*
X135794114Y-67478458D01*
X135794111Y-67478454D01*
X135696545Y-67380888D01*
X135696541Y-67380885D01*
X135581817Y-67304228D01*
X135581804Y-67304221D01*
X135454332Y-67251421D01*
X135454322Y-67251418D01*
X135318995Y-67224500D01*
X135318993Y-67224500D01*
X135181007Y-67224500D01*
X135181005Y-67224500D01*
X135045677Y-67251418D01*
X135045667Y-67251421D01*
X134918195Y-67304221D01*
X134918182Y-67304228D01*
X134803458Y-67380885D01*
X134803454Y-67380888D01*
X134705888Y-67478454D01*
X134705885Y-67478458D01*
X134629228Y-67593182D01*
X134629221Y-67593195D01*
X134576421Y-67720667D01*
X134576418Y-67720677D01*
X134549500Y-67856004D01*
X134549500Y-67856007D01*
X134549500Y-67993993D01*
X134549500Y-67993995D01*
X134549499Y-67993995D01*
X126709305Y-67993995D01*
X126746542Y-67969114D01*
X126844114Y-67871542D01*
X126874752Y-67825688D01*
X126904597Y-67781024D01*
X126920771Y-67756817D01*
X126920771Y-67756816D01*
X126920775Y-67756811D01*
X126973580Y-67629328D01*
X126991677Y-67538349D01*
X127000500Y-67493995D01*
X127000500Y-67356004D01*
X126973581Y-67220677D01*
X126973580Y-67220676D01*
X126973580Y-67220672D01*
X126931967Y-67120208D01*
X126920778Y-67093195D01*
X126920771Y-67093182D01*
X126844114Y-66978458D01*
X126844111Y-66978454D01*
X126759370Y-66893713D01*
X144024500Y-66893713D01*
X144024500Y-67106286D01*
X144055850Y-67304225D01*
X144057754Y-67316243D01*
X144115509Y-67493995D01*
X144123444Y-67518414D01*
X144219951Y-67707820D01*
X144344890Y-67879786D01*
X144495209Y-68030105D01*
X144495214Y-68030109D01*
X144659793Y-68149682D01*
X144702459Y-68205011D01*
X144708438Y-68274625D01*
X144675833Y-68336420D01*
X144659793Y-68350318D01*
X144495214Y-68469890D01*
X144495209Y-68469894D01*
X144344890Y-68620213D01*
X144219951Y-68792179D01*
X144123444Y-68981585D01*
X144123443Y-68981587D01*
X144123443Y-68981588D01*
X144090598Y-69082672D01*
X144057753Y-69183760D01*
X144047015Y-69251557D01*
X144024500Y-69393713D01*
X144024500Y-69606287D01*
X144057754Y-69816243D01*
X144082285Y-69891742D01*
X144123444Y-70018414D01*
X144219951Y-70207820D01*
X144344890Y-70379786D01*
X144483705Y-70518601D01*
X144517190Y-70579924D01*
X144512206Y-70649616D01*
X144470334Y-70705549D01*
X144461121Y-70711821D01*
X144306342Y-70807289D01*
X144182289Y-70931342D01*
X144090187Y-71080663D01*
X144090186Y-71080666D01*
X144035001Y-71247203D01*
X144035001Y-71247204D01*
X144035000Y-71247204D01*
X144024500Y-71349983D01*
X144024500Y-72650001D01*
X144024501Y-72650018D01*
X144035000Y-72752796D01*
X144035001Y-72752799D01*
X144090185Y-72919331D01*
X144090186Y-72919334D01*
X144182288Y-73068656D01*
X144306344Y-73192712D01*
X144455666Y-73284814D01*
X144622203Y-73339999D01*
X144724991Y-73350500D01*
X146275008Y-73350499D01*
X146377797Y-73339999D01*
X146544334Y-73284814D01*
X146693656Y-73192712D01*
X146817712Y-73068656D01*
X146909814Y-72919334D01*
X146964999Y-72752797D01*
X146975500Y-72650009D01*
X146975499Y-71349992D01*
X146964999Y-71247203D01*
X146909814Y-71080666D01*
X146817712Y-70931344D01*
X146693656Y-70807288D01*
X146544334Y-70715186D01*
X146544333Y-70715185D01*
X146538878Y-70711821D01*
X146492154Y-70659873D01*
X146480931Y-70590910D01*
X146508775Y-70526828D01*
X146516272Y-70518623D01*
X146655104Y-70379792D01*
X146780051Y-70207816D01*
X146876557Y-70018412D01*
X146942246Y-69816243D01*
X146975500Y-69606287D01*
X146975500Y-69393713D01*
X146942246Y-69183757D01*
X146876557Y-68981588D01*
X146780051Y-68792184D01*
X146780049Y-68792181D01*
X146780048Y-68792179D01*
X146655109Y-68620213D01*
X146504792Y-68469896D01*
X146493442Y-68461650D01*
X146340204Y-68350316D01*
X146297540Y-68294989D01*
X146291561Y-68225376D01*
X146324166Y-68163580D01*
X146340199Y-68149686D01*
X146504792Y-68030104D01*
X146655104Y-67879792D01*
X146655106Y-67879788D01*
X146655109Y-67879786D01*
X146780048Y-67707820D01*
X146780047Y-67707820D01*
X146780051Y-67707816D01*
X146876557Y-67518412D01*
X146942246Y-67316243D01*
X146975500Y-67106287D01*
X146975500Y-66893713D01*
X146942246Y-66683757D01*
X146876557Y-66481588D01*
X146780051Y-66292184D01*
X146780049Y-66292181D01*
X146780048Y-66292179D01*
X146655109Y-66120213D01*
X146504790Y-65969894D01*
X146504785Y-65969890D01*
X146339781Y-65850008D01*
X146297115Y-65794678D01*
X146291136Y-65725065D01*
X146323741Y-65663270D01*
X146339781Y-65649371D01*
X146504466Y-65529721D01*
X146654723Y-65379464D01*
X146654727Y-65379459D01*
X146779620Y-65207557D01*
X146876095Y-65018217D01*
X146941757Y-64816129D01*
X146941757Y-64816126D01*
X146952231Y-64750000D01*
X145904146Y-64750000D01*
X145942630Y-64683343D01*
X145975000Y-64562535D01*
X145975000Y-64437465D01*
X145942630Y-64316657D01*
X145904146Y-64250000D01*
X146952231Y-64250000D01*
X146941757Y-64183873D01*
X146941757Y-64183870D01*
X146876095Y-63981782D01*
X146779620Y-63792442D01*
X146654727Y-63620540D01*
X146654723Y-63620535D01*
X146504464Y-63470276D01*
X146504459Y-63470272D01*
X146332557Y-63345379D01*
X146143217Y-63248904D01*
X145941128Y-63183242D01*
X145750000Y-63152969D01*
X145750000Y-64095854D01*
X145683343Y-64057370D01*
X145562535Y-64025000D01*
X145437465Y-64025000D01*
X145316657Y-64057370D01*
X145250000Y-64095854D01*
X145250000Y-63152969D01*
X145058872Y-63183242D01*
X145058869Y-63183242D01*
X144856782Y-63248904D01*
X144667442Y-63345379D01*
X144495540Y-63470272D01*
X144495535Y-63470276D01*
X144345276Y-63620535D01*
X144345272Y-63620540D01*
X144220379Y-63792442D01*
X144123904Y-63981782D01*
X144058242Y-64183870D01*
X144058242Y-64183873D01*
X144047769Y-64250000D01*
X145095854Y-64250000D01*
X145057370Y-64316657D01*
X145025000Y-64437465D01*
X145025000Y-64562535D01*
X145057370Y-64683343D01*
X145095854Y-64750000D01*
X144047769Y-64750000D01*
X144058242Y-64816126D01*
X144058242Y-64816129D01*
X144123904Y-65018217D01*
X144220379Y-65207557D01*
X144345272Y-65379459D01*
X144345276Y-65379464D01*
X144495535Y-65529723D01*
X144495540Y-65529727D01*
X144660218Y-65649372D01*
X144702884Y-65704701D01*
X144708863Y-65774315D01*
X144676258Y-65836110D01*
X144660218Y-65850008D01*
X144495214Y-65969890D01*
X144495209Y-65969894D01*
X144344890Y-66120213D01*
X144219951Y-66292179D01*
X144123444Y-66481585D01*
X144057753Y-66683760D01*
X144024500Y-66893713D01*
X126759370Y-66893713D01*
X126746545Y-66880888D01*
X126746541Y-66880885D01*
X126631817Y-66804228D01*
X126631804Y-66804221D01*
X126504332Y-66751421D01*
X126504322Y-66751418D01*
X126368995Y-66724500D01*
X126368993Y-66724500D01*
X126231007Y-66724500D01*
X126231005Y-66724500D01*
X126095677Y-66751418D01*
X126095667Y-66751421D01*
X125968195Y-66804221D01*
X125968182Y-66804228D01*
X125853458Y-66880885D01*
X125853454Y-66880888D01*
X125755888Y-66978454D01*
X125755885Y-66978458D01*
X125679228Y-67093182D01*
X125679221Y-67093195D01*
X125626421Y-67220667D01*
X125626418Y-67220677D01*
X125599500Y-67356004D01*
X125599500Y-67356007D01*
X125599500Y-67493993D01*
X125599500Y-67493995D01*
X125599499Y-67493995D01*
X124000500Y-67493995D01*
X124000500Y-67356004D01*
X123973581Y-67220677D01*
X123973580Y-67220676D01*
X123973580Y-67220672D01*
X123931967Y-67120208D01*
X123920778Y-67093195D01*
X123920771Y-67093182D01*
X123844114Y-66978458D01*
X123844111Y-66978454D01*
X123746545Y-66880888D01*
X123746541Y-66880885D01*
X123631817Y-66804228D01*
X123631804Y-66804221D01*
X123504332Y-66751421D01*
X123504322Y-66751418D01*
X123368995Y-66724500D01*
X123368993Y-66724500D01*
X123231007Y-66724500D01*
X123231005Y-66724500D01*
X123095677Y-66751418D01*
X123095667Y-66751421D01*
X122968195Y-66804221D01*
X122968182Y-66804228D01*
X122853458Y-66880885D01*
X122853454Y-66880888D01*
X122755888Y-66978454D01*
X122755885Y-66978458D01*
X122679228Y-67093182D01*
X122679221Y-67093195D01*
X122626421Y-67220667D01*
X122626418Y-67220677D01*
X122599500Y-67356004D01*
X122599500Y-67356007D01*
X122599500Y-67493993D01*
X122599500Y-67493995D01*
X122599499Y-67493995D01*
X95500500Y-67493995D01*
X95500500Y-62813713D01*
X150649500Y-62813713D01*
X150649500Y-63026286D01*
X150682753Y-63236239D01*
X150748444Y-63438414D01*
X150844951Y-63627820D01*
X150969890Y-63799786D01*
X151120213Y-63950109D01*
X151292182Y-64075050D01*
X151300946Y-64079516D01*
X151351742Y-64127491D01*
X151368536Y-64195312D01*
X151345998Y-64261447D01*
X151300946Y-64300484D01*
X151292182Y-64304949D01*
X151120213Y-64429890D01*
X150969890Y-64580213D01*
X150844951Y-64752179D01*
X150748444Y-64941585D01*
X150682753Y-65143760D01*
X150649500Y-65353713D01*
X150649500Y-65566286D01*
X150682448Y-65774315D01*
X150682754Y-65776243D01*
X150745675Y-65969894D01*
X150748444Y-65978414D01*
X150844951Y-66167820D01*
X150969890Y-66339786D01*
X151120213Y-66490109D01*
X151292182Y-66615050D01*
X151300946Y-66619516D01*
X151351742Y-66667491D01*
X151368536Y-66735312D01*
X151345998Y-66801447D01*
X151300946Y-66840484D01*
X151292182Y-66844949D01*
X151120213Y-66969890D01*
X150969890Y-67120213D01*
X150844951Y-67292179D01*
X150748444Y-67481585D01*
X150682753Y-67683760D01*
X150655472Y-67856007D01*
X150649500Y-67893713D01*
X150649500Y-68106287D01*
X150653149Y-68129328D01*
X150679387Y-68294989D01*
X150682754Y-68316243D01*
X150732678Y-68469894D01*
X150748444Y-68518414D01*
X150844951Y-68707820D01*
X150969890Y-68879786D01*
X151120213Y-69030109D01*
X151292182Y-69155050D01*
X151300946Y-69159516D01*
X151351742Y-69207491D01*
X151368536Y-69275312D01*
X151345998Y-69341447D01*
X151300946Y-69380484D01*
X151292182Y-69384949D01*
X151120213Y-69509890D01*
X150969890Y-69660213D01*
X150844951Y-69832179D01*
X150748444Y-70021585D01*
X150682753Y-70223760D01*
X150658041Y-70379786D01*
X150649500Y-70433713D01*
X150649500Y-70646287D01*
X150682754Y-70856243D01*
X150707155Y-70931342D01*
X150748444Y-71058414D01*
X150844951Y-71247820D01*
X150969890Y-71419786D01*
X151120213Y-71570109D01*
X151292179Y-71695048D01*
X151292181Y-71695049D01*
X151292184Y-71695051D01*
X151481588Y-71791557D01*
X151683757Y-71857246D01*
X151893713Y-71890500D01*
X151893714Y-71890500D01*
X152106286Y-71890500D01*
X152106287Y-71890500D01*
X152316243Y-71857246D01*
X152518412Y-71791557D01*
X152707816Y-71695051D01*
X152729789Y-71679086D01*
X152879786Y-71570109D01*
X152879788Y-71570106D01*
X152879792Y-71570104D01*
X153030104Y-71419792D01*
X153030106Y-71419788D01*
X153030109Y-71419786D01*
X153155048Y-71247820D01*
X153155047Y-71247820D01*
X153155051Y-71247816D01*
X153159514Y-71239054D01*
X153207488Y-71188259D01*
X153275308Y-71171463D01*
X153341444Y-71193999D01*
X153380486Y-71239056D01*
X153384951Y-71247820D01*
X153509890Y-71419786D01*
X153660213Y-71570109D01*
X153832179Y-71695048D01*
X153832181Y-71695049D01*
X153832184Y-71695051D01*
X154021588Y-71791557D01*
X154223757Y-71857246D01*
X154433713Y-71890500D01*
X154433714Y-71890500D01*
X154646286Y-71890500D01*
X154646287Y-71890500D01*
X154856243Y-71857246D01*
X155058412Y-71791557D01*
X155247816Y-71695051D01*
X155269789Y-71679086D01*
X155419786Y-71570109D01*
X155419788Y-71570106D01*
X155419792Y-71570104D01*
X155570104Y-71419792D01*
X155570106Y-71419788D01*
X155570109Y-71419786D01*
X155695048Y-71247820D01*
X155695047Y-71247820D01*
X155695051Y-71247816D01*
X155791557Y-71058412D01*
X155857246Y-70856243D01*
X155890500Y-70646287D01*
X155890500Y-70433713D01*
X155857246Y-70223757D01*
X155791557Y-70021588D01*
X155695051Y-69832184D01*
X155695049Y-69832181D01*
X155695048Y-69832179D01*
X155570109Y-69660213D01*
X155419786Y-69509890D01*
X155247820Y-69384951D01*
X155247115Y-69384591D01*
X155239054Y-69380485D01*
X155188259Y-69332512D01*
X155171463Y-69264692D01*
X155193999Y-69198556D01*
X155239054Y-69159515D01*
X155247816Y-69155051D01*
X155269789Y-69139086D01*
X155419786Y-69030109D01*
X155419788Y-69030106D01*
X155419792Y-69030104D01*
X155570104Y-68879792D01*
X155570106Y-68879788D01*
X155570109Y-68879786D01*
X155695048Y-68707820D01*
X155695047Y-68707820D01*
X155695051Y-68707816D01*
X155791557Y-68518412D01*
X155857246Y-68316243D01*
X155890500Y-68106287D01*
X155890500Y-67893713D01*
X155857246Y-67683757D01*
X155791557Y-67481588D01*
X155695051Y-67292184D01*
X155695049Y-67292181D01*
X155695048Y-67292179D01*
X155570109Y-67120213D01*
X155419786Y-66969890D01*
X155247820Y-66844951D01*
X155247115Y-66844591D01*
X155239054Y-66840485D01*
X155188259Y-66792512D01*
X155171463Y-66724692D01*
X155193999Y-66658556D01*
X155239054Y-66619515D01*
X155247816Y-66615051D01*
X155269789Y-66599086D01*
X155419786Y-66490109D01*
X155419788Y-66490106D01*
X155419792Y-66490104D01*
X155570104Y-66339792D01*
X155570106Y-66339788D01*
X155570109Y-66339786D01*
X155695048Y-66167820D01*
X155695047Y-66167820D01*
X155695051Y-66167816D01*
X155791557Y-65978412D01*
X155857246Y-65776243D01*
X155890500Y-65566287D01*
X155890500Y-65353713D01*
X155857246Y-65143757D01*
X155791557Y-64941588D01*
X155695051Y-64752184D01*
X155695049Y-64752181D01*
X155695048Y-64752179D01*
X155570109Y-64580213D01*
X155456181Y-64466285D01*
X155422696Y-64404962D01*
X155427680Y-64335270D01*
X155469552Y-64279337D01*
X155500529Y-64262422D01*
X155632086Y-64213354D01*
X155632093Y-64213350D01*
X155747187Y-64127190D01*
X155747190Y-64127187D01*
X155833350Y-64012093D01*
X155833354Y-64012086D01*
X155883596Y-63877379D01*
X155883598Y-63877372D01*
X155889999Y-63817844D01*
X155890000Y-63817827D01*
X155890000Y-63170000D01*
X154973012Y-63170000D01*
X155005925Y-63112993D01*
X155040000Y-62985826D01*
X155040000Y-62854174D01*
X155005925Y-62727007D01*
X154973012Y-62670000D01*
X155890000Y-62670000D01*
X155890000Y-62022172D01*
X155889999Y-62022155D01*
X155883598Y-61962627D01*
X155883596Y-61962620D01*
X155833354Y-61827913D01*
X155833350Y-61827906D01*
X155747190Y-61712812D01*
X155747187Y-61712809D01*
X155632093Y-61626649D01*
X155632086Y-61626645D01*
X155497379Y-61576403D01*
X155497372Y-61576401D01*
X155437844Y-61570000D01*
X154790000Y-61570000D01*
X154790000Y-62486988D01*
X154732993Y-62454075D01*
X154605826Y-62420000D01*
X154474174Y-62420000D01*
X154347007Y-62454075D01*
X154290000Y-62486988D01*
X154290000Y-61570000D01*
X153642155Y-61570000D01*
X153582627Y-61576401D01*
X153582620Y-61576403D01*
X153447913Y-61626645D01*
X153447906Y-61626649D01*
X153332812Y-61712809D01*
X153332809Y-61712812D01*
X153246649Y-61827906D01*
X153246646Y-61827912D01*
X153197577Y-61959471D01*
X153155705Y-62015404D01*
X153090241Y-62039821D01*
X153021968Y-62024969D01*
X152993714Y-62003818D01*
X152879786Y-61889890D01*
X152707820Y-61764951D01*
X152518414Y-61668444D01*
X152518413Y-61668443D01*
X152518412Y-61668443D01*
X152316243Y-61602754D01*
X152316241Y-61602753D01*
X152316240Y-61602753D01*
X152154957Y-61577208D01*
X152106287Y-61569500D01*
X151893713Y-61569500D01*
X151845042Y-61577208D01*
X151683760Y-61602753D01*
X151481585Y-61668444D01*
X151292179Y-61764951D01*
X151120213Y-61889890D01*
X150969890Y-62040213D01*
X150844951Y-62212179D01*
X150748444Y-62401585D01*
X150682753Y-62603760D01*
X150649500Y-62813713D01*
X95500500Y-62813713D01*
X95500500Y-57393713D01*
X96449500Y-57393713D01*
X96449500Y-57606286D01*
X96482753Y-57816239D01*
X96548444Y-58018414D01*
X96644951Y-58207820D01*
X96769890Y-58379786D01*
X96920213Y-58530109D01*
X97092179Y-58655048D01*
X97092181Y-58655049D01*
X97092184Y-58655051D01*
X97281588Y-58751557D01*
X97483757Y-58817246D01*
X97693713Y-58850500D01*
X97693714Y-58850500D01*
X97906286Y-58850500D01*
X97906287Y-58850500D01*
X98116243Y-58817246D01*
X98318412Y-58751557D01*
X98507816Y-58655051D01*
X98594138Y-58592335D01*
X98679786Y-58530109D01*
X98679788Y-58530106D01*
X98679792Y-58530104D01*
X98830104Y-58379792D01*
X98830106Y-58379788D01*
X98830109Y-58379786D01*
X98955048Y-58207820D01*
X98955047Y-58207820D01*
X98955051Y-58207816D01*
X98959514Y-58199054D01*
X99007488Y-58148259D01*
X99075308Y-58131463D01*
X99141444Y-58153999D01*
X99180486Y-58199056D01*
X99184951Y-58207820D01*
X99309890Y-58379786D01*
X99460213Y-58530109D01*
X99632179Y-58655048D01*
X99632181Y-58655049D01*
X99632184Y-58655051D01*
X99821588Y-58751557D01*
X100023757Y-58817246D01*
X100233713Y-58850500D01*
X100233714Y-58850500D01*
X100446286Y-58850500D01*
X100446287Y-58850500D01*
X100656243Y-58817246D01*
X100858412Y-58751557D01*
X101047816Y-58655051D01*
X101134138Y-58592335D01*
X101219786Y-58530109D01*
X101219788Y-58530106D01*
X101219792Y-58530104D01*
X101370104Y-58379792D01*
X101370106Y-58379788D01*
X101370109Y-58379786D01*
X101495048Y-58207820D01*
X101495047Y-58207820D01*
X101495051Y-58207816D01*
X101499514Y-58199054D01*
X101547488Y-58148259D01*
X101615308Y-58131463D01*
X101681444Y-58153999D01*
X101720486Y-58199056D01*
X101724951Y-58207820D01*
X101849890Y-58379786D01*
X102000213Y-58530109D01*
X102172179Y-58655048D01*
X102172181Y-58655049D01*
X102172184Y-58655051D01*
X102361588Y-58751557D01*
X102563757Y-58817246D01*
X102773713Y-58850500D01*
X102773714Y-58850500D01*
X102986286Y-58850500D01*
X102986287Y-58850500D01*
X103196243Y-58817246D01*
X103398412Y-58751557D01*
X103587816Y-58655051D01*
X103674138Y-58592335D01*
X103759786Y-58530109D01*
X103759788Y-58530106D01*
X103759792Y-58530104D01*
X103910104Y-58379792D01*
X103910106Y-58379788D01*
X103910109Y-58379786D01*
X104035048Y-58207820D01*
X104035047Y-58207820D01*
X104035051Y-58207816D01*
X104039514Y-58199054D01*
X104087488Y-58148259D01*
X104155308Y-58131463D01*
X104221444Y-58153999D01*
X104260486Y-58199056D01*
X104264951Y-58207820D01*
X104389890Y-58379786D01*
X104540213Y-58530109D01*
X104712179Y-58655048D01*
X104712181Y-58655049D01*
X104712184Y-58655051D01*
X104901588Y-58751557D01*
X105103757Y-58817246D01*
X105313713Y-58850500D01*
X105313714Y-58850500D01*
X105526286Y-58850500D01*
X105526287Y-58850500D01*
X105736243Y-58817246D01*
X105938412Y-58751557D01*
X106127816Y-58655051D01*
X106214138Y-58592335D01*
X106299786Y-58530109D01*
X106299788Y-58530106D01*
X106299792Y-58530104D01*
X106450104Y-58379792D01*
X106450106Y-58379788D01*
X106450109Y-58379786D01*
X106575048Y-58207820D01*
X106575047Y-58207820D01*
X106575051Y-58207816D01*
X106579514Y-58199054D01*
X106627488Y-58148259D01*
X106695308Y-58131463D01*
X106761444Y-58153999D01*
X106800486Y-58199056D01*
X106804951Y-58207820D01*
X106929890Y-58379786D01*
X107080213Y-58530109D01*
X107252179Y-58655048D01*
X107252181Y-58655049D01*
X107252184Y-58655051D01*
X107441588Y-58751557D01*
X107643757Y-58817246D01*
X107853713Y-58850500D01*
X107853714Y-58850500D01*
X108066286Y-58850500D01*
X108066287Y-58850500D01*
X108276243Y-58817246D01*
X108478412Y-58751557D01*
X108667816Y-58655051D01*
X108754138Y-58592335D01*
X108839786Y-58530109D01*
X108839788Y-58530106D01*
X108839792Y-58530104D01*
X108990104Y-58379792D01*
X108990106Y-58379788D01*
X108990109Y-58379786D01*
X109115048Y-58207820D01*
X109115047Y-58207820D01*
X109115051Y-58207816D01*
X109119514Y-58199054D01*
X109167488Y-58148259D01*
X109235308Y-58131463D01*
X109301444Y-58153999D01*
X109340486Y-58199056D01*
X109344951Y-58207820D01*
X109469890Y-58379786D01*
X109620213Y-58530109D01*
X109792179Y-58655048D01*
X109792181Y-58655049D01*
X109792184Y-58655051D01*
X109981588Y-58751557D01*
X110183757Y-58817246D01*
X110393713Y-58850500D01*
X110393714Y-58850500D01*
X110606286Y-58850500D01*
X110606287Y-58850500D01*
X110816243Y-58817246D01*
X111018412Y-58751557D01*
X111207816Y-58655051D01*
X111294138Y-58592335D01*
X111379786Y-58530109D01*
X111379788Y-58530106D01*
X111379792Y-58530104D01*
X111530104Y-58379792D01*
X111530106Y-58379788D01*
X111530109Y-58379786D01*
X111597515Y-58287007D01*
X111655051Y-58207816D01*
X111659793Y-58198508D01*
X111707763Y-58147711D01*
X111775583Y-58130911D01*
X111841719Y-58153445D01*
X111880763Y-58198500D01*
X111885373Y-58207547D01*
X111924728Y-58261716D01*
X112557037Y-57629408D01*
X112574075Y-57692993D01*
X112639901Y-57807007D01*
X112732993Y-57900099D01*
X112847007Y-57965925D01*
X112910590Y-57982962D01*
X112278282Y-58615269D01*
X112278282Y-58615270D01*
X112332449Y-58654624D01*
X112521782Y-58751095D01*
X112723870Y-58816757D01*
X112933754Y-58850000D01*
X113146246Y-58850000D01*
X113356127Y-58816757D01*
X113356130Y-58816757D01*
X113558217Y-58751095D01*
X113747554Y-58654622D01*
X113801716Y-58615270D01*
X113801717Y-58615270D01*
X113169408Y-57982962D01*
X113232993Y-57965925D01*
X113347007Y-57900099D01*
X113440099Y-57807007D01*
X113505925Y-57692993D01*
X113522962Y-57629408D01*
X114193181Y-58299628D01*
X114226666Y-58360951D01*
X114229500Y-58387300D01*
X114229500Y-58397865D01*
X114229501Y-58397876D01*
X114235908Y-58457483D01*
X114286202Y-58592328D01*
X114286206Y-58592335D01*
X114372452Y-58707544D01*
X114372455Y-58707547D01*
X114487664Y-58793793D01*
X114487671Y-58793797D01*
X114622517Y-58844091D01*
X114622516Y-58844091D01*
X114629444Y-58844835D01*
X114682127Y-58850500D01*
X116477872Y-58850499D01*
X116537483Y-58844091D01*
X116672331Y-58793796D01*
X116787546Y-58707546D01*
X116873796Y-58592331D01*
X116924091Y-58457483D01*
X116930500Y-58397873D01*
X116930499Y-56602128D01*
X116924091Y-56542517D01*
X116915101Y-56518414D01*
X116873797Y-56407671D01*
X116873793Y-56407664D01*
X116787547Y-56292455D01*
X116787544Y-56292452D01*
X116672335Y-56206206D01*
X116672328Y-56206202D01*
X116537482Y-56155908D01*
X116537483Y-56155908D01*
X116477883Y-56149501D01*
X116477881Y-56149500D01*
X116477873Y-56149500D01*
X116477864Y-56149500D01*
X114682129Y-56149500D01*
X114682123Y-56149501D01*
X114622516Y-56155908D01*
X114487671Y-56206202D01*
X114487664Y-56206206D01*
X114372455Y-56292452D01*
X114372452Y-56292455D01*
X114286206Y-56407664D01*
X114286202Y-56407671D01*
X114235908Y-56542517D01*
X114229501Y-56602116D01*
X114229501Y-56602123D01*
X114229500Y-56602135D01*
X114229500Y-56612690D01*
X114209815Y-56679729D01*
X114193181Y-56700371D01*
X113522962Y-57370590D01*
X113505925Y-57307007D01*
X113440099Y-57192993D01*
X113347007Y-57099901D01*
X113232993Y-57034075D01*
X113169409Y-57017037D01*
X113801716Y-56384728D01*
X113747550Y-56345375D01*
X113558217Y-56248904D01*
X113356129Y-56183242D01*
X113146246Y-56150000D01*
X112933754Y-56150000D01*
X112723872Y-56183242D01*
X112723869Y-56183242D01*
X112521782Y-56248904D01*
X112332439Y-56345380D01*
X112278282Y-56384727D01*
X112278282Y-56384728D01*
X112910591Y-57017037D01*
X112847007Y-57034075D01*
X112732993Y-57099901D01*
X112639901Y-57192993D01*
X112574075Y-57307007D01*
X112557037Y-57370591D01*
X111924728Y-56738282D01*
X111924727Y-56738282D01*
X111885380Y-56792440D01*
X111885376Y-56792446D01*
X111880760Y-56801505D01*
X111832781Y-56852297D01*
X111764959Y-56869087D01*
X111698826Y-56846543D01*
X111659794Y-56801493D01*
X111655051Y-56792184D01*
X111655049Y-56792181D01*
X111655048Y-56792179D01*
X111530109Y-56620213D01*
X111379786Y-56469890D01*
X111207820Y-56344951D01*
X111018414Y-56248444D01*
X111018413Y-56248443D01*
X111018412Y-56248443D01*
X110816243Y-56182754D01*
X110816241Y-56182753D01*
X110816240Y-56182753D01*
X110654957Y-56157208D01*
X110606287Y-56149500D01*
X110393713Y-56149500D01*
X110345042Y-56157208D01*
X110183760Y-56182753D01*
X109981585Y-56248444D01*
X109792179Y-56344951D01*
X109620213Y-56469890D01*
X109469890Y-56620213D01*
X109344949Y-56792182D01*
X109340484Y-56800946D01*
X109292509Y-56851742D01*
X109224688Y-56868536D01*
X109158553Y-56845998D01*
X109119516Y-56800946D01*
X109115050Y-56792182D01*
X108990109Y-56620213D01*
X108839786Y-56469890D01*
X108667820Y-56344951D01*
X108478414Y-56248444D01*
X108478413Y-56248443D01*
X108478412Y-56248443D01*
X108276243Y-56182754D01*
X108276241Y-56182753D01*
X108276240Y-56182753D01*
X108114957Y-56157208D01*
X108066287Y-56149500D01*
X107853713Y-56149500D01*
X107805042Y-56157208D01*
X107643760Y-56182753D01*
X107441585Y-56248444D01*
X107252179Y-56344951D01*
X107080213Y-56469890D01*
X106929890Y-56620213D01*
X106804949Y-56792182D01*
X106800484Y-56800946D01*
X106752509Y-56851742D01*
X106684688Y-56868536D01*
X106618553Y-56845998D01*
X106579516Y-56800946D01*
X106575050Y-56792182D01*
X106450109Y-56620213D01*
X106299786Y-56469890D01*
X106127820Y-56344951D01*
X105938414Y-56248444D01*
X105938413Y-56248443D01*
X105938412Y-56248443D01*
X105736243Y-56182754D01*
X105736241Y-56182753D01*
X105736240Y-56182753D01*
X105574957Y-56157208D01*
X105526287Y-56149500D01*
X105313713Y-56149500D01*
X105265042Y-56157208D01*
X105103760Y-56182753D01*
X104901585Y-56248444D01*
X104712179Y-56344951D01*
X104540213Y-56469890D01*
X104389890Y-56620213D01*
X104264949Y-56792182D01*
X104260484Y-56800946D01*
X104212509Y-56851742D01*
X104144688Y-56868536D01*
X104078553Y-56845998D01*
X104039516Y-56800946D01*
X104035050Y-56792182D01*
X103910109Y-56620213D01*
X103759786Y-56469890D01*
X103587820Y-56344951D01*
X103398414Y-56248444D01*
X103398413Y-56248443D01*
X103398412Y-56248443D01*
X103196243Y-56182754D01*
X103196241Y-56182753D01*
X103196240Y-56182753D01*
X103034957Y-56157208D01*
X102986287Y-56149500D01*
X102773713Y-56149500D01*
X102725042Y-56157208D01*
X102563760Y-56182753D01*
X102361585Y-56248444D01*
X102172179Y-56344951D01*
X102000213Y-56469890D01*
X101849890Y-56620213D01*
X101724949Y-56792182D01*
X101720484Y-56800946D01*
X101672509Y-56851742D01*
X101604688Y-56868536D01*
X101538553Y-56845998D01*
X101499516Y-56800946D01*
X101495050Y-56792182D01*
X101370109Y-56620213D01*
X101219786Y-56469890D01*
X101047820Y-56344951D01*
X100858414Y-56248444D01*
X100858413Y-56248443D01*
X100858412Y-56248443D01*
X100656243Y-56182754D01*
X100656241Y-56182753D01*
X100656240Y-56182753D01*
X100494957Y-56157208D01*
X100446287Y-56149500D01*
X100233713Y-56149500D01*
X100185042Y-56157208D01*
X100023760Y-56182753D01*
X99821585Y-56248444D01*
X99632179Y-56344951D01*
X99460213Y-56469890D01*
X99309890Y-56620213D01*
X99184949Y-56792182D01*
X99180484Y-56800946D01*
X99132509Y-56851742D01*
X99064688Y-56868536D01*
X98998553Y-56845998D01*
X98959516Y-56800946D01*
X98955050Y-56792182D01*
X98830109Y-56620213D01*
X98679786Y-56469890D01*
X98507820Y-56344951D01*
X98318414Y-56248444D01*
X98318413Y-56248443D01*
X98318412Y-56248443D01*
X98116243Y-56182754D01*
X98116241Y-56182753D01*
X98116240Y-56182753D01*
X97954957Y-56157208D01*
X97906287Y-56149500D01*
X97693713Y-56149500D01*
X97645042Y-56157208D01*
X97483760Y-56182753D01*
X97281585Y-56248444D01*
X97092179Y-56344951D01*
X96920213Y-56469890D01*
X96769890Y-56620213D01*
X96644951Y-56792179D01*
X96548444Y-56981585D01*
X96548443Y-56981587D01*
X96548443Y-56981588D01*
X96531389Y-57034075D01*
X96482753Y-57183760D01*
X96449500Y-57393713D01*
X95500500Y-57393713D01*
X95500500Y-55102135D01*
X143649500Y-55102135D01*
X143649500Y-56897870D01*
X143649501Y-56897876D01*
X143655908Y-56957483D01*
X143706202Y-57092328D01*
X143706206Y-57092335D01*
X143792452Y-57207544D01*
X143792455Y-57207547D01*
X143907664Y-57293793D01*
X143907671Y-57293797D01*
X144042517Y-57344091D01*
X144042516Y-57344091D01*
X144049444Y-57344835D01*
X144102127Y-57350500D01*
X145897872Y-57350499D01*
X145957483Y-57344091D01*
X146092331Y-57293796D01*
X146207546Y-57207546D01*
X146293796Y-57092331D01*
X146342810Y-56960916D01*
X146384681Y-56904984D01*
X146450145Y-56880566D01*
X146518418Y-56895417D01*
X146546673Y-56916569D01*
X146660213Y-57030109D01*
X146832179Y-57155048D01*
X146832181Y-57155049D01*
X146832184Y-57155051D01*
X147021588Y-57251557D01*
X147223757Y-57317246D01*
X147433713Y-57350500D01*
X147433714Y-57350500D01*
X147646286Y-57350500D01*
X147646287Y-57350500D01*
X147856243Y-57317246D01*
X148058412Y-57251557D01*
X148247816Y-57155051D01*
X148334138Y-57092335D01*
X148419786Y-57030109D01*
X148419788Y-57030106D01*
X148419792Y-57030104D01*
X148570104Y-56879792D01*
X148570106Y-56879788D01*
X148570109Y-56879786D01*
X148655890Y-56761717D01*
X148695051Y-56707816D01*
X148699793Y-56698508D01*
X148747763Y-56647711D01*
X148815583Y-56630911D01*
X148881719Y-56653445D01*
X148920763Y-56698500D01*
X148925373Y-56707547D01*
X148964728Y-56761716D01*
X149597037Y-56129408D01*
X149614075Y-56192993D01*
X149679901Y-56307007D01*
X149772993Y-56400099D01*
X149887007Y-56465925D01*
X149950590Y-56482962D01*
X149318282Y-57115269D01*
X149318282Y-57115270D01*
X149372449Y-57154624D01*
X149561782Y-57251095D01*
X149763870Y-57316757D01*
X149973754Y-57350000D01*
X150186246Y-57350000D01*
X150396127Y-57316757D01*
X150396130Y-57316757D01*
X150598217Y-57251095D01*
X150787554Y-57154622D01*
X150841716Y-57115270D01*
X150841717Y-57115270D01*
X150209408Y-56482962D01*
X150272993Y-56465925D01*
X150387007Y-56400099D01*
X150480099Y-56307007D01*
X150545925Y-56192993D01*
X150562962Y-56129409D01*
X151195270Y-56761717D01*
X151195270Y-56761716D01*
X151234622Y-56707555D01*
X151239232Y-56698507D01*
X151287205Y-56647709D01*
X151355025Y-56630912D01*
X151421161Y-56653447D01*
X151460204Y-56698504D01*
X151464949Y-56707817D01*
X151589890Y-56879786D01*
X151740213Y-57030109D01*
X151912179Y-57155048D01*
X151912181Y-57155049D01*
X151912184Y-57155051D01*
X152101588Y-57251557D01*
X152303757Y-57317246D01*
X152513713Y-57350500D01*
X152513714Y-57350500D01*
X152726286Y-57350500D01*
X152726287Y-57350500D01*
X152936243Y-57317246D01*
X153138412Y-57251557D01*
X153327816Y-57155051D01*
X153414138Y-57092335D01*
X153499786Y-57030109D01*
X153499788Y-57030106D01*
X153499792Y-57030104D01*
X153650104Y-56879792D01*
X153650106Y-56879788D01*
X153650109Y-56879786D01*
X153775048Y-56707820D01*
X153775047Y-56707820D01*
X153775051Y-56707816D01*
X153871557Y-56518412D01*
X153937246Y-56316243D01*
X153970500Y-56106287D01*
X153970500Y-55893713D01*
X153937246Y-55683757D01*
X153871557Y-55481588D01*
X153775051Y-55292184D01*
X153775049Y-55292181D01*
X153775048Y-55292179D01*
X153650109Y-55120213D01*
X153499786Y-54969890D01*
X153327820Y-54844951D01*
X153138414Y-54748444D01*
X153138413Y-54748443D01*
X153138412Y-54748443D01*
X152936243Y-54682754D01*
X152936241Y-54682753D01*
X152936240Y-54682753D01*
X152774957Y-54657208D01*
X152726287Y-54649500D01*
X152513713Y-54649500D01*
X152465042Y-54657208D01*
X152303760Y-54682753D01*
X152101585Y-54748444D01*
X151912179Y-54844951D01*
X151740213Y-54969890D01*
X151589890Y-55120213D01*
X151464949Y-55292182D01*
X151460202Y-55301499D01*
X151412227Y-55352293D01*
X151344405Y-55369087D01*
X151278271Y-55346548D01*
X151239234Y-55301495D01*
X151234626Y-55292452D01*
X151195270Y-55238282D01*
X151195269Y-55238282D01*
X150562962Y-55870590D01*
X150545925Y-55807007D01*
X150480099Y-55692993D01*
X150387007Y-55599901D01*
X150272993Y-55534075D01*
X150209409Y-55517037D01*
X150841716Y-54884728D01*
X150787550Y-54845375D01*
X150598217Y-54748904D01*
X150396129Y-54683242D01*
X150186246Y-54650000D01*
X149973754Y-54650000D01*
X149763872Y-54683242D01*
X149763869Y-54683242D01*
X149561782Y-54748904D01*
X149372439Y-54845380D01*
X149318282Y-54884727D01*
X149318282Y-54884728D01*
X149950591Y-55517037D01*
X149887007Y-55534075D01*
X149772993Y-55599901D01*
X149679901Y-55692993D01*
X149614075Y-55807007D01*
X149597037Y-55870591D01*
X148964728Y-55238282D01*
X148964727Y-55238282D01*
X148925380Y-55292440D01*
X148925376Y-55292446D01*
X148920760Y-55301505D01*
X148872781Y-55352297D01*
X148804959Y-55369087D01*
X148738826Y-55346543D01*
X148699794Y-55301493D01*
X148695051Y-55292184D01*
X148695049Y-55292181D01*
X148695048Y-55292179D01*
X148570109Y-55120213D01*
X148419786Y-54969890D01*
X148247820Y-54844951D01*
X148058414Y-54748444D01*
X148058413Y-54748443D01*
X148058412Y-54748443D01*
X147856243Y-54682754D01*
X147856241Y-54682753D01*
X147856240Y-54682753D01*
X147694957Y-54657208D01*
X147646287Y-54649500D01*
X147433713Y-54649500D01*
X147385042Y-54657208D01*
X147223760Y-54682753D01*
X147021585Y-54748444D01*
X146832179Y-54844951D01*
X146660215Y-54969889D01*
X146546673Y-55083431D01*
X146485350Y-55116915D01*
X146415658Y-55111931D01*
X146359725Y-55070059D01*
X146342810Y-55039082D01*
X146293797Y-54907671D01*
X146293793Y-54907664D01*
X146207547Y-54792455D01*
X146207544Y-54792452D01*
X146092335Y-54706206D01*
X146092328Y-54706202D01*
X145957482Y-54655908D01*
X145957483Y-54655908D01*
X145897883Y-54649501D01*
X145897881Y-54649500D01*
X145897873Y-54649500D01*
X145897864Y-54649500D01*
X144102129Y-54649500D01*
X144102123Y-54649501D01*
X144042516Y-54655908D01*
X143907671Y-54706202D01*
X143907664Y-54706206D01*
X143792455Y-54792452D01*
X143792452Y-54792455D01*
X143706206Y-54907664D01*
X143706202Y-54907671D01*
X143655908Y-55042517D01*
X143649501Y-55102116D01*
X143649500Y-55102135D01*
X95500500Y-55102135D01*
X95500500Y-53624500D01*
X95520185Y-53557461D01*
X95572989Y-53511706D01*
X95624500Y-53500500D01*
X156375500Y-53500500D01*
X156442539Y-53520185D01*
G37*
%TD.AperFunction*%
%TD*%
M02*
