%TF.GenerationSoftware,KiCad,Pcbnew,10.0.0*%
%TF.CreationDate,2026-04-30T13:09:26-06:00*%
%TF.ProjectId,2026_12_2Wheel_Balance_Robot_v1,32303236-5f31-4325-9f32-576865656c5f,rev?*%
%TF.SameCoordinates,Original*%
%TF.FileFunction,Legend,Bot*%
%TF.FilePolarity,Positive*%
%FSLAX46Y46*%
G04 Gerber Fmt 4.6, Leading zero omitted, Abs format (unit mm)*
G04 Created by KiCad (PCBNEW 10.0.0) date 2026-04-30 13:09:26*
%MOMM*%
%LPD*%
G01*
G04 APERTURE LIST*
%ADD10C,0.150000*%
%ADD11C,0.120000*%
G04 APERTURE END LIST*
D10*
X156529819Y-102666666D02*
X157244104Y-102666666D01*
X157244104Y-102666666D02*
X157386961Y-102619047D01*
X157386961Y-102619047D02*
X157482200Y-102523809D01*
X157482200Y-102523809D02*
X157529819Y-102380952D01*
X157529819Y-102380952D02*
X157529819Y-102285714D01*
X156529819Y-103571428D02*
X156529819Y-103380952D01*
X156529819Y-103380952D02*
X156577438Y-103285714D01*
X156577438Y-103285714D02*
X156625057Y-103238095D01*
X156625057Y-103238095D02*
X156767914Y-103142857D01*
X156767914Y-103142857D02*
X156958390Y-103095238D01*
X156958390Y-103095238D02*
X157339342Y-103095238D01*
X157339342Y-103095238D02*
X157434580Y-103142857D01*
X157434580Y-103142857D02*
X157482200Y-103190476D01*
X157482200Y-103190476D02*
X157529819Y-103285714D01*
X157529819Y-103285714D02*
X157529819Y-103476190D01*
X157529819Y-103476190D02*
X157482200Y-103571428D01*
X157482200Y-103571428D02*
X157434580Y-103619047D01*
X157434580Y-103619047D02*
X157339342Y-103666666D01*
X157339342Y-103666666D02*
X157101247Y-103666666D01*
X157101247Y-103666666D02*
X157006009Y-103619047D01*
X157006009Y-103619047D02*
X156958390Y-103571428D01*
X156958390Y-103571428D02*
X156910771Y-103476190D01*
X156910771Y-103476190D02*
X156910771Y-103285714D01*
X156910771Y-103285714D02*
X156958390Y-103190476D01*
X156958390Y-103190476D02*
X157006009Y-103142857D01*
X157006009Y-103142857D02*
X157101247Y-103095238D01*
X115105357Y-89179580D02*
X115152976Y-89227200D01*
X115152976Y-89227200D02*
X115295833Y-89274819D01*
X115295833Y-89274819D02*
X115391071Y-89274819D01*
X115391071Y-89274819D02*
X115533928Y-89227200D01*
X115533928Y-89227200D02*
X115629166Y-89131961D01*
X115629166Y-89131961D02*
X115676785Y-89036723D01*
X115676785Y-89036723D02*
X115724404Y-88846247D01*
X115724404Y-88846247D02*
X115724404Y-88703390D01*
X115724404Y-88703390D02*
X115676785Y-88512914D01*
X115676785Y-88512914D02*
X115629166Y-88417676D01*
X115629166Y-88417676D02*
X115533928Y-88322438D01*
X115533928Y-88322438D02*
X115391071Y-88274819D01*
X115391071Y-88274819D02*
X115295833Y-88274819D01*
X115295833Y-88274819D02*
X115152976Y-88322438D01*
X115152976Y-88322438D02*
X115105357Y-88370057D01*
X114724404Y-88370057D02*
X114676785Y-88322438D01*
X114676785Y-88322438D02*
X114581547Y-88274819D01*
X114581547Y-88274819D02*
X114343452Y-88274819D01*
X114343452Y-88274819D02*
X114248214Y-88322438D01*
X114248214Y-88322438D02*
X114200595Y-88370057D01*
X114200595Y-88370057D02*
X114152976Y-88465295D01*
X114152976Y-88465295D02*
X114152976Y-88560533D01*
X114152976Y-88560533D02*
X114200595Y-88703390D01*
X114200595Y-88703390D02*
X114772023Y-89274819D01*
X114772023Y-89274819D02*
X114152976Y-89274819D01*
X113295833Y-88608152D02*
X113295833Y-89274819D01*
X113533928Y-88227200D02*
X113772023Y-88941485D01*
X113772023Y-88941485D02*
X113152976Y-88941485D01*
%TO.C,J6*%
D11*
X153725000Y-99200000D02*
X153725000Y-99950000D01*
X150775000Y-99950000D02*
X150775000Y-103000000D01*
X153725000Y-99950000D02*
X150775000Y-99950000D01*
X156275000Y-105850000D02*
X156275000Y-107100000D01*
X150775000Y-106050000D02*
X150775000Y-103000000D01*
X153725000Y-106050000D02*
X150775000Y-106050000D01*
X153725000Y-106800000D02*
X153725000Y-106050000D01*
X156275000Y-107100000D02*
X155025000Y-107100000D01*
X155225000Y-99200000D02*
X155975000Y-99200000D01*
X155975000Y-101000000D01*
X155225000Y-101000000D01*
X155225000Y-99200000D01*
X155225000Y-102500000D02*
X155975000Y-102500000D01*
X155975000Y-103500000D01*
X155225000Y-103500000D01*
X155225000Y-102500000D01*
X155225000Y-105000000D02*
X155975000Y-105000000D01*
X155975000Y-106800000D01*
X155225000Y-106800000D01*
X155225000Y-105000000D01*
X150015000Y-99190000D02*
X155985000Y-99190000D01*
X155985000Y-106810000D01*
X150015000Y-106810000D01*
X150015000Y-99190000D01*
%TO.C,C24*%
X114723752Y-89765000D02*
X114201248Y-89765000D01*
X114723752Y-91235000D02*
X114201248Y-91235000D01*
%TD*%
M02*
