M48
; DRILL file KiCad 10.0.0 date 2026-04-30T13:09:22
; FORMAT={-:-/ absolute / metric / decimal}
; #@! TF.CreationDate,2026-04-30T13:09:22-06:00
; #@! TF.GenerationSoftware,Kicad,Pcbnew,10.0.0
; #@! TF.FileFunction,Plated,1,2,PTH
FMAT,2
METRIC
; #@! TA.AperFunction,Plated,PTH,ViaDrill
T1C0.300
; #@! TA.AperFunction,Plated,PTH,ComponentDrill
T2C0.600
; #@! TA.AperFunction,Plated,PTH,ComponentDrill
T3C0.950
; #@! TA.AperFunction,Plated,PTH,ComponentDrill
T4C1.000
%
G90
G05
T1
X99.5Y-73.0
X108.0Y-92.0
X111.0Y-101.0
X111.5Y-110.5
X113.0Y-55.0
X113.0Y-77.0
X117.5Y-110.0
X118.0Y-85.5
X119.0Y-79.5
X119.0Y-88.0
X120.5Y-54.5
X120.5Y-106.5
X121.5Y-63.0
X122.0Y-110.5
X124.5Y-88.0
X125.5Y-69.5
X126.5Y-80.5
X130.5Y-75.5
X133.0Y-54.0
X133.0Y-61.0
X133.5Y-107.5
X133.5Y-117.0
X137.0Y-75.0
X140.0Y-59.5
X140.82Y-82.57
X142.82Y-79.07
X142.82Y-84.57
X146.5Y-116.5
X146.5Y-124.0
X147.525Y-118.25
X148.32Y-78.07
X148.32Y-85.57
X149.0Y-65.0
X152.82Y-76.57
X152.82Y-88.07
X153.0Y-54.5
X153.525Y-117.25
X156.5Y-60.5
T3
X134.0Y-100.0
X134.0Y-102.5
X134.0Y-105.0
X134.0Y-107.5
X134.0Y-110.0
X145.5Y-64.5
X145.5Y-67.0
X145.5Y-69.5
X145.5Y-72.0
T4
X97.8Y-57.5
X100.34Y-57.5
X102.88Y-57.5
X105.42Y-57.5
X107.96Y-57.5
X110.5Y-57.5
X113.04Y-57.5
X115.58Y-57.5
X145.0Y-56.0
X147.54Y-56.0
X150.08Y-56.0
X152.0Y-62.92
X152.0Y-65.46
X152.0Y-68.0
X152.0Y-70.54
X152.62Y-56.0
X153.5Y-111.5
X153.5Y-114.0
X153.525Y-93.25
X153.525Y-95.75
X153.525Y-101.75
X153.525Y-104.25
X154.54Y-62.92
X154.54Y-65.46
X154.54Y-68.0
X154.54Y-70.54
T2
G00X150.09Y-77.93
M15
G01X151.19Y-77.93
M16
G05
G00X150.09Y-86.57
M15
G01X151.19Y-86.57
M16
G05
G00X154.52Y-77.93
M15
G01X155.12Y-77.93
M16
G05
G00X154.52Y-86.57
M15
G01X155.12Y-86.57
M16
G05
M30
