%TF.GenerationSoftware,KiCad,Pcbnew,10.0.0*%
%TF.CreationDate,2026-04-30T13:09:26-06:00*%
%TF.ProjectId,2026_12_2Wheel_Balance_Robot_v1,32303236-5f31-4325-9f32-576865656c5f,rev?*%
%TF.SameCoordinates,Original*%
%TF.FileFunction,Legend,Top*%
%TF.FilePolarity,Positive*%
%FSLAX46Y46*%
G04 Gerber Fmt 4.6, Leading zero omitted, Abs format (unit mm)*
G04 Created by KiCad (PCBNEW 10.0.0) date 2026-04-30 13:09:26*
%MOMM*%
%LPD*%
G01*
G04 APERTURE LIST*
%ADD10C,0.150000*%
%ADD11C,0.254000*%
%ADD12C,0.120000*%
%ADD13C,0.200000*%
%ADD14C,0.000000*%
%ADD15C,0.100000*%
%ADD16C,0.127000*%
G04 APERTURE END LIST*
D10*
X131974580Y-64322857D02*
X132022200Y-64370476D01*
X132022200Y-64370476D02*
X132069819Y-64513333D01*
X132069819Y-64513333D02*
X132069819Y-64608571D01*
X132069819Y-64608571D02*
X132022200Y-64751428D01*
X132022200Y-64751428D02*
X131926961Y-64846666D01*
X131926961Y-64846666D02*
X131831723Y-64894285D01*
X131831723Y-64894285D02*
X131641247Y-64941904D01*
X131641247Y-64941904D02*
X131498390Y-64941904D01*
X131498390Y-64941904D02*
X131307914Y-64894285D01*
X131307914Y-64894285D02*
X131212676Y-64846666D01*
X131212676Y-64846666D02*
X131117438Y-64751428D01*
X131117438Y-64751428D02*
X131069819Y-64608571D01*
X131069819Y-64608571D02*
X131069819Y-64513333D01*
X131069819Y-64513333D02*
X131117438Y-64370476D01*
X131117438Y-64370476D02*
X131165057Y-64322857D01*
X131165057Y-63941904D02*
X131117438Y-63894285D01*
X131117438Y-63894285D02*
X131069819Y-63799047D01*
X131069819Y-63799047D02*
X131069819Y-63560952D01*
X131069819Y-63560952D02*
X131117438Y-63465714D01*
X131117438Y-63465714D02*
X131165057Y-63418095D01*
X131165057Y-63418095D02*
X131260295Y-63370476D01*
X131260295Y-63370476D02*
X131355533Y-63370476D01*
X131355533Y-63370476D02*
X131498390Y-63418095D01*
X131498390Y-63418095D02*
X132069819Y-63989523D01*
X132069819Y-63989523D02*
X132069819Y-63370476D01*
X131069819Y-63037142D02*
X131069819Y-62418095D01*
X131069819Y-62418095D02*
X131450771Y-62751428D01*
X131450771Y-62751428D02*
X131450771Y-62608571D01*
X131450771Y-62608571D02*
X131498390Y-62513333D01*
X131498390Y-62513333D02*
X131546009Y-62465714D01*
X131546009Y-62465714D02*
X131641247Y-62418095D01*
X131641247Y-62418095D02*
X131879342Y-62418095D01*
X131879342Y-62418095D02*
X131974580Y-62465714D01*
X131974580Y-62465714D02*
X132022200Y-62513333D01*
X132022200Y-62513333D02*
X132069819Y-62608571D01*
X132069819Y-62608571D02*
X132069819Y-62894285D01*
X132069819Y-62894285D02*
X132022200Y-62989523D01*
X132022200Y-62989523D02*
X131974580Y-63037142D01*
X119859580Y-54680357D02*
X119907200Y-54727976D01*
X119907200Y-54727976D02*
X119954819Y-54870833D01*
X119954819Y-54870833D02*
X119954819Y-54966071D01*
X119954819Y-54966071D02*
X119907200Y-55108928D01*
X119907200Y-55108928D02*
X119811961Y-55204166D01*
X119811961Y-55204166D02*
X119716723Y-55251785D01*
X119716723Y-55251785D02*
X119526247Y-55299404D01*
X119526247Y-55299404D02*
X119383390Y-55299404D01*
X119383390Y-55299404D02*
X119192914Y-55251785D01*
X119192914Y-55251785D02*
X119097676Y-55204166D01*
X119097676Y-55204166D02*
X119002438Y-55108928D01*
X119002438Y-55108928D02*
X118954819Y-54966071D01*
X118954819Y-54966071D02*
X118954819Y-54870833D01*
X118954819Y-54870833D02*
X119002438Y-54727976D01*
X119002438Y-54727976D02*
X119050057Y-54680357D01*
X119954819Y-53727976D02*
X119954819Y-54299404D01*
X119954819Y-54013690D02*
X118954819Y-54013690D01*
X118954819Y-54013690D02*
X119097676Y-54108928D01*
X119097676Y-54108928D02*
X119192914Y-54204166D01*
X119192914Y-54204166D02*
X119240533Y-54299404D01*
X118954819Y-53394642D02*
X118954819Y-52727976D01*
X118954819Y-52727976D02*
X119954819Y-53156547D01*
X124888095Y-52154819D02*
X124888095Y-52964342D01*
X124888095Y-52964342D02*
X124935714Y-53059580D01*
X124935714Y-53059580D02*
X124983333Y-53107200D01*
X124983333Y-53107200D02*
X125078571Y-53154819D01*
X125078571Y-53154819D02*
X125269047Y-53154819D01*
X125269047Y-53154819D02*
X125364285Y-53107200D01*
X125364285Y-53107200D02*
X125411904Y-53059580D01*
X125411904Y-53059580D02*
X125459523Y-52964342D01*
X125459523Y-52964342D02*
X125459523Y-52154819D01*
X125840476Y-52154819D02*
X126459523Y-52154819D01*
X126459523Y-52154819D02*
X126126190Y-52535771D01*
X126126190Y-52535771D02*
X126269047Y-52535771D01*
X126269047Y-52535771D02*
X126364285Y-52583390D01*
X126364285Y-52583390D02*
X126411904Y-52631009D01*
X126411904Y-52631009D02*
X126459523Y-52726247D01*
X126459523Y-52726247D02*
X126459523Y-52964342D01*
X126459523Y-52964342D02*
X126411904Y-53059580D01*
X126411904Y-53059580D02*
X126364285Y-53107200D01*
X126364285Y-53107200D02*
X126269047Y-53154819D01*
X126269047Y-53154819D02*
X125983333Y-53154819D01*
X125983333Y-53154819D02*
X125888095Y-53107200D01*
X125888095Y-53107200D02*
X125840476Y-53059580D01*
X119859580Y-66105357D02*
X119907200Y-66152976D01*
X119907200Y-66152976D02*
X119954819Y-66295833D01*
X119954819Y-66295833D02*
X119954819Y-66391071D01*
X119954819Y-66391071D02*
X119907200Y-66533928D01*
X119907200Y-66533928D02*
X119811961Y-66629166D01*
X119811961Y-66629166D02*
X119716723Y-66676785D01*
X119716723Y-66676785D02*
X119526247Y-66724404D01*
X119526247Y-66724404D02*
X119383390Y-66724404D01*
X119383390Y-66724404D02*
X119192914Y-66676785D01*
X119192914Y-66676785D02*
X119097676Y-66629166D01*
X119097676Y-66629166D02*
X119002438Y-66533928D01*
X119002438Y-66533928D02*
X118954819Y-66391071D01*
X118954819Y-66391071D02*
X118954819Y-66295833D01*
X118954819Y-66295833D02*
X119002438Y-66152976D01*
X119002438Y-66152976D02*
X119050057Y-66105357D01*
X119954819Y-65152976D02*
X119954819Y-65724404D01*
X119954819Y-65438690D02*
X118954819Y-65438690D01*
X118954819Y-65438690D02*
X119097676Y-65533928D01*
X119097676Y-65533928D02*
X119192914Y-65629166D01*
X119192914Y-65629166D02*
X119240533Y-65724404D01*
X119383390Y-64581547D02*
X119335771Y-64676785D01*
X119335771Y-64676785D02*
X119288152Y-64724404D01*
X119288152Y-64724404D02*
X119192914Y-64772023D01*
X119192914Y-64772023D02*
X119145295Y-64772023D01*
X119145295Y-64772023D02*
X119050057Y-64724404D01*
X119050057Y-64724404D02*
X119002438Y-64676785D01*
X119002438Y-64676785D02*
X118954819Y-64581547D01*
X118954819Y-64581547D02*
X118954819Y-64391071D01*
X118954819Y-64391071D02*
X119002438Y-64295833D01*
X119002438Y-64295833D02*
X119050057Y-64248214D01*
X119050057Y-64248214D02*
X119145295Y-64200595D01*
X119145295Y-64200595D02*
X119192914Y-64200595D01*
X119192914Y-64200595D02*
X119288152Y-64248214D01*
X119288152Y-64248214D02*
X119335771Y-64295833D01*
X119335771Y-64295833D02*
X119383390Y-64391071D01*
X119383390Y-64391071D02*
X119383390Y-64581547D01*
X119383390Y-64581547D02*
X119431009Y-64676785D01*
X119431009Y-64676785D02*
X119478628Y-64724404D01*
X119478628Y-64724404D02*
X119573866Y-64772023D01*
X119573866Y-64772023D02*
X119764342Y-64772023D01*
X119764342Y-64772023D02*
X119859580Y-64724404D01*
X119859580Y-64724404D02*
X119907200Y-64676785D01*
X119907200Y-64676785D02*
X119954819Y-64581547D01*
X119954819Y-64581547D02*
X119954819Y-64391071D01*
X119954819Y-64391071D02*
X119907200Y-64295833D01*
X119907200Y-64295833D02*
X119859580Y-64248214D01*
X119859580Y-64248214D02*
X119764342Y-64200595D01*
X119764342Y-64200595D02*
X119573866Y-64200595D01*
X119573866Y-64200595D02*
X119478628Y-64248214D01*
X119478628Y-64248214D02*
X119431009Y-64295833D01*
X119431009Y-64295833D02*
X119383390Y-64391071D01*
X131484580Y-52822857D02*
X131532200Y-52870476D01*
X131532200Y-52870476D02*
X131579819Y-53013333D01*
X131579819Y-53013333D02*
X131579819Y-53108571D01*
X131579819Y-53108571D02*
X131532200Y-53251428D01*
X131532200Y-53251428D02*
X131436961Y-53346666D01*
X131436961Y-53346666D02*
X131341723Y-53394285D01*
X131341723Y-53394285D02*
X131151247Y-53441904D01*
X131151247Y-53441904D02*
X131008390Y-53441904D01*
X131008390Y-53441904D02*
X130817914Y-53394285D01*
X130817914Y-53394285D02*
X130722676Y-53346666D01*
X130722676Y-53346666D02*
X130627438Y-53251428D01*
X130627438Y-53251428D02*
X130579819Y-53108571D01*
X130579819Y-53108571D02*
X130579819Y-53013333D01*
X130579819Y-53013333D02*
X130627438Y-52870476D01*
X130627438Y-52870476D02*
X130675057Y-52822857D01*
X130675057Y-52441904D02*
X130627438Y-52394285D01*
X130627438Y-52394285D02*
X130579819Y-52299047D01*
X130579819Y-52299047D02*
X130579819Y-52060952D01*
X130579819Y-52060952D02*
X130627438Y-51965714D01*
X130627438Y-51965714D02*
X130675057Y-51918095D01*
X130675057Y-51918095D02*
X130770295Y-51870476D01*
X130770295Y-51870476D02*
X130865533Y-51870476D01*
X130865533Y-51870476D02*
X131008390Y-51918095D01*
X131008390Y-51918095D02*
X131579819Y-52489523D01*
X131579819Y-52489523D02*
X131579819Y-51870476D01*
X130675057Y-51489523D02*
X130627438Y-51441904D01*
X130627438Y-51441904D02*
X130579819Y-51346666D01*
X130579819Y-51346666D02*
X130579819Y-51108571D01*
X130579819Y-51108571D02*
X130627438Y-51013333D01*
X130627438Y-51013333D02*
X130675057Y-50965714D01*
X130675057Y-50965714D02*
X130770295Y-50918095D01*
X130770295Y-50918095D02*
X130865533Y-50918095D01*
X130865533Y-50918095D02*
X131008390Y-50965714D01*
X131008390Y-50965714D02*
X131579819Y-51537142D01*
X131579819Y-51537142D02*
X131579819Y-50918095D01*
X136824405Y-61604819D02*
X136824405Y-60604819D01*
X136824405Y-60604819D02*
X137062500Y-60604819D01*
X137062500Y-60604819D02*
X137205357Y-60652438D01*
X137205357Y-60652438D02*
X137300595Y-60747676D01*
X137300595Y-60747676D02*
X137348214Y-60842914D01*
X137348214Y-60842914D02*
X137395833Y-61033390D01*
X137395833Y-61033390D02*
X137395833Y-61176247D01*
X137395833Y-61176247D02*
X137348214Y-61366723D01*
X137348214Y-61366723D02*
X137300595Y-61461961D01*
X137300595Y-61461961D02*
X137205357Y-61557200D01*
X137205357Y-61557200D02*
X137062500Y-61604819D01*
X137062500Y-61604819D02*
X136824405Y-61604819D01*
X138300595Y-60604819D02*
X137824405Y-60604819D01*
X137824405Y-60604819D02*
X137776786Y-61081009D01*
X137776786Y-61081009D02*
X137824405Y-61033390D01*
X137824405Y-61033390D02*
X137919643Y-60985771D01*
X137919643Y-60985771D02*
X138157738Y-60985771D01*
X138157738Y-60985771D02*
X138252976Y-61033390D01*
X138252976Y-61033390D02*
X138300595Y-61081009D01*
X138300595Y-61081009D02*
X138348214Y-61176247D01*
X138348214Y-61176247D02*
X138348214Y-61414342D01*
X138348214Y-61414342D02*
X138300595Y-61509580D01*
X138300595Y-61509580D02*
X138252976Y-61557200D01*
X138252976Y-61557200D02*
X138157738Y-61604819D01*
X138157738Y-61604819D02*
X137919643Y-61604819D01*
X137919643Y-61604819D02*
X137824405Y-61557200D01*
X137824405Y-61557200D02*
X137776786Y-61509580D01*
X140344642Y-57534819D02*
X140011309Y-57058628D01*
X139773214Y-57534819D02*
X139773214Y-56534819D01*
X139773214Y-56534819D02*
X140154166Y-56534819D01*
X140154166Y-56534819D02*
X140249404Y-56582438D01*
X140249404Y-56582438D02*
X140297023Y-56630057D01*
X140297023Y-56630057D02*
X140344642Y-56725295D01*
X140344642Y-56725295D02*
X140344642Y-56868152D01*
X140344642Y-56868152D02*
X140297023Y-56963390D01*
X140297023Y-56963390D02*
X140249404Y-57011009D01*
X140249404Y-57011009D02*
X140154166Y-57058628D01*
X140154166Y-57058628D02*
X139773214Y-57058628D01*
X141297023Y-57534819D02*
X140725595Y-57534819D01*
X141011309Y-57534819D02*
X141011309Y-56534819D01*
X141011309Y-56534819D02*
X140916071Y-56677676D01*
X140916071Y-56677676D02*
X140820833Y-56772914D01*
X140820833Y-56772914D02*
X140725595Y-56820533D01*
X141916071Y-56534819D02*
X142011309Y-56534819D01*
X142011309Y-56534819D02*
X142106547Y-56582438D01*
X142106547Y-56582438D02*
X142154166Y-56630057D01*
X142154166Y-56630057D02*
X142201785Y-56725295D01*
X142201785Y-56725295D02*
X142249404Y-56915771D01*
X142249404Y-56915771D02*
X142249404Y-57153866D01*
X142249404Y-57153866D02*
X142201785Y-57344342D01*
X142201785Y-57344342D02*
X142154166Y-57439580D01*
X142154166Y-57439580D02*
X142106547Y-57487200D01*
X142106547Y-57487200D02*
X142011309Y-57534819D01*
X142011309Y-57534819D02*
X141916071Y-57534819D01*
X141916071Y-57534819D02*
X141820833Y-57487200D01*
X141820833Y-57487200D02*
X141773214Y-57439580D01*
X141773214Y-57439580D02*
X141725595Y-57344342D01*
X141725595Y-57344342D02*
X141677976Y-57153866D01*
X141677976Y-57153866D02*
X141677976Y-56915771D01*
X141677976Y-56915771D02*
X141725595Y-56725295D01*
X141725595Y-56725295D02*
X141773214Y-56630057D01*
X141773214Y-56630057D02*
X141820833Y-56582438D01*
X141820833Y-56582438D02*
X141916071Y-56534819D01*
X110039580Y-95105357D02*
X110087200Y-95152976D01*
X110087200Y-95152976D02*
X110134819Y-95295833D01*
X110134819Y-95295833D02*
X110134819Y-95391071D01*
X110134819Y-95391071D02*
X110087200Y-95533928D01*
X110087200Y-95533928D02*
X109991961Y-95629166D01*
X109991961Y-95629166D02*
X109896723Y-95676785D01*
X109896723Y-95676785D02*
X109706247Y-95724404D01*
X109706247Y-95724404D02*
X109563390Y-95724404D01*
X109563390Y-95724404D02*
X109372914Y-95676785D01*
X109372914Y-95676785D02*
X109277676Y-95629166D01*
X109277676Y-95629166D02*
X109182438Y-95533928D01*
X109182438Y-95533928D02*
X109134819Y-95391071D01*
X109134819Y-95391071D02*
X109134819Y-95295833D01*
X109134819Y-95295833D02*
X109182438Y-95152976D01*
X109182438Y-95152976D02*
X109230057Y-95105357D01*
X109230057Y-94724404D02*
X109182438Y-94676785D01*
X109182438Y-94676785D02*
X109134819Y-94581547D01*
X109134819Y-94581547D02*
X109134819Y-94343452D01*
X109134819Y-94343452D02*
X109182438Y-94248214D01*
X109182438Y-94248214D02*
X109230057Y-94200595D01*
X109230057Y-94200595D02*
X109325295Y-94152976D01*
X109325295Y-94152976D02*
X109420533Y-94152976D01*
X109420533Y-94152976D02*
X109563390Y-94200595D01*
X109563390Y-94200595D02*
X110134819Y-94772023D01*
X110134819Y-94772023D02*
X110134819Y-94152976D01*
X109134819Y-93295833D02*
X109134819Y-93486309D01*
X109134819Y-93486309D02*
X109182438Y-93581547D01*
X109182438Y-93581547D02*
X109230057Y-93629166D01*
X109230057Y-93629166D02*
X109372914Y-93724404D01*
X109372914Y-93724404D02*
X109563390Y-93772023D01*
X109563390Y-93772023D02*
X109944342Y-93772023D01*
X109944342Y-93772023D02*
X110039580Y-93724404D01*
X110039580Y-93724404D02*
X110087200Y-93676785D01*
X110087200Y-93676785D02*
X110134819Y-93581547D01*
X110134819Y-93581547D02*
X110134819Y-93391071D01*
X110134819Y-93391071D02*
X110087200Y-93295833D01*
X110087200Y-93295833D02*
X110039580Y-93248214D01*
X110039580Y-93248214D02*
X109944342Y-93200595D01*
X109944342Y-93200595D02*
X109706247Y-93200595D01*
X109706247Y-93200595D02*
X109611009Y-93248214D01*
X109611009Y-93248214D02*
X109563390Y-93295833D01*
X109563390Y-93295833D02*
X109515771Y-93391071D01*
X109515771Y-93391071D02*
X109515771Y-93581547D01*
X109515771Y-93581547D02*
X109563390Y-93676785D01*
X109563390Y-93676785D02*
X109611009Y-93724404D01*
X109611009Y-93724404D02*
X109706247Y-93772023D01*
X114329819Y-109261904D02*
X115139342Y-109261904D01*
X115139342Y-109261904D02*
X115234580Y-109214285D01*
X115234580Y-109214285D02*
X115282200Y-109166666D01*
X115282200Y-109166666D02*
X115329819Y-109071428D01*
X115329819Y-109071428D02*
X115329819Y-108880952D01*
X115329819Y-108880952D02*
X115282200Y-108785714D01*
X115282200Y-108785714D02*
X115234580Y-108738095D01*
X115234580Y-108738095D02*
X115139342Y-108690476D01*
X115139342Y-108690476D02*
X114329819Y-108690476D01*
X114425057Y-108261904D02*
X114377438Y-108214285D01*
X114377438Y-108214285D02*
X114329819Y-108119047D01*
X114329819Y-108119047D02*
X114329819Y-107880952D01*
X114329819Y-107880952D02*
X114377438Y-107785714D01*
X114377438Y-107785714D02*
X114425057Y-107738095D01*
X114425057Y-107738095D02*
X114520295Y-107690476D01*
X114520295Y-107690476D02*
X114615533Y-107690476D01*
X114615533Y-107690476D02*
X114758390Y-107738095D01*
X114758390Y-107738095D02*
X115329819Y-108309523D01*
X115329819Y-108309523D02*
X115329819Y-107690476D01*
X115333333Y-75359580D02*
X115285714Y-75407200D01*
X115285714Y-75407200D02*
X115142857Y-75454819D01*
X115142857Y-75454819D02*
X115047619Y-75454819D01*
X115047619Y-75454819D02*
X114904762Y-75407200D01*
X114904762Y-75407200D02*
X114809524Y-75311961D01*
X114809524Y-75311961D02*
X114761905Y-75216723D01*
X114761905Y-75216723D02*
X114714286Y-75026247D01*
X114714286Y-75026247D02*
X114714286Y-74883390D01*
X114714286Y-74883390D02*
X114761905Y-74692914D01*
X114761905Y-74692914D02*
X114809524Y-74597676D01*
X114809524Y-74597676D02*
X114904762Y-74502438D01*
X114904762Y-74502438D02*
X115047619Y-74454819D01*
X115047619Y-74454819D02*
X115142857Y-74454819D01*
X115142857Y-74454819D02*
X115285714Y-74502438D01*
X115285714Y-74502438D02*
X115333333Y-74550057D01*
X116285714Y-75454819D02*
X115714286Y-75454819D01*
X116000000Y-75454819D02*
X116000000Y-74454819D01*
X116000000Y-74454819D02*
X115904762Y-74597676D01*
X115904762Y-74597676D02*
X115809524Y-74692914D01*
X115809524Y-74692914D02*
X115714286Y-74740533D01*
X150436905Y-125279819D02*
X150436905Y-124279819D01*
X150436905Y-124279819D02*
X150675000Y-124279819D01*
X150675000Y-124279819D02*
X150817857Y-124327438D01*
X150817857Y-124327438D02*
X150913095Y-124422676D01*
X150913095Y-124422676D02*
X150960714Y-124517914D01*
X150960714Y-124517914D02*
X151008333Y-124708390D01*
X151008333Y-124708390D02*
X151008333Y-124851247D01*
X151008333Y-124851247D02*
X150960714Y-125041723D01*
X150960714Y-125041723D02*
X150913095Y-125136961D01*
X150913095Y-125136961D02*
X150817857Y-125232200D01*
X150817857Y-125232200D02*
X150675000Y-125279819D01*
X150675000Y-125279819D02*
X150436905Y-125279819D01*
X151341667Y-124279819D02*
X151960714Y-124279819D01*
X151960714Y-124279819D02*
X151627381Y-124660771D01*
X151627381Y-124660771D02*
X151770238Y-124660771D01*
X151770238Y-124660771D02*
X151865476Y-124708390D01*
X151865476Y-124708390D02*
X151913095Y-124756009D01*
X151913095Y-124756009D02*
X151960714Y-124851247D01*
X151960714Y-124851247D02*
X151960714Y-125089342D01*
X151960714Y-125089342D02*
X151913095Y-125184580D01*
X151913095Y-125184580D02*
X151865476Y-125232200D01*
X151865476Y-125232200D02*
X151770238Y-125279819D01*
X151770238Y-125279819D02*
X151484524Y-125279819D01*
X151484524Y-125279819D02*
X151389286Y-125232200D01*
X151389286Y-125232200D02*
X151341667Y-125184580D01*
X133333333Y-82604819D02*
X133000000Y-82128628D01*
X132761905Y-82604819D02*
X132761905Y-81604819D01*
X132761905Y-81604819D02*
X133142857Y-81604819D01*
X133142857Y-81604819D02*
X133238095Y-81652438D01*
X133238095Y-81652438D02*
X133285714Y-81700057D01*
X133285714Y-81700057D02*
X133333333Y-81795295D01*
X133333333Y-81795295D02*
X133333333Y-81938152D01*
X133333333Y-81938152D02*
X133285714Y-82033390D01*
X133285714Y-82033390D02*
X133238095Y-82081009D01*
X133238095Y-82081009D02*
X133142857Y-82128628D01*
X133142857Y-82128628D02*
X132761905Y-82128628D01*
X134190476Y-81938152D02*
X134190476Y-82604819D01*
X133952381Y-81557200D02*
X133714286Y-82271485D01*
X133714286Y-82271485D02*
X134333333Y-82271485D01*
D11*
X103406666Y-73513842D02*
X103588095Y-73574318D01*
X103588095Y-73574318D02*
X103890476Y-73574318D01*
X103890476Y-73574318D02*
X104011428Y-73513842D01*
X104011428Y-73513842D02*
X104071904Y-73453365D01*
X104071904Y-73453365D02*
X104132381Y-73332413D01*
X104132381Y-73332413D02*
X104132381Y-73211461D01*
X104132381Y-73211461D02*
X104071904Y-73090508D01*
X104071904Y-73090508D02*
X104011428Y-73030032D01*
X104011428Y-73030032D02*
X103890476Y-72969556D01*
X103890476Y-72969556D02*
X103648571Y-72909080D01*
X103648571Y-72909080D02*
X103527619Y-72848603D01*
X103527619Y-72848603D02*
X103467142Y-72788127D01*
X103467142Y-72788127D02*
X103406666Y-72667175D01*
X103406666Y-72667175D02*
X103406666Y-72546222D01*
X103406666Y-72546222D02*
X103467142Y-72425270D01*
X103467142Y-72425270D02*
X103527619Y-72364794D01*
X103527619Y-72364794D02*
X103648571Y-72304318D01*
X103648571Y-72304318D02*
X103950952Y-72304318D01*
X103950952Y-72304318D02*
X104132381Y-72364794D01*
X104555714Y-72304318D02*
X104858095Y-73574318D01*
X104858095Y-73574318D02*
X105100000Y-72667175D01*
X105100000Y-72667175D02*
X105341905Y-73574318D01*
X105341905Y-73574318D02*
X105644286Y-72304318D01*
X106067619Y-72425270D02*
X106128095Y-72364794D01*
X106128095Y-72364794D02*
X106249048Y-72304318D01*
X106249048Y-72304318D02*
X106551429Y-72304318D01*
X106551429Y-72304318D02*
X106672381Y-72364794D01*
X106672381Y-72364794D02*
X106732857Y-72425270D01*
X106732857Y-72425270D02*
X106793334Y-72546222D01*
X106793334Y-72546222D02*
X106793334Y-72667175D01*
X106793334Y-72667175D02*
X106732857Y-72848603D01*
X106732857Y-72848603D02*
X106007143Y-73574318D01*
X106007143Y-73574318D02*
X106793334Y-73574318D01*
D10*
X136679819Y-91722857D02*
X136203628Y-92056190D01*
X136679819Y-92294285D02*
X135679819Y-92294285D01*
X135679819Y-92294285D02*
X135679819Y-91913333D01*
X135679819Y-91913333D02*
X135727438Y-91818095D01*
X135727438Y-91818095D02*
X135775057Y-91770476D01*
X135775057Y-91770476D02*
X135870295Y-91722857D01*
X135870295Y-91722857D02*
X136013152Y-91722857D01*
X136013152Y-91722857D02*
X136108390Y-91770476D01*
X136108390Y-91770476D02*
X136156009Y-91818095D01*
X136156009Y-91818095D02*
X136203628Y-91913333D01*
X136203628Y-91913333D02*
X136203628Y-92294285D01*
X136679819Y-90770476D02*
X136679819Y-91341904D01*
X136679819Y-91056190D02*
X135679819Y-91056190D01*
X135679819Y-91056190D02*
X135822676Y-91151428D01*
X135822676Y-91151428D02*
X135917914Y-91246666D01*
X135917914Y-91246666D02*
X135965533Y-91341904D01*
X135679819Y-90437142D02*
X135679819Y-89770476D01*
X135679819Y-89770476D02*
X136679819Y-90199047D01*
X145159580Y-115342857D02*
X145207200Y-115390476D01*
X145207200Y-115390476D02*
X145254819Y-115533333D01*
X145254819Y-115533333D02*
X145254819Y-115628571D01*
X145254819Y-115628571D02*
X145207200Y-115771428D01*
X145207200Y-115771428D02*
X145111961Y-115866666D01*
X145111961Y-115866666D02*
X145016723Y-115914285D01*
X145016723Y-115914285D02*
X144826247Y-115961904D01*
X144826247Y-115961904D02*
X144683390Y-115961904D01*
X144683390Y-115961904D02*
X144492914Y-115914285D01*
X144492914Y-115914285D02*
X144397676Y-115866666D01*
X144397676Y-115866666D02*
X144302438Y-115771428D01*
X144302438Y-115771428D02*
X144254819Y-115628571D01*
X144254819Y-115628571D02*
X144254819Y-115533333D01*
X144254819Y-115533333D02*
X144302438Y-115390476D01*
X144302438Y-115390476D02*
X144350057Y-115342857D01*
X145254819Y-114390476D02*
X145254819Y-114961904D01*
X145254819Y-114676190D02*
X144254819Y-114676190D01*
X144254819Y-114676190D02*
X144397676Y-114771428D01*
X144397676Y-114771428D02*
X144492914Y-114866666D01*
X144492914Y-114866666D02*
X144540533Y-114961904D01*
X144588152Y-113533333D02*
X145254819Y-113533333D01*
X144207200Y-113771428D02*
X144921485Y-114009523D01*
X144921485Y-114009523D02*
X144921485Y-113390476D01*
X109311905Y-96604819D02*
X109311905Y-95604819D01*
X109311905Y-95604819D02*
X109550000Y-95604819D01*
X109550000Y-95604819D02*
X109692857Y-95652438D01*
X109692857Y-95652438D02*
X109788095Y-95747676D01*
X109788095Y-95747676D02*
X109835714Y-95842914D01*
X109835714Y-95842914D02*
X109883333Y-96033390D01*
X109883333Y-96033390D02*
X109883333Y-96176247D01*
X109883333Y-96176247D02*
X109835714Y-96366723D01*
X109835714Y-96366723D02*
X109788095Y-96461961D01*
X109788095Y-96461961D02*
X109692857Y-96557200D01*
X109692857Y-96557200D02*
X109550000Y-96604819D01*
X109550000Y-96604819D02*
X109311905Y-96604819D01*
X110835714Y-96604819D02*
X110264286Y-96604819D01*
X110550000Y-96604819D02*
X110550000Y-95604819D01*
X110550000Y-95604819D02*
X110454762Y-95747676D01*
X110454762Y-95747676D02*
X110359524Y-95842914D01*
X110359524Y-95842914D02*
X110264286Y-95890533D01*
X149146428Y-74907704D02*
X149603571Y-74907704D01*
X149374999Y-74907704D02*
X149374999Y-75707704D01*
X149374999Y-75707704D02*
X149451190Y-75593419D01*
X149451190Y-75593419D02*
X149527380Y-75517228D01*
X149527380Y-75517228D02*
X149603571Y-75479133D01*
X123870833Y-92179580D02*
X123823214Y-92227200D01*
X123823214Y-92227200D02*
X123680357Y-92274819D01*
X123680357Y-92274819D02*
X123585119Y-92274819D01*
X123585119Y-92274819D02*
X123442262Y-92227200D01*
X123442262Y-92227200D02*
X123347024Y-92131961D01*
X123347024Y-92131961D02*
X123299405Y-92036723D01*
X123299405Y-92036723D02*
X123251786Y-91846247D01*
X123251786Y-91846247D02*
X123251786Y-91703390D01*
X123251786Y-91703390D02*
X123299405Y-91512914D01*
X123299405Y-91512914D02*
X123347024Y-91417676D01*
X123347024Y-91417676D02*
X123442262Y-91322438D01*
X123442262Y-91322438D02*
X123585119Y-91274819D01*
X123585119Y-91274819D02*
X123680357Y-91274819D01*
X123680357Y-91274819D02*
X123823214Y-91322438D01*
X123823214Y-91322438D02*
X123870833Y-91370057D01*
X124204167Y-91274819D02*
X124870833Y-91274819D01*
X124870833Y-91274819D02*
X124442262Y-92274819D01*
X123261905Y-103454819D02*
X123261905Y-102454819D01*
X123261905Y-102454819D02*
X123500000Y-102454819D01*
X123500000Y-102454819D02*
X123642857Y-102502438D01*
X123642857Y-102502438D02*
X123738095Y-102597676D01*
X123738095Y-102597676D02*
X123785714Y-102692914D01*
X123785714Y-102692914D02*
X123833333Y-102883390D01*
X123833333Y-102883390D02*
X123833333Y-103026247D01*
X123833333Y-103026247D02*
X123785714Y-103216723D01*
X123785714Y-103216723D02*
X123738095Y-103311961D01*
X123738095Y-103311961D02*
X123642857Y-103407200D01*
X123642857Y-103407200D02*
X123500000Y-103454819D01*
X123500000Y-103454819D02*
X123261905Y-103454819D01*
X124690476Y-102788152D02*
X124690476Y-103454819D01*
X124452381Y-102407200D02*
X124214286Y-103121485D01*
X124214286Y-103121485D02*
X124833333Y-103121485D01*
X131359580Y-76666666D02*
X131407200Y-76714285D01*
X131407200Y-76714285D02*
X131454819Y-76857142D01*
X131454819Y-76857142D02*
X131454819Y-76952380D01*
X131454819Y-76952380D02*
X131407200Y-77095237D01*
X131407200Y-77095237D02*
X131311961Y-77190475D01*
X131311961Y-77190475D02*
X131216723Y-77238094D01*
X131216723Y-77238094D02*
X131026247Y-77285713D01*
X131026247Y-77285713D02*
X130883390Y-77285713D01*
X130883390Y-77285713D02*
X130692914Y-77238094D01*
X130692914Y-77238094D02*
X130597676Y-77190475D01*
X130597676Y-77190475D02*
X130502438Y-77095237D01*
X130502438Y-77095237D02*
X130454819Y-76952380D01*
X130454819Y-76952380D02*
X130454819Y-76857142D01*
X130454819Y-76857142D02*
X130502438Y-76714285D01*
X130502438Y-76714285D02*
X130550057Y-76666666D01*
X130550057Y-76285713D02*
X130502438Y-76238094D01*
X130502438Y-76238094D02*
X130454819Y-76142856D01*
X130454819Y-76142856D02*
X130454819Y-75904761D01*
X130454819Y-75904761D02*
X130502438Y-75809523D01*
X130502438Y-75809523D02*
X130550057Y-75761904D01*
X130550057Y-75761904D02*
X130645295Y-75714285D01*
X130645295Y-75714285D02*
X130740533Y-75714285D01*
X130740533Y-75714285D02*
X130883390Y-75761904D01*
X130883390Y-75761904D02*
X131454819Y-76333332D01*
X131454819Y-76333332D02*
X131454819Y-75714285D01*
X145420833Y-80384819D02*
X145087500Y-79908628D01*
X144849405Y-80384819D02*
X144849405Y-79384819D01*
X144849405Y-79384819D02*
X145230357Y-79384819D01*
X145230357Y-79384819D02*
X145325595Y-79432438D01*
X145325595Y-79432438D02*
X145373214Y-79480057D01*
X145373214Y-79480057D02*
X145420833Y-79575295D01*
X145420833Y-79575295D02*
X145420833Y-79718152D01*
X145420833Y-79718152D02*
X145373214Y-79813390D01*
X145373214Y-79813390D02*
X145325595Y-79861009D01*
X145325595Y-79861009D02*
X145230357Y-79908628D01*
X145230357Y-79908628D02*
X144849405Y-79908628D01*
X145992262Y-79813390D02*
X145897024Y-79765771D01*
X145897024Y-79765771D02*
X145849405Y-79718152D01*
X145849405Y-79718152D02*
X145801786Y-79622914D01*
X145801786Y-79622914D02*
X145801786Y-79575295D01*
X145801786Y-79575295D02*
X145849405Y-79480057D01*
X145849405Y-79480057D02*
X145897024Y-79432438D01*
X145897024Y-79432438D02*
X145992262Y-79384819D01*
X145992262Y-79384819D02*
X146182738Y-79384819D01*
X146182738Y-79384819D02*
X146277976Y-79432438D01*
X146277976Y-79432438D02*
X146325595Y-79480057D01*
X146325595Y-79480057D02*
X146373214Y-79575295D01*
X146373214Y-79575295D02*
X146373214Y-79622914D01*
X146373214Y-79622914D02*
X146325595Y-79718152D01*
X146325595Y-79718152D02*
X146277976Y-79765771D01*
X146277976Y-79765771D02*
X146182738Y-79813390D01*
X146182738Y-79813390D02*
X145992262Y-79813390D01*
X145992262Y-79813390D02*
X145897024Y-79861009D01*
X145897024Y-79861009D02*
X145849405Y-79908628D01*
X145849405Y-79908628D02*
X145801786Y-80003866D01*
X145801786Y-80003866D02*
X145801786Y-80194342D01*
X145801786Y-80194342D02*
X145849405Y-80289580D01*
X145849405Y-80289580D02*
X145897024Y-80337200D01*
X145897024Y-80337200D02*
X145992262Y-80384819D01*
X145992262Y-80384819D02*
X146182738Y-80384819D01*
X146182738Y-80384819D02*
X146277976Y-80337200D01*
X146277976Y-80337200D02*
X146325595Y-80289580D01*
X146325595Y-80289580D02*
X146373214Y-80194342D01*
X146373214Y-80194342D02*
X146373214Y-80003866D01*
X146373214Y-80003866D02*
X146325595Y-79908628D01*
X146325595Y-79908628D02*
X146277976Y-79861009D01*
X146277976Y-79861009D02*
X146182738Y-79813390D01*
X127370833Y-106679580D02*
X127323214Y-106727200D01*
X127323214Y-106727200D02*
X127180357Y-106774819D01*
X127180357Y-106774819D02*
X127085119Y-106774819D01*
X127085119Y-106774819D02*
X126942262Y-106727200D01*
X126942262Y-106727200D02*
X126847024Y-106631961D01*
X126847024Y-106631961D02*
X126799405Y-106536723D01*
X126799405Y-106536723D02*
X126751786Y-106346247D01*
X126751786Y-106346247D02*
X126751786Y-106203390D01*
X126751786Y-106203390D02*
X126799405Y-106012914D01*
X126799405Y-106012914D02*
X126847024Y-105917676D01*
X126847024Y-105917676D02*
X126942262Y-105822438D01*
X126942262Y-105822438D02*
X127085119Y-105774819D01*
X127085119Y-105774819D02*
X127180357Y-105774819D01*
X127180357Y-105774819D02*
X127323214Y-105822438D01*
X127323214Y-105822438D02*
X127370833Y-105870057D01*
X127942262Y-106203390D02*
X127847024Y-106155771D01*
X127847024Y-106155771D02*
X127799405Y-106108152D01*
X127799405Y-106108152D02*
X127751786Y-106012914D01*
X127751786Y-106012914D02*
X127751786Y-105965295D01*
X127751786Y-105965295D02*
X127799405Y-105870057D01*
X127799405Y-105870057D02*
X127847024Y-105822438D01*
X127847024Y-105822438D02*
X127942262Y-105774819D01*
X127942262Y-105774819D02*
X128132738Y-105774819D01*
X128132738Y-105774819D02*
X128227976Y-105822438D01*
X128227976Y-105822438D02*
X128275595Y-105870057D01*
X128275595Y-105870057D02*
X128323214Y-105965295D01*
X128323214Y-105965295D02*
X128323214Y-106012914D01*
X128323214Y-106012914D02*
X128275595Y-106108152D01*
X128275595Y-106108152D02*
X128227976Y-106155771D01*
X128227976Y-106155771D02*
X128132738Y-106203390D01*
X128132738Y-106203390D02*
X127942262Y-106203390D01*
X127942262Y-106203390D02*
X127847024Y-106251009D01*
X127847024Y-106251009D02*
X127799405Y-106298628D01*
X127799405Y-106298628D02*
X127751786Y-106393866D01*
X127751786Y-106393866D02*
X127751786Y-106584342D01*
X127751786Y-106584342D02*
X127799405Y-106679580D01*
X127799405Y-106679580D02*
X127847024Y-106727200D01*
X127847024Y-106727200D02*
X127942262Y-106774819D01*
X127942262Y-106774819D02*
X128132738Y-106774819D01*
X128132738Y-106774819D02*
X128227976Y-106727200D01*
X128227976Y-106727200D02*
X128275595Y-106679580D01*
X128275595Y-106679580D02*
X128323214Y-106584342D01*
X128323214Y-106584342D02*
X128323214Y-106393866D01*
X128323214Y-106393866D02*
X128275595Y-106298628D01*
X128275595Y-106298628D02*
X128227976Y-106251009D01*
X128227976Y-106251009D02*
X128132738Y-106203390D01*
X138238095Y-115829819D02*
X138238095Y-116639342D01*
X138238095Y-116639342D02*
X138285714Y-116734580D01*
X138285714Y-116734580D02*
X138333333Y-116782200D01*
X138333333Y-116782200D02*
X138428571Y-116829819D01*
X138428571Y-116829819D02*
X138619047Y-116829819D01*
X138619047Y-116829819D02*
X138714285Y-116782200D01*
X138714285Y-116782200D02*
X138761904Y-116734580D01*
X138761904Y-116734580D02*
X138809523Y-116639342D01*
X138809523Y-116639342D02*
X138809523Y-115829819D01*
X139714285Y-115829819D02*
X139523809Y-115829819D01*
X139523809Y-115829819D02*
X139428571Y-115877438D01*
X139428571Y-115877438D02*
X139380952Y-115925057D01*
X139380952Y-115925057D02*
X139285714Y-116067914D01*
X139285714Y-116067914D02*
X139238095Y-116258390D01*
X139238095Y-116258390D02*
X139238095Y-116639342D01*
X139238095Y-116639342D02*
X139285714Y-116734580D01*
X139285714Y-116734580D02*
X139333333Y-116782200D01*
X139333333Y-116782200D02*
X139428571Y-116829819D01*
X139428571Y-116829819D02*
X139619047Y-116829819D01*
X139619047Y-116829819D02*
X139714285Y-116782200D01*
X139714285Y-116782200D02*
X139761904Y-116734580D01*
X139761904Y-116734580D02*
X139809523Y-116639342D01*
X139809523Y-116639342D02*
X139809523Y-116401247D01*
X139809523Y-116401247D02*
X139761904Y-116306009D01*
X139761904Y-116306009D02*
X139714285Y-116258390D01*
X139714285Y-116258390D02*
X139619047Y-116210771D01*
X139619047Y-116210771D02*
X139428571Y-116210771D01*
X139428571Y-116210771D02*
X139333333Y-116258390D01*
X139333333Y-116258390D02*
X139285714Y-116306009D01*
X139285714Y-116306009D02*
X139238095Y-116401247D01*
X112859580Y-73105357D02*
X112907200Y-73152976D01*
X112907200Y-73152976D02*
X112954819Y-73295833D01*
X112954819Y-73295833D02*
X112954819Y-73391071D01*
X112954819Y-73391071D02*
X112907200Y-73533928D01*
X112907200Y-73533928D02*
X112811961Y-73629166D01*
X112811961Y-73629166D02*
X112716723Y-73676785D01*
X112716723Y-73676785D02*
X112526247Y-73724404D01*
X112526247Y-73724404D02*
X112383390Y-73724404D01*
X112383390Y-73724404D02*
X112192914Y-73676785D01*
X112192914Y-73676785D02*
X112097676Y-73629166D01*
X112097676Y-73629166D02*
X112002438Y-73533928D01*
X112002438Y-73533928D02*
X111954819Y-73391071D01*
X111954819Y-73391071D02*
X111954819Y-73295833D01*
X111954819Y-73295833D02*
X112002438Y-73152976D01*
X112002438Y-73152976D02*
X112050057Y-73105357D01*
X112050057Y-72724404D02*
X112002438Y-72676785D01*
X112002438Y-72676785D02*
X111954819Y-72581547D01*
X111954819Y-72581547D02*
X111954819Y-72343452D01*
X111954819Y-72343452D02*
X112002438Y-72248214D01*
X112002438Y-72248214D02*
X112050057Y-72200595D01*
X112050057Y-72200595D02*
X112145295Y-72152976D01*
X112145295Y-72152976D02*
X112240533Y-72152976D01*
X112240533Y-72152976D02*
X112383390Y-72200595D01*
X112383390Y-72200595D02*
X112954819Y-72772023D01*
X112954819Y-72772023D02*
X112954819Y-72152976D01*
X112954819Y-71200595D02*
X112954819Y-71772023D01*
X112954819Y-71486309D02*
X111954819Y-71486309D01*
X111954819Y-71486309D02*
X112097676Y-71581547D01*
X112097676Y-71581547D02*
X112192914Y-71676785D01*
X112192914Y-71676785D02*
X112240533Y-71772023D01*
X144529166Y-91581009D02*
X144195833Y-91581009D01*
X144195833Y-92104819D02*
X144195833Y-91104819D01*
X144195833Y-91104819D02*
X144672023Y-91104819D01*
X145576785Y-92104819D02*
X145005357Y-92104819D01*
X145291071Y-92104819D02*
X145291071Y-91104819D01*
X145291071Y-91104819D02*
X145195833Y-91247676D01*
X145195833Y-91247676D02*
X145100595Y-91342914D01*
X145100595Y-91342914D02*
X145005357Y-91390533D01*
X112359580Y-83180357D02*
X112407200Y-83227976D01*
X112407200Y-83227976D02*
X112454819Y-83370833D01*
X112454819Y-83370833D02*
X112454819Y-83466071D01*
X112454819Y-83466071D02*
X112407200Y-83608928D01*
X112407200Y-83608928D02*
X112311961Y-83704166D01*
X112311961Y-83704166D02*
X112216723Y-83751785D01*
X112216723Y-83751785D02*
X112026247Y-83799404D01*
X112026247Y-83799404D02*
X111883390Y-83799404D01*
X111883390Y-83799404D02*
X111692914Y-83751785D01*
X111692914Y-83751785D02*
X111597676Y-83704166D01*
X111597676Y-83704166D02*
X111502438Y-83608928D01*
X111502438Y-83608928D02*
X111454819Y-83466071D01*
X111454819Y-83466071D02*
X111454819Y-83370833D01*
X111454819Y-83370833D02*
X111502438Y-83227976D01*
X111502438Y-83227976D02*
X111550057Y-83180357D01*
X111550057Y-82799404D02*
X111502438Y-82751785D01*
X111502438Y-82751785D02*
X111454819Y-82656547D01*
X111454819Y-82656547D02*
X111454819Y-82418452D01*
X111454819Y-82418452D02*
X111502438Y-82323214D01*
X111502438Y-82323214D02*
X111550057Y-82275595D01*
X111550057Y-82275595D02*
X111645295Y-82227976D01*
X111645295Y-82227976D02*
X111740533Y-82227976D01*
X111740533Y-82227976D02*
X111883390Y-82275595D01*
X111883390Y-82275595D02*
X112454819Y-82847023D01*
X112454819Y-82847023D02*
X112454819Y-82227976D01*
X111454819Y-81608928D02*
X111454819Y-81513690D01*
X111454819Y-81513690D02*
X111502438Y-81418452D01*
X111502438Y-81418452D02*
X111550057Y-81370833D01*
X111550057Y-81370833D02*
X111645295Y-81323214D01*
X111645295Y-81323214D02*
X111835771Y-81275595D01*
X111835771Y-81275595D02*
X112073866Y-81275595D01*
X112073866Y-81275595D02*
X112264342Y-81323214D01*
X112264342Y-81323214D02*
X112359580Y-81370833D01*
X112359580Y-81370833D02*
X112407200Y-81418452D01*
X112407200Y-81418452D02*
X112454819Y-81513690D01*
X112454819Y-81513690D02*
X112454819Y-81608928D01*
X112454819Y-81608928D02*
X112407200Y-81704166D01*
X112407200Y-81704166D02*
X112359580Y-81751785D01*
X112359580Y-81751785D02*
X112264342Y-81799404D01*
X112264342Y-81799404D02*
X112073866Y-81847023D01*
X112073866Y-81847023D02*
X111835771Y-81847023D01*
X111835771Y-81847023D02*
X111645295Y-81799404D01*
X111645295Y-81799404D02*
X111550057Y-81751785D01*
X111550057Y-81751785D02*
X111502438Y-81704166D01*
X111502438Y-81704166D02*
X111454819Y-81608928D01*
X144745833Y-87954819D02*
X144412500Y-87478628D01*
X144174405Y-87954819D02*
X144174405Y-86954819D01*
X144174405Y-86954819D02*
X144555357Y-86954819D01*
X144555357Y-86954819D02*
X144650595Y-87002438D01*
X144650595Y-87002438D02*
X144698214Y-87050057D01*
X144698214Y-87050057D02*
X144745833Y-87145295D01*
X144745833Y-87145295D02*
X144745833Y-87288152D01*
X144745833Y-87288152D02*
X144698214Y-87383390D01*
X144698214Y-87383390D02*
X144650595Y-87431009D01*
X144650595Y-87431009D02*
X144555357Y-87478628D01*
X144555357Y-87478628D02*
X144174405Y-87478628D01*
X145079167Y-86954819D02*
X145745833Y-86954819D01*
X145745833Y-86954819D02*
X145317262Y-87954819D01*
X156504819Y-113083333D02*
X157219104Y-113083333D01*
X157219104Y-113083333D02*
X157361961Y-113130952D01*
X157361961Y-113130952D02*
X157457200Y-113226190D01*
X157457200Y-113226190D02*
X157504819Y-113369047D01*
X157504819Y-113369047D02*
X157504819Y-113464285D01*
X156504819Y-112130952D02*
X156504819Y-112607142D01*
X156504819Y-112607142D02*
X156981009Y-112654761D01*
X156981009Y-112654761D02*
X156933390Y-112607142D01*
X156933390Y-112607142D02*
X156885771Y-112511904D01*
X156885771Y-112511904D02*
X156885771Y-112273809D01*
X156885771Y-112273809D02*
X156933390Y-112178571D01*
X156933390Y-112178571D02*
X156981009Y-112130952D01*
X156981009Y-112130952D02*
X157076247Y-112083333D01*
X157076247Y-112083333D02*
X157314342Y-112083333D01*
X157314342Y-112083333D02*
X157409580Y-112130952D01*
X157409580Y-112130952D02*
X157457200Y-112178571D01*
X157457200Y-112178571D02*
X157504819Y-112273809D01*
X157504819Y-112273809D02*
X157504819Y-112511904D01*
X157504819Y-112511904D02*
X157457200Y-112607142D01*
X157457200Y-112607142D02*
X157409580Y-112654761D01*
X135039580Y-126067857D02*
X135087200Y-126115476D01*
X135087200Y-126115476D02*
X135134819Y-126258333D01*
X135134819Y-126258333D02*
X135134819Y-126353571D01*
X135134819Y-126353571D02*
X135087200Y-126496428D01*
X135087200Y-126496428D02*
X134991961Y-126591666D01*
X134991961Y-126591666D02*
X134896723Y-126639285D01*
X134896723Y-126639285D02*
X134706247Y-126686904D01*
X134706247Y-126686904D02*
X134563390Y-126686904D01*
X134563390Y-126686904D02*
X134372914Y-126639285D01*
X134372914Y-126639285D02*
X134277676Y-126591666D01*
X134277676Y-126591666D02*
X134182438Y-126496428D01*
X134182438Y-126496428D02*
X134134819Y-126353571D01*
X134134819Y-126353571D02*
X134134819Y-126258333D01*
X134134819Y-126258333D02*
X134182438Y-126115476D01*
X134182438Y-126115476D02*
X134230057Y-126067857D01*
X135134819Y-125115476D02*
X135134819Y-125686904D01*
X135134819Y-125401190D02*
X134134819Y-125401190D01*
X134134819Y-125401190D02*
X134277676Y-125496428D01*
X134277676Y-125496428D02*
X134372914Y-125591666D01*
X134372914Y-125591666D02*
X134420533Y-125686904D01*
X134134819Y-124210714D02*
X134134819Y-124686904D01*
X134134819Y-124686904D02*
X134611009Y-124734523D01*
X134611009Y-124734523D02*
X134563390Y-124686904D01*
X134563390Y-124686904D02*
X134515771Y-124591666D01*
X134515771Y-124591666D02*
X134515771Y-124353571D01*
X134515771Y-124353571D02*
X134563390Y-124258333D01*
X134563390Y-124258333D02*
X134611009Y-124210714D01*
X134611009Y-124210714D02*
X134706247Y-124163095D01*
X134706247Y-124163095D02*
X134944342Y-124163095D01*
X134944342Y-124163095D02*
X135039580Y-124210714D01*
X135039580Y-124210714D02*
X135087200Y-124258333D01*
X135087200Y-124258333D02*
X135134819Y-124353571D01*
X135134819Y-124353571D02*
X135134819Y-124591666D01*
X135134819Y-124591666D02*
X135087200Y-124686904D01*
X135087200Y-124686904D02*
X135039580Y-124734523D01*
X137695595Y-84404819D02*
X137695595Y-85214342D01*
X137695595Y-85214342D02*
X137743214Y-85309580D01*
X137743214Y-85309580D02*
X137790833Y-85357200D01*
X137790833Y-85357200D02*
X137886071Y-85404819D01*
X137886071Y-85404819D02*
X138076547Y-85404819D01*
X138076547Y-85404819D02*
X138171785Y-85357200D01*
X138171785Y-85357200D02*
X138219404Y-85309580D01*
X138219404Y-85309580D02*
X138267023Y-85214342D01*
X138267023Y-85214342D02*
X138267023Y-84404819D01*
X139219404Y-84404819D02*
X138743214Y-84404819D01*
X138743214Y-84404819D02*
X138695595Y-84881009D01*
X138695595Y-84881009D02*
X138743214Y-84833390D01*
X138743214Y-84833390D02*
X138838452Y-84785771D01*
X138838452Y-84785771D02*
X139076547Y-84785771D01*
X139076547Y-84785771D02*
X139171785Y-84833390D01*
X139171785Y-84833390D02*
X139219404Y-84881009D01*
X139219404Y-84881009D02*
X139267023Y-84976247D01*
X139267023Y-84976247D02*
X139267023Y-85214342D01*
X139267023Y-85214342D02*
X139219404Y-85309580D01*
X139219404Y-85309580D02*
X139171785Y-85357200D01*
X139171785Y-85357200D02*
X139076547Y-85404819D01*
X139076547Y-85404819D02*
X138838452Y-85404819D01*
X138838452Y-85404819D02*
X138743214Y-85357200D01*
X138743214Y-85357200D02*
X138695595Y-85309580D01*
X152936666Y-59604819D02*
X152936666Y-60319104D01*
X152936666Y-60319104D02*
X152889047Y-60461961D01*
X152889047Y-60461961D02*
X152793809Y-60557200D01*
X152793809Y-60557200D02*
X152650952Y-60604819D01*
X152650952Y-60604819D02*
X152555714Y-60604819D01*
X153841428Y-59938152D02*
X153841428Y-60604819D01*
X153603333Y-59557200D02*
X153365238Y-60271485D01*
X153365238Y-60271485D02*
X153984285Y-60271485D01*
X135295833Y-75359580D02*
X135248214Y-75407200D01*
X135248214Y-75407200D02*
X135105357Y-75454819D01*
X135105357Y-75454819D02*
X135010119Y-75454819D01*
X135010119Y-75454819D02*
X134867262Y-75407200D01*
X134867262Y-75407200D02*
X134772024Y-75311961D01*
X134772024Y-75311961D02*
X134724405Y-75216723D01*
X134724405Y-75216723D02*
X134676786Y-75026247D01*
X134676786Y-75026247D02*
X134676786Y-74883390D01*
X134676786Y-74883390D02*
X134724405Y-74692914D01*
X134724405Y-74692914D02*
X134772024Y-74597676D01*
X134772024Y-74597676D02*
X134867262Y-74502438D01*
X134867262Y-74502438D02*
X135010119Y-74454819D01*
X135010119Y-74454819D02*
X135105357Y-74454819D01*
X135105357Y-74454819D02*
X135248214Y-74502438D01*
X135248214Y-74502438D02*
X135295833Y-74550057D01*
X136152976Y-74454819D02*
X135962500Y-74454819D01*
X135962500Y-74454819D02*
X135867262Y-74502438D01*
X135867262Y-74502438D02*
X135819643Y-74550057D01*
X135819643Y-74550057D02*
X135724405Y-74692914D01*
X135724405Y-74692914D02*
X135676786Y-74883390D01*
X135676786Y-74883390D02*
X135676786Y-75264342D01*
X135676786Y-75264342D02*
X135724405Y-75359580D01*
X135724405Y-75359580D02*
X135772024Y-75407200D01*
X135772024Y-75407200D02*
X135867262Y-75454819D01*
X135867262Y-75454819D02*
X136057738Y-75454819D01*
X136057738Y-75454819D02*
X136152976Y-75407200D01*
X136152976Y-75407200D02*
X136200595Y-75359580D01*
X136200595Y-75359580D02*
X136248214Y-75264342D01*
X136248214Y-75264342D02*
X136248214Y-75026247D01*
X136248214Y-75026247D02*
X136200595Y-74931009D01*
X136200595Y-74931009D02*
X136152976Y-74883390D01*
X136152976Y-74883390D02*
X136057738Y-74835771D01*
X136057738Y-74835771D02*
X135867262Y-74835771D01*
X135867262Y-74835771D02*
X135772024Y-74883390D01*
X135772024Y-74883390D02*
X135724405Y-74931009D01*
X135724405Y-74931009D02*
X135676786Y-75026247D01*
X147554819Y-82583333D02*
X148269104Y-82583333D01*
X148269104Y-82583333D02*
X148411961Y-82630952D01*
X148411961Y-82630952D02*
X148507200Y-82726190D01*
X148507200Y-82726190D02*
X148554819Y-82869047D01*
X148554819Y-82869047D02*
X148554819Y-82964285D01*
X147554819Y-82202380D02*
X147554819Y-81583333D01*
X147554819Y-81583333D02*
X147935771Y-81916666D01*
X147935771Y-81916666D02*
X147935771Y-81773809D01*
X147935771Y-81773809D02*
X147983390Y-81678571D01*
X147983390Y-81678571D02*
X148031009Y-81630952D01*
X148031009Y-81630952D02*
X148126247Y-81583333D01*
X148126247Y-81583333D02*
X148364342Y-81583333D01*
X148364342Y-81583333D02*
X148459580Y-81630952D01*
X148459580Y-81630952D02*
X148507200Y-81678571D01*
X148507200Y-81678571D02*
X148554819Y-81773809D01*
X148554819Y-81773809D02*
X148554819Y-82059523D01*
X148554819Y-82059523D02*
X148507200Y-82154761D01*
X148507200Y-82154761D02*
X148459580Y-82202380D01*
X139833333Y-96909580D02*
X139785714Y-96957200D01*
X139785714Y-96957200D02*
X139642857Y-97004819D01*
X139642857Y-97004819D02*
X139547619Y-97004819D01*
X139547619Y-97004819D02*
X139404762Y-96957200D01*
X139404762Y-96957200D02*
X139309524Y-96861961D01*
X139309524Y-96861961D02*
X139261905Y-96766723D01*
X139261905Y-96766723D02*
X139214286Y-96576247D01*
X139214286Y-96576247D02*
X139214286Y-96433390D01*
X139214286Y-96433390D02*
X139261905Y-96242914D01*
X139261905Y-96242914D02*
X139309524Y-96147676D01*
X139309524Y-96147676D02*
X139404762Y-96052438D01*
X139404762Y-96052438D02*
X139547619Y-96004819D01*
X139547619Y-96004819D02*
X139642857Y-96004819D01*
X139642857Y-96004819D02*
X139785714Y-96052438D01*
X139785714Y-96052438D02*
X139833333Y-96100057D01*
X140309524Y-97004819D02*
X140500000Y-97004819D01*
X140500000Y-97004819D02*
X140595238Y-96957200D01*
X140595238Y-96957200D02*
X140642857Y-96909580D01*
X140642857Y-96909580D02*
X140738095Y-96766723D01*
X140738095Y-96766723D02*
X140785714Y-96576247D01*
X140785714Y-96576247D02*
X140785714Y-96195295D01*
X140785714Y-96195295D02*
X140738095Y-96100057D01*
X140738095Y-96100057D02*
X140690476Y-96052438D01*
X140690476Y-96052438D02*
X140595238Y-96004819D01*
X140595238Y-96004819D02*
X140404762Y-96004819D01*
X140404762Y-96004819D02*
X140309524Y-96052438D01*
X140309524Y-96052438D02*
X140261905Y-96100057D01*
X140261905Y-96100057D02*
X140214286Y-96195295D01*
X140214286Y-96195295D02*
X140214286Y-96433390D01*
X140214286Y-96433390D02*
X140261905Y-96528628D01*
X140261905Y-96528628D02*
X140309524Y-96576247D01*
X140309524Y-96576247D02*
X140404762Y-96623866D01*
X140404762Y-96623866D02*
X140595238Y-96623866D01*
X140595238Y-96623866D02*
X140690476Y-96576247D01*
X140690476Y-96576247D02*
X140738095Y-96528628D01*
X140738095Y-96528628D02*
X140785714Y-96433390D01*
X120539580Y-94204166D02*
X120587200Y-94251785D01*
X120587200Y-94251785D02*
X120634819Y-94394642D01*
X120634819Y-94394642D02*
X120634819Y-94489880D01*
X120634819Y-94489880D02*
X120587200Y-94632737D01*
X120587200Y-94632737D02*
X120491961Y-94727975D01*
X120491961Y-94727975D02*
X120396723Y-94775594D01*
X120396723Y-94775594D02*
X120206247Y-94823213D01*
X120206247Y-94823213D02*
X120063390Y-94823213D01*
X120063390Y-94823213D02*
X119872914Y-94775594D01*
X119872914Y-94775594D02*
X119777676Y-94727975D01*
X119777676Y-94727975D02*
X119682438Y-94632737D01*
X119682438Y-94632737D02*
X119634819Y-94489880D01*
X119634819Y-94489880D02*
X119634819Y-94394642D01*
X119634819Y-94394642D02*
X119682438Y-94251785D01*
X119682438Y-94251785D02*
X119730057Y-94204166D01*
X119968152Y-93347023D02*
X120634819Y-93347023D01*
X119587200Y-93585118D02*
X120301485Y-93823213D01*
X120301485Y-93823213D02*
X120301485Y-93204166D01*
X117804819Y-57833333D02*
X118519104Y-57833333D01*
X118519104Y-57833333D02*
X118661961Y-57880952D01*
X118661961Y-57880952D02*
X118757200Y-57976190D01*
X118757200Y-57976190D02*
X118804819Y-58119047D01*
X118804819Y-58119047D02*
X118804819Y-58214285D01*
X117900057Y-57404761D02*
X117852438Y-57357142D01*
X117852438Y-57357142D02*
X117804819Y-57261904D01*
X117804819Y-57261904D02*
X117804819Y-57023809D01*
X117804819Y-57023809D02*
X117852438Y-56928571D01*
X117852438Y-56928571D02*
X117900057Y-56880952D01*
X117900057Y-56880952D02*
X117995295Y-56833333D01*
X117995295Y-56833333D02*
X118090533Y-56833333D01*
X118090533Y-56833333D02*
X118233390Y-56880952D01*
X118233390Y-56880952D02*
X118804819Y-57452380D01*
X118804819Y-57452380D02*
X118804819Y-56833333D01*
X101679580Y-83180357D02*
X101727200Y-83227976D01*
X101727200Y-83227976D02*
X101774819Y-83370833D01*
X101774819Y-83370833D02*
X101774819Y-83466071D01*
X101774819Y-83466071D02*
X101727200Y-83608928D01*
X101727200Y-83608928D02*
X101631961Y-83704166D01*
X101631961Y-83704166D02*
X101536723Y-83751785D01*
X101536723Y-83751785D02*
X101346247Y-83799404D01*
X101346247Y-83799404D02*
X101203390Y-83799404D01*
X101203390Y-83799404D02*
X101012914Y-83751785D01*
X101012914Y-83751785D02*
X100917676Y-83704166D01*
X100917676Y-83704166D02*
X100822438Y-83608928D01*
X100822438Y-83608928D02*
X100774819Y-83466071D01*
X100774819Y-83466071D02*
X100774819Y-83370833D01*
X100774819Y-83370833D02*
X100822438Y-83227976D01*
X100822438Y-83227976D02*
X100870057Y-83180357D01*
X101774819Y-82227976D02*
X101774819Y-82799404D01*
X101774819Y-82513690D02*
X100774819Y-82513690D01*
X100774819Y-82513690D02*
X100917676Y-82608928D01*
X100917676Y-82608928D02*
X101012914Y-82704166D01*
X101012914Y-82704166D02*
X101060533Y-82799404D01*
X101774819Y-81751785D02*
X101774819Y-81561309D01*
X101774819Y-81561309D02*
X101727200Y-81466071D01*
X101727200Y-81466071D02*
X101679580Y-81418452D01*
X101679580Y-81418452D02*
X101536723Y-81323214D01*
X101536723Y-81323214D02*
X101346247Y-81275595D01*
X101346247Y-81275595D02*
X100965295Y-81275595D01*
X100965295Y-81275595D02*
X100870057Y-81323214D01*
X100870057Y-81323214D02*
X100822438Y-81370833D01*
X100822438Y-81370833D02*
X100774819Y-81466071D01*
X100774819Y-81466071D02*
X100774819Y-81656547D01*
X100774819Y-81656547D02*
X100822438Y-81751785D01*
X100822438Y-81751785D02*
X100870057Y-81799404D01*
X100870057Y-81799404D02*
X100965295Y-81847023D01*
X100965295Y-81847023D02*
X101203390Y-81847023D01*
X101203390Y-81847023D02*
X101298628Y-81799404D01*
X101298628Y-81799404D02*
X101346247Y-81751785D01*
X101346247Y-81751785D02*
X101393866Y-81656547D01*
X101393866Y-81656547D02*
X101393866Y-81466071D01*
X101393866Y-81466071D02*
X101346247Y-81370833D01*
X101346247Y-81370833D02*
X101298628Y-81323214D01*
X101298628Y-81323214D02*
X101203390Y-81275595D01*
X129904819Y-105333333D02*
X130619104Y-105333333D01*
X130619104Y-105333333D02*
X130761961Y-105380952D01*
X130761961Y-105380952D02*
X130857200Y-105476190D01*
X130857200Y-105476190D02*
X130904819Y-105619047D01*
X130904819Y-105619047D02*
X130904819Y-105714285D01*
X130904819Y-104809523D02*
X130904819Y-104619047D01*
X130904819Y-104619047D02*
X130857200Y-104523809D01*
X130857200Y-104523809D02*
X130809580Y-104476190D01*
X130809580Y-104476190D02*
X130666723Y-104380952D01*
X130666723Y-104380952D02*
X130476247Y-104333333D01*
X130476247Y-104333333D02*
X130095295Y-104333333D01*
X130095295Y-104333333D02*
X130000057Y-104380952D01*
X130000057Y-104380952D02*
X129952438Y-104428571D01*
X129952438Y-104428571D02*
X129904819Y-104523809D01*
X129904819Y-104523809D02*
X129904819Y-104714285D01*
X129904819Y-104714285D02*
X129952438Y-104809523D01*
X129952438Y-104809523D02*
X130000057Y-104857142D01*
X130000057Y-104857142D02*
X130095295Y-104904761D01*
X130095295Y-104904761D02*
X130333390Y-104904761D01*
X130333390Y-104904761D02*
X130428628Y-104857142D01*
X130428628Y-104857142D02*
X130476247Y-104809523D01*
X130476247Y-104809523D02*
X130523866Y-104714285D01*
X130523866Y-104714285D02*
X130523866Y-104523809D01*
X130523866Y-104523809D02*
X130476247Y-104428571D01*
X130476247Y-104428571D02*
X130428628Y-104380952D01*
X130428628Y-104380952D02*
X130333390Y-104333333D01*
X151033333Y-119479819D02*
X150700000Y-119003628D01*
X150461905Y-119479819D02*
X150461905Y-118479819D01*
X150461905Y-118479819D02*
X150842857Y-118479819D01*
X150842857Y-118479819D02*
X150938095Y-118527438D01*
X150938095Y-118527438D02*
X150985714Y-118575057D01*
X150985714Y-118575057D02*
X151033333Y-118670295D01*
X151033333Y-118670295D02*
X151033333Y-118813152D01*
X151033333Y-118813152D02*
X150985714Y-118908390D01*
X150985714Y-118908390D02*
X150938095Y-118956009D01*
X150938095Y-118956009D02*
X150842857Y-119003628D01*
X150842857Y-119003628D02*
X150461905Y-119003628D01*
X151890476Y-118479819D02*
X151700000Y-118479819D01*
X151700000Y-118479819D02*
X151604762Y-118527438D01*
X151604762Y-118527438D02*
X151557143Y-118575057D01*
X151557143Y-118575057D02*
X151461905Y-118717914D01*
X151461905Y-118717914D02*
X151414286Y-118908390D01*
X151414286Y-118908390D02*
X151414286Y-119289342D01*
X151414286Y-119289342D02*
X151461905Y-119384580D01*
X151461905Y-119384580D02*
X151509524Y-119432200D01*
X151509524Y-119432200D02*
X151604762Y-119479819D01*
X151604762Y-119479819D02*
X151795238Y-119479819D01*
X151795238Y-119479819D02*
X151890476Y-119432200D01*
X151890476Y-119432200D02*
X151938095Y-119384580D01*
X151938095Y-119384580D02*
X151985714Y-119289342D01*
X151985714Y-119289342D02*
X151985714Y-119051247D01*
X151985714Y-119051247D02*
X151938095Y-118956009D01*
X151938095Y-118956009D02*
X151890476Y-118908390D01*
X151890476Y-118908390D02*
X151795238Y-118860771D01*
X151795238Y-118860771D02*
X151604762Y-118860771D01*
X151604762Y-118860771D02*
X151509524Y-118908390D01*
X151509524Y-118908390D02*
X151461905Y-118956009D01*
X151461905Y-118956009D02*
X151414286Y-119051247D01*
X117894642Y-100179580D02*
X117847023Y-100227200D01*
X117847023Y-100227200D02*
X117704166Y-100274819D01*
X117704166Y-100274819D02*
X117608928Y-100274819D01*
X117608928Y-100274819D02*
X117466071Y-100227200D01*
X117466071Y-100227200D02*
X117370833Y-100131961D01*
X117370833Y-100131961D02*
X117323214Y-100036723D01*
X117323214Y-100036723D02*
X117275595Y-99846247D01*
X117275595Y-99846247D02*
X117275595Y-99703390D01*
X117275595Y-99703390D02*
X117323214Y-99512914D01*
X117323214Y-99512914D02*
X117370833Y-99417676D01*
X117370833Y-99417676D02*
X117466071Y-99322438D01*
X117466071Y-99322438D02*
X117608928Y-99274819D01*
X117608928Y-99274819D02*
X117704166Y-99274819D01*
X117704166Y-99274819D02*
X117847023Y-99322438D01*
X117847023Y-99322438D02*
X117894642Y-99370057D01*
X118275595Y-99370057D02*
X118323214Y-99322438D01*
X118323214Y-99322438D02*
X118418452Y-99274819D01*
X118418452Y-99274819D02*
X118656547Y-99274819D01*
X118656547Y-99274819D02*
X118751785Y-99322438D01*
X118751785Y-99322438D02*
X118799404Y-99370057D01*
X118799404Y-99370057D02*
X118847023Y-99465295D01*
X118847023Y-99465295D02*
X118847023Y-99560533D01*
X118847023Y-99560533D02*
X118799404Y-99703390D01*
X118799404Y-99703390D02*
X118227976Y-100274819D01*
X118227976Y-100274819D02*
X118847023Y-100274819D01*
X119751785Y-99274819D02*
X119275595Y-99274819D01*
X119275595Y-99274819D02*
X119227976Y-99751009D01*
X119227976Y-99751009D02*
X119275595Y-99703390D01*
X119275595Y-99703390D02*
X119370833Y-99655771D01*
X119370833Y-99655771D02*
X119608928Y-99655771D01*
X119608928Y-99655771D02*
X119704166Y-99703390D01*
X119704166Y-99703390D02*
X119751785Y-99751009D01*
X119751785Y-99751009D02*
X119799404Y-99846247D01*
X119799404Y-99846247D02*
X119799404Y-100084342D01*
X119799404Y-100084342D02*
X119751785Y-100179580D01*
X119751785Y-100179580D02*
X119704166Y-100227200D01*
X119704166Y-100227200D02*
X119608928Y-100274819D01*
X119608928Y-100274819D02*
X119370833Y-100274819D01*
X119370833Y-100274819D02*
X119275595Y-100227200D01*
X119275595Y-100227200D02*
X119227976Y-100179580D01*
X106653333Y-108984819D02*
X106320000Y-108508628D01*
X106081905Y-108984819D02*
X106081905Y-107984819D01*
X106081905Y-107984819D02*
X106462857Y-107984819D01*
X106462857Y-107984819D02*
X106558095Y-108032438D01*
X106558095Y-108032438D02*
X106605714Y-108080057D01*
X106605714Y-108080057D02*
X106653333Y-108175295D01*
X106653333Y-108175295D02*
X106653333Y-108318152D01*
X106653333Y-108318152D02*
X106605714Y-108413390D01*
X106605714Y-108413390D02*
X106558095Y-108461009D01*
X106558095Y-108461009D02*
X106462857Y-108508628D01*
X106462857Y-108508628D02*
X106081905Y-108508628D01*
X107605714Y-108984819D02*
X107034286Y-108984819D01*
X107320000Y-108984819D02*
X107320000Y-107984819D01*
X107320000Y-107984819D02*
X107224762Y-108127676D01*
X107224762Y-108127676D02*
X107129524Y-108222914D01*
X107129524Y-108222914D02*
X107034286Y-108270533D01*
X110124819Y-108643094D02*
X109124819Y-108643094D01*
X109124819Y-108643094D02*
X109124819Y-108404999D01*
X109124819Y-108404999D02*
X109172438Y-108262142D01*
X109172438Y-108262142D02*
X109267676Y-108166904D01*
X109267676Y-108166904D02*
X109362914Y-108119285D01*
X109362914Y-108119285D02*
X109553390Y-108071666D01*
X109553390Y-108071666D02*
X109696247Y-108071666D01*
X109696247Y-108071666D02*
X109886723Y-108119285D01*
X109886723Y-108119285D02*
X109981961Y-108166904D01*
X109981961Y-108166904D02*
X110077200Y-108262142D01*
X110077200Y-108262142D02*
X110124819Y-108404999D01*
X110124819Y-108404999D02*
X110124819Y-108643094D01*
X109220057Y-107690713D02*
X109172438Y-107643094D01*
X109172438Y-107643094D02*
X109124819Y-107547856D01*
X109124819Y-107547856D02*
X109124819Y-107309761D01*
X109124819Y-107309761D02*
X109172438Y-107214523D01*
X109172438Y-107214523D02*
X109220057Y-107166904D01*
X109220057Y-107166904D02*
X109315295Y-107119285D01*
X109315295Y-107119285D02*
X109410533Y-107119285D01*
X109410533Y-107119285D02*
X109553390Y-107166904D01*
X109553390Y-107166904D02*
X110124819Y-107738332D01*
X110124819Y-107738332D02*
X110124819Y-107119285D01*
X122333333Y-74104819D02*
X122000000Y-73628628D01*
X121761905Y-74104819D02*
X121761905Y-73104819D01*
X121761905Y-73104819D02*
X122142857Y-73104819D01*
X122142857Y-73104819D02*
X122238095Y-73152438D01*
X122238095Y-73152438D02*
X122285714Y-73200057D01*
X122285714Y-73200057D02*
X122333333Y-73295295D01*
X122333333Y-73295295D02*
X122333333Y-73438152D01*
X122333333Y-73438152D02*
X122285714Y-73533390D01*
X122285714Y-73533390D02*
X122238095Y-73581009D01*
X122238095Y-73581009D02*
X122142857Y-73628628D01*
X122142857Y-73628628D02*
X121761905Y-73628628D01*
X122714286Y-73200057D02*
X122761905Y-73152438D01*
X122761905Y-73152438D02*
X122857143Y-73104819D01*
X122857143Y-73104819D02*
X123095238Y-73104819D01*
X123095238Y-73104819D02*
X123190476Y-73152438D01*
X123190476Y-73152438D02*
X123238095Y-73200057D01*
X123238095Y-73200057D02*
X123285714Y-73295295D01*
X123285714Y-73295295D02*
X123285714Y-73390533D01*
X123285714Y-73390533D02*
X123238095Y-73533390D01*
X123238095Y-73533390D02*
X122666667Y-74104819D01*
X122666667Y-74104819D02*
X123285714Y-74104819D01*
X137313095Y-74207200D02*
X137455952Y-74254819D01*
X137455952Y-74254819D02*
X137694047Y-74254819D01*
X137694047Y-74254819D02*
X137789285Y-74207200D01*
X137789285Y-74207200D02*
X137836904Y-74159580D01*
X137836904Y-74159580D02*
X137884523Y-74064342D01*
X137884523Y-74064342D02*
X137884523Y-73969104D01*
X137884523Y-73969104D02*
X137836904Y-73873866D01*
X137836904Y-73873866D02*
X137789285Y-73826247D01*
X137789285Y-73826247D02*
X137694047Y-73778628D01*
X137694047Y-73778628D02*
X137503571Y-73731009D01*
X137503571Y-73731009D02*
X137408333Y-73683390D01*
X137408333Y-73683390D02*
X137360714Y-73635771D01*
X137360714Y-73635771D02*
X137313095Y-73540533D01*
X137313095Y-73540533D02*
X137313095Y-73445295D01*
X137313095Y-73445295D02*
X137360714Y-73350057D01*
X137360714Y-73350057D02*
X137408333Y-73302438D01*
X137408333Y-73302438D02*
X137503571Y-73254819D01*
X137503571Y-73254819D02*
X137741666Y-73254819D01*
X137741666Y-73254819D02*
X137884523Y-73302438D01*
X138217857Y-73254819D02*
X138836904Y-73254819D01*
X138836904Y-73254819D02*
X138503571Y-73635771D01*
X138503571Y-73635771D02*
X138646428Y-73635771D01*
X138646428Y-73635771D02*
X138741666Y-73683390D01*
X138741666Y-73683390D02*
X138789285Y-73731009D01*
X138789285Y-73731009D02*
X138836904Y-73826247D01*
X138836904Y-73826247D02*
X138836904Y-74064342D01*
X138836904Y-74064342D02*
X138789285Y-74159580D01*
X138789285Y-74159580D02*
X138741666Y-74207200D01*
X138741666Y-74207200D02*
X138646428Y-74254819D01*
X138646428Y-74254819D02*
X138360714Y-74254819D01*
X138360714Y-74254819D02*
X138265476Y-74207200D01*
X138265476Y-74207200D02*
X138217857Y-74159580D01*
X105923809Y-80178628D02*
X105923809Y-80654819D01*
X105590476Y-79654819D02*
X105923809Y-80178628D01*
X105923809Y-80178628D02*
X106257142Y-79654819D01*
X106495238Y-79654819D02*
X107114285Y-79654819D01*
X107114285Y-79654819D02*
X106780952Y-80035771D01*
X106780952Y-80035771D02*
X106923809Y-80035771D01*
X106923809Y-80035771D02*
X107019047Y-80083390D01*
X107019047Y-80083390D02*
X107066666Y-80131009D01*
X107066666Y-80131009D02*
X107114285Y-80226247D01*
X107114285Y-80226247D02*
X107114285Y-80464342D01*
X107114285Y-80464342D02*
X107066666Y-80559580D01*
X107066666Y-80559580D02*
X107019047Y-80607200D01*
X107019047Y-80607200D02*
X106923809Y-80654819D01*
X106923809Y-80654819D02*
X106638095Y-80654819D01*
X106638095Y-80654819D02*
X106542857Y-80607200D01*
X106542857Y-80607200D02*
X106495238Y-80559580D01*
X142074819Y-56333333D02*
X142789104Y-56333333D01*
X142789104Y-56333333D02*
X142931961Y-56380952D01*
X142931961Y-56380952D02*
X143027200Y-56476190D01*
X143027200Y-56476190D02*
X143074819Y-56619047D01*
X143074819Y-56619047D02*
X143074819Y-56714285D01*
X143074819Y-55333333D02*
X143074819Y-55904761D01*
X143074819Y-55619047D02*
X142074819Y-55619047D01*
X142074819Y-55619047D02*
X142217676Y-55714285D01*
X142217676Y-55714285D02*
X142312914Y-55809523D01*
X142312914Y-55809523D02*
X142360533Y-55904761D01*
X133359580Y-118642857D02*
X133407200Y-118690476D01*
X133407200Y-118690476D02*
X133454819Y-118833333D01*
X133454819Y-118833333D02*
X133454819Y-118928571D01*
X133454819Y-118928571D02*
X133407200Y-119071428D01*
X133407200Y-119071428D02*
X133311961Y-119166666D01*
X133311961Y-119166666D02*
X133216723Y-119214285D01*
X133216723Y-119214285D02*
X133026247Y-119261904D01*
X133026247Y-119261904D02*
X132883390Y-119261904D01*
X132883390Y-119261904D02*
X132692914Y-119214285D01*
X132692914Y-119214285D02*
X132597676Y-119166666D01*
X132597676Y-119166666D02*
X132502438Y-119071428D01*
X132502438Y-119071428D02*
X132454819Y-118928571D01*
X132454819Y-118928571D02*
X132454819Y-118833333D01*
X132454819Y-118833333D02*
X132502438Y-118690476D01*
X132502438Y-118690476D02*
X132550057Y-118642857D01*
X133454819Y-117690476D02*
X133454819Y-118261904D01*
X133454819Y-117976190D02*
X132454819Y-117976190D01*
X132454819Y-117976190D02*
X132597676Y-118071428D01*
X132597676Y-118071428D02*
X132692914Y-118166666D01*
X132692914Y-118166666D02*
X132740533Y-118261904D01*
X132454819Y-117357142D02*
X132454819Y-116738095D01*
X132454819Y-116738095D02*
X132835771Y-117071428D01*
X132835771Y-117071428D02*
X132835771Y-116928571D01*
X132835771Y-116928571D02*
X132883390Y-116833333D01*
X132883390Y-116833333D02*
X132931009Y-116785714D01*
X132931009Y-116785714D02*
X133026247Y-116738095D01*
X133026247Y-116738095D02*
X133264342Y-116738095D01*
X133264342Y-116738095D02*
X133359580Y-116785714D01*
X133359580Y-116785714D02*
X133407200Y-116833333D01*
X133407200Y-116833333D02*
X133454819Y-116928571D01*
X133454819Y-116928571D02*
X133454819Y-117214285D01*
X133454819Y-117214285D02*
X133407200Y-117309523D01*
X133407200Y-117309523D02*
X133359580Y-117357142D01*
X120738095Y-63482200D02*
X120880952Y-63529819D01*
X120880952Y-63529819D02*
X121119047Y-63529819D01*
X121119047Y-63529819D02*
X121214285Y-63482200D01*
X121214285Y-63482200D02*
X121261904Y-63434580D01*
X121261904Y-63434580D02*
X121309523Y-63339342D01*
X121309523Y-63339342D02*
X121309523Y-63244104D01*
X121309523Y-63244104D02*
X121261904Y-63148866D01*
X121261904Y-63148866D02*
X121214285Y-63101247D01*
X121214285Y-63101247D02*
X121119047Y-63053628D01*
X121119047Y-63053628D02*
X120928571Y-63006009D01*
X120928571Y-63006009D02*
X120833333Y-62958390D01*
X120833333Y-62958390D02*
X120785714Y-62910771D01*
X120785714Y-62910771D02*
X120738095Y-62815533D01*
X120738095Y-62815533D02*
X120738095Y-62720295D01*
X120738095Y-62720295D02*
X120785714Y-62625057D01*
X120785714Y-62625057D02*
X120833333Y-62577438D01*
X120833333Y-62577438D02*
X120928571Y-62529819D01*
X120928571Y-62529819D02*
X121166666Y-62529819D01*
X121166666Y-62529819D02*
X121309523Y-62577438D01*
X122166666Y-62863152D02*
X122166666Y-63529819D01*
X121928571Y-62482200D02*
X121690476Y-63196485D01*
X121690476Y-63196485D02*
X122309523Y-63196485D01*
X133333333Y-84604819D02*
X133000000Y-84128628D01*
X132761905Y-84604819D02*
X132761905Y-83604819D01*
X132761905Y-83604819D02*
X133142857Y-83604819D01*
X133142857Y-83604819D02*
X133238095Y-83652438D01*
X133238095Y-83652438D02*
X133285714Y-83700057D01*
X133285714Y-83700057D02*
X133333333Y-83795295D01*
X133333333Y-83795295D02*
X133333333Y-83938152D01*
X133333333Y-83938152D02*
X133285714Y-84033390D01*
X133285714Y-84033390D02*
X133238095Y-84081009D01*
X133238095Y-84081009D02*
X133142857Y-84128628D01*
X133142857Y-84128628D02*
X132761905Y-84128628D01*
X133666667Y-83604819D02*
X134285714Y-83604819D01*
X134285714Y-83604819D02*
X133952381Y-83985771D01*
X133952381Y-83985771D02*
X134095238Y-83985771D01*
X134095238Y-83985771D02*
X134190476Y-84033390D01*
X134190476Y-84033390D02*
X134238095Y-84081009D01*
X134238095Y-84081009D02*
X134285714Y-84176247D01*
X134285714Y-84176247D02*
X134285714Y-84414342D01*
X134285714Y-84414342D02*
X134238095Y-84509580D01*
X134238095Y-84509580D02*
X134190476Y-84557200D01*
X134190476Y-84557200D02*
X134095238Y-84604819D01*
X134095238Y-84604819D02*
X133809524Y-84604819D01*
X133809524Y-84604819D02*
X133714286Y-84557200D01*
X133714286Y-84557200D02*
X133666667Y-84509580D01*
X141404819Y-68583333D02*
X142119104Y-68583333D01*
X142119104Y-68583333D02*
X142261961Y-68630952D01*
X142261961Y-68630952D02*
X142357200Y-68726190D01*
X142357200Y-68726190D02*
X142404819Y-68869047D01*
X142404819Y-68869047D02*
X142404819Y-68964285D01*
X141833390Y-67964285D02*
X141785771Y-68059523D01*
X141785771Y-68059523D02*
X141738152Y-68107142D01*
X141738152Y-68107142D02*
X141642914Y-68154761D01*
X141642914Y-68154761D02*
X141595295Y-68154761D01*
X141595295Y-68154761D02*
X141500057Y-68107142D01*
X141500057Y-68107142D02*
X141452438Y-68059523D01*
X141452438Y-68059523D02*
X141404819Y-67964285D01*
X141404819Y-67964285D02*
X141404819Y-67773809D01*
X141404819Y-67773809D02*
X141452438Y-67678571D01*
X141452438Y-67678571D02*
X141500057Y-67630952D01*
X141500057Y-67630952D02*
X141595295Y-67583333D01*
X141595295Y-67583333D02*
X141642914Y-67583333D01*
X141642914Y-67583333D02*
X141738152Y-67630952D01*
X141738152Y-67630952D02*
X141785771Y-67678571D01*
X141785771Y-67678571D02*
X141833390Y-67773809D01*
X141833390Y-67773809D02*
X141833390Y-67964285D01*
X141833390Y-67964285D02*
X141881009Y-68059523D01*
X141881009Y-68059523D02*
X141928628Y-68107142D01*
X141928628Y-68107142D02*
X142023866Y-68154761D01*
X142023866Y-68154761D02*
X142214342Y-68154761D01*
X142214342Y-68154761D02*
X142309580Y-68107142D01*
X142309580Y-68107142D02*
X142357200Y-68059523D01*
X142357200Y-68059523D02*
X142404819Y-67964285D01*
X142404819Y-67964285D02*
X142404819Y-67773809D01*
X142404819Y-67773809D02*
X142357200Y-67678571D01*
X142357200Y-67678571D02*
X142309580Y-67630952D01*
X142309580Y-67630952D02*
X142214342Y-67583333D01*
X142214342Y-67583333D02*
X142023866Y-67583333D01*
X142023866Y-67583333D02*
X141928628Y-67630952D01*
X141928628Y-67630952D02*
X141881009Y-67678571D01*
X141881009Y-67678571D02*
X141833390Y-67773809D01*
X145159580Y-126805357D02*
X145207200Y-126852976D01*
X145207200Y-126852976D02*
X145254819Y-126995833D01*
X145254819Y-126995833D02*
X145254819Y-127091071D01*
X145254819Y-127091071D02*
X145207200Y-127233928D01*
X145207200Y-127233928D02*
X145111961Y-127329166D01*
X145111961Y-127329166D02*
X145016723Y-127376785D01*
X145016723Y-127376785D02*
X144826247Y-127424404D01*
X144826247Y-127424404D02*
X144683390Y-127424404D01*
X144683390Y-127424404D02*
X144492914Y-127376785D01*
X144492914Y-127376785D02*
X144397676Y-127329166D01*
X144397676Y-127329166D02*
X144302438Y-127233928D01*
X144302438Y-127233928D02*
X144254819Y-127091071D01*
X144254819Y-127091071D02*
X144254819Y-126995833D01*
X144254819Y-126995833D02*
X144302438Y-126852976D01*
X144302438Y-126852976D02*
X144350057Y-126805357D01*
X145254819Y-125852976D02*
X145254819Y-126424404D01*
X145254819Y-126138690D02*
X144254819Y-126138690D01*
X144254819Y-126138690D02*
X144397676Y-126233928D01*
X144397676Y-126233928D02*
X144492914Y-126329166D01*
X144492914Y-126329166D02*
X144540533Y-126424404D01*
X144254819Y-124995833D02*
X144254819Y-125186309D01*
X144254819Y-125186309D02*
X144302438Y-125281547D01*
X144302438Y-125281547D02*
X144350057Y-125329166D01*
X144350057Y-125329166D02*
X144492914Y-125424404D01*
X144492914Y-125424404D02*
X144683390Y-125472023D01*
X144683390Y-125472023D02*
X145064342Y-125472023D01*
X145064342Y-125472023D02*
X145159580Y-125424404D01*
X145159580Y-125424404D02*
X145207200Y-125376785D01*
X145207200Y-125376785D02*
X145254819Y-125281547D01*
X145254819Y-125281547D02*
X145254819Y-125091071D01*
X145254819Y-125091071D02*
X145207200Y-124995833D01*
X145207200Y-124995833D02*
X145159580Y-124948214D01*
X145159580Y-124948214D02*
X145064342Y-124900595D01*
X145064342Y-124900595D02*
X144826247Y-124900595D01*
X144826247Y-124900595D02*
X144731009Y-124948214D01*
X144731009Y-124948214D02*
X144683390Y-124995833D01*
X144683390Y-124995833D02*
X144635771Y-125091071D01*
X144635771Y-125091071D02*
X144635771Y-125281547D01*
X144635771Y-125281547D02*
X144683390Y-125376785D01*
X144683390Y-125376785D02*
X144731009Y-125424404D01*
X144731009Y-125424404D02*
X144826247Y-125472023D01*
X128870833Y-89179580D02*
X128823214Y-89227200D01*
X128823214Y-89227200D02*
X128680357Y-89274819D01*
X128680357Y-89274819D02*
X128585119Y-89274819D01*
X128585119Y-89274819D02*
X128442262Y-89227200D01*
X128442262Y-89227200D02*
X128347024Y-89131961D01*
X128347024Y-89131961D02*
X128299405Y-89036723D01*
X128299405Y-89036723D02*
X128251786Y-88846247D01*
X128251786Y-88846247D02*
X128251786Y-88703390D01*
X128251786Y-88703390D02*
X128299405Y-88512914D01*
X128299405Y-88512914D02*
X128347024Y-88417676D01*
X128347024Y-88417676D02*
X128442262Y-88322438D01*
X128442262Y-88322438D02*
X128585119Y-88274819D01*
X128585119Y-88274819D02*
X128680357Y-88274819D01*
X128680357Y-88274819D02*
X128823214Y-88322438D01*
X128823214Y-88322438D02*
X128870833Y-88370057D01*
X129204167Y-88274819D02*
X129823214Y-88274819D01*
X129823214Y-88274819D02*
X129489881Y-88655771D01*
X129489881Y-88655771D02*
X129632738Y-88655771D01*
X129632738Y-88655771D02*
X129727976Y-88703390D01*
X129727976Y-88703390D02*
X129775595Y-88751009D01*
X129775595Y-88751009D02*
X129823214Y-88846247D01*
X129823214Y-88846247D02*
X129823214Y-89084342D01*
X129823214Y-89084342D02*
X129775595Y-89179580D01*
X129775595Y-89179580D02*
X129727976Y-89227200D01*
X129727976Y-89227200D02*
X129632738Y-89274819D01*
X129632738Y-89274819D02*
X129347024Y-89274819D01*
X129347024Y-89274819D02*
X129251786Y-89227200D01*
X129251786Y-89227200D02*
X129204167Y-89179580D01*
X156529819Y-94833333D02*
X157244104Y-94833333D01*
X157244104Y-94833333D02*
X157386961Y-94880952D01*
X157386961Y-94880952D02*
X157482200Y-94976190D01*
X157482200Y-94976190D02*
X157529819Y-95119047D01*
X157529819Y-95119047D02*
X157529819Y-95214285D01*
X156529819Y-94452380D02*
X156529819Y-93785714D01*
X156529819Y-93785714D02*
X157529819Y-94214285D01*
X123833333Y-96954819D02*
X123500000Y-96478628D01*
X123261905Y-96954819D02*
X123261905Y-95954819D01*
X123261905Y-95954819D02*
X123642857Y-95954819D01*
X123642857Y-95954819D02*
X123738095Y-96002438D01*
X123738095Y-96002438D02*
X123785714Y-96050057D01*
X123785714Y-96050057D02*
X123833333Y-96145295D01*
X123833333Y-96145295D02*
X123833333Y-96288152D01*
X123833333Y-96288152D02*
X123785714Y-96383390D01*
X123785714Y-96383390D02*
X123738095Y-96431009D01*
X123738095Y-96431009D02*
X123642857Y-96478628D01*
X123642857Y-96478628D02*
X123261905Y-96478628D01*
X124309524Y-96954819D02*
X124500000Y-96954819D01*
X124500000Y-96954819D02*
X124595238Y-96907200D01*
X124595238Y-96907200D02*
X124642857Y-96859580D01*
X124642857Y-96859580D02*
X124738095Y-96716723D01*
X124738095Y-96716723D02*
X124785714Y-96526247D01*
X124785714Y-96526247D02*
X124785714Y-96145295D01*
X124785714Y-96145295D02*
X124738095Y-96050057D01*
X124738095Y-96050057D02*
X124690476Y-96002438D01*
X124690476Y-96002438D02*
X124595238Y-95954819D01*
X124595238Y-95954819D02*
X124404762Y-95954819D01*
X124404762Y-95954819D02*
X124309524Y-96002438D01*
X124309524Y-96002438D02*
X124261905Y-96050057D01*
X124261905Y-96050057D02*
X124214286Y-96145295D01*
X124214286Y-96145295D02*
X124214286Y-96383390D01*
X124214286Y-96383390D02*
X124261905Y-96478628D01*
X124261905Y-96478628D02*
X124309524Y-96526247D01*
X124309524Y-96526247D02*
X124404762Y-96573866D01*
X124404762Y-96573866D02*
X124595238Y-96573866D01*
X124595238Y-96573866D02*
X124690476Y-96526247D01*
X124690476Y-96526247D02*
X124738095Y-96478628D01*
X124738095Y-96478628D02*
X124785714Y-96383390D01*
X121413095Y-75804819D02*
X121413095Y-76614342D01*
X121413095Y-76614342D02*
X121460714Y-76709580D01*
X121460714Y-76709580D02*
X121508333Y-76757200D01*
X121508333Y-76757200D02*
X121603571Y-76804819D01*
X121603571Y-76804819D02*
X121794047Y-76804819D01*
X121794047Y-76804819D02*
X121889285Y-76757200D01*
X121889285Y-76757200D02*
X121936904Y-76709580D01*
X121936904Y-76709580D02*
X121984523Y-76614342D01*
X121984523Y-76614342D02*
X121984523Y-75804819D01*
X122984523Y-76804819D02*
X122413095Y-76804819D01*
X122698809Y-76804819D02*
X122698809Y-75804819D01*
X122698809Y-75804819D02*
X122603571Y-75947676D01*
X122603571Y-75947676D02*
X122508333Y-76042914D01*
X122508333Y-76042914D02*
X122413095Y-76090533D01*
%TO.C,C23*%
D12*
X130765000Y-59438748D02*
X130765000Y-59961252D01*
X132235000Y-59438748D02*
X132235000Y-59961252D01*
%TO.C,C17*%
X120235000Y-57761252D02*
X120235000Y-57238748D01*
X118765000Y-57761252D02*
X118765000Y-57238748D01*
%TO.C,U3*%
X123800000Y-53790000D02*
X127560000Y-53790000D01*
X123800000Y-60610000D02*
X127560000Y-60610000D01*
X127560000Y-53790000D02*
X127560000Y-55050000D01*
X127560000Y-60610000D02*
X127560000Y-59350000D01*
X122520000Y-53890000D02*
X122280000Y-53560000D01*
X122760000Y-53560000D01*
X122520000Y-53890000D01*
G36*
X122520000Y-53890000D02*
G01*
X122280000Y-53560000D01*
X122760000Y-53560000D01*
X122520000Y-53890000D01*
G37*
%TO.C,C18*%
X118765000Y-61738748D02*
X118765000Y-62261252D01*
X120235000Y-61738748D02*
X120235000Y-62261252D01*
%TO.C,C22*%
X132235000Y-55461252D02*
X132235000Y-54938748D01*
X130765000Y-55461252D02*
X130765000Y-54938748D01*
%TO.C,D5*%
X136562500Y-60460000D02*
X139422500Y-60460000D01*
X139422500Y-58540000D02*
X136562500Y-58540000D01*
X139422500Y-60460000D02*
X139422500Y-58540000D01*
%TO.C,R10*%
X137714564Y-56345000D02*
X137260436Y-56345000D01*
X137714564Y-57815000D02*
X137260436Y-57815000D01*
%TO.C,C26*%
X107265000Y-94201248D02*
X107265000Y-94723752D01*
X108735000Y-94201248D02*
X108735000Y-94723752D01*
%TO.C,U2*%
X115715000Y-111260000D02*
X115715000Y-105740000D01*
X115890000Y-111260000D02*
X115715000Y-111260000D01*
X124135000Y-111260000D02*
X123960000Y-111260000D01*
X115715000Y-105740000D02*
X115890000Y-105740000D01*
X123960000Y-105740000D02*
X124135000Y-105740000D01*
X124135000Y-105740000D02*
X124135000Y-111260000D01*
X115885000Y-112000000D02*
X115415000Y-112340000D01*
X115415000Y-111660000D01*
X115885000Y-112000000D01*
G36*
X115885000Y-112000000D02*
G01*
X115415000Y-112340000D01*
X115415000Y-111660000D01*
X115885000Y-112000000D01*
G37*
%TO.C,C1*%
X115761252Y-76265000D02*
X115238748Y-76265000D01*
X115761252Y-77735000D02*
X115238748Y-77735000D01*
%TO.C,D3*%
X153035000Y-124135000D02*
X153035000Y-122215000D01*
X153035000Y-122215000D02*
X150175000Y-122215000D01*
X150175000Y-124135000D02*
X153035000Y-124135000D01*
%TO.C,R4*%
X133727064Y-81235000D02*
X133272936Y-81235000D01*
X133727064Y-79765000D02*
X133272936Y-79765000D01*
%TO.C,SW2*%
D13*
D14*
X100450000Y-72900000D02*
X100449999Y-72900000D01*
X100449999Y-72900000D01*
X100449999Y-72900000D01*
X100449999Y-72900000D01*
X100449999Y-72900000D01*
X100449999Y-72900000D01*
X100449999Y-72900000D01*
X100449999Y-72899999D01*
X100449999Y-72899999D01*
X100449999Y-72899999D01*
X100449999Y-72899999D01*
X100449999Y-72899999D01*
X100450000Y-72899999D01*
X100450000Y-72899999D01*
X100450000Y-72899999D01*
X100450000Y-72899999D01*
X100450000Y-72899999D01*
X100450000Y-72899999D01*
X100450000Y-72899999D01*
X100450000Y-72899999D01*
X100450000Y-72899999D01*
X100450000Y-72899999D01*
X100450000Y-72899999D01*
X100450000Y-72899999D01*
X100450001Y-72899999D01*
X100450001Y-72899999D01*
X100450001Y-72899999D01*
X100450001Y-72899999D01*
X100450001Y-72899999D01*
X100450001Y-72899999D01*
X100450001Y-72900000D01*
X100450001Y-72900000D01*
X100450001Y-72900000D01*
X100450001Y-72900000D01*
X100450001Y-72900000D01*
X100450001Y-72900000D01*
X100450001Y-72900000D01*
X100450000Y-72900000D01*
X100450000Y-72900000D02*
X100450001Y-72900000D01*
X100450001Y-72900000D01*
X100450001Y-72900000D01*
X100450001Y-72900000D01*
X100450001Y-72900000D01*
X100450001Y-72900000D01*
X100450001Y-72900001D01*
X100450001Y-72900001D01*
X100450001Y-72900001D01*
X100450001Y-72900001D01*
X100450001Y-72900001D01*
X100450001Y-72900001D01*
X100450001Y-72900001D01*
X100450000Y-72900001D01*
X100450000Y-72900001D01*
X100450000Y-72900001D01*
X100450000Y-72900001D01*
X100450000Y-72900001D01*
X100450000Y-72900001D01*
X100450000Y-72900001D01*
X100450000Y-72900001D01*
X100450000Y-72900001D01*
X100450000Y-72900001D01*
X100450000Y-72900001D01*
X100450000Y-72900001D01*
X100449999Y-72900001D01*
X100449999Y-72900001D01*
X100449999Y-72900001D01*
X100449999Y-72900001D01*
X100449999Y-72900001D01*
X100449999Y-72900001D01*
X100449999Y-72900000D01*
X100449999Y-72900000D01*
X100449999Y-72900000D01*
X100449999Y-72900000D01*
X100449999Y-72900000D01*
X100449999Y-72900000D01*
X100450000Y-72900000D01*
D13*
D14*
X100450000Y-73100000D02*
X100449999Y-73100000D01*
X100449999Y-73100000D01*
X100449999Y-73100000D01*
X100449999Y-73100000D01*
X100449999Y-73100000D01*
X100449999Y-73100000D01*
X100449999Y-73100000D01*
X100449999Y-73099999D01*
X100449999Y-73099999D01*
X100449999Y-73099999D01*
X100449999Y-73099999D01*
X100449999Y-73099999D01*
X100450000Y-73099999D01*
X100450000Y-73099999D01*
X100450000Y-73099999D01*
X100450000Y-73099999D01*
X100450000Y-73099999D01*
X100450000Y-73099999D01*
X100450000Y-73099999D01*
X100450000Y-73099999D01*
X100450000Y-73099999D01*
X100450000Y-73099999D01*
X100450000Y-73099999D01*
X100450000Y-73099999D01*
X100450001Y-73099999D01*
X100450001Y-73099999D01*
X100450001Y-73099999D01*
X100450001Y-73099999D01*
X100450001Y-73099999D01*
X100450001Y-73099999D01*
X100450001Y-73100000D01*
X100450001Y-73100000D01*
X100450001Y-73100000D01*
X100450001Y-73100000D01*
X100450001Y-73100000D01*
X100450001Y-73100000D01*
X100450001Y-73100000D01*
X100450000Y-73100000D01*
X100450000Y-73100000D02*
X100450001Y-73100000D01*
X100450001Y-73100000D01*
X100450001Y-73100000D01*
X100450001Y-73100000D01*
X100450001Y-73100000D01*
X100450001Y-73100000D01*
X100450001Y-73100001D01*
X100450001Y-73100001D01*
X100450001Y-73100001D01*
X100450001Y-73100001D01*
X100450001Y-73100001D01*
X100450001Y-73100001D01*
X100450001Y-73100001D01*
X100450000Y-73100001D01*
X100450000Y-73100001D01*
X100450000Y-73100001D01*
X100450000Y-73100001D01*
X100450000Y-73100001D01*
X100450000Y-73100001D01*
X100450000Y-73100001D01*
X100450000Y-73100001D01*
X100450000Y-73100001D01*
X100450000Y-73100001D01*
X100450000Y-73100001D01*
X100450000Y-73100001D01*
X100449999Y-73100001D01*
X100449999Y-73100001D01*
X100449999Y-73100001D01*
X100449999Y-73100001D01*
X100449999Y-73100001D01*
X100449999Y-73100001D01*
X100449999Y-73100000D01*
X100449999Y-73100000D01*
X100449999Y-73100000D01*
X100449999Y-73100000D01*
X100449999Y-73100000D01*
X100449999Y-73100000D01*
X100450000Y-73100000D01*
D15*
X102350000Y-71250000D02*
X108350000Y-71250000D01*
X102350000Y-72000000D02*
X102350000Y-71250000D01*
X102350000Y-74000000D02*
X102350000Y-74750000D01*
X102350000Y-74750000D02*
X108350000Y-74750000D01*
X108350000Y-71250000D02*
X108350000Y-72000000D01*
X108350000Y-74750000D02*
X108350000Y-74000000D01*
D13*
X100450000Y-72900000D02*
G75*
G02*
X100450000Y-73100000I0J-100000D01*
G01*
X100450000Y-73100000D02*
G75*
G02*
X100450000Y-72900000I0J100000D01*
G01*
%TO.C,R17*%
D12*
X133490000Y-91307064D02*
X133490000Y-90852936D01*
X134960000Y-91307064D02*
X134960000Y-90852936D01*
%TO.C,C14*%
X144065000Y-118423752D02*
X144065000Y-117901248D01*
X145535000Y-118423752D02*
X145535000Y-117901248D01*
%TO.C,D1*%
X106550000Y-96900000D02*
X106550000Y-102400000D01*
X106550000Y-96900000D02*
X113550000Y-96900000D01*
X106550000Y-102400000D02*
X113100000Y-102400000D01*
X107350000Y-100550000D02*
X107350000Y-98750000D01*
X112750000Y-100550000D02*
X112750000Y-98750000D01*
X113100000Y-102400000D02*
X113550000Y-101950000D01*
X113550000Y-101950000D02*
X113550000Y-96900000D01*
%TO.C,C7*%
X123776248Y-92765000D02*
X124298752Y-92765000D01*
X123776248Y-94235000D02*
X124298752Y-94235000D01*
%TO.C,D4*%
X122140000Y-100040000D02*
X122140000Y-101960000D01*
X122140000Y-101960000D02*
X125000000Y-101960000D01*
X125000000Y-100040000D02*
X122140000Y-100040000D01*
%TO.C,C2*%
X128265000Y-77223752D02*
X128265000Y-76701248D01*
X129735000Y-77223752D02*
X129735000Y-76701248D01*
%TO.C,R8*%
X145842224Y-79022500D02*
X145332776Y-79022500D01*
X145842224Y-77977500D02*
X145332776Y-77977500D01*
%TO.C,C8*%
X127276248Y-107265000D02*
X127798752Y-107265000D01*
X127276248Y-108735000D02*
X127798752Y-108735000D01*
%TO.C,U6*%
X136020000Y-117890000D02*
X135780000Y-117560000D01*
X136260000Y-117560000D01*
X136020000Y-117890000D01*
G36*
X136020000Y-117890000D02*
G01*
X135780000Y-117560000D01*
X136260000Y-117560000D01*
X136020000Y-117890000D01*
G37*
X141060000Y-124610000D02*
X141060000Y-123350000D01*
X141060000Y-117790000D02*
X141060000Y-119050000D01*
X137300000Y-124610000D02*
X141060000Y-124610000D01*
X137300000Y-117790000D02*
X141060000Y-117790000D01*
%TO.C,C21*%
X111765000Y-72723752D02*
X111765000Y-72201248D01*
X113235000Y-72723752D02*
X113235000Y-72201248D01*
%TO.C,F1*%
X146248752Y-90710000D02*
X143476248Y-90710000D01*
X146248752Y-87290000D02*
X143476248Y-87290000D01*
%TO.C,C20*%
X109265000Y-82798752D02*
X109265000Y-82276248D01*
X110735000Y-82798752D02*
X110735000Y-82276248D01*
%TO.C,R7*%
X144657776Y-86522500D02*
X145167224Y-86522500D01*
X144657776Y-85477500D02*
X145167224Y-85477500D01*
%TO.C,J5*%
X156250000Y-108650000D02*
X155000000Y-108650000D01*
X153700000Y-108950000D02*
X153700000Y-109700000D01*
X153700000Y-109700000D02*
X150750000Y-109700000D01*
X150750000Y-109700000D02*
X150750000Y-112750000D01*
X156250000Y-109900000D02*
X156250000Y-108650000D01*
X153700000Y-115800000D02*
X150750000Y-115800000D01*
X150750000Y-115800000D02*
X150750000Y-112750000D01*
X153700000Y-116550000D02*
X153700000Y-115800000D01*
X149990000Y-108940000D02*
X155960000Y-108940000D01*
X155960000Y-116560000D01*
X149990000Y-116560000D01*
X149990000Y-108940000D01*
X155200000Y-108950000D02*
X155950000Y-108950000D01*
X155950000Y-110750000D01*
X155200000Y-110750000D01*
X155200000Y-108950000D01*
X155200000Y-112250000D02*
X155950000Y-112250000D01*
X155950000Y-113250000D01*
X155200000Y-113250000D01*
X155200000Y-112250000D01*
X155200000Y-114750000D02*
X155950000Y-114750000D01*
X155950000Y-116550000D01*
X155200000Y-116550000D01*
X155200000Y-114750000D01*
%TO.C,C15*%
X133735000Y-125163748D02*
X133735000Y-125686252D01*
X132265000Y-125163748D02*
X132265000Y-125686252D01*
%TO.C,U5*%
X139367500Y-84110000D02*
X137547500Y-84110000D01*
X139367500Y-84060000D02*
X139367500Y-84110000D01*
X139367500Y-80990000D02*
X139367500Y-81040000D01*
X137547500Y-84110000D02*
X137547500Y-84060000D01*
X137547500Y-81040000D02*
X137547500Y-80990000D01*
X137547500Y-80990000D02*
X139367500Y-80990000D01*
X140147500Y-84390000D02*
X139667500Y-84390000D01*
X139907500Y-84060000D01*
X140147500Y-84390000D01*
G36*
X140147500Y-84390000D02*
G01*
X139667500Y-84390000D01*
X139907500Y-84060000D01*
X140147500Y-84390000D01*
G37*
%TO.C,J4*%
X150670000Y-61590000D02*
X150670000Y-71870000D01*
X150670000Y-61590000D02*
X153270000Y-61590000D01*
X150670000Y-71870000D02*
X155870000Y-71870000D01*
X153270000Y-61590000D02*
X153270000Y-64190000D01*
X153270000Y-64190000D02*
X155870000Y-64190000D01*
X154540000Y-61590000D02*
X155870000Y-61590000D01*
X155870000Y-61590000D02*
X155870000Y-62920000D01*
X155870000Y-64190000D02*
X155870000Y-71870000D01*
%TO.C,C6*%
X135201248Y-75945000D02*
X135723752Y-75945000D01*
X135201248Y-77415000D02*
X135723752Y-77415000D01*
%TO.C,J3*%
X151965000Y-86950000D02*
X153745000Y-86950000D01*
X151965000Y-77550000D02*
X153745000Y-77550000D01*
X149045000Y-85050000D02*
X149045000Y-85850000D01*
%TO.C,C9*%
X137000000Y-95710000D02*
X143940000Y-95710000D01*
X143940000Y-92290000D02*
X137000000Y-92290000D01*
X143940000Y-95710000D02*
X143940000Y-92290000D01*
%TO.C,C4*%
X117765000Y-93776248D02*
X117765000Y-94298752D01*
X119235000Y-93776248D02*
X119235000Y-94298752D01*
%TO.C,J2*%
X96470000Y-56170000D02*
X96470000Y-58830000D01*
X114310000Y-56170000D02*
X96470000Y-56170000D01*
X114310000Y-56170000D02*
X114310000Y-58830000D01*
X114310000Y-58830000D02*
X96470000Y-58830000D01*
X116910000Y-57500000D02*
X116910000Y-58830000D01*
X116910000Y-58830000D02*
X115580000Y-58830000D01*
%TO.C,C19*%
X102265000Y-82798752D02*
X102265000Y-82276248D01*
X103735000Y-82798752D02*
X103735000Y-82276248D01*
%TO.C,J9*%
X131250000Y-112850000D02*
X132500000Y-112850000D01*
X133800000Y-112550000D02*
X133800000Y-111800000D01*
X133800000Y-111800000D02*
X136750000Y-111800000D01*
X136750000Y-111800000D02*
X136750000Y-105000000D01*
X131250000Y-111600000D02*
X131250000Y-112850000D01*
X133800000Y-98200000D02*
X136750000Y-98200000D01*
X136750000Y-98200000D02*
X136750000Y-105000000D01*
X133800000Y-97450000D02*
X133800000Y-98200000D01*
X131540000Y-97440000D02*
X137510000Y-97440000D01*
X137510000Y-112560000D01*
X131540000Y-112560000D01*
X131540000Y-97440000D01*
X131550000Y-110750000D02*
X132300000Y-110750000D01*
X132300000Y-112550000D01*
X131550000Y-112550000D01*
X131550000Y-110750000D01*
X131550000Y-100750000D02*
X132300000Y-100750000D01*
X132300000Y-109250000D01*
X131550000Y-109250000D01*
X131550000Y-100750000D01*
X131550000Y-97450000D02*
X132300000Y-97450000D01*
X132300000Y-99250000D01*
X131550000Y-99250000D01*
X131550000Y-97450000D01*
%TO.C,R6*%
X150972936Y-121410000D02*
X151427064Y-121410000D01*
X150972936Y-119940000D02*
X151427064Y-119940000D01*
%TO.C,C25*%
X118276248Y-100765000D02*
X118798752Y-100765000D01*
X118276248Y-102235000D02*
X118798752Y-102235000D01*
%TO.C,R1*%
X107047064Y-106145000D02*
X106592936Y-106145000D01*
X107047064Y-107615000D02*
X106592936Y-107615000D01*
%TO.C,D2*%
X110360000Y-106905000D02*
X110360000Y-109765000D01*
X110360000Y-109765000D02*
X112280000Y-109765000D01*
X112280000Y-109765000D02*
X112280000Y-106905000D01*
%TO.C,R2*%
X122727064Y-71265000D02*
X122272936Y-71265000D01*
X122727064Y-72735000D02*
X122272936Y-72735000D01*
%TO.C,S3*%
D16*
X140075000Y-68175000D02*
X140075000Y-67675000D01*
X139750000Y-66550000D02*
X133750000Y-66550000D01*
X138000000Y-69300000D02*
X136950000Y-69300000D01*
X133425000Y-68175000D02*
X133425000Y-67675000D01*
D13*
X139150000Y-71325000D02*
G75*
G02*
X138950000Y-71325000I-100000J0D01*
G01*
X138950000Y-71325000D02*
G75*
G02*
X139150000Y-71325000I100000J0D01*
G01*
%TO.C,Y3*%
D12*
X104340000Y-80940000D02*
X104340000Y-84360000D01*
X104340000Y-84360000D02*
X108460000Y-84360000D01*
%TO.C,J1*%
X143620000Y-57380000D02*
X143620000Y-56000000D01*
X145000000Y-57380000D02*
X143620000Y-57380000D01*
X146270000Y-54620000D02*
X154000000Y-54620000D01*
X146270000Y-57380000D02*
X146270000Y-54620000D01*
X146270000Y-57380000D02*
X154000000Y-57380000D01*
X154000000Y-57380000D02*
X154000000Y-54620000D01*
%TO.C,C13*%
X132265000Y-121723752D02*
X132265000Y-121201248D01*
X133735000Y-121723752D02*
X133735000Y-121201248D01*
%TO.C,S4*%
D16*
X121475000Y-67675000D02*
X121475000Y-67175000D01*
X126050000Y-68800000D02*
X125000000Y-68800000D01*
X127800000Y-66050000D02*
X121800000Y-66050000D01*
X128125000Y-67675000D02*
X128125000Y-67175000D01*
D13*
X127200000Y-70825000D02*
G75*
G02*
X127000000Y-70825000I-100000J0D01*
G01*
X127000000Y-70825000D02*
G75*
G02*
X127200000Y-70825000I100000J0D01*
G01*
%TO.C,R3*%
D12*
X133727064Y-83235000D02*
X133272936Y-83235000D01*
X133727064Y-81765000D02*
X133272936Y-81765000D01*
%TO.C,J8*%
X142750000Y-74850000D02*
X144000000Y-74850000D01*
X145300000Y-74550000D02*
X145300000Y-73800000D01*
X145300000Y-73800000D02*
X148250000Y-73800000D01*
X148250000Y-73800000D02*
X148250000Y-68250000D01*
X142750000Y-73600000D02*
X142750000Y-74850000D01*
X145300000Y-62700000D02*
X148250000Y-62700000D01*
X148250000Y-62700000D02*
X148250000Y-68250000D01*
X145300000Y-61950000D02*
X145300000Y-62700000D01*
X143040000Y-61940000D02*
X149010000Y-61940000D01*
X149010000Y-74560000D01*
X143040000Y-74560000D01*
X143040000Y-61940000D01*
X143050000Y-72750000D02*
X143800000Y-72750000D01*
X143800000Y-74550000D01*
X143050000Y-74550000D01*
X143050000Y-72750000D01*
X143050000Y-65250000D02*
X143800000Y-65250000D01*
X143800000Y-71250000D01*
X143050000Y-71250000D01*
X143050000Y-65250000D01*
X143050000Y-61950000D02*
X143800000Y-61950000D01*
X143800000Y-63750000D01*
X143050000Y-63750000D01*
X143050000Y-61950000D01*
%TO.C,C16*%
X145535000Y-122401248D02*
X145535000Y-122923752D01*
X144065000Y-122401248D02*
X144065000Y-122923752D01*
%TO.C,C3*%
X128776248Y-89765000D02*
X129298752Y-89765000D01*
X128776248Y-91235000D02*
X129298752Y-91235000D01*
%TO.C,J7*%
X156275000Y-90400000D02*
X155025000Y-90400000D01*
X153725000Y-90700000D02*
X153725000Y-91450000D01*
X153725000Y-91450000D02*
X150775000Y-91450000D01*
X150775000Y-91450000D02*
X150775000Y-94500000D01*
X156275000Y-91650000D02*
X156275000Y-90400000D01*
X153725000Y-97550000D02*
X150775000Y-97550000D01*
X150775000Y-97550000D02*
X150775000Y-94500000D01*
X153725000Y-98300000D02*
X153725000Y-97550000D01*
X150015000Y-90690000D02*
X155985000Y-90690000D01*
X155985000Y-98310000D01*
X150015000Y-98310000D01*
X150015000Y-90690000D01*
X155225000Y-90700000D02*
X155975000Y-90700000D01*
X155975000Y-92500000D01*
X155225000Y-92500000D01*
X155225000Y-90700000D01*
X155225000Y-94000000D02*
X155975000Y-94000000D01*
X155975000Y-95000000D01*
X155225000Y-95000000D01*
X155225000Y-94000000D01*
X155225000Y-96500000D02*
X155975000Y-96500000D01*
X155975000Y-98300000D01*
X155225000Y-98300000D01*
X155225000Y-96500000D01*
%TO.C,R9*%
X123772936Y-97765000D02*
X124227064Y-97765000D01*
X123772936Y-99235000D02*
X124227064Y-99235000D01*
%TO.C,U1*%
X117065000Y-78640000D02*
X118015000Y-78640000D01*
X117065000Y-79590000D02*
X117065000Y-78640000D01*
X117065000Y-88860000D02*
X117065000Y-87910000D01*
X118015000Y-88860000D02*
X117065000Y-88860000D01*
X126335000Y-78640000D02*
X127285000Y-78640000D01*
X127285000Y-78640000D02*
X127285000Y-79590000D01*
X127285000Y-87910000D02*
X127285000Y-88860000D01*
X127285000Y-88860000D02*
X126335000Y-88860000D01*
X116425000Y-79590000D02*
X116085000Y-79120000D01*
X116765000Y-79120000D01*
X116425000Y-79590000D01*
G36*
X116425000Y-79590000D02*
G01*
X116085000Y-79120000D01*
X116765000Y-79120000D01*
X116425000Y-79590000D01*
G37*
%TD*%
M02*
