%TF.GenerationSoftware,KiCad,Pcbnew,10.0.0*%
%TF.CreationDate,2026-05-05T13:40:19-06:00*%
%TF.ProjectId,2026_12_2Wheel_Balance_Robot_v1,32303236-5f31-4325-9f32-576865656c5f,rev?*%
%TF.SameCoordinates,Original*%
%TF.FileFunction,Legend,Top*%
%TF.FilePolarity,Positive*%
%FSLAX46Y46*%
G04 Gerber Fmt 4.6, Leading zero omitted, Abs format (unit mm)*
G04 Created by KiCad (PCBNEW 10.0.0) date 2026-05-05 13:40:19*
%MOMM*%
%LPD*%
G01*
G04 APERTURE LIST*
%ADD10C,0.100000*%
%ADD11C,0.150000*%
%ADD12C,0.254000*%
%ADD13C,0.120000*%
%ADD14C,0.200000*%
%ADD15C,0.000000*%
%ADD16C,0.127000*%
G04 APERTURE END LIST*
D10*
X97875312Y-112652531D02*
X97541979Y-112176340D01*
X97303884Y-112652531D02*
X97303884Y-111652531D01*
X97303884Y-111652531D02*
X97684836Y-111652531D01*
X97684836Y-111652531D02*
X97780074Y-111700150D01*
X97780074Y-111700150D02*
X97827693Y-111747769D01*
X97827693Y-111747769D02*
X97875312Y-111843007D01*
X97875312Y-111843007D02*
X97875312Y-111985864D01*
X97875312Y-111985864D02*
X97827693Y-112081102D01*
X97827693Y-112081102D02*
X97780074Y-112128721D01*
X97780074Y-112128721D02*
X97684836Y-112176340D01*
X97684836Y-112176340D02*
X97303884Y-112176340D01*
X98208646Y-111985864D02*
X98446741Y-112652531D01*
X98684836Y-111985864D02*
X98446741Y-112652531D01*
X98446741Y-112652531D02*
X98351503Y-112890626D01*
X98351503Y-112890626D02*
X98303884Y-112938245D01*
X98303884Y-112938245D02*
X98208646Y-112985864D01*
X99494360Y-112652531D02*
X99494360Y-112128721D01*
X99494360Y-112128721D02*
X99446741Y-112033483D01*
X99446741Y-112033483D02*
X99351503Y-111985864D01*
X99351503Y-111985864D02*
X99161027Y-111985864D01*
X99161027Y-111985864D02*
X99065789Y-112033483D01*
X99494360Y-112604912D02*
X99399122Y-112652531D01*
X99399122Y-112652531D02*
X99161027Y-112652531D01*
X99161027Y-112652531D02*
X99065789Y-112604912D01*
X99065789Y-112604912D02*
X99018170Y-112509673D01*
X99018170Y-112509673D02*
X99018170Y-112414435D01*
X99018170Y-112414435D02*
X99065789Y-112319197D01*
X99065789Y-112319197D02*
X99161027Y-112271578D01*
X99161027Y-112271578D02*
X99399122Y-112271578D01*
X99399122Y-112271578D02*
X99494360Y-112223959D01*
X99970551Y-111985864D02*
X99970551Y-112652531D01*
X99970551Y-112081102D02*
X100018170Y-112033483D01*
X100018170Y-112033483D02*
X100113408Y-111985864D01*
X100113408Y-111985864D02*
X100256265Y-111985864D01*
X100256265Y-111985864D02*
X100351503Y-112033483D01*
X100351503Y-112033483D02*
X100399122Y-112128721D01*
X100399122Y-112128721D02*
X100399122Y-112652531D01*
X101637218Y-112652531D02*
X101637218Y-111652531D01*
X102208646Y-112652531D02*
X101780075Y-112081102D01*
X102208646Y-111652531D02*
X101637218Y-112223959D01*
X103018170Y-112604912D02*
X102922932Y-112652531D01*
X102922932Y-112652531D02*
X102732456Y-112652531D01*
X102732456Y-112652531D02*
X102637218Y-112604912D01*
X102637218Y-112604912D02*
X102589599Y-112509673D01*
X102589599Y-112509673D02*
X102589599Y-112128721D01*
X102589599Y-112128721D02*
X102637218Y-112033483D01*
X102637218Y-112033483D02*
X102732456Y-111985864D01*
X102732456Y-111985864D02*
X102922932Y-111985864D01*
X102922932Y-111985864D02*
X103018170Y-112033483D01*
X103018170Y-112033483D02*
X103065789Y-112128721D01*
X103065789Y-112128721D02*
X103065789Y-112223959D01*
X103065789Y-112223959D02*
X102589599Y-112319197D01*
X103922932Y-112652531D02*
X103922932Y-112128721D01*
X103922932Y-112128721D02*
X103875313Y-112033483D01*
X103875313Y-112033483D02*
X103780075Y-111985864D01*
X103780075Y-111985864D02*
X103589599Y-111985864D01*
X103589599Y-111985864D02*
X103494361Y-112033483D01*
X103922932Y-112604912D02*
X103827694Y-112652531D01*
X103827694Y-112652531D02*
X103589599Y-112652531D01*
X103589599Y-112652531D02*
X103494361Y-112604912D01*
X103494361Y-112604912D02*
X103446742Y-112509673D01*
X103446742Y-112509673D02*
X103446742Y-112414435D01*
X103446742Y-112414435D02*
X103494361Y-112319197D01*
X103494361Y-112319197D02*
X103589599Y-112271578D01*
X103589599Y-112271578D02*
X103827694Y-112271578D01*
X103827694Y-112271578D02*
X103922932Y-112223959D01*
X104399123Y-112652531D02*
X104399123Y-111985864D01*
X104399123Y-112176340D02*
X104446742Y-112081102D01*
X104446742Y-112081102D02*
X104494361Y-112033483D01*
X104494361Y-112033483D02*
X104589599Y-111985864D01*
X104589599Y-111985864D02*
X104684837Y-111985864D01*
X105018171Y-111985864D02*
X105018171Y-112652531D01*
X105018171Y-112081102D02*
X105065790Y-112033483D01*
X105065790Y-112033483D02*
X105161028Y-111985864D01*
X105161028Y-111985864D02*
X105303885Y-111985864D01*
X105303885Y-111985864D02*
X105399123Y-112033483D01*
X105399123Y-112033483D02*
X105446742Y-112128721D01*
X105446742Y-112128721D02*
X105446742Y-112652531D01*
X105875314Y-112604912D02*
X105970552Y-112652531D01*
X105970552Y-112652531D02*
X106161028Y-112652531D01*
X106161028Y-112652531D02*
X106256266Y-112604912D01*
X106256266Y-112604912D02*
X106303885Y-112509673D01*
X106303885Y-112509673D02*
X106303885Y-112462054D01*
X106303885Y-112462054D02*
X106256266Y-112366816D01*
X106256266Y-112366816D02*
X106161028Y-112319197D01*
X106161028Y-112319197D02*
X106018171Y-112319197D01*
X106018171Y-112319197D02*
X105922933Y-112271578D01*
X105922933Y-112271578D02*
X105875314Y-112176340D01*
X105875314Y-112176340D02*
X105875314Y-112128721D01*
X105875314Y-112128721D02*
X105922933Y-112033483D01*
X105922933Y-112033483D02*
X106018171Y-111985864D01*
X106018171Y-111985864D02*
X106161028Y-111985864D01*
X106161028Y-111985864D02*
X106256266Y-112033483D01*
X97303884Y-113738665D02*
X97637217Y-113738665D01*
X97780074Y-114262475D02*
X97303884Y-114262475D01*
X97303884Y-114262475D02*
X97303884Y-113262475D01*
X97303884Y-113262475D02*
X97780074Y-113262475D01*
X98208646Y-114262475D02*
X98208646Y-113262475D01*
X98208646Y-113262475D02*
X98780074Y-114262475D01*
X98780074Y-114262475D02*
X98780074Y-113262475D01*
X99827693Y-114167236D02*
X99780074Y-114214856D01*
X99780074Y-114214856D02*
X99637217Y-114262475D01*
X99637217Y-114262475D02*
X99541979Y-114262475D01*
X99541979Y-114262475D02*
X99399122Y-114214856D01*
X99399122Y-114214856D02*
X99303884Y-114119617D01*
X99303884Y-114119617D02*
X99256265Y-114024379D01*
X99256265Y-114024379D02*
X99208646Y-113833903D01*
X99208646Y-113833903D02*
X99208646Y-113691046D01*
X99208646Y-113691046D02*
X99256265Y-113500570D01*
X99256265Y-113500570D02*
X99303884Y-113405332D01*
X99303884Y-113405332D02*
X99399122Y-113310094D01*
X99399122Y-113310094D02*
X99541979Y-113262475D01*
X99541979Y-113262475D02*
X99637217Y-113262475D01*
X99637217Y-113262475D02*
X99780074Y-113310094D01*
X99780074Y-113310094D02*
X99827693Y-113357713D01*
X100256265Y-113738665D02*
X100589598Y-113738665D01*
X100732455Y-114262475D02*
X100256265Y-114262475D01*
X100256265Y-114262475D02*
X100256265Y-113262475D01*
X100256265Y-113262475D02*
X100732455Y-113262475D01*
X101161027Y-113738665D02*
X101494360Y-113738665D01*
X101637217Y-114262475D02*
X101161027Y-114262475D01*
X101161027Y-114262475D02*
X101161027Y-113262475D01*
X101161027Y-113262475D02*
X101637217Y-113262475D01*
X102732456Y-113262475D02*
X103351503Y-113262475D01*
X103351503Y-113262475D02*
X103018170Y-113643427D01*
X103018170Y-113643427D02*
X103161027Y-113643427D01*
X103161027Y-113643427D02*
X103256265Y-113691046D01*
X103256265Y-113691046D02*
X103303884Y-113738665D01*
X103303884Y-113738665D02*
X103351503Y-113833903D01*
X103351503Y-113833903D02*
X103351503Y-114071998D01*
X103351503Y-114071998D02*
X103303884Y-114167236D01*
X103303884Y-114167236D02*
X103256265Y-114214856D01*
X103256265Y-114214856D02*
X103161027Y-114262475D01*
X103161027Y-114262475D02*
X102875313Y-114262475D01*
X102875313Y-114262475D02*
X102780075Y-114214856D01*
X102780075Y-114214856D02*
X102732456Y-114167236D01*
X103732456Y-113357713D02*
X103780075Y-113310094D01*
X103780075Y-113310094D02*
X103875313Y-113262475D01*
X103875313Y-113262475D02*
X104113408Y-113262475D01*
X104113408Y-113262475D02*
X104208646Y-113310094D01*
X104208646Y-113310094D02*
X104256265Y-113357713D01*
X104256265Y-113357713D02*
X104303884Y-113452951D01*
X104303884Y-113452951D02*
X104303884Y-113548189D01*
X104303884Y-113548189D02*
X104256265Y-113691046D01*
X104256265Y-113691046D02*
X103684837Y-114262475D01*
X103684837Y-114262475D02*
X104303884Y-114262475D01*
X104637218Y-113262475D02*
X105256265Y-113262475D01*
X105256265Y-113262475D02*
X104922932Y-113643427D01*
X104922932Y-113643427D02*
X105065789Y-113643427D01*
X105065789Y-113643427D02*
X105161027Y-113691046D01*
X105161027Y-113691046D02*
X105208646Y-113738665D01*
X105208646Y-113738665D02*
X105256265Y-113833903D01*
X105256265Y-113833903D02*
X105256265Y-114071998D01*
X105256265Y-114071998D02*
X105208646Y-114167236D01*
X105208646Y-114167236D02*
X105161027Y-114214856D01*
X105161027Y-114214856D02*
X105065789Y-114262475D01*
X105065789Y-114262475D02*
X104780075Y-114262475D01*
X104780075Y-114262475D02*
X104684837Y-114214856D01*
X104684837Y-114214856D02*
X104637218Y-114167236D01*
X106208646Y-114262475D02*
X105637218Y-114262475D01*
X105922932Y-114262475D02*
X105922932Y-113262475D01*
X105922932Y-113262475D02*
X105827694Y-113405332D01*
X105827694Y-113405332D02*
X105732456Y-113500570D01*
X105732456Y-113500570D02*
X105637218Y-113548189D01*
X97303884Y-115872419D02*
X97303884Y-114872419D01*
X97303884Y-114872419D02*
X97541979Y-114872419D01*
X97541979Y-114872419D02*
X97684836Y-114920038D01*
X97684836Y-114920038D02*
X97780074Y-115015276D01*
X97780074Y-115015276D02*
X97827693Y-115110514D01*
X97827693Y-115110514D02*
X97875312Y-115300990D01*
X97875312Y-115300990D02*
X97875312Y-115443847D01*
X97875312Y-115443847D02*
X97827693Y-115634323D01*
X97827693Y-115634323D02*
X97780074Y-115729561D01*
X97780074Y-115729561D02*
X97684836Y-115824800D01*
X97684836Y-115824800D02*
X97541979Y-115872419D01*
X97541979Y-115872419D02*
X97303884Y-115872419D01*
X98684836Y-115824800D02*
X98589598Y-115872419D01*
X98589598Y-115872419D02*
X98399122Y-115872419D01*
X98399122Y-115872419D02*
X98303884Y-115824800D01*
X98303884Y-115824800D02*
X98256265Y-115729561D01*
X98256265Y-115729561D02*
X98256265Y-115348609D01*
X98256265Y-115348609D02*
X98303884Y-115253371D01*
X98303884Y-115253371D02*
X98399122Y-115205752D01*
X98399122Y-115205752D02*
X98589598Y-115205752D01*
X98589598Y-115205752D02*
X98684836Y-115253371D01*
X98684836Y-115253371D02*
X98732455Y-115348609D01*
X98732455Y-115348609D02*
X98732455Y-115443847D01*
X98732455Y-115443847D02*
X98256265Y-115539085D01*
X99161027Y-115205752D02*
X99161027Y-115872419D01*
X99161027Y-115300990D02*
X99208646Y-115253371D01*
X99208646Y-115253371D02*
X99303884Y-115205752D01*
X99303884Y-115205752D02*
X99446741Y-115205752D01*
X99446741Y-115205752D02*
X99541979Y-115253371D01*
X99541979Y-115253371D02*
X99589598Y-115348609D01*
X99589598Y-115348609D02*
X99589598Y-115872419D01*
X99970551Y-115205752D02*
X100208646Y-115872419D01*
X100208646Y-115872419D02*
X100446741Y-115205752D01*
X101208646Y-115824800D02*
X101113408Y-115872419D01*
X101113408Y-115872419D02*
X100922932Y-115872419D01*
X100922932Y-115872419D02*
X100827694Y-115824800D01*
X100827694Y-115824800D02*
X100780075Y-115729561D01*
X100780075Y-115729561D02*
X100780075Y-115348609D01*
X100780075Y-115348609D02*
X100827694Y-115253371D01*
X100827694Y-115253371D02*
X100922932Y-115205752D01*
X100922932Y-115205752D02*
X101113408Y-115205752D01*
X101113408Y-115205752D02*
X101208646Y-115253371D01*
X101208646Y-115253371D02*
X101256265Y-115348609D01*
X101256265Y-115348609D02*
X101256265Y-115443847D01*
X101256265Y-115443847D02*
X100780075Y-115539085D01*
X101684837Y-115872419D02*
X101684837Y-115205752D01*
X101684837Y-115396228D02*
X101732456Y-115300990D01*
X101732456Y-115300990D02*
X101780075Y-115253371D01*
X101780075Y-115253371D02*
X101875313Y-115205752D01*
X101875313Y-115205752D02*
X101970551Y-115205752D01*
X103065790Y-114872419D02*
X103065790Y-115681942D01*
X103065790Y-115681942D02*
X103113409Y-115777180D01*
X103113409Y-115777180D02*
X103161028Y-115824800D01*
X103161028Y-115824800D02*
X103256266Y-115872419D01*
X103256266Y-115872419D02*
X103446742Y-115872419D01*
X103446742Y-115872419D02*
X103541980Y-115824800D01*
X103541980Y-115824800D02*
X103589599Y-115777180D01*
X103589599Y-115777180D02*
X103637218Y-115681942D01*
X103637218Y-115681942D02*
X103637218Y-114872419D01*
X104113409Y-115205752D02*
X104113409Y-115872419D01*
X104113409Y-115300990D02*
X104161028Y-115253371D01*
X104161028Y-115253371D02*
X104256266Y-115205752D01*
X104256266Y-115205752D02*
X104399123Y-115205752D01*
X104399123Y-115205752D02*
X104494361Y-115253371D01*
X104494361Y-115253371D02*
X104541980Y-115348609D01*
X104541980Y-115348609D02*
X104541980Y-115872419D01*
X105018171Y-115872419D02*
X105018171Y-115205752D01*
X105018171Y-114872419D02*
X104970552Y-114920038D01*
X104970552Y-114920038D02*
X105018171Y-114967657D01*
X105018171Y-114967657D02*
X105065790Y-114920038D01*
X105065790Y-114920038D02*
X105018171Y-114872419D01*
X105018171Y-114872419D02*
X105018171Y-114967657D01*
X105399123Y-115205752D02*
X105637218Y-115872419D01*
X105637218Y-115872419D02*
X105875313Y-115205752D01*
X106637218Y-115824800D02*
X106541980Y-115872419D01*
X106541980Y-115872419D02*
X106351504Y-115872419D01*
X106351504Y-115872419D02*
X106256266Y-115824800D01*
X106256266Y-115824800D02*
X106208647Y-115729561D01*
X106208647Y-115729561D02*
X106208647Y-115348609D01*
X106208647Y-115348609D02*
X106256266Y-115253371D01*
X106256266Y-115253371D02*
X106351504Y-115205752D01*
X106351504Y-115205752D02*
X106541980Y-115205752D01*
X106541980Y-115205752D02*
X106637218Y-115253371D01*
X106637218Y-115253371D02*
X106684837Y-115348609D01*
X106684837Y-115348609D02*
X106684837Y-115443847D01*
X106684837Y-115443847D02*
X106208647Y-115539085D01*
X107113409Y-115872419D02*
X107113409Y-115205752D01*
X107113409Y-115396228D02*
X107161028Y-115300990D01*
X107161028Y-115300990D02*
X107208647Y-115253371D01*
X107208647Y-115253371D02*
X107303885Y-115205752D01*
X107303885Y-115205752D02*
X107399123Y-115205752D01*
X107684838Y-115824800D02*
X107780076Y-115872419D01*
X107780076Y-115872419D02*
X107970552Y-115872419D01*
X107970552Y-115872419D02*
X108065790Y-115824800D01*
X108065790Y-115824800D02*
X108113409Y-115729561D01*
X108113409Y-115729561D02*
X108113409Y-115681942D01*
X108113409Y-115681942D02*
X108065790Y-115586704D01*
X108065790Y-115586704D02*
X107970552Y-115539085D01*
X107970552Y-115539085D02*
X107827695Y-115539085D01*
X107827695Y-115539085D02*
X107732457Y-115491466D01*
X107732457Y-115491466D02*
X107684838Y-115396228D01*
X107684838Y-115396228D02*
X107684838Y-115348609D01*
X107684838Y-115348609D02*
X107732457Y-115253371D01*
X107732457Y-115253371D02*
X107827695Y-115205752D01*
X107827695Y-115205752D02*
X107970552Y-115205752D01*
X107970552Y-115205752D02*
X108065790Y-115253371D01*
X108541981Y-115872419D02*
X108541981Y-115205752D01*
X108541981Y-114872419D02*
X108494362Y-114920038D01*
X108494362Y-114920038D02*
X108541981Y-114967657D01*
X108541981Y-114967657D02*
X108589600Y-114920038D01*
X108589600Y-114920038D02*
X108541981Y-114872419D01*
X108541981Y-114872419D02*
X108541981Y-114967657D01*
X108875314Y-115205752D02*
X109256266Y-115205752D01*
X109018171Y-114872419D02*
X109018171Y-115729561D01*
X109018171Y-115729561D02*
X109065790Y-115824800D01*
X109065790Y-115824800D02*
X109161028Y-115872419D01*
X109161028Y-115872419D02*
X109256266Y-115872419D01*
X109494362Y-115205752D02*
X109732457Y-115872419D01*
X109970552Y-115205752D02*
X109732457Y-115872419D01*
X109732457Y-115872419D02*
X109637219Y-116110514D01*
X109637219Y-116110514D02*
X109589600Y-116158133D01*
X109589600Y-116158133D02*
X109494362Y-116205752D01*
D11*
X129333333Y-94827080D02*
X129285714Y-94874700D01*
X129285714Y-94874700D02*
X129142857Y-94922319D01*
X129142857Y-94922319D02*
X129047619Y-94922319D01*
X129047619Y-94922319D02*
X128904762Y-94874700D01*
X128904762Y-94874700D02*
X128809524Y-94779461D01*
X128809524Y-94779461D02*
X128761905Y-94684223D01*
X128761905Y-94684223D02*
X128714286Y-94493747D01*
X128714286Y-94493747D02*
X128714286Y-94350890D01*
X128714286Y-94350890D02*
X128761905Y-94160414D01*
X128761905Y-94160414D02*
X128809524Y-94065176D01*
X128809524Y-94065176D02*
X128904762Y-93969938D01*
X128904762Y-93969938D02*
X129047619Y-93922319D01*
X129047619Y-93922319D02*
X129142857Y-93922319D01*
X129142857Y-93922319D02*
X129285714Y-93969938D01*
X129285714Y-93969938D02*
X129333333Y-94017557D01*
X130190476Y-94255652D02*
X130190476Y-94922319D01*
X129952381Y-93874700D02*
X129714286Y-94588985D01*
X129714286Y-94588985D02*
X130333333Y-94588985D01*
X125166666Y-56954819D02*
X125166666Y-57669104D01*
X125166666Y-57669104D02*
X125119047Y-57811961D01*
X125119047Y-57811961D02*
X125023809Y-57907200D01*
X125023809Y-57907200D02*
X124880952Y-57954819D01*
X124880952Y-57954819D02*
X124785714Y-57954819D01*
X125547619Y-56954819D02*
X126214285Y-56954819D01*
X126214285Y-56954819D02*
X125785714Y-57954819D01*
X165238095Y-54804819D02*
X165238095Y-53804819D01*
X165238095Y-54281009D02*
X165809523Y-54281009D01*
X165809523Y-54804819D02*
X165809523Y-53804819D01*
X166714285Y-54138152D02*
X166714285Y-54804819D01*
X166476190Y-53757200D02*
X166238095Y-54471485D01*
X166238095Y-54471485D02*
X166857142Y-54471485D01*
X101738095Y-57954819D02*
X101738095Y-56954819D01*
X101738095Y-57431009D02*
X102309523Y-57431009D01*
X102309523Y-57954819D02*
X102309523Y-56954819D01*
X102690476Y-56954819D02*
X103309523Y-56954819D01*
X103309523Y-56954819D02*
X102976190Y-57335771D01*
X102976190Y-57335771D02*
X103119047Y-57335771D01*
X103119047Y-57335771D02*
X103214285Y-57383390D01*
X103214285Y-57383390D02*
X103261904Y-57431009D01*
X103261904Y-57431009D02*
X103309523Y-57526247D01*
X103309523Y-57526247D02*
X103309523Y-57764342D01*
X103309523Y-57764342D02*
X103261904Y-57859580D01*
X103261904Y-57859580D02*
X103214285Y-57907200D01*
X103214285Y-57907200D02*
X103119047Y-57954819D01*
X103119047Y-57954819D02*
X102833333Y-57954819D01*
X102833333Y-57954819D02*
X102738095Y-57907200D01*
X102738095Y-57907200D02*
X102690476Y-57859580D01*
X165238095Y-121804819D02*
X165238095Y-120804819D01*
X165238095Y-121281009D02*
X165809523Y-121281009D01*
X165809523Y-121804819D02*
X165809523Y-120804819D01*
X166238095Y-120900057D02*
X166285714Y-120852438D01*
X166285714Y-120852438D02*
X166380952Y-120804819D01*
X166380952Y-120804819D02*
X166619047Y-120804819D01*
X166619047Y-120804819D02*
X166714285Y-120852438D01*
X166714285Y-120852438D02*
X166761904Y-120900057D01*
X166761904Y-120900057D02*
X166809523Y-120995295D01*
X166809523Y-120995295D02*
X166809523Y-121090533D01*
X166809523Y-121090533D02*
X166761904Y-121233390D01*
X166761904Y-121233390D02*
X166190476Y-121804819D01*
X166190476Y-121804819D02*
X166809523Y-121804819D01*
X98738095Y-120804819D02*
X98738095Y-119804819D01*
X98738095Y-120281009D02*
X99309523Y-120281009D01*
X99309523Y-120804819D02*
X99309523Y-119804819D01*
X100309523Y-120804819D02*
X99738095Y-120804819D01*
X100023809Y-120804819D02*
X100023809Y-119804819D01*
X100023809Y-119804819D02*
X99928571Y-119947676D01*
X99928571Y-119947676D02*
X99833333Y-120042914D01*
X99833333Y-120042914D02*
X99738095Y-120090533D01*
X105738095Y-86454819D02*
X105738095Y-87264342D01*
X105738095Y-87264342D02*
X105785714Y-87359580D01*
X105785714Y-87359580D02*
X105833333Y-87407200D01*
X105833333Y-87407200D02*
X105928571Y-87454819D01*
X105928571Y-87454819D02*
X106119047Y-87454819D01*
X106119047Y-87454819D02*
X106214285Y-87407200D01*
X106214285Y-87407200D02*
X106261904Y-87359580D01*
X106261904Y-87359580D02*
X106309523Y-87264342D01*
X106309523Y-87264342D02*
X106309523Y-86454819D01*
X106738095Y-86550057D02*
X106785714Y-86502438D01*
X106785714Y-86502438D02*
X106880952Y-86454819D01*
X106880952Y-86454819D02*
X107119047Y-86454819D01*
X107119047Y-86454819D02*
X107214285Y-86502438D01*
X107214285Y-86502438D02*
X107261904Y-86550057D01*
X107261904Y-86550057D02*
X107309523Y-86645295D01*
X107309523Y-86645295D02*
X107309523Y-86740533D01*
X107309523Y-86740533D02*
X107261904Y-86883390D01*
X107261904Y-86883390D02*
X106690476Y-87454819D01*
X106690476Y-87454819D02*
X107309523Y-87454819D01*
X135359580Y-108642857D02*
X135407200Y-108690476D01*
X135407200Y-108690476D02*
X135454819Y-108833333D01*
X135454819Y-108833333D02*
X135454819Y-108928571D01*
X135454819Y-108928571D02*
X135407200Y-109071428D01*
X135407200Y-109071428D02*
X135311961Y-109166666D01*
X135311961Y-109166666D02*
X135216723Y-109214285D01*
X135216723Y-109214285D02*
X135026247Y-109261904D01*
X135026247Y-109261904D02*
X134883390Y-109261904D01*
X134883390Y-109261904D02*
X134692914Y-109214285D01*
X134692914Y-109214285D02*
X134597676Y-109166666D01*
X134597676Y-109166666D02*
X134502438Y-109071428D01*
X134502438Y-109071428D02*
X134454819Y-108928571D01*
X134454819Y-108928571D02*
X134454819Y-108833333D01*
X134454819Y-108833333D02*
X134502438Y-108690476D01*
X134502438Y-108690476D02*
X134550057Y-108642857D01*
X134550057Y-108261904D02*
X134502438Y-108214285D01*
X134502438Y-108214285D02*
X134454819Y-108119047D01*
X134454819Y-108119047D02*
X134454819Y-107880952D01*
X134454819Y-107880952D02*
X134502438Y-107785714D01*
X134502438Y-107785714D02*
X134550057Y-107738095D01*
X134550057Y-107738095D02*
X134645295Y-107690476D01*
X134645295Y-107690476D02*
X134740533Y-107690476D01*
X134740533Y-107690476D02*
X134883390Y-107738095D01*
X134883390Y-107738095D02*
X135454819Y-108309523D01*
X135454819Y-108309523D02*
X135454819Y-107690476D01*
X134454819Y-107357142D02*
X134454819Y-106738095D01*
X134454819Y-106738095D02*
X134835771Y-107071428D01*
X134835771Y-107071428D02*
X134835771Y-106928571D01*
X134835771Y-106928571D02*
X134883390Y-106833333D01*
X134883390Y-106833333D02*
X134931009Y-106785714D01*
X134931009Y-106785714D02*
X135026247Y-106738095D01*
X135026247Y-106738095D02*
X135264342Y-106738095D01*
X135264342Y-106738095D02*
X135359580Y-106785714D01*
X135359580Y-106785714D02*
X135407200Y-106833333D01*
X135407200Y-106833333D02*
X135454819Y-106928571D01*
X135454819Y-106928571D02*
X135454819Y-107214285D01*
X135454819Y-107214285D02*
X135407200Y-107309523D01*
X135407200Y-107309523D02*
X135359580Y-107357142D01*
X128013333Y-75789580D02*
X127965714Y-75837200D01*
X127965714Y-75837200D02*
X127822857Y-75884819D01*
X127822857Y-75884819D02*
X127727619Y-75884819D01*
X127727619Y-75884819D02*
X127584762Y-75837200D01*
X127584762Y-75837200D02*
X127489524Y-75741961D01*
X127489524Y-75741961D02*
X127441905Y-75646723D01*
X127441905Y-75646723D02*
X127394286Y-75456247D01*
X127394286Y-75456247D02*
X127394286Y-75313390D01*
X127394286Y-75313390D02*
X127441905Y-75122914D01*
X127441905Y-75122914D02*
X127489524Y-75027676D01*
X127489524Y-75027676D02*
X127584762Y-74932438D01*
X127584762Y-74932438D02*
X127727619Y-74884819D01*
X127727619Y-74884819D02*
X127822857Y-74884819D01*
X127822857Y-74884819D02*
X127965714Y-74932438D01*
X127965714Y-74932438D02*
X128013333Y-74980057D01*
X128965714Y-75884819D02*
X128394286Y-75884819D01*
X128680000Y-75884819D02*
X128680000Y-74884819D01*
X128680000Y-74884819D02*
X128584762Y-75027676D01*
X128584762Y-75027676D02*
X128489524Y-75122914D01*
X128489524Y-75122914D02*
X128394286Y-75170533D01*
X131284819Y-109193094D02*
X130284819Y-109193094D01*
X130284819Y-109193094D02*
X130284819Y-108954999D01*
X130284819Y-108954999D02*
X130332438Y-108812142D01*
X130332438Y-108812142D02*
X130427676Y-108716904D01*
X130427676Y-108716904D02*
X130522914Y-108669285D01*
X130522914Y-108669285D02*
X130713390Y-108621666D01*
X130713390Y-108621666D02*
X130856247Y-108621666D01*
X130856247Y-108621666D02*
X131046723Y-108669285D01*
X131046723Y-108669285D02*
X131141961Y-108716904D01*
X131141961Y-108716904D02*
X131237200Y-108812142D01*
X131237200Y-108812142D02*
X131284819Y-108954999D01*
X131284819Y-108954999D02*
X131284819Y-109193094D01*
X130284819Y-108288332D02*
X130284819Y-107669285D01*
X130284819Y-107669285D02*
X130665771Y-108002618D01*
X130665771Y-108002618D02*
X130665771Y-107859761D01*
X130665771Y-107859761D02*
X130713390Y-107764523D01*
X130713390Y-107764523D02*
X130761009Y-107716904D01*
X130761009Y-107716904D02*
X130856247Y-107669285D01*
X130856247Y-107669285D02*
X131094342Y-107669285D01*
X131094342Y-107669285D02*
X131189580Y-107716904D01*
X131189580Y-107716904D02*
X131237200Y-107764523D01*
X131237200Y-107764523D02*
X131284819Y-107859761D01*
X131284819Y-107859761D02*
X131284819Y-108145475D01*
X131284819Y-108145475D02*
X131237200Y-108240713D01*
X131237200Y-108240713D02*
X131189580Y-108288332D01*
X142738095Y-111454819D02*
X142738095Y-112264342D01*
X142738095Y-112264342D02*
X142785714Y-112359580D01*
X142785714Y-112359580D02*
X142833333Y-112407200D01*
X142833333Y-112407200D02*
X142928571Y-112454819D01*
X142928571Y-112454819D02*
X143119047Y-112454819D01*
X143119047Y-112454819D02*
X143214285Y-112407200D01*
X143214285Y-112407200D02*
X143261904Y-112359580D01*
X143261904Y-112359580D02*
X143309523Y-112264342D01*
X143309523Y-112264342D02*
X143309523Y-111454819D01*
X143690476Y-111454819D02*
X144309523Y-111454819D01*
X144309523Y-111454819D02*
X143976190Y-111835771D01*
X143976190Y-111835771D02*
X144119047Y-111835771D01*
X144119047Y-111835771D02*
X144214285Y-111883390D01*
X144214285Y-111883390D02*
X144261904Y-111931009D01*
X144261904Y-111931009D02*
X144309523Y-112026247D01*
X144309523Y-112026247D02*
X144309523Y-112264342D01*
X144309523Y-112264342D02*
X144261904Y-112359580D01*
X144261904Y-112359580D02*
X144214285Y-112407200D01*
X144214285Y-112407200D02*
X144119047Y-112454819D01*
X144119047Y-112454819D02*
X143833333Y-112454819D01*
X143833333Y-112454819D02*
X143738095Y-112407200D01*
X143738095Y-112407200D02*
X143690476Y-112359580D01*
D12*
X116086666Y-73943842D02*
X116268095Y-74004318D01*
X116268095Y-74004318D02*
X116570476Y-74004318D01*
X116570476Y-74004318D02*
X116691428Y-73943842D01*
X116691428Y-73943842D02*
X116751904Y-73883365D01*
X116751904Y-73883365D02*
X116812381Y-73762413D01*
X116812381Y-73762413D02*
X116812381Y-73641461D01*
X116812381Y-73641461D02*
X116751904Y-73520508D01*
X116751904Y-73520508D02*
X116691428Y-73460032D01*
X116691428Y-73460032D02*
X116570476Y-73399556D01*
X116570476Y-73399556D02*
X116328571Y-73339080D01*
X116328571Y-73339080D02*
X116207619Y-73278603D01*
X116207619Y-73278603D02*
X116147142Y-73218127D01*
X116147142Y-73218127D02*
X116086666Y-73097175D01*
X116086666Y-73097175D02*
X116086666Y-72976222D01*
X116086666Y-72976222D02*
X116147142Y-72855270D01*
X116147142Y-72855270D02*
X116207619Y-72794794D01*
X116207619Y-72794794D02*
X116328571Y-72734318D01*
X116328571Y-72734318D02*
X116630952Y-72734318D01*
X116630952Y-72734318D02*
X116812381Y-72794794D01*
X117235714Y-72734318D02*
X117538095Y-74004318D01*
X117538095Y-74004318D02*
X117780000Y-73097175D01*
X117780000Y-73097175D02*
X118021905Y-74004318D01*
X118021905Y-74004318D02*
X118324286Y-72734318D01*
X118747619Y-72855270D02*
X118808095Y-72794794D01*
X118808095Y-72794794D02*
X118929048Y-72734318D01*
X118929048Y-72734318D02*
X119231429Y-72734318D01*
X119231429Y-72734318D02*
X119352381Y-72794794D01*
X119352381Y-72794794D02*
X119412857Y-72855270D01*
X119412857Y-72855270D02*
X119473334Y-72976222D01*
X119473334Y-72976222D02*
X119473334Y-73097175D01*
X119473334Y-73097175D02*
X119412857Y-73278603D01*
X119412857Y-73278603D02*
X118687143Y-74004318D01*
X118687143Y-74004318D02*
X119473334Y-74004318D01*
D11*
X153857142Y-64454819D02*
X153523809Y-63978628D01*
X153285714Y-64454819D02*
X153285714Y-63454819D01*
X153285714Y-63454819D02*
X153666666Y-63454819D01*
X153666666Y-63454819D02*
X153761904Y-63502438D01*
X153761904Y-63502438D02*
X153809523Y-63550057D01*
X153809523Y-63550057D02*
X153857142Y-63645295D01*
X153857142Y-63645295D02*
X153857142Y-63788152D01*
X153857142Y-63788152D02*
X153809523Y-63883390D01*
X153809523Y-63883390D02*
X153761904Y-63931009D01*
X153761904Y-63931009D02*
X153666666Y-63978628D01*
X153666666Y-63978628D02*
X153285714Y-63978628D01*
X154809523Y-64454819D02*
X154238095Y-64454819D01*
X154523809Y-64454819D02*
X154523809Y-63454819D01*
X154523809Y-63454819D02*
X154428571Y-63597676D01*
X154428571Y-63597676D02*
X154333333Y-63692914D01*
X154333333Y-63692914D02*
X154238095Y-63740533D01*
X155142857Y-63454819D02*
X155809523Y-63454819D01*
X155809523Y-63454819D02*
X155380952Y-64454819D01*
X124539580Y-102110357D02*
X124587200Y-102157976D01*
X124587200Y-102157976D02*
X124634819Y-102300833D01*
X124634819Y-102300833D02*
X124634819Y-102396071D01*
X124634819Y-102396071D02*
X124587200Y-102538928D01*
X124587200Y-102538928D02*
X124491961Y-102634166D01*
X124491961Y-102634166D02*
X124396723Y-102681785D01*
X124396723Y-102681785D02*
X124206247Y-102729404D01*
X124206247Y-102729404D02*
X124063390Y-102729404D01*
X124063390Y-102729404D02*
X123872914Y-102681785D01*
X123872914Y-102681785D02*
X123777676Y-102634166D01*
X123777676Y-102634166D02*
X123682438Y-102538928D01*
X123682438Y-102538928D02*
X123634819Y-102396071D01*
X123634819Y-102396071D02*
X123634819Y-102300833D01*
X123634819Y-102300833D02*
X123682438Y-102157976D01*
X123682438Y-102157976D02*
X123730057Y-102110357D01*
X124634819Y-101157976D02*
X124634819Y-101729404D01*
X124634819Y-101443690D02*
X123634819Y-101443690D01*
X123634819Y-101443690D02*
X123777676Y-101538928D01*
X123777676Y-101538928D02*
X123872914Y-101634166D01*
X123872914Y-101634166D02*
X123920533Y-101729404D01*
X123968152Y-100300833D02*
X124634819Y-100300833D01*
X123587200Y-100538928D02*
X124301485Y-100777023D01*
X124301485Y-100777023D02*
X124301485Y-100157976D01*
X126499642Y-92969580D02*
X126452023Y-93017200D01*
X126452023Y-93017200D02*
X126309166Y-93064819D01*
X126309166Y-93064819D02*
X126213928Y-93064819D01*
X126213928Y-93064819D02*
X126071071Y-93017200D01*
X126071071Y-93017200D02*
X125975833Y-92921961D01*
X125975833Y-92921961D02*
X125928214Y-92826723D01*
X125928214Y-92826723D02*
X125880595Y-92636247D01*
X125880595Y-92636247D02*
X125880595Y-92493390D01*
X125880595Y-92493390D02*
X125928214Y-92302914D01*
X125928214Y-92302914D02*
X125975833Y-92207676D01*
X125975833Y-92207676D02*
X126071071Y-92112438D01*
X126071071Y-92112438D02*
X126213928Y-92064819D01*
X126213928Y-92064819D02*
X126309166Y-92064819D01*
X126309166Y-92064819D02*
X126452023Y-92112438D01*
X126452023Y-92112438D02*
X126499642Y-92160057D01*
X126880595Y-92160057D02*
X126928214Y-92112438D01*
X126928214Y-92112438D02*
X127023452Y-92064819D01*
X127023452Y-92064819D02*
X127261547Y-92064819D01*
X127261547Y-92064819D02*
X127356785Y-92112438D01*
X127356785Y-92112438D02*
X127404404Y-92160057D01*
X127404404Y-92160057D02*
X127452023Y-92255295D01*
X127452023Y-92255295D02*
X127452023Y-92350533D01*
X127452023Y-92350533D02*
X127404404Y-92493390D01*
X127404404Y-92493390D02*
X126832976Y-93064819D01*
X126832976Y-93064819D02*
X127452023Y-93064819D01*
X128309166Y-92398152D02*
X128309166Y-93064819D01*
X128071071Y-92017200D02*
X127832976Y-92731485D01*
X127832976Y-92731485D02*
X128452023Y-92731485D01*
X115261905Y-86454819D02*
X115261905Y-85454819D01*
X115261905Y-85454819D02*
X115500000Y-85454819D01*
X115500000Y-85454819D02*
X115642857Y-85502438D01*
X115642857Y-85502438D02*
X115738095Y-85597676D01*
X115738095Y-85597676D02*
X115785714Y-85692914D01*
X115785714Y-85692914D02*
X115833333Y-85883390D01*
X115833333Y-85883390D02*
X115833333Y-86026247D01*
X115833333Y-86026247D02*
X115785714Y-86216723D01*
X115785714Y-86216723D02*
X115738095Y-86311961D01*
X115738095Y-86311961D02*
X115642857Y-86407200D01*
X115642857Y-86407200D02*
X115500000Y-86454819D01*
X115500000Y-86454819D02*
X115261905Y-86454819D01*
X116785714Y-86454819D02*
X116214286Y-86454819D01*
X116500000Y-86454819D02*
X116500000Y-85454819D01*
X116500000Y-85454819D02*
X116404762Y-85597676D01*
X116404762Y-85597676D02*
X116309524Y-85692914D01*
X116309524Y-85692914D02*
X116214286Y-85740533D01*
X118958571Y-89942295D02*
X118501428Y-89942295D01*
X118730000Y-89942295D02*
X118730000Y-89142295D01*
X118730000Y-89142295D02*
X118653809Y-89256580D01*
X118653809Y-89256580D02*
X118577619Y-89332771D01*
X118577619Y-89332771D02*
X118501428Y-89370866D01*
X136550833Y-92609580D02*
X136503214Y-92657200D01*
X136503214Y-92657200D02*
X136360357Y-92704819D01*
X136360357Y-92704819D02*
X136265119Y-92704819D01*
X136265119Y-92704819D02*
X136122262Y-92657200D01*
X136122262Y-92657200D02*
X136027024Y-92561961D01*
X136027024Y-92561961D02*
X135979405Y-92466723D01*
X135979405Y-92466723D02*
X135931786Y-92276247D01*
X135931786Y-92276247D02*
X135931786Y-92133390D01*
X135931786Y-92133390D02*
X135979405Y-91942914D01*
X135979405Y-91942914D02*
X136027024Y-91847676D01*
X136027024Y-91847676D02*
X136122262Y-91752438D01*
X136122262Y-91752438D02*
X136265119Y-91704819D01*
X136265119Y-91704819D02*
X136360357Y-91704819D01*
X136360357Y-91704819D02*
X136503214Y-91752438D01*
X136503214Y-91752438D02*
X136550833Y-91800057D01*
X136884167Y-91704819D02*
X137550833Y-91704819D01*
X137550833Y-91704819D02*
X137122262Y-92704819D01*
X132761905Y-100954819D02*
X132761905Y-99954819D01*
X132761905Y-99954819D02*
X133000000Y-99954819D01*
X133000000Y-99954819D02*
X133142857Y-100002438D01*
X133142857Y-100002438D02*
X133238095Y-100097676D01*
X133238095Y-100097676D02*
X133285714Y-100192914D01*
X133285714Y-100192914D02*
X133333333Y-100383390D01*
X133333333Y-100383390D02*
X133333333Y-100526247D01*
X133333333Y-100526247D02*
X133285714Y-100716723D01*
X133285714Y-100716723D02*
X133238095Y-100811961D01*
X133238095Y-100811961D02*
X133142857Y-100907200D01*
X133142857Y-100907200D02*
X133000000Y-100954819D01*
X133000000Y-100954819D02*
X132761905Y-100954819D01*
X134190476Y-100288152D02*
X134190476Y-100954819D01*
X133952381Y-99907200D02*
X133714286Y-100621485D01*
X133714286Y-100621485D02*
X134333333Y-100621485D01*
X138346666Y-119809819D02*
X138346666Y-120524104D01*
X138346666Y-120524104D02*
X138299047Y-120666961D01*
X138299047Y-120666961D02*
X138203809Y-120762200D01*
X138203809Y-120762200D02*
X138060952Y-120809819D01*
X138060952Y-120809819D02*
X137965714Y-120809819D01*
X139251428Y-119809819D02*
X139060952Y-119809819D01*
X139060952Y-119809819D02*
X138965714Y-119857438D01*
X138965714Y-119857438D02*
X138918095Y-119905057D01*
X138918095Y-119905057D02*
X138822857Y-120047914D01*
X138822857Y-120047914D02*
X138775238Y-120238390D01*
X138775238Y-120238390D02*
X138775238Y-120619342D01*
X138775238Y-120619342D02*
X138822857Y-120714580D01*
X138822857Y-120714580D02*
X138870476Y-120762200D01*
X138870476Y-120762200D02*
X138965714Y-120809819D01*
X138965714Y-120809819D02*
X139156190Y-120809819D01*
X139156190Y-120809819D02*
X139251428Y-120762200D01*
X139251428Y-120762200D02*
X139299047Y-120714580D01*
X139299047Y-120714580D02*
X139346666Y-120619342D01*
X139346666Y-120619342D02*
X139346666Y-120381247D01*
X139346666Y-120381247D02*
X139299047Y-120286009D01*
X139299047Y-120286009D02*
X139251428Y-120238390D01*
X139251428Y-120238390D02*
X139156190Y-120190771D01*
X139156190Y-120190771D02*
X138965714Y-120190771D01*
X138965714Y-120190771D02*
X138870476Y-120238390D01*
X138870476Y-120238390D02*
X138822857Y-120286009D01*
X138822857Y-120286009D02*
X138775238Y-120381247D01*
X157833333Y-80814819D02*
X157500000Y-80338628D01*
X157261905Y-80814819D02*
X157261905Y-79814819D01*
X157261905Y-79814819D02*
X157642857Y-79814819D01*
X157642857Y-79814819D02*
X157738095Y-79862438D01*
X157738095Y-79862438D02*
X157785714Y-79910057D01*
X157785714Y-79910057D02*
X157833333Y-80005295D01*
X157833333Y-80005295D02*
X157833333Y-80148152D01*
X157833333Y-80148152D02*
X157785714Y-80243390D01*
X157785714Y-80243390D02*
X157738095Y-80291009D01*
X157738095Y-80291009D02*
X157642857Y-80338628D01*
X157642857Y-80338628D02*
X157261905Y-80338628D01*
X158404762Y-80243390D02*
X158309524Y-80195771D01*
X158309524Y-80195771D02*
X158261905Y-80148152D01*
X158261905Y-80148152D02*
X158214286Y-80052914D01*
X158214286Y-80052914D02*
X158214286Y-80005295D01*
X158214286Y-80005295D02*
X158261905Y-79910057D01*
X158261905Y-79910057D02*
X158309524Y-79862438D01*
X158309524Y-79862438D02*
X158404762Y-79814819D01*
X158404762Y-79814819D02*
X158595238Y-79814819D01*
X158595238Y-79814819D02*
X158690476Y-79862438D01*
X158690476Y-79862438D02*
X158738095Y-79910057D01*
X158738095Y-79910057D02*
X158785714Y-80005295D01*
X158785714Y-80005295D02*
X158785714Y-80052914D01*
X158785714Y-80052914D02*
X158738095Y-80148152D01*
X158738095Y-80148152D02*
X158690476Y-80195771D01*
X158690476Y-80195771D02*
X158595238Y-80243390D01*
X158595238Y-80243390D02*
X158404762Y-80243390D01*
X158404762Y-80243390D02*
X158309524Y-80291009D01*
X158309524Y-80291009D02*
X158261905Y-80338628D01*
X158261905Y-80338628D02*
X158214286Y-80433866D01*
X158214286Y-80433866D02*
X158214286Y-80624342D01*
X158214286Y-80624342D02*
X158261905Y-80719580D01*
X158261905Y-80719580D02*
X158309524Y-80767200D01*
X158309524Y-80767200D02*
X158404762Y-80814819D01*
X158404762Y-80814819D02*
X158595238Y-80814819D01*
X158595238Y-80814819D02*
X158690476Y-80767200D01*
X158690476Y-80767200D02*
X158738095Y-80719580D01*
X158738095Y-80719580D02*
X158785714Y-80624342D01*
X158785714Y-80624342D02*
X158785714Y-80433866D01*
X158785714Y-80433866D02*
X158738095Y-80338628D01*
X158738095Y-80338628D02*
X158690476Y-80291009D01*
X158690476Y-80291009D02*
X158595238Y-80243390D01*
X150859580Y-104134166D02*
X150907200Y-104181785D01*
X150907200Y-104181785D02*
X150954819Y-104324642D01*
X150954819Y-104324642D02*
X150954819Y-104419880D01*
X150954819Y-104419880D02*
X150907200Y-104562737D01*
X150907200Y-104562737D02*
X150811961Y-104657975D01*
X150811961Y-104657975D02*
X150716723Y-104705594D01*
X150716723Y-104705594D02*
X150526247Y-104753213D01*
X150526247Y-104753213D02*
X150383390Y-104753213D01*
X150383390Y-104753213D02*
X150192914Y-104705594D01*
X150192914Y-104705594D02*
X150097676Y-104657975D01*
X150097676Y-104657975D02*
X150002438Y-104562737D01*
X150002438Y-104562737D02*
X149954819Y-104419880D01*
X149954819Y-104419880D02*
X149954819Y-104324642D01*
X149954819Y-104324642D02*
X150002438Y-104181785D01*
X150002438Y-104181785D02*
X150050057Y-104134166D01*
X150383390Y-103562737D02*
X150335771Y-103657975D01*
X150335771Y-103657975D02*
X150288152Y-103705594D01*
X150288152Y-103705594D02*
X150192914Y-103753213D01*
X150192914Y-103753213D02*
X150145295Y-103753213D01*
X150145295Y-103753213D02*
X150050057Y-103705594D01*
X150050057Y-103705594D02*
X150002438Y-103657975D01*
X150002438Y-103657975D02*
X149954819Y-103562737D01*
X149954819Y-103562737D02*
X149954819Y-103372261D01*
X149954819Y-103372261D02*
X150002438Y-103277023D01*
X150002438Y-103277023D02*
X150050057Y-103229404D01*
X150050057Y-103229404D02*
X150145295Y-103181785D01*
X150145295Y-103181785D02*
X150192914Y-103181785D01*
X150192914Y-103181785D02*
X150288152Y-103229404D01*
X150288152Y-103229404D02*
X150335771Y-103277023D01*
X150335771Y-103277023D02*
X150383390Y-103372261D01*
X150383390Y-103372261D02*
X150383390Y-103562737D01*
X150383390Y-103562737D02*
X150431009Y-103657975D01*
X150431009Y-103657975D02*
X150478628Y-103705594D01*
X150478628Y-103705594D02*
X150573866Y-103753213D01*
X150573866Y-103753213D02*
X150764342Y-103753213D01*
X150764342Y-103753213D02*
X150859580Y-103705594D01*
X150859580Y-103705594D02*
X150907200Y-103657975D01*
X150907200Y-103657975D02*
X150954819Y-103562737D01*
X150954819Y-103562737D02*
X150954819Y-103372261D01*
X150954819Y-103372261D02*
X150907200Y-103277023D01*
X150907200Y-103277023D02*
X150859580Y-103229404D01*
X150859580Y-103229404D02*
X150764342Y-103181785D01*
X150764342Y-103181785D02*
X150573866Y-103181785D01*
X150573866Y-103181785D02*
X150478628Y-103229404D01*
X150478628Y-103229404D02*
X150431009Y-103277023D01*
X150431009Y-103277023D02*
X150383390Y-103372261D01*
X112238095Y-107954819D02*
X112238095Y-108764342D01*
X112238095Y-108764342D02*
X112285714Y-108859580D01*
X112285714Y-108859580D02*
X112333333Y-108907200D01*
X112333333Y-108907200D02*
X112428571Y-108954819D01*
X112428571Y-108954819D02*
X112619047Y-108954819D01*
X112619047Y-108954819D02*
X112714285Y-108907200D01*
X112714285Y-108907200D02*
X112761904Y-108859580D01*
X112761904Y-108859580D02*
X112809523Y-108764342D01*
X112809523Y-108764342D02*
X112809523Y-107954819D01*
X113714285Y-107954819D02*
X113523809Y-107954819D01*
X113523809Y-107954819D02*
X113428571Y-108002438D01*
X113428571Y-108002438D02*
X113380952Y-108050057D01*
X113380952Y-108050057D02*
X113285714Y-108192914D01*
X113285714Y-108192914D02*
X113238095Y-108383390D01*
X113238095Y-108383390D02*
X113238095Y-108764342D01*
X113238095Y-108764342D02*
X113285714Y-108859580D01*
X113285714Y-108859580D02*
X113333333Y-108907200D01*
X113333333Y-108907200D02*
X113428571Y-108954819D01*
X113428571Y-108954819D02*
X113619047Y-108954819D01*
X113619047Y-108954819D02*
X113714285Y-108907200D01*
X113714285Y-108907200D02*
X113761904Y-108859580D01*
X113761904Y-108859580D02*
X113809523Y-108764342D01*
X113809523Y-108764342D02*
X113809523Y-108526247D01*
X113809523Y-108526247D02*
X113761904Y-108431009D01*
X113761904Y-108431009D02*
X113714285Y-108383390D01*
X113714285Y-108383390D02*
X113619047Y-108335771D01*
X113619047Y-108335771D02*
X113428571Y-108335771D01*
X113428571Y-108335771D02*
X113333333Y-108383390D01*
X113333333Y-108383390D02*
X113285714Y-108431009D01*
X113285714Y-108431009D02*
X113238095Y-108526247D01*
X119357142Y-78859580D02*
X119309523Y-78907200D01*
X119309523Y-78907200D02*
X119166666Y-78954819D01*
X119166666Y-78954819D02*
X119071428Y-78954819D01*
X119071428Y-78954819D02*
X118928571Y-78907200D01*
X118928571Y-78907200D02*
X118833333Y-78811961D01*
X118833333Y-78811961D02*
X118785714Y-78716723D01*
X118785714Y-78716723D02*
X118738095Y-78526247D01*
X118738095Y-78526247D02*
X118738095Y-78383390D01*
X118738095Y-78383390D02*
X118785714Y-78192914D01*
X118785714Y-78192914D02*
X118833333Y-78097676D01*
X118833333Y-78097676D02*
X118928571Y-78002438D01*
X118928571Y-78002438D02*
X119071428Y-77954819D01*
X119071428Y-77954819D02*
X119166666Y-77954819D01*
X119166666Y-77954819D02*
X119309523Y-78002438D01*
X119309523Y-78002438D02*
X119357142Y-78050057D01*
X119738095Y-78050057D02*
X119785714Y-78002438D01*
X119785714Y-78002438D02*
X119880952Y-77954819D01*
X119880952Y-77954819D02*
X120119047Y-77954819D01*
X120119047Y-77954819D02*
X120214285Y-78002438D01*
X120214285Y-78002438D02*
X120261904Y-78050057D01*
X120261904Y-78050057D02*
X120309523Y-78145295D01*
X120309523Y-78145295D02*
X120309523Y-78240533D01*
X120309523Y-78240533D02*
X120261904Y-78383390D01*
X120261904Y-78383390D02*
X119690476Y-78954819D01*
X119690476Y-78954819D02*
X120309523Y-78954819D01*
X121261904Y-78954819D02*
X120690476Y-78954819D01*
X120976190Y-78954819D02*
X120976190Y-77954819D01*
X120976190Y-77954819D02*
X120880952Y-78097676D01*
X120880952Y-78097676D02*
X120785714Y-78192914D01*
X120785714Y-78192914D02*
X120690476Y-78240533D01*
X157209166Y-92011009D02*
X156875833Y-92011009D01*
X156875833Y-92534819D02*
X156875833Y-91534819D01*
X156875833Y-91534819D02*
X157352023Y-91534819D01*
X158256785Y-92534819D02*
X157685357Y-92534819D01*
X157971071Y-92534819D02*
X157971071Y-91534819D01*
X157971071Y-91534819D02*
X157875833Y-91677676D01*
X157875833Y-91677676D02*
X157780595Y-91772914D01*
X157780595Y-91772914D02*
X157685357Y-91820533D01*
X116359580Y-83642857D02*
X116407200Y-83690476D01*
X116407200Y-83690476D02*
X116454819Y-83833333D01*
X116454819Y-83833333D02*
X116454819Y-83928571D01*
X116454819Y-83928571D02*
X116407200Y-84071428D01*
X116407200Y-84071428D02*
X116311961Y-84166666D01*
X116311961Y-84166666D02*
X116216723Y-84214285D01*
X116216723Y-84214285D02*
X116026247Y-84261904D01*
X116026247Y-84261904D02*
X115883390Y-84261904D01*
X115883390Y-84261904D02*
X115692914Y-84214285D01*
X115692914Y-84214285D02*
X115597676Y-84166666D01*
X115597676Y-84166666D02*
X115502438Y-84071428D01*
X115502438Y-84071428D02*
X115454819Y-83928571D01*
X115454819Y-83928571D02*
X115454819Y-83833333D01*
X115454819Y-83833333D02*
X115502438Y-83690476D01*
X115502438Y-83690476D02*
X115550057Y-83642857D01*
X115550057Y-83261904D02*
X115502438Y-83214285D01*
X115502438Y-83214285D02*
X115454819Y-83119047D01*
X115454819Y-83119047D02*
X115454819Y-82880952D01*
X115454819Y-82880952D02*
X115502438Y-82785714D01*
X115502438Y-82785714D02*
X115550057Y-82738095D01*
X115550057Y-82738095D02*
X115645295Y-82690476D01*
X115645295Y-82690476D02*
X115740533Y-82690476D01*
X115740533Y-82690476D02*
X115883390Y-82738095D01*
X115883390Y-82738095D02*
X116454819Y-83309523D01*
X116454819Y-83309523D02*
X116454819Y-82690476D01*
X115454819Y-82071428D02*
X115454819Y-81976190D01*
X115454819Y-81976190D02*
X115502438Y-81880952D01*
X115502438Y-81880952D02*
X115550057Y-81833333D01*
X115550057Y-81833333D02*
X115645295Y-81785714D01*
X115645295Y-81785714D02*
X115835771Y-81738095D01*
X115835771Y-81738095D02*
X116073866Y-81738095D01*
X116073866Y-81738095D02*
X116264342Y-81785714D01*
X116264342Y-81785714D02*
X116359580Y-81833333D01*
X116359580Y-81833333D02*
X116407200Y-81880952D01*
X116407200Y-81880952D02*
X116454819Y-81976190D01*
X116454819Y-81976190D02*
X116454819Y-82071428D01*
X116454819Y-82071428D02*
X116407200Y-82166666D01*
X116407200Y-82166666D02*
X116359580Y-82214285D01*
X116359580Y-82214285D02*
X116264342Y-82261904D01*
X116264342Y-82261904D02*
X116073866Y-82309523D01*
X116073866Y-82309523D02*
X115835771Y-82309523D01*
X115835771Y-82309523D02*
X115645295Y-82261904D01*
X115645295Y-82261904D02*
X115550057Y-82214285D01*
X115550057Y-82214285D02*
X115502438Y-82166666D01*
X115502438Y-82166666D02*
X115454819Y-82071428D01*
X156833333Y-85454819D02*
X156500000Y-84978628D01*
X156261905Y-85454819D02*
X156261905Y-84454819D01*
X156261905Y-84454819D02*
X156642857Y-84454819D01*
X156642857Y-84454819D02*
X156738095Y-84502438D01*
X156738095Y-84502438D02*
X156785714Y-84550057D01*
X156785714Y-84550057D02*
X156833333Y-84645295D01*
X156833333Y-84645295D02*
X156833333Y-84788152D01*
X156833333Y-84788152D02*
X156785714Y-84883390D01*
X156785714Y-84883390D02*
X156738095Y-84931009D01*
X156738095Y-84931009D02*
X156642857Y-84978628D01*
X156642857Y-84978628D02*
X156261905Y-84978628D01*
X157166667Y-84454819D02*
X157833333Y-84454819D01*
X157833333Y-84454819D02*
X157404762Y-85454819D01*
X146261905Y-120954819D02*
X146261905Y-119954819D01*
X146261905Y-119954819D02*
X146500000Y-119954819D01*
X146500000Y-119954819D02*
X146642857Y-120002438D01*
X146642857Y-120002438D02*
X146738095Y-120097676D01*
X146738095Y-120097676D02*
X146785714Y-120192914D01*
X146785714Y-120192914D02*
X146833333Y-120383390D01*
X146833333Y-120383390D02*
X146833333Y-120526247D01*
X146833333Y-120526247D02*
X146785714Y-120716723D01*
X146785714Y-120716723D02*
X146738095Y-120811961D01*
X146738095Y-120811961D02*
X146642857Y-120907200D01*
X146642857Y-120907200D02*
X146500000Y-120954819D01*
X146500000Y-120954819D02*
X146261905Y-120954819D01*
X147738095Y-119954819D02*
X147261905Y-119954819D01*
X147261905Y-119954819D02*
X147214286Y-120431009D01*
X147214286Y-120431009D02*
X147261905Y-120383390D01*
X147261905Y-120383390D02*
X147357143Y-120335771D01*
X147357143Y-120335771D02*
X147595238Y-120335771D01*
X147595238Y-120335771D02*
X147690476Y-120383390D01*
X147690476Y-120383390D02*
X147738095Y-120431009D01*
X147738095Y-120431009D02*
X147785714Y-120526247D01*
X147785714Y-120526247D02*
X147785714Y-120764342D01*
X147785714Y-120764342D02*
X147738095Y-120859580D01*
X147738095Y-120859580D02*
X147690476Y-120907200D01*
X147690476Y-120907200D02*
X147595238Y-120954819D01*
X147595238Y-120954819D02*
X147357143Y-120954819D01*
X147357143Y-120954819D02*
X147261905Y-120907200D01*
X147261905Y-120907200D02*
X147214286Y-120859580D01*
X164454819Y-107833333D02*
X165169104Y-107833333D01*
X165169104Y-107833333D02*
X165311961Y-107880952D01*
X165311961Y-107880952D02*
X165407200Y-107976190D01*
X165407200Y-107976190D02*
X165454819Y-108119047D01*
X165454819Y-108119047D02*
X165454819Y-108214285D01*
X164454819Y-106880952D02*
X164454819Y-107357142D01*
X164454819Y-107357142D02*
X164931009Y-107404761D01*
X164931009Y-107404761D02*
X164883390Y-107357142D01*
X164883390Y-107357142D02*
X164835771Y-107261904D01*
X164835771Y-107261904D02*
X164835771Y-107023809D01*
X164835771Y-107023809D02*
X164883390Y-106928571D01*
X164883390Y-106928571D02*
X164931009Y-106880952D01*
X164931009Y-106880952D02*
X165026247Y-106833333D01*
X165026247Y-106833333D02*
X165264342Y-106833333D01*
X165264342Y-106833333D02*
X165359580Y-106880952D01*
X165359580Y-106880952D02*
X165407200Y-106928571D01*
X165407200Y-106928571D02*
X165454819Y-107023809D01*
X165454819Y-107023809D02*
X165454819Y-107261904D01*
X165454819Y-107261904D02*
X165407200Y-107357142D01*
X165407200Y-107357142D02*
X165359580Y-107404761D01*
X119499642Y-115859580D02*
X119452023Y-115907200D01*
X119452023Y-115907200D02*
X119309166Y-115954819D01*
X119309166Y-115954819D02*
X119213928Y-115954819D01*
X119213928Y-115954819D02*
X119071071Y-115907200D01*
X119071071Y-115907200D02*
X118975833Y-115811961D01*
X118975833Y-115811961D02*
X118928214Y-115716723D01*
X118928214Y-115716723D02*
X118880595Y-115526247D01*
X118880595Y-115526247D02*
X118880595Y-115383390D01*
X118880595Y-115383390D02*
X118928214Y-115192914D01*
X118928214Y-115192914D02*
X118975833Y-115097676D01*
X118975833Y-115097676D02*
X119071071Y-115002438D01*
X119071071Y-115002438D02*
X119213928Y-114954819D01*
X119213928Y-114954819D02*
X119309166Y-114954819D01*
X119309166Y-114954819D02*
X119452023Y-115002438D01*
X119452023Y-115002438D02*
X119499642Y-115050057D01*
X120452023Y-115954819D02*
X119880595Y-115954819D01*
X120166309Y-115954819D02*
X120166309Y-114954819D01*
X120166309Y-114954819D02*
X120071071Y-115097676D01*
X120071071Y-115097676D02*
X119975833Y-115192914D01*
X119975833Y-115192914D02*
X119880595Y-115240533D01*
X121356785Y-114954819D02*
X120880595Y-114954819D01*
X120880595Y-114954819D02*
X120832976Y-115431009D01*
X120832976Y-115431009D02*
X120880595Y-115383390D01*
X120880595Y-115383390D02*
X120975833Y-115335771D01*
X120975833Y-115335771D02*
X121213928Y-115335771D01*
X121213928Y-115335771D02*
X121309166Y-115383390D01*
X121309166Y-115383390D02*
X121356785Y-115431009D01*
X121356785Y-115431009D02*
X121404404Y-115526247D01*
X121404404Y-115526247D02*
X121404404Y-115764342D01*
X121404404Y-115764342D02*
X121356785Y-115859580D01*
X121356785Y-115859580D02*
X121309166Y-115907200D01*
X121309166Y-115907200D02*
X121213928Y-115954819D01*
X121213928Y-115954819D02*
X120975833Y-115954819D01*
X120975833Y-115954819D02*
X120880595Y-115907200D01*
X120880595Y-115907200D02*
X120832976Y-115859580D01*
X153037142Y-118384819D02*
X152703809Y-117908628D01*
X152465714Y-118384819D02*
X152465714Y-117384819D01*
X152465714Y-117384819D02*
X152846666Y-117384819D01*
X152846666Y-117384819D02*
X152941904Y-117432438D01*
X152941904Y-117432438D02*
X152989523Y-117480057D01*
X152989523Y-117480057D02*
X153037142Y-117575295D01*
X153037142Y-117575295D02*
X153037142Y-117718152D01*
X153037142Y-117718152D02*
X152989523Y-117813390D01*
X152989523Y-117813390D02*
X152941904Y-117861009D01*
X152941904Y-117861009D02*
X152846666Y-117908628D01*
X152846666Y-117908628D02*
X152465714Y-117908628D01*
X153989523Y-118384819D02*
X153418095Y-118384819D01*
X153703809Y-118384819D02*
X153703809Y-117384819D01*
X153703809Y-117384819D02*
X153608571Y-117527676D01*
X153608571Y-117527676D02*
X153513333Y-117622914D01*
X153513333Y-117622914D02*
X153418095Y-117670533D01*
X154608571Y-117384819D02*
X154703809Y-117384819D01*
X154703809Y-117384819D02*
X154799047Y-117432438D01*
X154799047Y-117432438D02*
X154846666Y-117480057D01*
X154846666Y-117480057D02*
X154894285Y-117575295D01*
X154894285Y-117575295D02*
X154941904Y-117765771D01*
X154941904Y-117765771D02*
X154941904Y-118003866D01*
X154941904Y-118003866D02*
X154894285Y-118194342D01*
X154894285Y-118194342D02*
X154846666Y-118289580D01*
X154846666Y-118289580D02*
X154799047Y-118337200D01*
X154799047Y-118337200D02*
X154703809Y-118384819D01*
X154703809Y-118384819D02*
X154608571Y-118384819D01*
X154608571Y-118384819D02*
X154513333Y-118337200D01*
X154513333Y-118337200D02*
X154465714Y-118289580D01*
X154465714Y-118289580D02*
X154418095Y-118194342D01*
X154418095Y-118194342D02*
X154370476Y-118003866D01*
X154370476Y-118003866D02*
X154370476Y-117765771D01*
X154370476Y-117765771D02*
X154418095Y-117575295D01*
X154418095Y-117575295D02*
X154465714Y-117480057D01*
X154465714Y-117480057D02*
X154513333Y-117432438D01*
X154513333Y-117432438D02*
X154608571Y-117384819D01*
X150375595Y-79954819D02*
X150375595Y-80764342D01*
X150375595Y-80764342D02*
X150423214Y-80859580D01*
X150423214Y-80859580D02*
X150470833Y-80907200D01*
X150470833Y-80907200D02*
X150566071Y-80954819D01*
X150566071Y-80954819D02*
X150756547Y-80954819D01*
X150756547Y-80954819D02*
X150851785Y-80907200D01*
X150851785Y-80907200D02*
X150899404Y-80859580D01*
X150899404Y-80859580D02*
X150947023Y-80764342D01*
X150947023Y-80764342D02*
X150947023Y-79954819D01*
X151899404Y-79954819D02*
X151423214Y-79954819D01*
X151423214Y-79954819D02*
X151375595Y-80431009D01*
X151375595Y-80431009D02*
X151423214Y-80383390D01*
X151423214Y-80383390D02*
X151518452Y-80335771D01*
X151518452Y-80335771D02*
X151756547Y-80335771D01*
X151756547Y-80335771D02*
X151851785Y-80383390D01*
X151851785Y-80383390D02*
X151899404Y-80431009D01*
X151899404Y-80431009D02*
X151947023Y-80526247D01*
X151947023Y-80526247D02*
X151947023Y-80764342D01*
X151947023Y-80764342D02*
X151899404Y-80859580D01*
X151899404Y-80859580D02*
X151851785Y-80907200D01*
X151851785Y-80907200D02*
X151756547Y-80954819D01*
X151756547Y-80954819D02*
X151518452Y-80954819D01*
X151518452Y-80954819D02*
X151423214Y-80907200D01*
X151423214Y-80907200D02*
X151375595Y-80859580D01*
X160770819Y-58149333D02*
X161485104Y-58149333D01*
X161485104Y-58149333D02*
X161627961Y-58196952D01*
X161627961Y-58196952D02*
X161723200Y-58292190D01*
X161723200Y-58292190D02*
X161770819Y-58435047D01*
X161770819Y-58435047D02*
X161770819Y-58530285D01*
X161104152Y-57244571D02*
X161770819Y-57244571D01*
X160723200Y-57482666D02*
X161437485Y-57720761D01*
X161437485Y-57720761D02*
X161437485Y-57101714D01*
X160234819Y-79333333D02*
X160949104Y-79333333D01*
X160949104Y-79333333D02*
X161091961Y-79380952D01*
X161091961Y-79380952D02*
X161187200Y-79476190D01*
X161187200Y-79476190D02*
X161234819Y-79619047D01*
X161234819Y-79619047D02*
X161234819Y-79714285D01*
X160234819Y-78952380D02*
X160234819Y-78333333D01*
X160234819Y-78333333D02*
X160615771Y-78666666D01*
X160615771Y-78666666D02*
X160615771Y-78523809D01*
X160615771Y-78523809D02*
X160663390Y-78428571D01*
X160663390Y-78428571D02*
X160711009Y-78380952D01*
X160711009Y-78380952D02*
X160806247Y-78333333D01*
X160806247Y-78333333D02*
X161044342Y-78333333D01*
X161044342Y-78333333D02*
X161139580Y-78380952D01*
X161139580Y-78380952D02*
X161187200Y-78428571D01*
X161187200Y-78428571D02*
X161234819Y-78523809D01*
X161234819Y-78523809D02*
X161234819Y-78809523D01*
X161234819Y-78809523D02*
X161187200Y-78904761D01*
X161187200Y-78904761D02*
X161139580Y-78952380D01*
X108809580Y-81166666D02*
X108857200Y-81214285D01*
X108857200Y-81214285D02*
X108904819Y-81357142D01*
X108904819Y-81357142D02*
X108904819Y-81452380D01*
X108904819Y-81452380D02*
X108857200Y-81595237D01*
X108857200Y-81595237D02*
X108761961Y-81690475D01*
X108761961Y-81690475D02*
X108666723Y-81738094D01*
X108666723Y-81738094D02*
X108476247Y-81785713D01*
X108476247Y-81785713D02*
X108333390Y-81785713D01*
X108333390Y-81785713D02*
X108142914Y-81738094D01*
X108142914Y-81738094D02*
X108047676Y-81690475D01*
X108047676Y-81690475D02*
X107952438Y-81595237D01*
X107952438Y-81595237D02*
X107904819Y-81452380D01*
X107904819Y-81452380D02*
X107904819Y-81357142D01*
X107904819Y-81357142D02*
X107952438Y-81214285D01*
X107952438Y-81214285D02*
X108000057Y-81166666D01*
X108904819Y-80690475D02*
X108904819Y-80499999D01*
X108904819Y-80499999D02*
X108857200Y-80404761D01*
X108857200Y-80404761D02*
X108809580Y-80357142D01*
X108809580Y-80357142D02*
X108666723Y-80261904D01*
X108666723Y-80261904D02*
X108476247Y-80214285D01*
X108476247Y-80214285D02*
X108095295Y-80214285D01*
X108095295Y-80214285D02*
X108000057Y-80261904D01*
X108000057Y-80261904D02*
X107952438Y-80309523D01*
X107952438Y-80309523D02*
X107904819Y-80404761D01*
X107904819Y-80404761D02*
X107904819Y-80595237D01*
X107904819Y-80595237D02*
X107952438Y-80690475D01*
X107952438Y-80690475D02*
X108000057Y-80738094D01*
X108000057Y-80738094D02*
X108095295Y-80785713D01*
X108095295Y-80785713D02*
X108333390Y-80785713D01*
X108333390Y-80785713D02*
X108428628Y-80738094D01*
X108428628Y-80738094D02*
X108476247Y-80690475D01*
X108476247Y-80690475D02*
X108523866Y-80595237D01*
X108523866Y-80595237D02*
X108523866Y-80404761D01*
X108523866Y-80404761D02*
X108476247Y-80309523D01*
X108476247Y-80309523D02*
X108428628Y-80261904D01*
X108428628Y-80261904D02*
X108333390Y-80214285D01*
X112166666Y-63454819D02*
X112166666Y-64169104D01*
X112166666Y-64169104D02*
X112119047Y-64311961D01*
X112119047Y-64311961D02*
X112023809Y-64407200D01*
X112023809Y-64407200D02*
X111880952Y-64454819D01*
X111880952Y-64454819D02*
X111785714Y-64454819D01*
X112595238Y-63550057D02*
X112642857Y-63502438D01*
X112642857Y-63502438D02*
X112738095Y-63454819D01*
X112738095Y-63454819D02*
X112976190Y-63454819D01*
X112976190Y-63454819D02*
X113071428Y-63502438D01*
X113071428Y-63502438D02*
X113119047Y-63550057D01*
X113119047Y-63550057D02*
X113166666Y-63645295D01*
X113166666Y-63645295D02*
X113166666Y-63740533D01*
X113166666Y-63740533D02*
X113119047Y-63883390D01*
X113119047Y-63883390D02*
X112547619Y-64454819D01*
X112547619Y-64454819D02*
X113166666Y-64454819D01*
X127359580Y-83642857D02*
X127407200Y-83690476D01*
X127407200Y-83690476D02*
X127454819Y-83833333D01*
X127454819Y-83833333D02*
X127454819Y-83928571D01*
X127454819Y-83928571D02*
X127407200Y-84071428D01*
X127407200Y-84071428D02*
X127311961Y-84166666D01*
X127311961Y-84166666D02*
X127216723Y-84214285D01*
X127216723Y-84214285D02*
X127026247Y-84261904D01*
X127026247Y-84261904D02*
X126883390Y-84261904D01*
X126883390Y-84261904D02*
X126692914Y-84214285D01*
X126692914Y-84214285D02*
X126597676Y-84166666D01*
X126597676Y-84166666D02*
X126502438Y-84071428D01*
X126502438Y-84071428D02*
X126454819Y-83928571D01*
X126454819Y-83928571D02*
X126454819Y-83833333D01*
X126454819Y-83833333D02*
X126502438Y-83690476D01*
X126502438Y-83690476D02*
X126550057Y-83642857D01*
X127454819Y-82690476D02*
X127454819Y-83261904D01*
X127454819Y-82976190D02*
X126454819Y-82976190D01*
X126454819Y-82976190D02*
X126597676Y-83071428D01*
X126597676Y-83071428D02*
X126692914Y-83166666D01*
X126692914Y-83166666D02*
X126740533Y-83261904D01*
X127454819Y-82214285D02*
X127454819Y-82023809D01*
X127454819Y-82023809D02*
X127407200Y-81928571D01*
X127407200Y-81928571D02*
X127359580Y-81880952D01*
X127359580Y-81880952D02*
X127216723Y-81785714D01*
X127216723Y-81785714D02*
X127026247Y-81738095D01*
X127026247Y-81738095D02*
X126645295Y-81738095D01*
X126645295Y-81738095D02*
X126550057Y-81785714D01*
X126550057Y-81785714D02*
X126502438Y-81833333D01*
X126502438Y-81833333D02*
X126454819Y-81928571D01*
X126454819Y-81928571D02*
X126454819Y-82119047D01*
X126454819Y-82119047D02*
X126502438Y-82214285D01*
X126502438Y-82214285D02*
X126550057Y-82261904D01*
X126550057Y-82261904D02*
X126645295Y-82309523D01*
X126645295Y-82309523D02*
X126883390Y-82309523D01*
X126883390Y-82309523D02*
X126978628Y-82261904D01*
X126978628Y-82261904D02*
X127026247Y-82214285D01*
X127026247Y-82214285D02*
X127073866Y-82119047D01*
X127073866Y-82119047D02*
X127073866Y-81928571D01*
X127073866Y-81928571D02*
X127026247Y-81833333D01*
X127026247Y-81833333D02*
X126978628Y-81785714D01*
X126978628Y-81785714D02*
X126883390Y-81738095D01*
X148166666Y-97954819D02*
X148166666Y-98669104D01*
X148166666Y-98669104D02*
X148119047Y-98811961D01*
X148119047Y-98811961D02*
X148023809Y-98907200D01*
X148023809Y-98907200D02*
X147880952Y-98954819D01*
X147880952Y-98954819D02*
X147785714Y-98954819D01*
X148690476Y-98954819D02*
X148880952Y-98954819D01*
X148880952Y-98954819D02*
X148976190Y-98907200D01*
X148976190Y-98907200D02*
X149023809Y-98859580D01*
X149023809Y-98859580D02*
X149119047Y-98716723D01*
X149119047Y-98716723D02*
X149166666Y-98526247D01*
X149166666Y-98526247D02*
X149166666Y-98145295D01*
X149166666Y-98145295D02*
X149119047Y-98050057D01*
X149119047Y-98050057D02*
X149071428Y-98002438D01*
X149071428Y-98002438D02*
X148976190Y-97954819D01*
X148976190Y-97954819D02*
X148785714Y-97954819D01*
X148785714Y-97954819D02*
X148690476Y-98002438D01*
X148690476Y-98002438D02*
X148642857Y-98050057D01*
X148642857Y-98050057D02*
X148595238Y-98145295D01*
X148595238Y-98145295D02*
X148595238Y-98383390D01*
X148595238Y-98383390D02*
X148642857Y-98478628D01*
X148642857Y-98478628D02*
X148690476Y-98526247D01*
X148690476Y-98526247D02*
X148785714Y-98573866D01*
X148785714Y-98573866D02*
X148976190Y-98573866D01*
X148976190Y-98573866D02*
X149071428Y-98526247D01*
X149071428Y-98526247D02*
X149119047Y-98478628D01*
X149119047Y-98478628D02*
X149166666Y-98383390D01*
X126333333Y-105954819D02*
X126000000Y-105478628D01*
X125761905Y-105954819D02*
X125761905Y-104954819D01*
X125761905Y-104954819D02*
X126142857Y-104954819D01*
X126142857Y-104954819D02*
X126238095Y-105002438D01*
X126238095Y-105002438D02*
X126285714Y-105050057D01*
X126285714Y-105050057D02*
X126333333Y-105145295D01*
X126333333Y-105145295D02*
X126333333Y-105288152D01*
X126333333Y-105288152D02*
X126285714Y-105383390D01*
X126285714Y-105383390D02*
X126238095Y-105431009D01*
X126238095Y-105431009D02*
X126142857Y-105478628D01*
X126142857Y-105478628D02*
X125761905Y-105478628D01*
X127190476Y-104954819D02*
X127000000Y-104954819D01*
X127000000Y-104954819D02*
X126904762Y-105002438D01*
X126904762Y-105002438D02*
X126857143Y-105050057D01*
X126857143Y-105050057D02*
X126761905Y-105192914D01*
X126761905Y-105192914D02*
X126714286Y-105383390D01*
X126714286Y-105383390D02*
X126714286Y-105764342D01*
X126714286Y-105764342D02*
X126761905Y-105859580D01*
X126761905Y-105859580D02*
X126809524Y-105907200D01*
X126809524Y-105907200D02*
X126904762Y-105954819D01*
X126904762Y-105954819D02*
X127095238Y-105954819D01*
X127095238Y-105954819D02*
X127190476Y-105907200D01*
X127190476Y-105907200D02*
X127238095Y-105859580D01*
X127238095Y-105859580D02*
X127285714Y-105764342D01*
X127285714Y-105764342D02*
X127285714Y-105526247D01*
X127285714Y-105526247D02*
X127238095Y-105431009D01*
X127238095Y-105431009D02*
X127190476Y-105383390D01*
X127190476Y-105383390D02*
X127095238Y-105335771D01*
X127095238Y-105335771D02*
X126904762Y-105335771D01*
X126904762Y-105335771D02*
X126809524Y-105383390D01*
X126809524Y-105383390D02*
X126761905Y-105431009D01*
X126761905Y-105431009D02*
X126714286Y-105526247D01*
X113857142Y-102359580D02*
X113809523Y-102407200D01*
X113809523Y-102407200D02*
X113666666Y-102454819D01*
X113666666Y-102454819D02*
X113571428Y-102454819D01*
X113571428Y-102454819D02*
X113428571Y-102407200D01*
X113428571Y-102407200D02*
X113333333Y-102311961D01*
X113333333Y-102311961D02*
X113285714Y-102216723D01*
X113285714Y-102216723D02*
X113238095Y-102026247D01*
X113238095Y-102026247D02*
X113238095Y-101883390D01*
X113238095Y-101883390D02*
X113285714Y-101692914D01*
X113285714Y-101692914D02*
X113333333Y-101597676D01*
X113333333Y-101597676D02*
X113428571Y-101502438D01*
X113428571Y-101502438D02*
X113571428Y-101454819D01*
X113571428Y-101454819D02*
X113666666Y-101454819D01*
X113666666Y-101454819D02*
X113809523Y-101502438D01*
X113809523Y-101502438D02*
X113857142Y-101550057D01*
X114238095Y-101550057D02*
X114285714Y-101502438D01*
X114285714Y-101502438D02*
X114380952Y-101454819D01*
X114380952Y-101454819D02*
X114619047Y-101454819D01*
X114619047Y-101454819D02*
X114714285Y-101502438D01*
X114714285Y-101502438D02*
X114761904Y-101550057D01*
X114761904Y-101550057D02*
X114809523Y-101645295D01*
X114809523Y-101645295D02*
X114809523Y-101740533D01*
X114809523Y-101740533D02*
X114761904Y-101883390D01*
X114761904Y-101883390D02*
X114190476Y-102454819D01*
X114190476Y-102454819D02*
X114809523Y-102454819D01*
X115714285Y-101454819D02*
X115238095Y-101454819D01*
X115238095Y-101454819D02*
X115190476Y-101931009D01*
X115190476Y-101931009D02*
X115238095Y-101883390D01*
X115238095Y-101883390D02*
X115333333Y-101835771D01*
X115333333Y-101835771D02*
X115571428Y-101835771D01*
X115571428Y-101835771D02*
X115666666Y-101883390D01*
X115666666Y-101883390D02*
X115714285Y-101931009D01*
X115714285Y-101931009D02*
X115761904Y-102026247D01*
X115761904Y-102026247D02*
X115761904Y-102264342D01*
X115761904Y-102264342D02*
X115714285Y-102359580D01*
X115714285Y-102359580D02*
X115666666Y-102407200D01*
X115666666Y-102407200D02*
X115571428Y-102454819D01*
X115571428Y-102454819D02*
X115333333Y-102454819D01*
X115333333Y-102454819D02*
X115238095Y-102407200D01*
X115238095Y-102407200D02*
X115190476Y-102359580D01*
X162013333Y-97484819D02*
X161680000Y-97008628D01*
X161441905Y-97484819D02*
X161441905Y-96484819D01*
X161441905Y-96484819D02*
X161822857Y-96484819D01*
X161822857Y-96484819D02*
X161918095Y-96532438D01*
X161918095Y-96532438D02*
X161965714Y-96580057D01*
X161965714Y-96580057D02*
X162013333Y-96675295D01*
X162013333Y-96675295D02*
X162013333Y-96818152D01*
X162013333Y-96818152D02*
X161965714Y-96913390D01*
X161965714Y-96913390D02*
X161918095Y-96961009D01*
X161918095Y-96961009D02*
X161822857Y-97008628D01*
X161822857Y-97008628D02*
X161441905Y-97008628D01*
X162965714Y-97484819D02*
X162394286Y-97484819D01*
X162680000Y-97484819D02*
X162680000Y-96484819D01*
X162680000Y-96484819D02*
X162584762Y-96627676D01*
X162584762Y-96627676D02*
X162489524Y-96722914D01*
X162489524Y-96722914D02*
X162394286Y-96770533D01*
X164761905Y-93454819D02*
X164761905Y-92454819D01*
X164761905Y-92454819D02*
X165000000Y-92454819D01*
X165000000Y-92454819D02*
X165142857Y-92502438D01*
X165142857Y-92502438D02*
X165238095Y-92597676D01*
X165238095Y-92597676D02*
X165285714Y-92692914D01*
X165285714Y-92692914D02*
X165333333Y-92883390D01*
X165333333Y-92883390D02*
X165333333Y-93026247D01*
X165333333Y-93026247D02*
X165285714Y-93216723D01*
X165285714Y-93216723D02*
X165238095Y-93311961D01*
X165238095Y-93311961D02*
X165142857Y-93407200D01*
X165142857Y-93407200D02*
X165000000Y-93454819D01*
X165000000Y-93454819D02*
X164761905Y-93454819D01*
X165714286Y-92550057D02*
X165761905Y-92502438D01*
X165761905Y-92502438D02*
X165857143Y-92454819D01*
X165857143Y-92454819D02*
X166095238Y-92454819D01*
X166095238Y-92454819D02*
X166190476Y-92502438D01*
X166190476Y-92502438D02*
X166238095Y-92550057D01*
X166238095Y-92550057D02*
X166285714Y-92645295D01*
X166285714Y-92645295D02*
X166285714Y-92740533D01*
X166285714Y-92740533D02*
X166238095Y-92883390D01*
X166238095Y-92883390D02*
X165666667Y-93454819D01*
X165666667Y-93454819D02*
X166285714Y-93454819D01*
X138333333Y-74954819D02*
X138000000Y-74478628D01*
X137761905Y-74954819D02*
X137761905Y-73954819D01*
X137761905Y-73954819D02*
X138142857Y-73954819D01*
X138142857Y-73954819D02*
X138238095Y-74002438D01*
X138238095Y-74002438D02*
X138285714Y-74050057D01*
X138285714Y-74050057D02*
X138333333Y-74145295D01*
X138333333Y-74145295D02*
X138333333Y-74288152D01*
X138333333Y-74288152D02*
X138285714Y-74383390D01*
X138285714Y-74383390D02*
X138238095Y-74431009D01*
X138238095Y-74431009D02*
X138142857Y-74478628D01*
X138142857Y-74478628D02*
X137761905Y-74478628D01*
X138714286Y-74050057D02*
X138761905Y-74002438D01*
X138761905Y-74002438D02*
X138857143Y-73954819D01*
X138857143Y-73954819D02*
X139095238Y-73954819D01*
X139095238Y-73954819D02*
X139190476Y-74002438D01*
X139190476Y-74002438D02*
X139238095Y-74050057D01*
X139238095Y-74050057D02*
X139285714Y-74145295D01*
X139285714Y-74145295D02*
X139285714Y-74240533D01*
X139285714Y-74240533D02*
X139238095Y-74383390D01*
X139238095Y-74383390D02*
X138666667Y-74954819D01*
X138666667Y-74954819D02*
X139285714Y-74954819D01*
X132743095Y-111337200D02*
X132885952Y-111384819D01*
X132885952Y-111384819D02*
X133124047Y-111384819D01*
X133124047Y-111384819D02*
X133219285Y-111337200D01*
X133219285Y-111337200D02*
X133266904Y-111289580D01*
X133266904Y-111289580D02*
X133314523Y-111194342D01*
X133314523Y-111194342D02*
X133314523Y-111099104D01*
X133314523Y-111099104D02*
X133266904Y-111003866D01*
X133266904Y-111003866D02*
X133219285Y-110956247D01*
X133219285Y-110956247D02*
X133124047Y-110908628D01*
X133124047Y-110908628D02*
X132933571Y-110861009D01*
X132933571Y-110861009D02*
X132838333Y-110813390D01*
X132838333Y-110813390D02*
X132790714Y-110765771D01*
X132790714Y-110765771D02*
X132743095Y-110670533D01*
X132743095Y-110670533D02*
X132743095Y-110575295D01*
X132743095Y-110575295D02*
X132790714Y-110480057D01*
X132790714Y-110480057D02*
X132838333Y-110432438D01*
X132838333Y-110432438D02*
X132933571Y-110384819D01*
X132933571Y-110384819D02*
X133171666Y-110384819D01*
X133171666Y-110384819D02*
X133314523Y-110432438D01*
X133647857Y-110384819D02*
X134266904Y-110384819D01*
X134266904Y-110384819D02*
X133933571Y-110765771D01*
X133933571Y-110765771D02*
X134076428Y-110765771D01*
X134076428Y-110765771D02*
X134171666Y-110813390D01*
X134171666Y-110813390D02*
X134219285Y-110861009D01*
X134219285Y-110861009D02*
X134266904Y-110956247D01*
X134266904Y-110956247D02*
X134266904Y-111194342D01*
X134266904Y-111194342D02*
X134219285Y-111289580D01*
X134219285Y-111289580D02*
X134171666Y-111337200D01*
X134171666Y-111337200D02*
X134076428Y-111384819D01*
X134076428Y-111384819D02*
X133790714Y-111384819D01*
X133790714Y-111384819D02*
X133695476Y-111337200D01*
X133695476Y-111337200D02*
X133647857Y-111289580D01*
X120523809Y-80478628D02*
X120523809Y-80954819D01*
X120190476Y-79954819D02*
X120523809Y-80478628D01*
X120523809Y-80478628D02*
X120857142Y-79954819D01*
X121095238Y-79954819D02*
X121714285Y-79954819D01*
X121714285Y-79954819D02*
X121380952Y-80335771D01*
X121380952Y-80335771D02*
X121523809Y-80335771D01*
X121523809Y-80335771D02*
X121619047Y-80383390D01*
X121619047Y-80383390D02*
X121666666Y-80431009D01*
X121666666Y-80431009D02*
X121714285Y-80526247D01*
X121714285Y-80526247D02*
X121714285Y-80764342D01*
X121714285Y-80764342D02*
X121666666Y-80859580D01*
X121666666Y-80859580D02*
X121619047Y-80907200D01*
X121619047Y-80907200D02*
X121523809Y-80954819D01*
X121523809Y-80954819D02*
X121238095Y-80954819D01*
X121238095Y-80954819D02*
X121142857Y-80907200D01*
X121142857Y-80907200D02*
X121095238Y-80859580D01*
X165166666Y-63034819D02*
X165166666Y-63749104D01*
X165166666Y-63749104D02*
X165119047Y-63891961D01*
X165119047Y-63891961D02*
X165023809Y-63987200D01*
X165023809Y-63987200D02*
X164880952Y-64034819D01*
X164880952Y-64034819D02*
X164785714Y-64034819D01*
X166166666Y-64034819D02*
X165595238Y-64034819D01*
X165880952Y-64034819D02*
X165880952Y-63034819D01*
X165880952Y-63034819D02*
X165785714Y-63177676D01*
X165785714Y-63177676D02*
X165690476Y-63272914D01*
X165690476Y-63272914D02*
X165595238Y-63320533D01*
X140238095Y-67512200D02*
X140380952Y-67559819D01*
X140380952Y-67559819D02*
X140619047Y-67559819D01*
X140619047Y-67559819D02*
X140714285Y-67512200D01*
X140714285Y-67512200D02*
X140761904Y-67464580D01*
X140761904Y-67464580D02*
X140809523Y-67369342D01*
X140809523Y-67369342D02*
X140809523Y-67274104D01*
X140809523Y-67274104D02*
X140761904Y-67178866D01*
X140761904Y-67178866D02*
X140714285Y-67131247D01*
X140714285Y-67131247D02*
X140619047Y-67083628D01*
X140619047Y-67083628D02*
X140428571Y-67036009D01*
X140428571Y-67036009D02*
X140333333Y-66988390D01*
X140333333Y-66988390D02*
X140285714Y-66940771D01*
X140285714Y-66940771D02*
X140238095Y-66845533D01*
X140238095Y-66845533D02*
X140238095Y-66750295D01*
X140238095Y-66750295D02*
X140285714Y-66655057D01*
X140285714Y-66655057D02*
X140333333Y-66607438D01*
X140333333Y-66607438D02*
X140428571Y-66559819D01*
X140428571Y-66559819D02*
X140666666Y-66559819D01*
X140666666Y-66559819D02*
X140809523Y-66607438D01*
X141666666Y-66893152D02*
X141666666Y-67559819D01*
X141428571Y-66512200D02*
X141190476Y-67226485D01*
X141190476Y-67226485D02*
X141809523Y-67226485D01*
X146013333Y-85034819D02*
X145680000Y-84558628D01*
X145441905Y-85034819D02*
X145441905Y-84034819D01*
X145441905Y-84034819D02*
X145822857Y-84034819D01*
X145822857Y-84034819D02*
X145918095Y-84082438D01*
X145918095Y-84082438D02*
X145965714Y-84130057D01*
X145965714Y-84130057D02*
X146013333Y-84225295D01*
X146013333Y-84225295D02*
X146013333Y-84368152D01*
X146013333Y-84368152D02*
X145965714Y-84463390D01*
X145965714Y-84463390D02*
X145918095Y-84511009D01*
X145918095Y-84511009D02*
X145822857Y-84558628D01*
X145822857Y-84558628D02*
X145441905Y-84558628D01*
X146346667Y-84034819D02*
X146965714Y-84034819D01*
X146965714Y-84034819D02*
X146632381Y-84415771D01*
X146632381Y-84415771D02*
X146775238Y-84415771D01*
X146775238Y-84415771D02*
X146870476Y-84463390D01*
X146870476Y-84463390D02*
X146918095Y-84511009D01*
X146918095Y-84511009D02*
X146965714Y-84606247D01*
X146965714Y-84606247D02*
X146965714Y-84844342D01*
X146965714Y-84844342D02*
X146918095Y-84939580D01*
X146918095Y-84939580D02*
X146870476Y-84987200D01*
X146870476Y-84987200D02*
X146775238Y-85034819D01*
X146775238Y-85034819D02*
X146489524Y-85034819D01*
X146489524Y-85034819D02*
X146394286Y-84987200D01*
X146394286Y-84987200D02*
X146346667Y-84939580D01*
X138166666Y-61954819D02*
X138166666Y-62669104D01*
X138166666Y-62669104D02*
X138119047Y-62811961D01*
X138119047Y-62811961D02*
X138023809Y-62907200D01*
X138023809Y-62907200D02*
X137880952Y-62954819D01*
X137880952Y-62954819D02*
X137785714Y-62954819D01*
X138785714Y-62383390D02*
X138690476Y-62335771D01*
X138690476Y-62335771D02*
X138642857Y-62288152D01*
X138642857Y-62288152D02*
X138595238Y-62192914D01*
X138595238Y-62192914D02*
X138595238Y-62145295D01*
X138595238Y-62145295D02*
X138642857Y-62050057D01*
X138642857Y-62050057D02*
X138690476Y-62002438D01*
X138690476Y-62002438D02*
X138785714Y-61954819D01*
X138785714Y-61954819D02*
X138976190Y-61954819D01*
X138976190Y-61954819D02*
X139071428Y-62002438D01*
X139071428Y-62002438D02*
X139119047Y-62050057D01*
X139119047Y-62050057D02*
X139166666Y-62145295D01*
X139166666Y-62145295D02*
X139166666Y-62192914D01*
X139166666Y-62192914D02*
X139119047Y-62288152D01*
X139119047Y-62288152D02*
X139071428Y-62335771D01*
X139071428Y-62335771D02*
X138976190Y-62383390D01*
X138976190Y-62383390D02*
X138785714Y-62383390D01*
X138785714Y-62383390D02*
X138690476Y-62431009D01*
X138690476Y-62431009D02*
X138642857Y-62478628D01*
X138642857Y-62478628D02*
X138595238Y-62573866D01*
X138595238Y-62573866D02*
X138595238Y-62764342D01*
X138595238Y-62764342D02*
X138642857Y-62859580D01*
X138642857Y-62859580D02*
X138690476Y-62907200D01*
X138690476Y-62907200D02*
X138785714Y-62954819D01*
X138785714Y-62954819D02*
X138976190Y-62954819D01*
X138976190Y-62954819D02*
X139071428Y-62907200D01*
X139071428Y-62907200D02*
X139119047Y-62859580D01*
X139119047Y-62859580D02*
X139166666Y-62764342D01*
X139166666Y-62764342D02*
X139166666Y-62573866D01*
X139166666Y-62573866D02*
X139119047Y-62478628D01*
X139119047Y-62478628D02*
X139071428Y-62431009D01*
X139071428Y-62431009D02*
X138976190Y-62383390D01*
X124539580Y-114535357D02*
X124587200Y-114582976D01*
X124587200Y-114582976D02*
X124634819Y-114725833D01*
X124634819Y-114725833D02*
X124634819Y-114821071D01*
X124634819Y-114821071D02*
X124587200Y-114963928D01*
X124587200Y-114963928D02*
X124491961Y-115059166D01*
X124491961Y-115059166D02*
X124396723Y-115106785D01*
X124396723Y-115106785D02*
X124206247Y-115154404D01*
X124206247Y-115154404D02*
X124063390Y-115154404D01*
X124063390Y-115154404D02*
X123872914Y-115106785D01*
X123872914Y-115106785D02*
X123777676Y-115059166D01*
X123777676Y-115059166D02*
X123682438Y-114963928D01*
X123682438Y-114963928D02*
X123634819Y-114821071D01*
X123634819Y-114821071D02*
X123634819Y-114725833D01*
X123634819Y-114725833D02*
X123682438Y-114582976D01*
X123682438Y-114582976D02*
X123730057Y-114535357D01*
X124634819Y-113582976D02*
X124634819Y-114154404D01*
X124634819Y-113868690D02*
X123634819Y-113868690D01*
X123634819Y-113868690D02*
X123777676Y-113963928D01*
X123777676Y-113963928D02*
X123872914Y-114059166D01*
X123872914Y-114059166D02*
X123920533Y-114154404D01*
X123634819Y-112725833D02*
X123634819Y-112916309D01*
X123634819Y-112916309D02*
X123682438Y-113011547D01*
X123682438Y-113011547D02*
X123730057Y-113059166D01*
X123730057Y-113059166D02*
X123872914Y-113154404D01*
X123872914Y-113154404D02*
X124063390Y-113202023D01*
X124063390Y-113202023D02*
X124444342Y-113202023D01*
X124444342Y-113202023D02*
X124539580Y-113154404D01*
X124539580Y-113154404D02*
X124587200Y-113106785D01*
X124587200Y-113106785D02*
X124634819Y-113011547D01*
X124634819Y-113011547D02*
X124634819Y-112821071D01*
X124634819Y-112821071D02*
X124587200Y-112725833D01*
X124587200Y-112725833D02*
X124539580Y-112678214D01*
X124539580Y-112678214D02*
X124444342Y-112630595D01*
X124444342Y-112630595D02*
X124206247Y-112630595D01*
X124206247Y-112630595D02*
X124111009Y-112678214D01*
X124111009Y-112678214D02*
X124063390Y-112725833D01*
X124063390Y-112725833D02*
X124015771Y-112821071D01*
X124015771Y-112821071D02*
X124015771Y-113011547D01*
X124015771Y-113011547D02*
X124063390Y-113106785D01*
X124063390Y-113106785D02*
X124111009Y-113154404D01*
X124111009Y-113154404D02*
X124206247Y-113202023D01*
X141550833Y-89609580D02*
X141503214Y-89657200D01*
X141503214Y-89657200D02*
X141360357Y-89704819D01*
X141360357Y-89704819D02*
X141265119Y-89704819D01*
X141265119Y-89704819D02*
X141122262Y-89657200D01*
X141122262Y-89657200D02*
X141027024Y-89561961D01*
X141027024Y-89561961D02*
X140979405Y-89466723D01*
X140979405Y-89466723D02*
X140931786Y-89276247D01*
X140931786Y-89276247D02*
X140931786Y-89133390D01*
X140931786Y-89133390D02*
X140979405Y-88942914D01*
X140979405Y-88942914D02*
X141027024Y-88847676D01*
X141027024Y-88847676D02*
X141122262Y-88752438D01*
X141122262Y-88752438D02*
X141265119Y-88704819D01*
X141265119Y-88704819D02*
X141360357Y-88704819D01*
X141360357Y-88704819D02*
X141503214Y-88752438D01*
X141503214Y-88752438D02*
X141550833Y-88800057D01*
X141884167Y-88704819D02*
X142503214Y-88704819D01*
X142503214Y-88704819D02*
X142169881Y-89085771D01*
X142169881Y-89085771D02*
X142312738Y-89085771D01*
X142312738Y-89085771D02*
X142407976Y-89133390D01*
X142407976Y-89133390D02*
X142455595Y-89181009D01*
X142455595Y-89181009D02*
X142503214Y-89276247D01*
X142503214Y-89276247D02*
X142503214Y-89514342D01*
X142503214Y-89514342D02*
X142455595Y-89609580D01*
X142455595Y-89609580D02*
X142407976Y-89657200D01*
X142407976Y-89657200D02*
X142312738Y-89704819D01*
X142312738Y-89704819D02*
X142027024Y-89704819D01*
X142027024Y-89704819D02*
X141931786Y-89657200D01*
X141931786Y-89657200D02*
X141884167Y-89609580D01*
X136513333Y-97384819D02*
X136180000Y-96908628D01*
X135941905Y-97384819D02*
X135941905Y-96384819D01*
X135941905Y-96384819D02*
X136322857Y-96384819D01*
X136322857Y-96384819D02*
X136418095Y-96432438D01*
X136418095Y-96432438D02*
X136465714Y-96480057D01*
X136465714Y-96480057D02*
X136513333Y-96575295D01*
X136513333Y-96575295D02*
X136513333Y-96718152D01*
X136513333Y-96718152D02*
X136465714Y-96813390D01*
X136465714Y-96813390D02*
X136418095Y-96861009D01*
X136418095Y-96861009D02*
X136322857Y-96908628D01*
X136322857Y-96908628D02*
X135941905Y-96908628D01*
X136989524Y-97384819D02*
X137180000Y-97384819D01*
X137180000Y-97384819D02*
X137275238Y-97337200D01*
X137275238Y-97337200D02*
X137322857Y-97289580D01*
X137322857Y-97289580D02*
X137418095Y-97146723D01*
X137418095Y-97146723D02*
X137465714Y-96956247D01*
X137465714Y-96956247D02*
X137465714Y-96575295D01*
X137465714Y-96575295D02*
X137418095Y-96480057D01*
X137418095Y-96480057D02*
X137370476Y-96432438D01*
X137370476Y-96432438D02*
X137275238Y-96384819D01*
X137275238Y-96384819D02*
X137084762Y-96384819D01*
X137084762Y-96384819D02*
X136989524Y-96432438D01*
X136989524Y-96432438D02*
X136941905Y-96480057D01*
X136941905Y-96480057D02*
X136894286Y-96575295D01*
X136894286Y-96575295D02*
X136894286Y-96813390D01*
X136894286Y-96813390D02*
X136941905Y-96908628D01*
X136941905Y-96908628D02*
X136989524Y-96956247D01*
X136989524Y-96956247D02*
X137084762Y-97003866D01*
X137084762Y-97003866D02*
X137275238Y-97003866D01*
X137275238Y-97003866D02*
X137370476Y-96956247D01*
X137370476Y-96956247D02*
X137418095Y-96908628D01*
X137418095Y-96908628D02*
X137465714Y-96813390D01*
X134093095Y-83634819D02*
X134093095Y-84444342D01*
X134093095Y-84444342D02*
X134140714Y-84539580D01*
X134140714Y-84539580D02*
X134188333Y-84587200D01*
X134188333Y-84587200D02*
X134283571Y-84634819D01*
X134283571Y-84634819D02*
X134474047Y-84634819D01*
X134474047Y-84634819D02*
X134569285Y-84587200D01*
X134569285Y-84587200D02*
X134616904Y-84539580D01*
X134616904Y-84539580D02*
X134664523Y-84444342D01*
X134664523Y-84444342D02*
X134664523Y-83634819D01*
X135664523Y-84634819D02*
X135093095Y-84634819D01*
X135378809Y-84634819D02*
X135378809Y-83634819D01*
X135378809Y-83634819D02*
X135283571Y-83777676D01*
X135283571Y-83777676D02*
X135188333Y-83872914D01*
X135188333Y-83872914D02*
X135093095Y-83920533D01*
%TO.C,C4*%
D13*
X131915000Y-94206248D02*
X131915000Y-94728752D01*
X130445000Y-94206248D02*
X130445000Y-94728752D01*
%TO.C,J7*%
X116150000Y-53750000D02*
X116150000Y-55000000D01*
X116450000Y-56300000D02*
X117200000Y-56300000D01*
X117200000Y-56300000D02*
X117200000Y-59250000D01*
X117200000Y-59250000D02*
X120250000Y-59250000D01*
X117400000Y-53750000D02*
X116150000Y-53750000D01*
X123300000Y-56300000D02*
X123300000Y-59250000D01*
X123300000Y-59250000D02*
X120250000Y-59250000D01*
X124050000Y-56300000D02*
X123300000Y-56300000D01*
X116440000Y-54040000D02*
X124060000Y-54040000D01*
X124060000Y-60010000D01*
X116440000Y-60010000D01*
X116440000Y-54040000D01*
X116450000Y-54050000D02*
X118250000Y-54050000D01*
X118250000Y-54800000D01*
X116450000Y-54800000D01*
X116450000Y-54050000D01*
X119750000Y-54050000D02*
X120750000Y-54050000D01*
X120750000Y-54800000D01*
X119750000Y-54800000D01*
X119750000Y-54050000D01*
X122250000Y-54050000D02*
X124050000Y-54050000D01*
X124050000Y-54800000D01*
X122250000Y-54800000D01*
X122250000Y-54050000D01*
%TO.C,C26*%
X112445000Y-89798752D02*
X112445000Y-89276248D01*
X113915000Y-89798752D02*
X113915000Y-89276248D01*
%TO.C,U2*%
X100365000Y-84240000D02*
X100540000Y-84240000D01*
X100365000Y-89760000D02*
X100365000Y-84240000D01*
X100540000Y-89760000D02*
X100365000Y-89760000D01*
X108610000Y-84240000D02*
X108785000Y-84240000D01*
X108785000Y-84240000D02*
X108785000Y-89760000D01*
X108785000Y-89760000D02*
X108610000Y-89760000D01*
X109085000Y-83840000D02*
X108615000Y-83500000D01*
X109085000Y-83160000D01*
X109085000Y-83840000D01*
G36*
X109085000Y-83840000D02*
G01*
X108615000Y-83500000D01*
X109085000Y-83160000D01*
X109085000Y-83840000D01*
G37*
%TO.C,C23*%
X136245000Y-111191252D02*
X136245000Y-110668748D01*
X137715000Y-111191252D02*
X137715000Y-110668748D01*
%TO.C,C1*%
X128441252Y-76695000D02*
X127918748Y-76695000D01*
X128441252Y-78165000D02*
X127918748Y-78165000D01*
%TO.C,D3*%
X128220000Y-106595000D02*
X128220000Y-109455000D01*
X130140000Y-106595000D02*
X128220000Y-106595000D01*
X130140000Y-109455000D02*
X130140000Y-106595000D01*
%TO.C,U3*%
X140920000Y-110020000D02*
X140920000Y-111280000D01*
X140920000Y-116840000D02*
X140920000Y-115580000D01*
X144680000Y-110020000D02*
X140920000Y-110020000D01*
X144680000Y-116840000D02*
X140920000Y-116840000D01*
X146200000Y-117070000D02*
X145720000Y-117070000D01*
X145960000Y-116740000D01*
X146200000Y-117070000D01*
G36*
X146200000Y-117070000D02*
G01*
X145720000Y-117070000D01*
X145960000Y-116740000D01*
X146200000Y-117070000D01*
G37*
%TO.C,R4*%
X146407064Y-80195000D02*
X145952936Y-80195000D01*
X146407064Y-81665000D02*
X145952936Y-81665000D01*
%TO.C,SW2*%
D14*
D15*
X113130000Y-73330000D02*
X113129999Y-73330000D01*
X113129999Y-73330000D01*
X113129999Y-73330000D01*
X113129999Y-73330000D01*
X113129999Y-73330000D01*
X113129999Y-73330000D01*
X113129999Y-73330000D01*
X113129999Y-73329999D01*
X113129999Y-73329999D01*
X113129999Y-73329999D01*
X113129999Y-73329999D01*
X113129999Y-73329999D01*
X113130000Y-73329999D01*
X113130000Y-73329999D01*
X113130000Y-73329999D01*
X113130000Y-73329999D01*
X113130000Y-73329999D01*
X113130000Y-73329999D01*
X113130000Y-73329999D01*
X113130000Y-73329999D01*
X113130000Y-73329999D01*
X113130000Y-73329999D01*
X113130000Y-73329999D01*
X113130000Y-73329999D01*
X113130001Y-73329999D01*
X113130001Y-73329999D01*
X113130001Y-73329999D01*
X113130001Y-73329999D01*
X113130001Y-73329999D01*
X113130001Y-73329999D01*
X113130001Y-73330000D01*
X113130001Y-73330000D01*
X113130001Y-73330000D01*
X113130001Y-73330000D01*
X113130001Y-73330000D01*
X113130001Y-73330000D01*
X113130001Y-73330000D01*
X113130000Y-73330000D01*
X113130000Y-73330000D02*
X113130001Y-73330000D01*
X113130001Y-73330000D01*
X113130001Y-73330000D01*
X113130001Y-73330000D01*
X113130001Y-73330000D01*
X113130001Y-73330000D01*
X113130001Y-73330001D01*
X113130001Y-73330001D01*
X113130001Y-73330001D01*
X113130001Y-73330001D01*
X113130001Y-73330001D01*
X113130001Y-73330001D01*
X113130001Y-73330001D01*
X113130000Y-73330001D01*
X113130000Y-73330001D01*
X113130000Y-73330001D01*
X113130000Y-73330001D01*
X113130000Y-73330001D01*
X113130000Y-73330001D01*
X113130000Y-73330001D01*
X113130000Y-73330001D01*
X113130000Y-73330001D01*
X113130000Y-73330001D01*
X113130000Y-73330001D01*
X113130000Y-73330001D01*
X113129999Y-73330001D01*
X113129999Y-73330001D01*
X113129999Y-73330001D01*
X113129999Y-73330001D01*
X113129999Y-73330001D01*
X113129999Y-73330001D01*
X113129999Y-73330000D01*
X113129999Y-73330000D01*
X113129999Y-73330000D01*
X113129999Y-73330000D01*
X113129999Y-73330000D01*
X113129999Y-73330000D01*
X113130000Y-73330000D01*
D14*
D15*
X113130000Y-73530000D02*
X113129999Y-73530000D01*
X113129999Y-73530000D01*
X113129999Y-73530000D01*
X113129999Y-73530000D01*
X113129999Y-73530000D01*
X113129999Y-73530000D01*
X113129999Y-73530000D01*
X113129999Y-73529999D01*
X113129999Y-73529999D01*
X113129999Y-73529999D01*
X113129999Y-73529999D01*
X113129999Y-73529999D01*
X113130000Y-73529999D01*
X113130000Y-73529999D01*
X113130000Y-73529999D01*
X113130000Y-73529999D01*
X113130000Y-73529999D01*
X113130000Y-73529999D01*
X113130000Y-73529999D01*
X113130000Y-73529999D01*
X113130000Y-73529999D01*
X113130000Y-73529999D01*
X113130000Y-73529999D01*
X113130000Y-73529999D01*
X113130001Y-73529999D01*
X113130001Y-73529999D01*
X113130001Y-73529999D01*
X113130001Y-73529999D01*
X113130001Y-73529999D01*
X113130001Y-73529999D01*
X113130001Y-73530000D01*
X113130001Y-73530000D01*
X113130001Y-73530000D01*
X113130001Y-73530000D01*
X113130001Y-73530000D01*
X113130001Y-73530000D01*
X113130001Y-73530000D01*
X113130000Y-73530000D01*
X113130000Y-73530000D02*
X113130001Y-73530000D01*
X113130001Y-73530000D01*
X113130001Y-73530000D01*
X113130001Y-73530000D01*
X113130001Y-73530000D01*
X113130001Y-73530000D01*
X113130001Y-73530001D01*
X113130001Y-73530001D01*
X113130001Y-73530001D01*
X113130001Y-73530001D01*
X113130001Y-73530001D01*
X113130001Y-73530001D01*
X113130001Y-73530001D01*
X113130000Y-73530001D01*
X113130000Y-73530001D01*
X113130000Y-73530001D01*
X113130000Y-73530001D01*
X113130000Y-73530001D01*
X113130000Y-73530001D01*
X113130000Y-73530001D01*
X113130000Y-73530001D01*
X113130000Y-73530001D01*
X113130000Y-73530001D01*
X113130000Y-73530001D01*
X113130000Y-73530001D01*
X113129999Y-73530001D01*
X113129999Y-73530001D01*
X113129999Y-73530001D01*
X113129999Y-73530001D01*
X113129999Y-73530001D01*
X113129999Y-73530001D01*
X113129999Y-73530000D01*
X113129999Y-73530000D01*
X113129999Y-73530000D01*
X113129999Y-73530000D01*
X113129999Y-73530000D01*
X113129999Y-73530000D01*
X113130000Y-73530000D01*
D10*
X115030000Y-71680000D02*
X121030000Y-71680000D01*
X115030000Y-72430000D02*
X115030000Y-71680000D01*
X115030000Y-74430000D02*
X115030000Y-75180000D01*
X115030000Y-75180000D02*
X121030000Y-75180000D01*
X121030000Y-71680000D02*
X121030000Y-72430000D01*
X121030000Y-75180000D02*
X121030000Y-74430000D01*
D14*
X113130000Y-73330000D02*
G75*
G02*
X113130000Y-73530000I0J-100000D01*
G01*
X113130000Y-73530000D02*
G75*
G02*
X113130000Y-73330000I0J100000D01*
G01*
%TO.C,R17*%
D13*
X154727064Y-61265000D02*
X154272936Y-61265000D01*
X154727064Y-62735000D02*
X154272936Y-62735000D01*
%TO.C,C14*%
X123445000Y-105191252D02*
X123445000Y-104668748D01*
X124915000Y-105191252D02*
X124915000Y-104668748D01*
%TO.C,C24*%
X127403752Y-90195000D02*
X126881248Y-90195000D01*
X127403752Y-91665000D02*
X126881248Y-91665000D01*
%TO.C,C18*%
X150445000Y-112706248D02*
X150445000Y-113228752D01*
X151915000Y-112706248D02*
X151915000Y-113228752D01*
%TO.C,D1*%
X115230000Y-86830000D02*
X115230000Y-92330000D01*
X115230000Y-86830000D02*
X122230000Y-86830000D01*
X115230000Y-92330000D02*
X121780000Y-92330000D01*
X116030000Y-90480000D02*
X116030000Y-88680000D01*
X121430000Y-90480000D02*
X121430000Y-88680000D01*
X121780000Y-92330000D02*
X122230000Y-91880000D01*
X122230000Y-91880000D02*
X122230000Y-86830000D01*
%TO.C,C7*%
X136456248Y-93195000D02*
X136978752Y-93195000D01*
X136456248Y-94665000D02*
X136978752Y-94665000D01*
%TO.C,D4*%
X135680000Y-102390000D02*
X138540000Y-102390000D01*
X138540000Y-100470000D02*
X135680000Y-100470000D01*
X138540000Y-102390000D02*
X138540000Y-100470000D01*
%TO.C,J6*%
X134580000Y-121155000D02*
X134580000Y-122405000D01*
X134880000Y-123705000D02*
X135630000Y-123705000D01*
X135630000Y-123705000D02*
X135630000Y-126655000D01*
X135630000Y-126655000D02*
X138680000Y-126655000D01*
X135830000Y-121155000D02*
X134580000Y-121155000D01*
X141730000Y-123705000D02*
X141730000Y-126655000D01*
X141730000Y-126655000D02*
X138680000Y-126655000D01*
X142480000Y-123705000D02*
X141730000Y-123705000D01*
X134870000Y-121445000D02*
X142490000Y-121445000D01*
X142490000Y-127415000D01*
X134870000Y-127415000D01*
X134870000Y-121445000D01*
X134880000Y-121455000D02*
X136680000Y-121455000D01*
X136680000Y-122205000D01*
X134880000Y-122205000D01*
X134880000Y-121455000D01*
X138180000Y-121455000D02*
X139180000Y-121455000D01*
X139180000Y-122205000D01*
X138180000Y-122205000D01*
X138180000Y-121455000D01*
X140680000Y-121455000D02*
X142480000Y-121455000D01*
X142480000Y-122205000D01*
X140680000Y-122205000D01*
X140680000Y-121455000D01*
%TO.C,C2*%
X143238748Y-77765000D02*
X143761252Y-77765000D01*
X143238748Y-79235000D02*
X143761252Y-79235000D01*
%TO.C,R8*%
X158522224Y-78407500D02*
X158012776Y-78407500D01*
X158522224Y-79452500D02*
X158012776Y-79452500D01*
%TO.C,C8*%
X147945000Y-104228752D02*
X147945000Y-103706248D01*
X149415000Y-104228752D02*
X149415000Y-103706248D01*
%TO.C,U6*%
X116680000Y-105020000D02*
X120440000Y-105020000D01*
X116680000Y-111840000D02*
X120440000Y-111840000D01*
X120440000Y-105020000D02*
X120440000Y-106280000D01*
X120440000Y-111840000D02*
X120440000Y-110580000D01*
X115400000Y-105120000D02*
X115160000Y-104790000D01*
X115640000Y-104790000D01*
X115400000Y-105120000D01*
G36*
X115400000Y-105120000D02*
G01*
X115160000Y-104790000D01*
X115640000Y-104790000D01*
X115400000Y-105120000D01*
G37*
%TO.C,C21*%
X122776248Y-76765000D02*
X123298752Y-76765000D01*
X122776248Y-78235000D02*
X123298752Y-78235000D01*
%TO.C,F1*%
X158928752Y-87720000D02*
X156156248Y-87720000D01*
X158928752Y-91140000D02*
X156156248Y-91140000D01*
%TO.C,C20*%
X117265000Y-82738748D02*
X117265000Y-83261252D01*
X118735000Y-82738748D02*
X118735000Y-83261252D01*
%TO.C,R7*%
X157337776Y-85907500D02*
X157847224Y-85907500D01*
X157337776Y-86952500D02*
X157847224Y-86952500D01*
%TO.C,D5*%
X148395000Y-119390000D02*
X148395000Y-121310000D01*
X148395000Y-121310000D02*
X151255000Y-121310000D01*
X151255000Y-119390000D02*
X148395000Y-119390000D01*
%TO.C,J5*%
X163430000Y-110130000D02*
X163430000Y-113180000D01*
X163430000Y-116230000D02*
X163430000Y-113180000D01*
X166380000Y-109380000D02*
X166380000Y-110130000D01*
X166380000Y-110130000D02*
X163430000Y-110130000D01*
X166380000Y-116230000D02*
X163430000Y-116230000D01*
X166380000Y-116980000D02*
X166380000Y-116230000D01*
X168930000Y-109080000D02*
X167680000Y-109080000D01*
X168930000Y-110330000D02*
X168930000Y-109080000D01*
X167880000Y-109380000D02*
X168630000Y-109380000D01*
X168630000Y-111180000D01*
X167880000Y-111180000D01*
X167880000Y-109380000D01*
X167880000Y-112680000D02*
X168630000Y-112680000D01*
X168630000Y-113680000D01*
X167880000Y-113680000D01*
X167880000Y-112680000D01*
X167880000Y-115180000D02*
X168630000Y-115180000D01*
X168630000Y-116980000D01*
X167880000Y-116980000D01*
X167880000Y-115180000D01*
X162670000Y-109370000D02*
X168640000Y-109370000D01*
X168640000Y-116990000D01*
X162670000Y-116990000D01*
X162670000Y-109370000D01*
%TO.C,C15*%
X119881248Y-112695000D02*
X120403752Y-112695000D01*
X119881248Y-114165000D02*
X120403752Y-114165000D01*
%TO.C,R10*%
X150407064Y-117195000D02*
X149952936Y-117195000D01*
X150407064Y-118665000D02*
X149952936Y-118665000D01*
%TO.C,C22*%
X136245000Y-115168748D02*
X136245000Y-115691252D01*
X137715000Y-115168748D02*
X137715000Y-115691252D01*
%TO.C,U5*%
X150227500Y-81420000D02*
X152047500Y-81420000D01*
X150227500Y-81470000D02*
X150227500Y-81420000D01*
X150227500Y-84540000D02*
X150227500Y-84490000D01*
X152047500Y-81420000D02*
X152047500Y-81470000D01*
X152047500Y-84490000D02*
X152047500Y-84540000D01*
X152047500Y-84540000D02*
X150227500Y-84540000D01*
X152827500Y-84820000D02*
X152347500Y-84820000D01*
X152587500Y-84490000D01*
X152827500Y-84820000D01*
G36*
X152827500Y-84820000D02*
G01*
X152347500Y-84820000D01*
X152587500Y-84490000D01*
X152827500Y-84820000D01*
G37*
%TO.C,J4*%
X149596000Y-55216000D02*
X149596000Y-60416000D01*
X157276000Y-57816000D02*
X157276000Y-60416000D01*
X157276000Y-60416000D02*
X149596000Y-60416000D01*
X159876000Y-55216000D02*
X149596000Y-55216000D01*
X159876000Y-55216000D02*
X159876000Y-57816000D01*
X159876000Y-57816000D02*
X157276000Y-57816000D01*
X159876000Y-59086000D02*
X159876000Y-60416000D01*
X159876000Y-60416000D02*
X158546000Y-60416000D01*
%TO.C,C6*%
X109765000Y-89238748D02*
X109765000Y-89761252D01*
X111235000Y-89238748D02*
X111235000Y-89761252D01*
%TO.C,J3*%
X161725000Y-85480000D02*
X161725000Y-86280000D01*
X164645000Y-77980000D02*
X166425000Y-77980000D01*
X164645000Y-87380000D02*
X166425000Y-87380000D01*
%TO.C,C9*%
X109290000Y-78000000D02*
X109290000Y-84940000D01*
X109290000Y-84940000D02*
X112710000Y-84940000D01*
X112710000Y-84940000D02*
X112710000Y-78000000D01*
%TO.C,C17*%
X148245000Y-112868748D02*
X148245000Y-113391252D01*
X149715000Y-112868748D02*
X149715000Y-113391252D01*
%TO.C,J2*%
X114070000Y-62600000D02*
X114070000Y-65260000D01*
X131910000Y-62600000D02*
X114070000Y-62600000D01*
X131910000Y-62600000D02*
X131910000Y-65260000D01*
X131910000Y-65260000D02*
X114070000Y-65260000D01*
X134510000Y-63930000D02*
X134510000Y-65260000D01*
X134510000Y-65260000D02*
X133180000Y-65260000D01*
%TO.C,C19*%
X124265000Y-83261252D02*
X124265000Y-82738748D01*
X125735000Y-83261252D02*
X125735000Y-82738748D01*
%TO.C,J9*%
X140405000Y-108030000D02*
X140405000Y-109280000D01*
X140405000Y-109280000D02*
X141655000Y-109280000D01*
X142955000Y-93880000D02*
X142955000Y-94630000D01*
X142955000Y-94630000D02*
X145905000Y-94630000D01*
X142955000Y-108230000D02*
X145905000Y-108230000D01*
X142955000Y-108980000D02*
X142955000Y-108230000D01*
X145905000Y-94630000D02*
X145905000Y-101430000D01*
X145905000Y-108230000D02*
X145905000Y-101430000D01*
X140695000Y-93870000D02*
X146665000Y-93870000D01*
X146665000Y-108990000D01*
X140695000Y-108990000D01*
X140695000Y-93870000D01*
X140705000Y-93880000D02*
X141455000Y-93880000D01*
X141455000Y-95680000D01*
X140705000Y-95680000D01*
X140705000Y-93880000D01*
X140705000Y-97180000D02*
X141455000Y-97180000D01*
X141455000Y-105680000D01*
X140705000Y-105680000D01*
X140705000Y-97180000D01*
X140705000Y-107180000D02*
X141455000Y-107180000D01*
X141455000Y-108980000D01*
X140705000Y-108980000D01*
X140705000Y-107180000D01*
%TO.C,R6*%
X125945000Y-108657064D02*
X125945000Y-108202936D01*
X127415000Y-108657064D02*
X127415000Y-108202936D01*
%TO.C,C25*%
X119723752Y-101265000D02*
X119201248Y-101265000D01*
X119723752Y-102735000D02*
X119201248Y-102735000D01*
%TO.C,R1*%
X162407064Y-94645000D02*
X161952936Y-94645000D01*
X162407064Y-96115000D02*
X161952936Y-96115000D01*
%TO.C,D2*%
X160295000Y-91970000D02*
X160295000Y-93890000D01*
X160295000Y-93890000D02*
X163155000Y-93890000D01*
X163155000Y-91970000D02*
X160295000Y-91970000D01*
%TO.C,R2*%
X135857064Y-73695000D02*
X135402936Y-73695000D01*
X135857064Y-75165000D02*
X135402936Y-75165000D01*
%TO.C,S3*%
D16*
X126855000Y-114180000D02*
X126855000Y-113680000D01*
X131430000Y-115305000D02*
X130380000Y-115305000D01*
X133180000Y-112555000D02*
X127180000Y-112555000D01*
X133505000Y-114180000D02*
X133505000Y-113680000D01*
D14*
X132580000Y-117330000D02*
G75*
G02*
X132380000Y-117330000I-100000J0D01*
G01*
X132380000Y-117330000D02*
G75*
G02*
X132580000Y-117330000I100000J0D01*
G01*
%TO.C,Y3*%
D13*
X123660000Y-81177500D02*
X119540000Y-81177500D01*
X123660000Y-84597500D02*
X123660000Y-81177500D01*
%TO.C,J1*%
X164120000Y-64580000D02*
X165500000Y-64580000D01*
X164120000Y-65960000D02*
X164120000Y-64580000D01*
X164120000Y-67230000D02*
X164120000Y-74960000D01*
X164120000Y-67230000D02*
X166880000Y-67230000D01*
X164120000Y-74960000D02*
X166880000Y-74960000D01*
X166880000Y-67230000D02*
X166880000Y-74960000D01*
%TO.C,C13*%
X115903752Y-112695000D02*
X115381248Y-112695000D01*
X115903752Y-114165000D02*
X115381248Y-114165000D01*
%TO.C,S4*%
D16*
X134605000Y-70105000D02*
X134605000Y-69605000D01*
X139180000Y-71230000D02*
X138130000Y-71230000D01*
X140930000Y-68480000D02*
X134930000Y-68480000D01*
X141255000Y-70105000D02*
X141255000Y-69605000D01*
D14*
X140330000Y-73255000D02*
G75*
G02*
X140130000Y-73255000I-100000J0D01*
G01*
X140130000Y-73255000D02*
G75*
G02*
X140330000Y-73255000I100000J0D01*
G01*
%TO.C,R3*%
D13*
X146407064Y-82195000D02*
X145952936Y-82195000D01*
X146407064Y-83665000D02*
X145952936Y-83665000D01*
%TO.C,J8*%
X135150000Y-54750000D02*
X135150000Y-56000000D01*
X135450000Y-57300000D02*
X136200000Y-57300000D01*
X136200000Y-57300000D02*
X136200000Y-60250000D01*
X136200000Y-60250000D02*
X141750000Y-60250000D01*
X136400000Y-54750000D02*
X135150000Y-54750000D01*
X147300000Y-57300000D02*
X147300000Y-60250000D01*
X147300000Y-60250000D02*
X141750000Y-60250000D01*
X148050000Y-57300000D02*
X147300000Y-57300000D01*
X135440000Y-55040000D02*
X148060000Y-55040000D01*
X148060000Y-61010000D01*
X135440000Y-61010000D01*
X135440000Y-55040000D01*
X135450000Y-55050000D02*
X137250000Y-55050000D01*
X137250000Y-55800000D01*
X135450000Y-55800000D01*
X135450000Y-55050000D01*
X138750000Y-55050000D02*
X144750000Y-55050000D01*
X144750000Y-55800000D01*
X138750000Y-55800000D01*
X138750000Y-55050000D01*
X146250000Y-55050000D02*
X148050000Y-55050000D01*
X148050000Y-55800000D01*
X146250000Y-55800000D01*
X146250000Y-55050000D01*
%TO.C,C16*%
X123445000Y-110131248D02*
X123445000Y-110653752D01*
X124915000Y-110131248D02*
X124915000Y-110653752D01*
%TO.C,C3*%
X141456248Y-90195000D02*
X141978752Y-90195000D01*
X141456248Y-91665000D02*
X141978752Y-91665000D01*
%TO.C,R9*%
X136452936Y-98195000D02*
X136907064Y-98195000D01*
X136452936Y-99665000D02*
X136907064Y-99665000D01*
%TO.C,U1*%
X129745000Y-79070000D02*
X130695000Y-79070000D01*
X129745000Y-80020000D02*
X129745000Y-79070000D01*
X129745000Y-89290000D02*
X129745000Y-88340000D01*
X130695000Y-89290000D02*
X129745000Y-89290000D01*
X139015000Y-79070000D02*
X139965000Y-79070000D01*
X139965000Y-79070000D02*
X139965000Y-80020000D01*
X139965000Y-88340000D02*
X139965000Y-89290000D01*
X139965000Y-89290000D02*
X139015000Y-89290000D01*
X129105000Y-80020000D02*
X128765000Y-79550000D01*
X129445000Y-79550000D01*
X129105000Y-80020000D01*
G36*
X129105000Y-80020000D02*
G01*
X128765000Y-79550000D01*
X129445000Y-79550000D01*
X129105000Y-80020000D01*
G37*
%TD*%
M02*
