%TF.GenerationSoftware,KiCad,Pcbnew,10.0.1*%
%TF.CreationDate,2026-05-03T19:23:29-06:00*%
%TF.ProjectId,2026_12_2Wheel_Balance_Robot_v1,32303236-5f31-4325-9f32-576865656c5f,rev?*%
%TF.SameCoordinates,Original*%
%TF.FileFunction,Copper,L1,Top*%
%TF.FilePolarity,Positive*%
%FSLAX46Y46*%
G04 Gerber Fmt 4.6, Leading zero omitted, Abs format (unit mm)*
G04 Created by KiCad (PCBNEW 10.0.1) date 2026-05-03 19:23:29*
%MOMM*%
%LPD*%
G01*
G04 APERTURE LIST*
G04 Aperture macros list*
%AMRoundRect*
0 Rectangle with rounded corners*
0 $1 Rounding radius*
0 $2 $3 $4 $5 $6 $7 $8 $9 X,Y pos of 4 corners*
0 Add a 4 corners polygon primitive as box body*
4,1,4,$2,$3,$4,$5,$6,$7,$8,$9,$2,$3,0*
0 Add four circle primitives for the rounded corners*
1,1,$1+$1,$2,$3*
1,1,$1+$1,$4,$5*
1,1,$1+$1,$6,$7*
1,1,$1+$1,$8,$9*
0 Add four rect primitives between the rounded corners*
20,1,$1+$1,$2,$3,$4,$5,0*
20,1,$1+$1,$4,$5,$6,$7,0*
20,1,$1+$1,$6,$7,$8,$9,0*
20,1,$1+$1,$8,$9,$2,$3,0*%
G04 Aperture macros list end*
%TA.AperFunction,SMDPad,CuDef*%
%ADD10RoundRect,0.250000X0.475000X-0.337500X0.475000X0.337500X-0.475000X0.337500X-0.475000X-0.337500X0*%
%TD*%
%TA.AperFunction,SMDPad,CuDef*%
%ADD11RoundRect,0.100000X-0.100000X0.850000X-0.100000X-0.850000X0.100000X-0.850000X0.100000X0.850000X0*%
%TD*%
%TA.AperFunction,SMDPad,CuDef*%
%ADD12RoundRect,0.250000X0.337500X0.475000X-0.337500X0.475000X-0.337500X-0.475000X0.337500X-0.475000X0*%
%TD*%
%TA.AperFunction,SMDPad,CuDef*%
%ADD13RoundRect,0.250000X-0.450000X0.325000X-0.450000X-0.325000X0.450000X-0.325000X0.450000X0.325000X0*%
%TD*%
%TA.AperFunction,SMDPad,CuDef*%
%ADD14RoundRect,0.375000X0.625000X0.375000X-0.625000X0.375000X-0.625000X-0.375000X0.625000X-0.375000X0*%
%TD*%
%TA.AperFunction,SMDPad,CuDef*%
%ADD15RoundRect,0.500000X0.500000X1.400000X-0.500000X1.400000X-0.500000X-1.400000X0.500000X-1.400000X0*%
%TD*%
%TA.AperFunction,SMDPad,CuDef*%
%ADD16RoundRect,0.250000X0.350000X0.450000X-0.350000X0.450000X-0.350000X-0.450000X0.350000X-0.450000X0*%
%TD*%
%TA.AperFunction,SMDPad,CuDef*%
%ADD17R,2.300000X1.500000*%
%TD*%
%TA.AperFunction,SMDPad,CuDef*%
%ADD18RoundRect,0.250000X-0.475000X0.337500X-0.475000X-0.337500X0.475000X-0.337500X0.475000X0.337500X0*%
%TD*%
%TA.AperFunction,SMDPad,CuDef*%
%ADD19RoundRect,0.090000X-0.660000X-0.360000X0.660000X-0.360000X0.660000X0.360000X-0.660000X0.360000X0*%
%TD*%
%TA.AperFunction,SMDPad,CuDef*%
%ADD20RoundRect,0.250000X-0.337500X-0.475000X0.337500X-0.475000X0.337500X0.475000X-0.337500X0.475000X0*%
%TD*%
%TA.AperFunction,SMDPad,CuDef*%
%ADD21RoundRect,0.250000X0.325000X0.450000X-0.325000X0.450000X-0.325000X-0.450000X0.325000X-0.450000X0*%
%TD*%
%TA.AperFunction,ComponentPad*%
%ADD22RoundRect,0.250000X-0.600000X-0.750000X0.600000X-0.750000X0.600000X0.750000X-0.600000X0.750000X0*%
%TD*%
%TA.AperFunction,ComponentPad*%
%ADD23O,1.700000X2.000000*%
%TD*%
%TA.AperFunction,SMDPad,CuDef*%
%ADD24RoundRect,0.237500X0.250000X0.237500X-0.250000X0.237500X-0.250000X-0.237500X0.250000X-0.237500X0*%
%TD*%
%TA.AperFunction,SMDPad,CuDef*%
%ADD25RoundRect,0.375000X-0.625000X-0.375000X0.625000X-0.375000X0.625000X0.375000X-0.625000X0.375000X0*%
%TD*%
%TA.AperFunction,SMDPad,CuDef*%
%ADD26RoundRect,0.500000X-0.500000X-1.400000X0.500000X-1.400000X0.500000X1.400000X-0.500000X1.400000X0*%
%TD*%
%TA.AperFunction,SMDPad,CuDef*%
%ADD27RoundRect,0.250000X0.312500X1.450000X-0.312500X1.450000X-0.312500X-1.450000X0.312500X-1.450000X0*%
%TD*%
%TA.AperFunction,SMDPad,CuDef*%
%ADD28RoundRect,0.237500X-0.250000X-0.237500X0.250000X-0.237500X0.250000X0.237500X-0.250000X0.237500X0*%
%TD*%
%TA.AperFunction,SMDPad,CuDef*%
%ADD29RoundRect,0.250000X-0.325000X-0.450000X0.325000X-0.450000X0.325000X0.450000X-0.325000X0.450000X0*%
%TD*%
%TA.AperFunction,ComponentPad*%
%ADD30RoundRect,0.250000X-0.750000X0.600000X-0.750000X-0.600000X0.750000X-0.600000X0.750000X0.600000X0*%
%TD*%
%TA.AperFunction,ComponentPad*%
%ADD31O,2.000000X1.700000*%
%TD*%
%TA.AperFunction,SMDPad,CuDef*%
%ADD32RoundRect,0.150000X0.512500X0.150000X-0.512500X0.150000X-0.512500X-0.150000X0.512500X-0.150000X0*%
%TD*%
%TA.AperFunction,ComponentPad*%
%ADD33R,1.700000X1.700000*%
%TD*%
%TA.AperFunction,ComponentPad*%
%ADD34C,1.700000*%
%TD*%
%TA.AperFunction,SMDPad,CuDef*%
%ADD35RoundRect,0.150000X0.500000X-0.150000X0.500000X0.150000X-0.500000X0.150000X-0.500000X-0.150000X0*%
%TD*%
%TA.AperFunction,SMDPad,CuDef*%
%ADD36RoundRect,0.075000X0.575000X-0.075000X0.575000X0.075000X-0.575000X0.075000X-0.575000X-0.075000X0*%
%TD*%
%TA.AperFunction,ComponentPad*%
%ADD37O,2.100000X1.000000*%
%TD*%
%TA.AperFunction,ComponentPad*%
%ADD38O,1.600000X1.000000*%
%TD*%
%TA.AperFunction,SMDPad,CuDef*%
%ADD39RoundRect,0.250001X0.944999X-0.872499X0.944999X0.872499X-0.944999X0.872499X-0.944999X-0.872499X0*%
%TD*%
%TA.AperFunction,ComponentPad*%
%ADD40RoundRect,0.250000X0.725000X-0.600000X0.725000X0.600000X-0.725000X0.600000X-0.725000X-0.600000X0*%
%TD*%
%TA.AperFunction,ComponentPad*%
%ADD41O,1.950000X1.700000*%
%TD*%
%TA.AperFunction,SMDPad,CuDef*%
%ADD42RoundRect,0.250000X0.450000X-0.350000X0.450000X0.350000X-0.450000X0.350000X-0.450000X-0.350000X0*%
%TD*%
%TA.AperFunction,SMDPad,CuDef*%
%ADD43R,0.900000X1.250000*%
%TD*%
%TA.AperFunction,SMDPad,CuDef*%
%ADD44R,0.800000X0.900000*%
%TD*%
%TA.AperFunction,SMDPad,CuDef*%
%ADD45RoundRect,0.250000X0.450000X0.350000X-0.450000X0.350000X-0.450000X-0.350000X0.450000X-0.350000X0*%
%TD*%
%TA.AperFunction,ComponentPad*%
%ADD46RoundRect,0.250000X-0.600000X-0.725000X0.600000X-0.725000X0.600000X0.725000X-0.600000X0.725000X0*%
%TD*%
%TA.AperFunction,ComponentPad*%
%ADD47O,1.700000X1.950000*%
%TD*%
%TA.AperFunction,SMDPad,CuDef*%
%ADD48RoundRect,0.250000X-0.350000X-0.450000X0.350000X-0.450000X0.350000X0.450000X-0.350000X0.450000X0*%
%TD*%
%TA.AperFunction,SMDPad,CuDef*%
%ADD49RoundRect,0.075000X-0.700000X-0.075000X0.700000X-0.075000X0.700000X0.075000X-0.700000X0.075000X0*%
%TD*%
%TA.AperFunction,SMDPad,CuDef*%
%ADD50RoundRect,0.075000X-0.075000X-0.700000X0.075000X-0.700000X0.075000X0.700000X-0.075000X0.700000X0*%
%TD*%
%TA.AperFunction,ViaPad*%
%ADD51C,0.600000*%
%TD*%
%TA.AperFunction,Conductor*%
%ADD52C,0.200000*%
%TD*%
%TA.AperFunction,Conductor*%
%ADD53C,0.254000*%
%TD*%
%TA.AperFunction,Conductor*%
%ADD54C,0.508000*%
%TD*%
%TA.AperFunction,Conductor*%
%ADD55C,0.203200*%
%TD*%
%TA.AperFunction,Conductor*%
%ADD56C,0.304800*%
%TD*%
%TA.AperFunction,Conductor*%
%ADD57C,0.381000*%
%TD*%
G04 APERTURE END LIST*
D10*
%TO.P,C26,1,~_1*%
%TO.N,GND*%
X113180000Y-90575000D03*
%TO.P,C26,2,~_2*%
%TO.N,+5V*%
X113180000Y-88500000D03*
%TD*%
D11*
%TO.P,U2,1,AO1_1*%
%TO.N,/MD_AO1*%
X108150000Y-83500000D03*
%TO.P,U2,2,AO1_2*%
X107500000Y-83500000D03*
%TO.P,U2,3,PGND1_3*%
%TO.N,GND*%
X106850000Y-83500000D03*
%TO.P,U2,4,PGND1_4*%
X106200000Y-83500000D03*
%TO.P,U2,5,AO2_5*%
%TO.N,/MD_AO2*%
X105550000Y-83500000D03*
%TO.P,U2,6,AO2_6*%
X104900000Y-83500000D03*
%TO.P,U2,7,BO2_7*%
%TO.N,/MD_BO2*%
X104250000Y-83500000D03*
%TO.P,U2,8,BO2_8*%
X103600000Y-83500000D03*
%TO.P,U2,9,PGND2_9*%
%TO.N,GND*%
X102950000Y-83500000D03*
%TO.P,U2,10,PGND2_10*%
X102300000Y-83500000D03*
%TO.P,U2,11,BO1_11*%
%TO.N,/MD_BO1*%
X101650000Y-83500000D03*
%TO.P,U2,12,BO1_12*%
X101000000Y-83500000D03*
%TO.P,U2,13,VM2_13*%
%TO.N,VM*%
X101000000Y-90500000D03*
%TO.P,U2,14,VM3_14*%
X101650000Y-90500000D03*
%TO.P,U2,15,PWMB_15*%
%TO.N,/MD_PWMB*%
X102300000Y-90500000D03*
%TO.P,U2,16,BIN2_16*%
%TO.N,/MD_BIN2*%
X102950000Y-90500000D03*
%TO.P,U2,17,BIN1_17*%
%TO.N,/MD_BIN1*%
X103600000Y-90500000D03*
%TO.P,U2,18,GND_18*%
%TO.N,GND*%
X104250000Y-90500000D03*
%TO.P,U2,19,STBY_19*%
%TO.N,/MD_STBY*%
X104900000Y-90500000D03*
%TO.P,U2,20,VCC_20*%
%TO.N,+3.3V*%
X105550000Y-90500000D03*
%TO.P,U2,21,AIN1_21*%
%TO.N,/MD_AIN1*%
X106200000Y-90500000D03*
%TO.P,U2,22,AIN2_22*%
%TO.N,/MD_AIN2*%
X106850000Y-90500000D03*
%TO.P,U2,23,PWMA_23*%
%TO.N,/MD_PWMA*%
X107500000Y-90500000D03*
%TO.P,U2,24,VM1_24*%
%TO.N,VM*%
X108150000Y-90500000D03*
%TD*%
D10*
%TO.P,C23,1,~_1*%
%TO.N,5V_REG*%
X136980000Y-111967500D03*
%TO.P,C23,2,~_2*%
%TO.N,GND*%
X136980000Y-109892500D03*
%TD*%
D12*
%TO.P,C1,1,~_1*%
%TO.N,+3.3V*%
X129217500Y-77430000D03*
%TO.P,C1,2,~_2*%
%TO.N,GND*%
X127142500Y-77430000D03*
%TD*%
D13*
%TO.P,D3,1,K_1*%
%TO.N,GND*%
X129180000Y-107430000D03*
%TO.P,D3,2,A_2*%
%TO.N,Net-(D3-A)*%
X129180000Y-109480000D03*
%TD*%
D14*
%TO.P,U3,1,GND_1*%
%TO.N,GND*%
X145980000Y-115730000D03*
%TO.P,U3,2,VO_2*%
%TO.N,5V_REG*%
X145980000Y-113430000D03*
D15*
X139680000Y-113430000D03*
D14*
%TO.P,U3,3,VI_3*%
%TO.N,VM*%
X145980000Y-111130000D03*
%TD*%
D16*
%TO.P,R4,1,~_1*%
%TO.N,/CONN_D+*%
X147180000Y-80930000D03*
%TO.P,R4,2,~_2*%
%TO.N,/ESD_D+*%
X145180000Y-80930000D03*
%TD*%
D17*
%TO.P,SW2,1,A_1*%
%TO.N,GND*%
X114680000Y-73430000D03*
%TO.P,SW2,2,B_2*%
%TO.N,/RESET*%
X121380000Y-73430000D03*
%TD*%
D16*
%TO.P,R17,1,~_1*%
%TO.N,+3.3V*%
X155500000Y-62000000D03*
%TO.P,R17,2,~_2*%
%TO.N,Net-(J4-Pin_5)*%
X153500000Y-62000000D03*
%TD*%
D10*
%TO.P,C14,1,~_1*%
%TO.N,+3.3V*%
X124180000Y-105967500D03*
%TO.P,C14,2,~_2*%
%TO.N,GND*%
X124180000Y-103892500D03*
%TD*%
D12*
%TO.P,C24,1,~_1*%
%TO.N,+3.3V*%
X128180000Y-90930000D03*
%TO.P,C24,2,~_2*%
%TO.N,GND*%
X126105000Y-90930000D03*
%TD*%
D18*
%TO.P,C18,1,~_1*%
%TO.N,VM*%
X151180000Y-111930000D03*
%TO.P,C18,2,~_2*%
%TO.N,GND*%
X151180000Y-114005000D03*
%TD*%
D19*
%TO.P,D1,1,VDD_1*%
%TO.N,+5V*%
X116280000Y-87930000D03*
%TO.P,D1,2,DOUT_2*%
%TO.N,unconnected-(D1-DOUT-Pad2)*%
X116280000Y-91230000D03*
%TO.P,D1,3,VSS_3*%
%TO.N,GND*%
X121180000Y-91230000D03*
%TO.P,D1,4,DIN_4*%
%TO.N,/WS_DIN*%
X121180000Y-87930000D03*
%TD*%
D20*
%TO.P,C7,1,~_1*%
%TO.N,Net-(U1-VCAP1)*%
X135680000Y-93930000D03*
%TO.P,C7,2,~_2*%
%TO.N,GND*%
X137755000Y-93930000D03*
%TD*%
D21*
%TO.P,D4,1,K_1*%
%TO.N,GND*%
X137705000Y-101430000D03*
%TO.P,D4,2,A_2*%
%TO.N,Net-(D4-A)*%
X135655000Y-101430000D03*
%TD*%
D22*
%TO.P,J6,1,Pin_1_1*%
%TO.N,/MD_AO1*%
X137430000Y-123905000D03*
D23*
%TO.P,J6,2,Pin_2_2*%
%TO.N,/MD_AO2*%
X139930000Y-123905000D03*
%TD*%
D20*
%TO.P,C2,1,~_1*%
%TO.N,+3.3V*%
X142462500Y-78500000D03*
%TO.P,C2,2,~_2*%
%TO.N,GND*%
X144537500Y-78500000D03*
%TD*%
D24*
%TO.P,R8,1,~_1*%
%TO.N,Net-(J3-CC2)*%
X159180000Y-78930000D03*
%TO.P,R8,2,~_2*%
%TO.N,GND*%
X157355000Y-78930000D03*
%TD*%
D10*
%TO.P,C8,1,~_1*%
%TO.N,+3.3V*%
X148680000Y-105005000D03*
%TO.P,C8,2,~_2*%
%TO.N,GND*%
X148680000Y-102930000D03*
%TD*%
D25*
%TO.P,U6,1,GND_1*%
%TO.N,GND*%
X115380000Y-106130000D03*
%TO.P,U6,2,VO_2*%
%TO.N,+3.3V*%
X115380000Y-108430000D03*
D26*
X121680000Y-108430000D03*
D25*
%TO.P,U6,3,VI_3*%
%TO.N,+5V*%
X115380000Y-110730000D03*
%TD*%
D20*
%TO.P,C21,1,~_1*%
%TO.N,/RESET*%
X122000000Y-77500000D03*
%TO.P,C21,2,~_2*%
%TO.N,GND*%
X124075000Y-77500000D03*
%TD*%
D27*
%TO.P,F1,1,~_1*%
%TO.N,Net-(F1-~-Pad1)*%
X159680000Y-89430000D03*
%TO.P,F1,2,~_2*%
%TO.N,Vusb*%
X155405000Y-89430000D03*
%TD*%
D18*
%TO.P,C20,1,~_1*%
%TO.N,GND*%
X118000000Y-81962500D03*
%TO.P,C20,2,~_2*%
%TO.N,/OSCOUT*%
X118000000Y-84037500D03*
%TD*%
D28*
%TO.P,R7,1,~_1*%
%TO.N,GND*%
X156680000Y-86430000D03*
%TO.P,R7,2,~_2*%
%TO.N,Net-(J3-CC1)*%
X158505000Y-86430000D03*
%TD*%
D29*
%TO.P,D5,1,K_1*%
%TO.N,GND*%
X149230000Y-120350000D03*
%TO.P,D5,2,A_2*%
%TO.N,Net-(D5-A)*%
X151280000Y-120350000D03*
%TD*%
D30*
%TO.P,J5,1,Pin_1_1*%
%TO.N,VM*%
X166180000Y-111930000D03*
D31*
%TO.P,J5,2,Pin_2_2*%
%TO.N,GND*%
X166180000Y-114430000D03*
%TD*%
D20*
%TO.P,C15,1,~_1*%
%TO.N,+5V*%
X119105000Y-113430000D03*
%TO.P,C15,2,~_2*%
%TO.N,GND*%
X121180000Y-113430000D03*
%TD*%
D16*
%TO.P,R10,1,~_1*%
%TO.N,Net-(D5-A)*%
X151180000Y-117930000D03*
%TO.P,R10,2,~_2*%
%TO.N,5V_REG*%
X149180000Y-117930000D03*
%TD*%
D18*
%TO.P,C22,1,~_1*%
%TO.N,5V_REG*%
X136980000Y-114392500D03*
%TO.P,C22,2,~_2*%
%TO.N,GND*%
X136980000Y-116467500D03*
%TD*%
D32*
%TO.P,U5,1,I/O1_1*%
%TO.N,/USB_D-*%
X152275000Y-83930000D03*
%TO.P,U5,2,GND_2*%
%TO.N,GND*%
X152275000Y-82980000D03*
%TO.P,U5,3,I/O2_3*%
%TO.N,/USB_D+*%
X152275000Y-82030000D03*
%TO.P,U5,4,I/O2_4*%
%TO.N,/CONN_D+*%
X150000000Y-82030000D03*
%TO.P,U5,5,VBUS_5*%
%TO.N,Vusb*%
X150000000Y-82980000D03*
%TO.P,U5,6,I/O1_6*%
%TO.N,/CONN_D-*%
X150000000Y-83930000D03*
%TD*%
D33*
%TO.P,J4,1,Pin_1_1*%
%TO.N,GND*%
X158546000Y-59086000D03*
D34*
%TO.P,J4,2,Pin_2_2*%
%TO.N,/ESP_TX*%
X158546000Y-56546000D03*
%TO.P,J4,3,Pin_3_3*%
%TO.N,unconnected-(J4-Pin_3-Pad3)*%
X156006000Y-59086000D03*
%TO.P,J4,4,Pin_4_4*%
%TO.N,+3.3V*%
X156006000Y-56546000D03*
%TO.P,J4,5,Pin_5_5*%
%TO.N,Net-(J4-Pin_5)*%
X153466000Y-59086000D03*
%TO.P,J4,6,Pin_6_6*%
%TO.N,+3.3V*%
X153466000Y-56546000D03*
%TO.P,J4,7,Pin_7_7*%
%TO.N,/ESP_RX*%
X150926000Y-59086000D03*
%TO.P,J4,8,Pin_8_8*%
%TO.N,+3.3V*%
X150926000Y-56546000D03*
%TD*%
D18*
%TO.P,C6,1,~_1*%
%TO.N,VM*%
X110500000Y-88462500D03*
%TO.P,C6,2,~_2*%
%TO.N,GND*%
X110500000Y-90537500D03*
%TD*%
D35*
%TO.P,J3,A1,GND_A1*%
%TO.N,GND*%
X162680000Y-85880000D03*
%TO.P,J3,A4,VBUS_A4*%
%TO.N,Net-(F1-~-Pad1)*%
X162680000Y-85080000D03*
D36*
%TO.P,J3,A5,CC1_A5*%
%TO.N,Net-(J3-CC1)*%
X162680000Y-83930000D03*
%TO.P,J3,A6,D+_A6*%
%TO.N,/USB_D+*%
X162680000Y-82930000D03*
%TO.P,J3,A7,D-_A7*%
%TO.N,/USB_D-*%
X162680000Y-82430000D03*
%TO.P,J3,A8*%
%TO.N,N/C*%
X162680000Y-81430000D03*
D35*
%TO.P,J3,A9,VBUS_A9*%
%TO.N,Net-(F1-~-Pad1)*%
X162680000Y-80280000D03*
%TO.P,J3,A12,GND_A12*%
%TO.N,GND*%
X162680000Y-79480000D03*
%TO.P,J3,B1,GND_B1*%
X162680000Y-79480000D03*
%TO.P,J3,B4,VBUS_B4*%
%TO.N,Net-(F1-~-Pad1)*%
X162680000Y-80280000D03*
D36*
%TO.P,J3,B5,CC2_B5*%
%TO.N,Net-(J3-CC2)*%
X162680000Y-80930000D03*
%TO.P,J3,B6,D+_B6*%
%TO.N,/USB_D+*%
X162680000Y-81930000D03*
%TO.P,J3,B7,D-_B7*%
%TO.N,/USB_D-*%
X162680000Y-83430000D03*
%TO.P,J3,B8*%
%TO.N,N/C*%
X162680000Y-84430000D03*
D35*
%TO.P,J3,B9,VBUS_B9*%
%TO.N,Net-(F1-~-Pad1)*%
X162680000Y-85080000D03*
%TO.P,J3,B12,GND_B12*%
%TO.N,GND*%
X162680000Y-85880000D03*
D37*
%TO.P,J3,SH,SHIELD_SH*%
X163320000Y-87000000D03*
D38*
X167500000Y-87000000D03*
D37*
X163320000Y-78360000D03*
D38*
X167500000Y-78360000D03*
%TD*%
D39*
%TO.P,C9,1*%
%TO.N,VM*%
X111000000Y-83557500D03*
%TO.P,C9,2*%
%TO.N,GND*%
X111000000Y-78442500D03*
%TD*%
D18*
%TO.P,C17,1,~_1*%
%TO.N,VM*%
X148980000Y-112092500D03*
%TO.P,C17,2,~_2*%
%TO.N,GND*%
X148980000Y-114167500D03*
%TD*%
%TO.P,C4,1,~_1*%
%TO.N,+3.3V*%
X131180000Y-93430000D03*
%TO.P,C4,2,~_2*%
%TO.N,GND*%
X131180000Y-95505000D03*
%TD*%
D33*
%TO.P,J2,1,Pin_1_1*%
%TO.N,+5V*%
X133180000Y-63930000D03*
D34*
%TO.P,J2,2,Pin_2_2*%
%TO.N,GND*%
X130640000Y-63930000D03*
%TO.P,J2,3,Pin_3_3*%
%TO.N,/IMU_SCL*%
X128100000Y-63930000D03*
%TO.P,J2,4,Pin_4_4*%
%TO.N,/IMU_SDA*%
X125560000Y-63930000D03*
%TO.P,J2,5,Pin_5_5*%
%TO.N,unconnected-(J2-Pin_5-Pad5)*%
X123020000Y-63930000D03*
%TO.P,J2,6,Pin_6_6*%
%TO.N,unconnected-(J2-Pin_6-Pad6)*%
X120480000Y-63930000D03*
%TO.P,J2,7,Pin_7_7*%
%TO.N,unconnected-(J2-Pin_7-Pad7)*%
X117940000Y-63930000D03*
%TO.P,J2,8,Pin_8_8*%
%TO.N,/IMU_INT*%
X115400000Y-63930000D03*
%TD*%
D10*
%TO.P,C19,1,~_1*%
%TO.N,GND*%
X125000000Y-84037500D03*
%TO.P,C19,2,~_2*%
%TO.N,/OSCIN*%
X125000000Y-81962500D03*
%TD*%
D40*
%TO.P,J9,1,Pin_1_1*%
%TO.N,+3.3V*%
X143155000Y-106430000D03*
D41*
%TO.P,J9,2,Pin_2_2*%
%TO.N,GND*%
X143155000Y-103930000D03*
%TO.P,J9,3,Pin_3_3*%
%TO.N,/MT_PWM*%
X143155000Y-101430000D03*
%TO.P,J9,4,Pin_4_4*%
%TO.N,/MT_SCL*%
X143155000Y-98930000D03*
%TO.P,J9,5,Pin_5_5*%
%TO.N,/MT_SDA*%
X143155000Y-96430000D03*
%TD*%
D42*
%TO.P,R6,1,~_1*%
%TO.N,Net-(D3-A)*%
X126680000Y-109430000D03*
%TO.P,R6,2,~_2*%
%TO.N,+3.3V*%
X126680000Y-107430000D03*
%TD*%
D12*
%TO.P,C25,1,~_1*%
%TO.N,+3.3V*%
X120500000Y-102000000D03*
%TO.P,C25,2,~_2*%
%TO.N,GND*%
X118425000Y-102000000D03*
%TD*%
D16*
%TO.P,R1,1,~_1*%
%TO.N,Net-(D2-A)*%
X163180000Y-95380000D03*
%TO.P,R1,2,~_2*%
%TO.N,Vusb*%
X161180000Y-95380000D03*
%TD*%
D29*
%TO.P,D2,1,K_1*%
%TO.N,GND*%
X161130000Y-92930000D03*
%TO.P,D2,2,A_2*%
%TO.N,Net-(D2-A)*%
X163180000Y-92930000D03*
%TD*%
D16*
%TO.P,R2,1,~_1*%
%TO.N,Net-(R2-~-Pad1)*%
X136630000Y-74430000D03*
%TO.P,R2,2,~_2*%
%TO.N,/BOOT0*%
X134630000Y-74430000D03*
%TD*%
D43*
%TO.P,S3,1*%
%TO.N,5V_REG*%
X132430000Y-116005000D03*
%TO.P,S3,2*%
%TO.N,+5V*%
X129430000Y-116005000D03*
%TO.P,S3,3*%
%TO.N,Vusb*%
X127930000Y-116005000D03*
D44*
%TO.P,S3,SH1*%
%TO.N,N/C*%
X133980000Y-114980000D03*
%TO.P,S3,SH2*%
X126380000Y-114980000D03*
%TO.P,S3,SH3*%
X133980000Y-112880000D03*
%TO.P,S3,SH4*%
X126380000Y-112880000D03*
%TD*%
D45*
%TO.P,Y3,1,1_1*%
%TO.N,/OSCIN*%
X122700000Y-82037500D03*
%TO.P,Y3,2,2_2*%
%TO.N,GND*%
X120500000Y-82037500D03*
%TO.P,Y3,3,3_3*%
%TO.N,/OSCOUT*%
X120500000Y-83737500D03*
%TO.P,Y3,4,4_4*%
%TO.N,GND*%
X122700000Y-83737500D03*
%TD*%
D33*
%TO.P,J1,1,Pin_1_1*%
%TO.N,+3.3V*%
X165500000Y-65960000D03*
D34*
%TO.P,J1,2,Pin_2_2*%
%TO.N,/SWCLK*%
X165500000Y-68500000D03*
%TO.P,J1,3,Pin_3_3*%
%TO.N,GND*%
X165500000Y-71040000D03*
%TO.P,J1,4,Pin_4_4*%
%TO.N,/SWDIO*%
X165500000Y-73580000D03*
%TD*%
D12*
%TO.P,C13,1,~_1*%
%TO.N,+5V*%
X116680000Y-113430000D03*
%TO.P,C13,2,~_2*%
%TO.N,GND*%
X114605000Y-113430000D03*
%TD*%
D43*
%TO.P,S4,1*%
%TO.N,GND*%
X140180000Y-71930000D03*
%TO.P,S4,2*%
%TO.N,Net-(R2-~-Pad1)*%
X137180000Y-71930000D03*
%TO.P,S4,3*%
%TO.N,+3.3V*%
X135680000Y-71930000D03*
D44*
%TO.P,S4,SH1*%
%TO.N,N/C*%
X141730000Y-70905000D03*
%TO.P,S4,SH2*%
X134130000Y-70905000D03*
%TO.P,S4,SH3*%
X141730000Y-68805000D03*
%TO.P,S4,SH4*%
X134130000Y-68805000D03*
%TD*%
D16*
%TO.P,R3,1,~_1*%
%TO.N,/CONN_D-*%
X147180000Y-82930000D03*
%TO.P,R3,2,~_2*%
%TO.N,/ESD_D-*%
X145180000Y-82930000D03*
%TD*%
D46*
%TO.P,J8,1,Pin_1_1*%
%TO.N,+3.3V*%
X138000000Y-57500000D03*
D47*
%TO.P,J8,2,Pin_2_2*%
%TO.N,/ENC_A*%
X140500000Y-57500000D03*
%TO.P,J8,3,Pin_3_3*%
%TO.N,/ENC_B*%
X143000000Y-57500000D03*
%TO.P,J8,4,Pin_4_4*%
%TO.N,GND*%
X145500000Y-57500000D03*
%TD*%
D18*
%TO.P,C16,1,~_1*%
%TO.N,+3.3V*%
X124180000Y-109355000D03*
%TO.P,C16,2,~_2*%
%TO.N,GND*%
X124180000Y-111430000D03*
%TD*%
D20*
%TO.P,C3,1,~_1*%
%TO.N,+3.3V*%
X140680000Y-90930000D03*
%TO.P,C3,2,~_2*%
%TO.N,GND*%
X142755000Y-90930000D03*
%TD*%
D22*
%TO.P,J7,1,Pin_1_1*%
%TO.N,/MD_BO1*%
X119000000Y-56500000D03*
D23*
%TO.P,J7,2,Pin_2_2*%
%TO.N,/MD_BO2*%
X121500000Y-56500000D03*
%TD*%
D48*
%TO.P,R9,1,~_1*%
%TO.N,Net-(D4-A)*%
X135680000Y-98930000D03*
%TO.P,R9,2,~_2*%
%TO.N,/USER_LED*%
X137680000Y-98930000D03*
%TD*%
D49*
%TO.P,U1,1,VBAT_1*%
%TO.N,unconnected-(U1-VBAT-Pad1)*%
X129180000Y-80430000D03*
%TO.P,U1,2,PC13_2*%
%TO.N,/IMU_INT*%
X129180000Y-80930000D03*
%TO.P,U1,3,PC14_3*%
%TO.N,unconnected-(U1-PC14-Pad3)*%
X129180000Y-81430000D03*
%TO.P,U1,4,PC15_4*%
%TO.N,unconnected-(U1-PC15-Pad4)*%
X129180000Y-81930000D03*
%TO.P,U1,5,RCC_OSC_IN_5*%
%TO.N,/OSCIN*%
X129180000Y-82430000D03*
%TO.P,U1,6,RCC_OSC_OUT_6*%
%TO.N,/OSCOUT*%
X129180000Y-82930000D03*
%TO.P,U1,7,NRST_7*%
%TO.N,/RESET*%
X129180000Y-83430000D03*
%TO.P,U1,8,PC0_8*%
%TO.N,unconnected-(U1-PC0-Pad8)*%
X129180000Y-83930000D03*
%TO.P,U1,9,PC1_9*%
%TO.N,unconnected-(U1-PC1-Pad9)*%
X129180000Y-84430000D03*
%TO.P,U1,10,PC2_10*%
%TO.N,unconnected-(U1-PC2-Pad10)*%
X129180000Y-84930000D03*
%TO.P,U1,11,PC3_11*%
%TO.N,unconnected-(U1-PC3-Pad11)*%
X129180000Y-85430000D03*
%TO.P,U1,12,VSSA_12*%
%TO.N,GND*%
X129180000Y-85930000D03*
%TO.P,U1,13,VREF+_13*%
%TO.N,+3.3V*%
X129180000Y-86430000D03*
%TO.P,U1,14,TIM5_CH1_14*%
%TO.N,/WS_DIN*%
X129180000Y-86930000D03*
%TO.P,U1,15,TIM2_CH2_15*%
%TO.N,/MD_PWMA*%
X129180000Y-87430000D03*
%TO.P,U1,16,PA2_16*%
%TO.N,/MD_AIN2*%
X129180000Y-87930000D03*
D50*
%TO.P,U1,17,PA3_17*%
%TO.N,/MD_AIN1*%
X131105000Y-89855000D03*
%TO.P,U1,18,VSS_18*%
%TO.N,GND*%
X131605000Y-89855000D03*
%TO.P,U1,19,VDD_19*%
%TO.N,+3.3V*%
X132105000Y-89855000D03*
%TO.P,U1,20,PA4_20*%
%TO.N,/MD_STBY*%
X132605000Y-89855000D03*
%TO.P,U1,21,TIM2_CH1_21*%
%TO.N,/MD_PWMB*%
X133105000Y-89855000D03*
%TO.P,U1,22,PA6_22*%
%TO.N,/MD_BIN1*%
X133605000Y-89855000D03*
%TO.P,U1,23,PA7_23*%
%TO.N,/MD_BIN2*%
X134105000Y-89855000D03*
%TO.P,U1,24,PC4_24*%
%TO.N,unconnected-(U1-PC4-Pad24)*%
X134605000Y-89855000D03*
%TO.P,U1,25,PC5_25*%
%TO.N,unconnected-(U1-PC5-Pad25)*%
X135105000Y-89855000D03*
%TO.P,U1,26,PB0_26*%
%TO.N,unconnected-(U1-PB0-Pad26)*%
X135605000Y-89855000D03*
%TO.P,U1,27,PB1_27*%
%TO.N,/USER_LED*%
X136105000Y-89855000D03*
%TO.P,U1,28,PB2_28*%
%TO.N,GND*%
X136605000Y-89855000D03*
%TO.P,U1,29,PB10_29*%
%TO.N,unconnected-(U1-PB10-Pad29)*%
X137105000Y-89855000D03*
%TO.P,U1,30,VCAP1_30*%
%TO.N,Net-(U1-VCAP1)*%
X137605000Y-89855000D03*
%TO.P,U1,31,VSS_31*%
%TO.N,GND*%
X138105000Y-89855000D03*
%TO.P,U1,32,VDD_32*%
%TO.N,+3.3V*%
X138605000Y-89855000D03*
D49*
%TO.P,U1,33,PB12_33*%
%TO.N,unconnected-(U1-PB12-Pad33)*%
X140530000Y-87930000D03*
%TO.P,U1,34,PB13_34*%
%TO.N,unconnected-(U1-PB13-Pad34)*%
X140530000Y-87430000D03*
%TO.P,U1,35,PB14_35*%
%TO.N,unconnected-(U1-PB14-Pad35)*%
X140530000Y-86930000D03*
%TO.P,U1,36,PB15_36*%
%TO.N,unconnected-(U1-PB15-Pad36)*%
X140530000Y-86430000D03*
%TO.P,U1,37,PC6_37*%
%TO.N,/MT_PWM*%
X140530000Y-85930000D03*
%TO.P,U1,38,PC7_38*%
%TO.N,unconnected-(U1-PC7-Pad38)*%
X140530000Y-85430000D03*
%TO.P,U1,39,PC8_39*%
%TO.N,unconnected-(U1-PC8-Pad39)*%
X140530000Y-84930000D03*
%TO.P,U1,40,I2C3_SDA_40*%
%TO.N,/MT_SDA*%
X140530000Y-84430000D03*
%TO.P,U1,41,I2C3_SCL_41*%
%TO.N,/MT_SCL*%
X140530000Y-83930000D03*
%TO.P,U1,42,USART1_TX_42*%
%TO.N,/ESP_RX*%
X140530000Y-83430000D03*
%TO.P,U1,43,USART1_RX_43*%
%TO.N,/ESP_TX*%
X140530000Y-82930000D03*
%TO.P,U1,44,USB_OTG_FS_DM_44*%
%TO.N,/ESD_D-*%
X140530000Y-82430000D03*
%TO.P,U1,45,USB_OTG_FS_DP_45*%
%TO.N,/ESD_D+*%
X140530000Y-81930000D03*
%TO.P,U1,46,SYS_JTMS-SWDIO_46*%
%TO.N,/SWDIO*%
X140530000Y-81430000D03*
%TO.P,U1,47,VSS_47*%
%TO.N,GND*%
X140530000Y-80930000D03*
%TO.P,U1,48,VDD_48*%
%TO.N,+3.3V*%
X140530000Y-80430000D03*
D50*
%TO.P,U1,49,SYS_JTCK-SWCLK_49*%
%TO.N,/SWCLK*%
X138605000Y-78505000D03*
%TO.P,U1,50,PA15_50*%
%TO.N,unconnected-(U1-PA15-Pad50)*%
X138105000Y-78505000D03*
%TO.P,U1,51,PC10_51*%
%TO.N,unconnected-(U1-PC10-Pad51)*%
X137605000Y-78505000D03*
%TO.P,U1,52,PC11_52*%
%TO.N,unconnected-(U1-PC11-Pad52)*%
X137105000Y-78505000D03*
%TO.P,U1,53,PC12_53*%
%TO.N,unconnected-(U1-PC12-Pad53)*%
X136605000Y-78505000D03*
%TO.P,U1,54,PD2_54*%
%TO.N,unconnected-(U1-PD2-Pad54)*%
X136105000Y-78505000D03*
%TO.P,U1,55,PB3_55*%
%TO.N,unconnected-(U1-PB3-Pad55)*%
X135605000Y-78505000D03*
%TO.P,U1,56,PB4_56*%
%TO.N,unconnected-(U1-PB4-Pad56)*%
X135105000Y-78505000D03*
%TO.P,U1,57,PB5_57*%
%TO.N,unconnected-(U1-PB5-Pad57)*%
X134605000Y-78505000D03*
%TO.P,U1,58,PB6_58*%
%TO.N,/ENC_B*%
X134105000Y-78505000D03*
%TO.P,U1,59,PB7_59*%
%TO.N,/ENC_A*%
X133605000Y-78505000D03*
%TO.P,U1,60,BOOT0_60*%
%TO.N,/BOOT0*%
X133105000Y-78505000D03*
%TO.P,U1,61,I2C1_SCL_61*%
%TO.N,/IMU_SCL*%
X132605000Y-78505000D03*
%TO.P,U1,62,I2C1_SDA_62*%
%TO.N,/IMU_SDA*%
X132105000Y-78505000D03*
%TO.P,U1,63,VSS_63*%
%TO.N,GND*%
X131605000Y-78505000D03*
%TO.P,U1,64,VDD_64*%
%TO.N,+3.3V*%
X131105000Y-78505000D03*
%TD*%
D51*
%TO.N,GND*%
X148000000Y-119500000D03*
X115000000Y-115000000D03*
X146000000Y-78000000D03*
X132500000Y-88000000D03*
X155000000Y-85500000D03*
X139180000Y-80930000D03*
X104500000Y-89000000D03*
X126500000Y-76000000D03*
X165000000Y-118500000D03*
X130500000Y-66000000D03*
X129000000Y-102500000D03*
X138500000Y-92500000D03*
X135500000Y-110000000D03*
X130500000Y-107500000D03*
X123000000Y-84873000D03*
X122500000Y-113500000D03*
X135500000Y-117000000D03*
X106500000Y-82000000D03*
X112180000Y-73430000D03*
X124000000Y-79000000D03*
X147980000Y-116130000D03*
X103000000Y-81500000D03*
X116500000Y-102000000D03*
X155500000Y-79500000D03*
X165500000Y-76500000D03*
X119000000Y-80500000D03*
X113000000Y-106000000D03*
X153500000Y-83000000D03*
X131680000Y-79930000D03*
X123500000Y-89000000D03*
X139000000Y-72000000D03*
X129500000Y-95500000D03*
X139000000Y-103500000D03*
X137180000Y-88430000D03*
X130680000Y-85930000D03*
X112000000Y-92000000D03*
X111000000Y-81000000D03*
X164000000Y-89500000D03*
X125500000Y-92500000D03*
X148500000Y-101500000D03*
%TO.N,+5V*%
X109000000Y-111000000D03*
X112000000Y-111000000D03*
X109000000Y-75000000D03*
X105000000Y-75000000D03*
%TO.N,/MD_BO2*%
X128000000Y-68000000D03*
X124500000Y-68000000D03*
%TO.N,/MD_BO1*%
X124500000Y-66898400D03*
X128000000Y-66898400D03*
%TO.N,VM*%
X127500000Y-104000000D03*
X118500000Y-104000000D03*
%TO.N,/MD_PWMB*%
X115000000Y-99127000D03*
X115000000Y-97373000D03*
%TO.N,+3.3V*%
X143000000Y-89000000D03*
X148000000Y-76000000D03*
X148000000Y-85000000D03*
X160000000Y-62000000D03*
X122500000Y-95500000D03*
X146500000Y-89000000D03*
X122500000Y-99500000D03*
X162127000Y-62000000D03*
X130500000Y-88500000D03*
X130000000Y-90152400D03*
%TO.N,Vusb*%
X156000000Y-112000000D03*
X156000000Y-108500000D03*
%TO.N,/SWCLK*%
X153000000Y-68500000D03*
X149000000Y-68500000D03*
%TD*%
%TO.N,GND*%
D52*
X151180000Y-115320000D02*
X151000000Y-115500000D01*
X151180000Y-114005000D02*
X151180000Y-115320000D01*
X151000000Y-115500000D02*
X148610000Y-115500000D01*
X148610000Y-115500000D02*
X147980000Y-116130000D01*
X148850000Y-120350000D02*
X148000000Y-119500000D01*
X149230000Y-120350000D02*
X148850000Y-120350000D01*
X114605000Y-114605000D02*
X115000000Y-115000000D01*
X114605000Y-113430000D02*
X114605000Y-114605000D01*
%TO.N,+3.3V*%
D53*
X135680000Y-71930000D02*
X135603000Y-71853000D01*
X135603000Y-71853000D02*
X135603000Y-68111000D01*
X135603000Y-68111000D02*
X135928600Y-67785400D01*
X135928600Y-67785400D02*
X135928600Y-59928600D01*
X135928600Y-59928600D02*
X136000000Y-59857200D01*
X136000000Y-59857200D02*
X136000000Y-57500000D01*
X138000000Y-55500000D02*
X136000000Y-57500000D01*
%TO.N,GND*%
D52*
X140180000Y-71930000D02*
X139070000Y-71930000D01*
X139070000Y-71930000D02*
X139000000Y-72000000D01*
X145500000Y-78500000D02*
X146000000Y-78000000D01*
X144537500Y-78500000D02*
X145500000Y-78500000D01*
X162560000Y-86000000D02*
X161000000Y-86000000D01*
X162680000Y-85880000D02*
X162560000Y-86000000D01*
X161000000Y-89000000D02*
X162750000Y-90750000D01*
D54*
X161130000Y-92370000D02*
X162750000Y-90750000D01*
D52*
X161000000Y-86000000D02*
X161000000Y-89000000D01*
X161980000Y-79480000D02*
X160500000Y-78000000D01*
X162680000Y-79480000D02*
X161980000Y-79480000D01*
X162000000Y-76500000D02*
X163500000Y-76500000D01*
X160500000Y-78000000D02*
X162000000Y-76500000D01*
D53*
X137705000Y-102205000D02*
X139000000Y-103500000D01*
D55*
X138105000Y-89855000D02*
X138105000Y-89045328D01*
D53*
X102950000Y-83500000D02*
X102950000Y-81550000D01*
D55*
X132110000Y-88000000D02*
X131605000Y-88505000D01*
D54*
X124180000Y-102820000D02*
X124500000Y-102500000D01*
D53*
X110537500Y-90537500D02*
X112000000Y-92000000D01*
D54*
X166500000Y-76500000D02*
X165500000Y-76500000D01*
D53*
X123410000Y-89000000D02*
X123500000Y-89000000D01*
X156680000Y-86430000D02*
X155930000Y-86430000D01*
D55*
X132500000Y-88000000D02*
X132110000Y-88000000D01*
D53*
X113180000Y-90820000D02*
X112000000Y-92000000D01*
X102300000Y-83500000D02*
X102300000Y-82200000D01*
X156785000Y-79500000D02*
X157355000Y-78930000D01*
D56*
X124075000Y-78925000D02*
X124000000Y-79000000D01*
D54*
X120500000Y-82000000D02*
X119000000Y-80500000D01*
X166180000Y-114430000D02*
X166180000Y-117320000D01*
D53*
X130640000Y-65860000D02*
X130500000Y-66000000D01*
X142755000Y-90930000D02*
X141639000Y-92046000D01*
X126105000Y-91895000D02*
X125500000Y-92500000D01*
D54*
X137755000Y-93930000D02*
X137755000Y-93245000D01*
X124180000Y-103892500D02*
X124180000Y-102820000D01*
X163320000Y-78360000D02*
X163320000Y-76680000D01*
D56*
X131180000Y-95505000D02*
X129505000Y-95505000D01*
D54*
X163320000Y-87000000D02*
X163320000Y-88820000D01*
D56*
X125000000Y-84037500D02*
X125000000Y-85000000D01*
D53*
X135607500Y-109892500D02*
X135500000Y-110000000D01*
D54*
X124180000Y-111820000D02*
X122500000Y-113500000D01*
X148980000Y-115130000D02*
X147980000Y-116130000D01*
D53*
X121180000Y-113430000D02*
X122430000Y-113430000D01*
D54*
X115380000Y-106130000D02*
X113130000Y-106130000D01*
D55*
X131605000Y-78505000D02*
X131605000Y-79855000D01*
D53*
X139430000Y-103930000D02*
X139000000Y-103500000D01*
D54*
X122700000Y-84573000D02*
X123000000Y-84873000D01*
D55*
X131605000Y-88505000D02*
X131605000Y-89855000D01*
D53*
X130430000Y-107430000D02*
X130500000Y-107500000D01*
D55*
X138105000Y-89045328D02*
X137489672Y-88430000D01*
D53*
X155500000Y-79500000D02*
X156785000Y-79500000D01*
D55*
X129180000Y-85930000D02*
X130680000Y-85930000D01*
D53*
X102950000Y-81550000D02*
X103000000Y-81500000D01*
D55*
X136605000Y-89855000D02*
X136605000Y-89005000D01*
D53*
X106850000Y-83500000D02*
X106850000Y-82350000D01*
D56*
X125000000Y-85000000D02*
X123127000Y-85000000D01*
D53*
X136032500Y-116467500D02*
X135500000Y-117000000D01*
X137705000Y-101430000D02*
X137705000Y-102205000D01*
X136980000Y-109892500D02*
X135607500Y-109892500D01*
X129180000Y-107430000D02*
X130430000Y-107430000D01*
D56*
X123127000Y-85000000D02*
X123000000Y-84873000D01*
D54*
X122700000Y-83737500D02*
X122700000Y-84573000D01*
D53*
X138954000Y-92046000D02*
X138500000Y-92500000D01*
X130640000Y-63930000D02*
X130640000Y-65860000D01*
X110500000Y-90537500D02*
X110537500Y-90537500D01*
D54*
X162750000Y-90750000D02*
X164000000Y-89500000D01*
X118000000Y-81500000D02*
X119000000Y-80500000D01*
D55*
X140530000Y-80930000D02*
X139180000Y-80930000D01*
X137489672Y-88430000D02*
X137180000Y-88430000D01*
D54*
X167500000Y-89000000D02*
X164500000Y-89000000D01*
X163320000Y-76680000D02*
X163500000Y-76500000D01*
D53*
X121180000Y-91230000D02*
X123410000Y-89000000D01*
D54*
X161130000Y-92930000D02*
X161130000Y-92370000D01*
X163500000Y-76500000D02*
X165500000Y-76500000D01*
D56*
X127142500Y-76642500D02*
X126500000Y-76000000D01*
D54*
X147580000Y-115730000D02*
X147980000Y-116130000D01*
D53*
X155930000Y-86430000D02*
X155000000Y-85500000D01*
D54*
X120500000Y-82037500D02*
X120500000Y-82000000D01*
D53*
X136980000Y-116467500D02*
X136032500Y-116467500D01*
D54*
X166180000Y-117320000D02*
X165000000Y-118500000D01*
X164500000Y-89000000D02*
X164000000Y-89500000D01*
X167500000Y-77500000D02*
X166500000Y-76500000D01*
D53*
X148680000Y-102930000D02*
X148680000Y-101680000D01*
X126105000Y-90930000D02*
X126105000Y-91895000D01*
D54*
X118425000Y-102000000D02*
X116500000Y-102000000D01*
D55*
X136605000Y-89005000D02*
X137180000Y-88430000D01*
D54*
X118000000Y-81962500D02*
X118000000Y-81500000D01*
X148980000Y-114167500D02*
X148980000Y-115130000D01*
X167500000Y-87000000D02*
X167500000Y-89000000D01*
D53*
X104250000Y-90500000D02*
X104250000Y-89250000D01*
D54*
X163320000Y-88820000D02*
X164000000Y-89500000D01*
D53*
X106850000Y-82350000D02*
X106500000Y-82000000D01*
X141639000Y-92046000D02*
X138954000Y-92046000D01*
D54*
X167500000Y-78360000D02*
X167500000Y-77500000D01*
X137755000Y-93245000D02*
X138500000Y-92500000D01*
D53*
X143155000Y-103930000D02*
X139430000Y-103930000D01*
D54*
X124180000Y-111430000D02*
X124180000Y-111820000D01*
D56*
X127142500Y-77430000D02*
X127142500Y-76642500D01*
D54*
X124500000Y-102500000D02*
X129000000Y-102500000D01*
D53*
X113180000Y-90575000D02*
X113180000Y-90820000D01*
X148680000Y-101680000D02*
X148500000Y-101500000D01*
X102300000Y-82200000D02*
X103000000Y-81500000D01*
X106200000Y-82300000D02*
X106500000Y-82000000D01*
D54*
X113130000Y-106130000D02*
X113000000Y-106000000D01*
D53*
X106200000Y-83500000D02*
X106200000Y-82300000D01*
X153480000Y-82980000D02*
X153500000Y-83000000D01*
D56*
X129505000Y-95505000D02*
X129500000Y-95500000D01*
X124075000Y-77500000D02*
X124075000Y-78925000D01*
D53*
X122430000Y-113430000D02*
X122500000Y-113500000D01*
D55*
X131605000Y-79855000D02*
X131680000Y-79930000D01*
D54*
X145980000Y-115730000D02*
X147580000Y-115730000D01*
D53*
X104250000Y-89250000D02*
X104500000Y-89000000D01*
D54*
X111000000Y-78442500D02*
X111000000Y-81000000D01*
D53*
X152275000Y-82980000D02*
X153480000Y-82980000D01*
D54*
X114680000Y-73430000D02*
X112180000Y-73430000D01*
%TO.N,+5V*%
X114500000Y-87000000D02*
X114070000Y-86570000D01*
X114500000Y-87000000D02*
X114500000Y-87180000D01*
X119105000Y-113430000D02*
X117680000Y-113430000D01*
X117680000Y-118180000D02*
X119000000Y-119500000D01*
X107500000Y-111000000D02*
X109000000Y-111000000D01*
X98000000Y-75000000D02*
X98000000Y-69500000D01*
X98000000Y-75000000D02*
X98000000Y-101500000D01*
X129430000Y-119070000D02*
X129430000Y-116005000D01*
X114070000Y-78570000D02*
X110500000Y-75000000D01*
X116680000Y-113430000D02*
X117680000Y-113430000D01*
X114070000Y-86570000D02*
X114070000Y-78570000D01*
X110500000Y-75000000D02*
X109000000Y-75000000D01*
X115380000Y-110730000D02*
X116980000Y-110730000D01*
X116980000Y-110730000D02*
X117680000Y-111430000D01*
X105000000Y-75000000D02*
X98000000Y-75000000D01*
X115430000Y-87930000D02*
X114500000Y-87000000D01*
X130750000Y-61500000D02*
X133180000Y-63930000D01*
X116280000Y-87930000D02*
X115430000Y-87930000D01*
X117680000Y-111430000D02*
X117680000Y-113430000D01*
X115110000Y-111000000D02*
X115380000Y-110730000D01*
X119000000Y-119500000D02*
X129000000Y-119500000D01*
X98000000Y-101500000D02*
X107500000Y-111000000D01*
X106000000Y-61500000D02*
X130750000Y-61500000D01*
X112000000Y-111000000D02*
X115110000Y-111000000D01*
X117680000Y-113430000D02*
X117680000Y-118180000D01*
X114500000Y-87180000D02*
X113180000Y-88500000D01*
X98000000Y-69500000D02*
X106000000Y-61500000D01*
X129000000Y-119500000D02*
X129430000Y-119070000D01*
%TO.N,/MD_AO1*%
D55*
X108150000Y-84850000D02*
X107500000Y-85500000D01*
X107000000Y-86000000D02*
X103000000Y-86000000D01*
X108150000Y-83500000D02*
X108150000Y-84850000D01*
X99500000Y-95000000D02*
X110500000Y-106000000D01*
D53*
X122405000Y-123905000D02*
X137430000Y-123905000D01*
D55*
X107500000Y-85500000D02*
X107000000Y-86000000D01*
X103000000Y-86000000D02*
X99500000Y-89500000D01*
X99500000Y-89500000D02*
X99500000Y-95000000D01*
X107500000Y-83500000D02*
X107500000Y-85500000D01*
D53*
X110500000Y-106000000D02*
X110500000Y-112000000D01*
D52*
X137430000Y-124680000D02*
X137430000Y-123905000D01*
D53*
X110500000Y-112000000D02*
X122405000Y-123905000D01*
%TO.N,/MD_AO2*%
D55*
X138500000Y-126000000D02*
X139930000Y-124570000D01*
X105550000Y-84950000D02*
X105000000Y-85500000D01*
X110000000Y-106500000D02*
X110000000Y-114000000D01*
X99096800Y-95596800D02*
X110000000Y-106500000D01*
X105000000Y-85500000D02*
X102929790Y-85500000D01*
X104900000Y-83500000D02*
X104900000Y-85400000D01*
X105550000Y-83500000D02*
X105550000Y-84950000D01*
X110000000Y-114000000D02*
X122000000Y-126000000D01*
X99096800Y-89332989D02*
X99096800Y-95596800D01*
X122000000Y-126000000D02*
X138500000Y-126000000D01*
X104900000Y-85400000D02*
X105000000Y-85500000D01*
X139930000Y-124570000D02*
X139930000Y-123905000D01*
X102929790Y-85500000D02*
X99096800Y-89332989D01*
%TO.N,/MD_BO2*%
X103600000Y-82900000D02*
X104250000Y-82250000D01*
X107500000Y-79000000D02*
X107500000Y-74000000D01*
X121500000Y-56500000D02*
X121500000Y-58500000D01*
X121500000Y-58500000D02*
X132000000Y-58500000D01*
X132000000Y-58500000D02*
X135500000Y-62000000D01*
X135500000Y-62000000D02*
X135500000Y-66000000D01*
X103600000Y-83500000D02*
X103600000Y-82900000D01*
X104250000Y-82250000D02*
X107500000Y-79000000D01*
X135500000Y-66000000D02*
X133500000Y-68000000D01*
X133500000Y-68000000D02*
X128000000Y-68000000D01*
X104250000Y-83500000D02*
X104250000Y-82250000D01*
X107596800Y-73903200D02*
X108096799Y-73903200D01*
X113999999Y-68000000D02*
X124500000Y-68000000D01*
X108096799Y-73903200D02*
X113999999Y-68000000D01*
X107500000Y-74000000D02*
X107596800Y-73903200D01*
%TO.N,/MD_BO1*%
X101525001Y-82025001D02*
X101000000Y-82550001D01*
X106500000Y-73500000D02*
X106000000Y-74000000D01*
X120000000Y-60944400D02*
X119000000Y-59944400D01*
X107929789Y-73500000D02*
X106500000Y-73500000D01*
X124500000Y-66898400D02*
X114531389Y-66898400D01*
X106000000Y-74000000D02*
X106000000Y-79000000D01*
X101000000Y-82550001D02*
X101000000Y-83500000D01*
X128000000Y-66898400D02*
X134031390Y-66898400D01*
X114531389Y-66898400D02*
X107929789Y-73500000D01*
X101650000Y-82150000D02*
X101525001Y-82025001D01*
X135000000Y-62070210D02*
X133874190Y-60944400D01*
X133874190Y-60944400D02*
X120000000Y-60944400D01*
X134031390Y-66898400D02*
X135000000Y-65929789D01*
X106000000Y-79000000D02*
X104550001Y-79000000D01*
X135000000Y-65929789D02*
X135000000Y-62070210D01*
X104550001Y-79000000D02*
X101525001Y-82025001D01*
X101650000Y-83500000D02*
X101650000Y-82150000D01*
X119000000Y-59944400D02*
X119000000Y-56500000D01*
%TO.N,VM*%
D54*
X151180000Y-111930000D02*
X151180000Y-111167500D01*
X101000000Y-89550001D02*
X101000000Y-90500000D01*
X151180000Y-111167500D02*
X150256250Y-110243750D01*
X127500000Y-104000000D02*
X134500000Y-104000000D01*
X161680000Y-111930000D02*
X159993750Y-110243750D01*
X140500000Y-110000000D02*
X148500000Y-110000000D01*
X111500000Y-84500000D02*
X110500000Y-85500000D01*
X150012500Y-110000000D02*
X150256250Y-110243750D01*
X111500000Y-84057500D02*
X111500000Y-84500000D01*
X148500000Y-110000000D02*
X150012500Y-110000000D01*
X110500000Y-85500000D02*
X108154000Y-87846000D01*
X110000000Y-104000000D02*
X118500000Y-104000000D01*
X101646000Y-88904001D02*
X101000000Y-89550001D01*
X134500000Y-104000000D02*
X140500000Y-110000000D01*
X108154000Y-87846000D02*
X102704001Y-87846000D01*
X101646000Y-88904001D02*
X101646000Y-90500000D01*
X101000000Y-89550001D02*
X101000000Y-95000000D01*
X148980000Y-111520000D02*
X150256250Y-110243750D01*
X166180000Y-111930000D02*
X161680000Y-111930000D01*
X108154000Y-87846000D02*
X108154000Y-90500000D01*
X147370000Y-111130000D02*
X148500000Y-110000000D01*
X102704001Y-87846000D02*
X101646000Y-88904001D01*
X148980000Y-112092500D02*
X148980000Y-111520000D01*
X159993750Y-110243750D02*
X150256250Y-110243750D01*
X111000000Y-83557500D02*
X111500000Y-84057500D01*
X110500000Y-88462500D02*
X110500000Y-85500000D01*
X101000000Y-95000000D02*
X110000000Y-104000000D01*
X145980000Y-111130000D02*
X147370000Y-111130000D01*
%TO.N,/MD_PWMB*%
D55*
X110000000Y-100500000D02*
X114000000Y-100500000D01*
X114000000Y-100500000D02*
X114500000Y-100000000D01*
X115000000Y-99500000D02*
X115000000Y-99127000D01*
X115000000Y-97373000D02*
X131553560Y-97373000D01*
X133105000Y-95821560D02*
X133105000Y-89855000D01*
X102300000Y-92800000D02*
X110000000Y-100500000D01*
X102300000Y-90500000D02*
X102300000Y-92800000D01*
X114500000Y-100000000D02*
X115000000Y-99500000D01*
X131553560Y-97373000D02*
X133105000Y-95821560D01*
%TO.N,/MD_BIN2*%
D53*
X134105000Y-96141584D02*
X131746584Y-98500000D01*
X131746584Y-98500000D02*
X110000001Y-98500000D01*
X134105000Y-89855000D02*
X134105000Y-96141584D01*
X102950000Y-91449999D02*
X102950000Y-90500000D01*
X110000001Y-98500000D02*
X102950000Y-91449999D01*
%TO.N,/MD_BIN1*%
X133605000Y-89855000D02*
X133605000Y-95999532D01*
X103600000Y-91449999D02*
X103600000Y-90500000D01*
X131604532Y-98000000D02*
X110150001Y-98000000D01*
X133605000Y-95999532D02*
X131604532Y-98000000D01*
X110150001Y-98000000D02*
X103600000Y-91449999D01*
%TO.N,/MD_STBY*%
X109500000Y-96500000D02*
X110000000Y-96500000D01*
X104900000Y-90500000D02*
X104900000Y-91900000D01*
X109950001Y-96500000D02*
X131820428Y-96500000D01*
X132605000Y-95715428D02*
X132605000Y-89855000D01*
X131820428Y-96500000D02*
X132605000Y-95715428D01*
X104900000Y-91900000D02*
X109500000Y-96500000D01*
%TO.N,+3.3V*%
X163000000Y-57500000D02*
X160000000Y-54500000D01*
D54*
X123255000Y-108430000D02*
X124180000Y-109355000D01*
D53*
X140530000Y-80430000D02*
X142460000Y-78500000D01*
X130500000Y-87000000D02*
X131420288Y-86079712D01*
D54*
X122500000Y-99500000D02*
X122500000Y-100000000D01*
X146000000Y-106930000D02*
X145500000Y-106430000D01*
D53*
X156500000Y-54500000D02*
X154000000Y-54500000D01*
X139000000Y-54500000D02*
X138000000Y-55500000D01*
X131180000Y-93180000D02*
X130000000Y-92000000D01*
X136579712Y-86079712D02*
X138605000Y-88105000D01*
X156006000Y-56546000D02*
X156006000Y-54994000D01*
D56*
X129852000Y-91852000D02*
X129852000Y-90930000D01*
D54*
X123255000Y-108430000D02*
X124180000Y-107505000D01*
D56*
X130000000Y-92000000D02*
X129852000Y-91852000D01*
D54*
X146000000Y-106930000D02*
X146755000Y-106930000D01*
X128000000Y-94000000D02*
X130000000Y-92000000D01*
D53*
X163000000Y-66408000D02*
X165052000Y-66408000D01*
X132105000Y-92000000D02*
X132105000Y-89855000D01*
D54*
X121680000Y-102000000D02*
X121680000Y-108430000D01*
D53*
X151500000Y-54500000D02*
X139000000Y-54500000D01*
X148000000Y-76000000D02*
X144962500Y-76000000D01*
X153466000Y-56546000D02*
X153466000Y-55034000D01*
X130930000Y-77430000D02*
X129217500Y-77430000D01*
X150926000Y-55074000D02*
X151500000Y-54500000D01*
D56*
X123680000Y-106430000D02*
X124180000Y-106430000D01*
D54*
X146755000Y-106930000D02*
X148680000Y-105005000D01*
D53*
X138000000Y-55500000D02*
X138000000Y-57500000D01*
X148000000Y-87500000D02*
X148000000Y-85000000D01*
D54*
X133500000Y-101500000D02*
X140000000Y-108000000D01*
X146000000Y-108000000D02*
X146000000Y-106930000D01*
D53*
X130282000Y-90500000D02*
X130282000Y-90434400D01*
D54*
X121680000Y-100820000D02*
X121680000Y-101500000D01*
D53*
X143481250Y-77481250D02*
X142462500Y-78500000D01*
D54*
X121680000Y-101500000D02*
X133500000Y-101500000D01*
D53*
X131053000Y-80189712D02*
X130681644Y-79818356D01*
X154205288Y-66408000D02*
X163000000Y-66408000D01*
D54*
X122500000Y-95000000D02*
X123500000Y-94000000D01*
D53*
X130500000Y-87000000D02*
X130500000Y-86904408D01*
X139500000Y-89000000D02*
X143000000Y-89000000D01*
X156500000Y-56052000D02*
X156006000Y-56546000D01*
D54*
X121680000Y-108430000D02*
X122500000Y-107610000D01*
D55*
X138605000Y-89855000D02*
X139680000Y-90930000D01*
D53*
X152000000Y-72000000D02*
X152000000Y-68613288D01*
X131180000Y-93430000D02*
X132105000Y-92505000D01*
X152000000Y-68613288D02*
X154205288Y-66408000D01*
X132105000Y-92505000D02*
X132105000Y-92000000D01*
X130025592Y-86430000D02*
X129180000Y-86430000D01*
X131420288Y-86079712D02*
X131420288Y-80557000D01*
X128180000Y-90930000D02*
X129852000Y-90930000D01*
D54*
X122500000Y-95500000D02*
X122500000Y-95000000D01*
D53*
X131105000Y-77605000D02*
X130930000Y-77430000D01*
X130500000Y-86904408D02*
X130025592Y-86430000D01*
X131420288Y-86079712D02*
X136579712Y-86079712D01*
D54*
X145500000Y-106430000D02*
X143155000Y-106430000D01*
D53*
X142460000Y-78500000D02*
X142462500Y-78500000D01*
D54*
X120500000Y-102000000D02*
X121680000Y-102000000D01*
D53*
X150926000Y-56546000D02*
X150926000Y-55074000D01*
X148000000Y-76000000D02*
X152000000Y-72000000D01*
D54*
X140000000Y-108000000D02*
X146000000Y-108000000D01*
X124995000Y-107505000D02*
X125070000Y-107430000D01*
D53*
X162127000Y-62000000D02*
X163000000Y-62000000D01*
X131180000Y-93430000D02*
X131180000Y-93180000D01*
X138605000Y-88105000D02*
X139500000Y-89000000D01*
X156006000Y-54994000D02*
X156500000Y-54500000D01*
X146500000Y-89000000D02*
X148000000Y-87500000D01*
D54*
X122500000Y-100000000D02*
X121680000Y-100820000D01*
X121680000Y-101500000D02*
X121680000Y-102000000D01*
X123500000Y-94000000D02*
X128000000Y-94000000D01*
D53*
X131420288Y-80557000D02*
X131053000Y-80189712D01*
D54*
X124180000Y-107505000D02*
X124180000Y-105967500D01*
D53*
X130500000Y-88500000D02*
X130500000Y-87000000D01*
X109500000Y-95500000D02*
X122500000Y-95500000D01*
X165052000Y-66408000D02*
X165500000Y-65960000D01*
X163000000Y-66408000D02*
X163000000Y-62000000D01*
X155500000Y-62000000D02*
X160000000Y-62000000D01*
D54*
X121680000Y-108430000D02*
X123255000Y-108430000D01*
D53*
X138605000Y-88105000D02*
X138605000Y-89855000D01*
X129217500Y-78354212D02*
X129217500Y-77430000D01*
X129852000Y-90930000D02*
X130282000Y-90500000D01*
D55*
X139680000Y-90930000D02*
X140680000Y-90930000D01*
D53*
X154000000Y-54500000D02*
X151500000Y-54500000D01*
X160000000Y-54500000D02*
X156500000Y-54500000D01*
X144962500Y-76000000D02*
X143481250Y-77481250D01*
X163000000Y-62000000D02*
X163000000Y-57500000D01*
D54*
X121680000Y-108430000D02*
X115380000Y-108430000D01*
X125070000Y-107430000D02*
X126680000Y-107430000D01*
D53*
X153466000Y-55034000D02*
X154000000Y-54500000D01*
X130282000Y-90434400D02*
X130000000Y-90152400D01*
X131105000Y-78505000D02*
X131105000Y-77605000D01*
D54*
X124180000Y-107505000D02*
X124995000Y-107505000D01*
D53*
X130681644Y-79818356D02*
X129217500Y-78354212D01*
X105550000Y-90500000D02*
X105550000Y-91550000D01*
X105550000Y-91550000D02*
X109500000Y-95500000D01*
%TO.N,/MD_AIN1*%
D56*
X125863650Y-89500000D02*
X130750000Y-89500000D01*
X122500000Y-94000000D02*
X123500000Y-93000000D01*
X123500000Y-93000000D02*
X123500000Y-91863650D01*
X130750000Y-89500000D02*
X131102600Y-89852600D01*
X106200000Y-91513894D02*
X108686106Y-94000000D01*
X131102600Y-89852600D02*
X131102600Y-89855000D01*
X123500000Y-91863650D02*
X125863650Y-89500000D01*
X106200000Y-90500000D02*
X106200000Y-91513894D01*
X108686106Y-94000000D02*
X122500000Y-94000000D01*
%TO.N,/MD_AIN2*%
X128567600Y-87932400D02*
X129180000Y-87932400D01*
X125654555Y-88995200D02*
X127504800Y-88995200D01*
X122290904Y-93495200D02*
X122995200Y-92790904D01*
X108895201Y-93495200D02*
X122290904Y-93495200D01*
X106850000Y-91449998D02*
X108895201Y-93495200D01*
X106850000Y-90500000D02*
X106850000Y-91449998D01*
X122995200Y-92790904D02*
X122995200Y-91654554D01*
X122995200Y-91654554D02*
X125654555Y-88995200D01*
X127504800Y-88995200D02*
X128567600Y-87932400D01*
%TO.N,/MD_PWMA*%
D53*
X126541780Y-87430000D02*
X129180000Y-87430000D01*
X122515800Y-91455980D02*
X126541780Y-87430000D01*
X122515800Y-92592330D02*
X122515800Y-91455980D01*
X109093360Y-93000000D02*
X122108130Y-93000000D01*
X122108130Y-93000000D02*
X122515800Y-92592330D01*
X107500000Y-91406640D02*
X109093360Y-93000000D01*
X107500000Y-90500000D02*
X107500000Y-91406640D01*
%TO.N,5V_REG*%
D54*
X142942500Y-113430000D02*
X139680000Y-113430000D01*
X147480000Y-117967500D02*
X144980000Y-117967500D01*
X143480000Y-113967500D02*
X144017500Y-113430000D01*
D56*
X139680000Y-113430000D02*
X137942500Y-113430000D01*
D54*
X143480000Y-113967500D02*
X142942500Y-113430000D01*
X147517500Y-117930000D02*
X149180000Y-117930000D01*
D56*
X135680000Y-114834800D02*
X135680000Y-113930000D01*
D54*
X147480000Y-117967500D02*
X147517500Y-117930000D01*
D56*
X137942500Y-113430000D02*
X137942500Y-112930000D01*
D54*
X143480000Y-116467500D02*
X143480000Y-113967500D01*
X144017500Y-113430000D02*
X145980000Y-113430000D01*
D56*
X137942500Y-112930000D02*
X136980000Y-111967500D01*
X134509800Y-116005000D02*
X135680000Y-114834800D01*
X137942500Y-113430000D02*
X136180000Y-113430000D01*
X132430000Y-116005000D02*
X134509800Y-116005000D01*
D54*
X144980000Y-117967500D02*
X143480000Y-116467500D01*
D56*
X135680000Y-113930000D02*
X136180000Y-113430000D01*
X137942500Y-113430000D02*
X136980000Y-114392500D01*
%TO.N,Net-(D3-A)*%
X129180000Y-109480000D02*
X126730000Y-109480000D01*
X126730000Y-109480000D02*
X126680000Y-109430000D01*
%TO.N,/CONN_D+*%
D57*
X148900000Y-80930000D02*
X150000000Y-82030000D01*
X147180000Y-80930000D02*
X148900000Y-80930000D01*
%TO.N,/ESD_D+*%
D52*
X141692501Y-81930000D02*
X141717501Y-81955000D01*
X143836802Y-81955000D02*
X144861802Y-80930000D01*
X141717501Y-81955000D02*
X143836802Y-81955000D01*
X144861802Y-80930000D02*
X145180000Y-80930000D01*
X140530000Y-81930000D02*
X141692501Y-81930000D01*
%TO.N,/RESET*%
D55*
X118405000Y-76405000D02*
X117310000Y-77500000D01*
X128321928Y-83478400D02*
X129131600Y-83478400D01*
X128255270Y-83430000D02*
X129180000Y-83430000D01*
X117500000Y-86000000D02*
X126500000Y-86000000D01*
X129131600Y-83478400D02*
X129180000Y-83430000D01*
X126500000Y-86000000D02*
X126500000Y-85185270D01*
X116500000Y-85000000D02*
X117500000Y-86000000D01*
X116500000Y-78310000D02*
X116500000Y-85000000D01*
X121380000Y-73430000D02*
X118405000Y-76405000D01*
X122000000Y-77500000D02*
X117310000Y-77500000D01*
X117310000Y-77500000D02*
X116500000Y-78310000D01*
X126500000Y-85185270D02*
X128255270Y-83430000D01*
%TO.N,Net-(J4-Pin_5)*%
D54*
X153500000Y-62000000D02*
X153500000Y-59120000D01*
X153500000Y-59120000D02*
X153466000Y-59086000D01*
X153546000Y-59166000D02*
X153466000Y-59086000D01*
%TO.N,/WS_DIN*%
D53*
X121180000Y-87930000D02*
X122180000Y-86930000D01*
X122180000Y-86930000D02*
X129180000Y-86930000D01*
%TO.N,Net-(U1-VCAP1)*%
X137605000Y-92005000D02*
X137605000Y-89855000D01*
X135680000Y-93930000D02*
X137605000Y-92005000D01*
%TO.N,Net-(D4-A)*%
X135680000Y-98930000D02*
X135680000Y-101405000D01*
X135680000Y-101405000D02*
X135655000Y-101430000D01*
%TO.N,Net-(J3-CC2)*%
X160180000Y-80930000D02*
X162680000Y-80930000D01*
X159180000Y-78930000D02*
X159180000Y-79930000D01*
X159180000Y-79930000D02*
X160180000Y-80930000D01*
%TO.N,Net-(F1-~-Pad1)*%
X162680000Y-80280000D02*
X163317222Y-80280000D01*
X163317222Y-80280000D02*
X164180000Y-81142778D01*
X163317222Y-85080000D02*
X162680000Y-85080000D01*
X161033288Y-85080000D02*
X159680000Y-86433288D01*
X164180000Y-81142778D02*
X164180000Y-84217222D01*
X159680000Y-86433288D02*
X159680000Y-89430000D01*
X162680000Y-85080000D02*
X161033288Y-85080000D01*
X164180000Y-84217222D02*
X163317222Y-85080000D01*
%TO.N,Vusb*%
X146000000Y-122500000D02*
X142000000Y-118500000D01*
X150989500Y-85014500D02*
X150989500Y-83578264D01*
X150989500Y-85014500D02*
X155405000Y-89430000D01*
X154835000Y-90000000D02*
X154000000Y-90000000D01*
X127930000Y-115830000D02*
X127930000Y-116005000D01*
X130500000Y-117500000D02*
X130500000Y-115000000D01*
X155405000Y-89430000D02*
X154835000Y-90000000D01*
X130500000Y-115000000D02*
X128760000Y-115000000D01*
X154000000Y-90000000D02*
X154000000Y-94000000D01*
X150989500Y-83578264D02*
X150391236Y-82980000D01*
X142000000Y-118500000D02*
X131500000Y-118500000D01*
X155380000Y-95380000D02*
X156000000Y-95380000D01*
X156000000Y-95380000D02*
X156000000Y-108500000D01*
X154000000Y-94000000D02*
X155380000Y-95380000D01*
X156000000Y-95380000D02*
X161180000Y-95380000D01*
X131500000Y-118500000D02*
X130500000Y-117500000D01*
X128760000Y-115000000D02*
X127930000Y-115830000D01*
X150391236Y-82980000D02*
X150000000Y-82980000D01*
X156000000Y-112000000D02*
X156000000Y-120000000D01*
X156000000Y-120000000D02*
X153500000Y-122500000D01*
X153500000Y-122500000D02*
X146000000Y-122500000D01*
%TO.N,/OSCOUT*%
X127570000Y-82930000D02*
X129180000Y-82930000D01*
X126071400Y-85007738D02*
X126071400Y-84928600D01*
X127500000Y-83500000D02*
X127500000Y-83000000D01*
X127500000Y-83000000D02*
X127570000Y-82930000D01*
X119462500Y-85500000D02*
X122262500Y-85500000D01*
X126071400Y-84928600D02*
X127500000Y-83500000D01*
X118000000Y-84037500D02*
X119462500Y-85500000D01*
X126071400Y-85500000D02*
X126071400Y-85007738D01*
X122262500Y-85500000D02*
X126071400Y-85500000D01*
X120500000Y-83737500D02*
X122262500Y-85500000D01*
%TO.N,Net-(J3-CC1)*%
X159180000Y-83930000D02*
X162680000Y-83930000D01*
X158505000Y-84605000D02*
X159180000Y-83930000D01*
X158505000Y-86430000D02*
X158505000Y-84605000D01*
%TO.N,Net-(D5-A)*%
D56*
X151180000Y-120250000D02*
X151280000Y-120350000D01*
X151180000Y-117930000D02*
X151180000Y-120250000D01*
%TO.N,/USB_D-*%
D52*
X152275000Y-83930000D02*
X153268751Y-83930000D01*
D53*
X162680000Y-82430000D02*
X163400592Y-82430000D01*
X163657000Y-83173592D02*
X163400592Y-83430000D01*
D52*
X161405000Y-83430000D02*
X162680000Y-83430000D01*
D53*
X163400592Y-83430000D02*
X162680000Y-83430000D01*
D52*
X153748529Y-83600000D02*
X154143529Y-83205000D01*
X154143529Y-83205000D02*
X161180000Y-83205000D01*
X153268751Y-83930000D02*
X153598751Y-83600000D01*
D53*
X163657000Y-82686408D02*
X163657000Y-83173592D01*
D52*
X153598751Y-83600000D02*
X153748529Y-83600000D01*
D53*
X163400592Y-82430000D02*
X163657000Y-82686408D01*
D52*
X161180000Y-83205000D02*
X161405000Y-83430000D01*
%TO.N,/USB_D+*%
X161997590Y-82930000D02*
X161730000Y-82662410D01*
X162680000Y-82930000D02*
X161997590Y-82930000D01*
X161997590Y-81930000D02*
X162680000Y-81930000D01*
X153268751Y-82030000D02*
X153638751Y-82400000D01*
X154103529Y-82755000D02*
X161822590Y-82755000D01*
X161730000Y-82197590D02*
X161997590Y-81930000D01*
X161822590Y-82755000D02*
X161997590Y-82930000D01*
X161730000Y-82662410D02*
X161730000Y-82197590D01*
X153638751Y-82400000D02*
X153748529Y-82400000D01*
X152275000Y-82030000D02*
X153268751Y-82030000D01*
X153748529Y-82400000D02*
X154103529Y-82755000D01*
%TO.N,/CONN_D-*%
D57*
X148180000Y-83930000D02*
X150000000Y-83930000D01*
X147180000Y-82930000D02*
X148180000Y-83930000D01*
%TO.N,/ESP_TX*%
D53*
X138553000Y-82437000D02*
X139046000Y-82930000D01*
X161000000Y-59000000D02*
X161000000Y-64954000D01*
X151380000Y-70000000D02*
X149097644Y-70000000D01*
X151844822Y-65954000D02*
X151380000Y-66418822D01*
X161000000Y-64954000D02*
X160000000Y-65954000D01*
X149097644Y-70000000D02*
X138553000Y-80544644D01*
X138553000Y-80544644D02*
X138553000Y-82437000D01*
X151380000Y-66418822D02*
X151380000Y-70000000D01*
X158546000Y-56546000D02*
X161000000Y-59000000D01*
X160000000Y-65954000D02*
X151844822Y-65954000D01*
X139046000Y-82930000D02*
X140530000Y-82930000D01*
%TO.N,/ESP_RX*%
X137500000Y-80955592D02*
X137500000Y-82500000D01*
X150926000Y-69500000D02*
X148955592Y-69500000D01*
X138430000Y-83430000D02*
X140530000Y-83430000D01*
X137500000Y-82500000D02*
X138430000Y-83430000D01*
X148955592Y-69500000D02*
X137500000Y-80955592D01*
X150926000Y-59086000D02*
X150926000Y-69500000D01*
%TO.N,/IMU_SCL*%
X132605000Y-78505000D02*
X132605000Y-76605000D01*
X127000000Y-65030000D02*
X128100000Y-63930000D01*
X127000000Y-71000000D02*
X127000000Y-65030000D01*
X132605000Y-76605000D02*
X127000000Y-71000000D01*
%TO.N,/IMU_SDA*%
X132105000Y-77659408D02*
X132105000Y-78505000D01*
X126500000Y-72054408D02*
X132105000Y-77659408D01*
X126500000Y-64870000D02*
X126500000Y-72054408D01*
X125560000Y-63930000D02*
X126500000Y-64870000D01*
%TO.N,/IMU_INT*%
X128334408Y-80930000D02*
X129180000Y-80930000D01*
X117470000Y-66000000D02*
X125500000Y-66000000D01*
X125500000Y-66000000D02*
X125500000Y-78095592D01*
X115400000Y-63930000D02*
X117470000Y-66000000D01*
X125500000Y-78095592D02*
X128334408Y-80930000D01*
%TO.N,/OSCIN*%
X126500000Y-80500000D02*
X126500000Y-80595592D01*
X125000000Y-80500000D02*
X126500000Y-80500000D01*
X122700000Y-80800000D02*
X123000000Y-80500000D01*
X125000000Y-81962500D02*
X125000000Y-80500000D01*
X123000000Y-80500000D02*
X125000000Y-80500000D01*
X122700000Y-82037500D02*
X122700000Y-80800000D01*
X126500000Y-80595592D02*
X128334408Y-82430000D01*
X128334408Y-82430000D02*
X129180000Y-82430000D01*
%TO.N,/MT_PWM*%
X141375592Y-85930000D02*
X140530000Y-85930000D01*
X140500000Y-92500000D02*
X143500000Y-92500000D01*
X143500000Y-92500000D02*
X144000000Y-92000000D01*
X144000000Y-88554408D02*
X141375592Y-85930000D01*
X143155000Y-101430000D02*
X139500000Y-97775000D01*
X144000000Y-92000000D02*
X144000000Y-88554408D01*
X139500000Y-97775000D02*
X139500000Y-93500000D01*
X139500000Y-93500000D02*
X140500000Y-92500000D01*
%TO.N,/MT_SCL*%
X144908000Y-97177000D02*
X143155000Y-98930000D01*
X141572052Y-83930000D02*
X144908000Y-87265948D01*
X140530000Y-83930000D02*
X141572052Y-83930000D01*
X144908000Y-87265948D02*
X144908000Y-97177000D01*
%TO.N,/MT_SDA*%
X143155000Y-96430000D02*
X144454000Y-95131000D01*
X144454000Y-87454000D02*
X141430000Y-84430000D01*
X144454000Y-95131000D02*
X144454000Y-87454000D01*
X141430000Y-84430000D02*
X140530000Y-84430000D01*
%TO.N,Net-(D2-A)*%
X163180000Y-95380000D02*
X163180000Y-92930000D01*
%TO.N,Net-(R2-~-Pad1)*%
X136630000Y-74430000D02*
X137180000Y-73880000D01*
X137180000Y-73880000D02*
X137180000Y-71930000D01*
%TO.N,/BOOT0*%
X133105000Y-78505000D02*
X133105000Y-75955000D01*
X133105000Y-75955000D02*
X134630000Y-74430000D01*
%TO.N,/SWCLK*%
X148610000Y-68500000D02*
X149000000Y-68500000D01*
X138605000Y-78505000D02*
X148610000Y-68500000D01*
X153000000Y-68500000D02*
X165500000Y-68500000D01*
%TO.N,/SWDIO*%
X141375592Y-81430000D02*
X140530000Y-81430000D01*
X145372928Y-79903000D02*
X142902592Y-79903000D01*
X165500000Y-73580000D02*
X152098928Y-73580000D01*
X145775928Y-79500000D02*
X145372928Y-79903000D01*
X152098928Y-73580000D02*
X146178928Y-79500000D01*
X146178928Y-79500000D02*
X145775928Y-79500000D01*
X142902592Y-79903000D02*
X141375592Y-81430000D01*
%TO.N,/ESD_D-*%
D52*
X144548198Y-82930000D02*
X145180000Y-82930000D01*
X141692501Y-82430000D02*
X141717501Y-82405000D01*
X141717501Y-82405000D02*
X144023198Y-82405000D01*
X144023198Y-82405000D02*
X144548198Y-82930000D01*
X140530000Y-82430000D02*
X141692501Y-82430000D01*
%TO.N,/ENC_A*%
D53*
X135000000Y-76000000D02*
X139500000Y-76000000D01*
X140500000Y-60000000D02*
X140500000Y-57500000D01*
X145000000Y-64500000D02*
X140500000Y-60000000D01*
X145000000Y-70500000D02*
X145000000Y-64500000D01*
X133605000Y-78505000D02*
X133605000Y-77395000D01*
X133605000Y-77395000D02*
X135000000Y-76000000D01*
X139500000Y-76000000D02*
X145000000Y-70500000D01*
%TO.N,/ENC_B*%
X145571027Y-60571027D02*
X143000000Y-58000000D01*
X143000000Y-58000000D02*
X143000000Y-57500000D01*
X145571027Y-60571027D02*
X145571027Y-70571027D01*
X134105000Y-77659408D02*
X135310408Y-76454000D01*
X134105000Y-78505000D02*
X134105000Y-77659408D01*
X139688053Y-76454000D02*
X145571027Y-70571027D01*
X135310408Y-76454000D02*
X139688053Y-76454000D01*
%TO.N,/USER_LED*%
X137680000Y-98621000D02*
X137680000Y-98930000D01*
X136105000Y-89855000D02*
X136105000Y-90895000D01*
X136105000Y-90895000D02*
X134559000Y-92441000D01*
X134559000Y-95500000D02*
X137680000Y-98621000D01*
X134559000Y-92441000D02*
X134559000Y-95500000D01*
%TD*%
M02*
