%TF.GenerationSoftware,KiCad,Pcbnew,10.0.0*%
%TF.CreationDate,2026-05-05T13:40:19-06:00*%
%TF.ProjectId,2026_12_2Wheel_Balance_Robot_v1,32303236-5f31-4325-9f32-576865656c5f,rev?*%
%TF.SameCoordinates,Original*%
%TF.FileFunction,Paste,Top*%
%TF.FilePolarity,Positive*%
%FSLAX46Y46*%
G04 Gerber Fmt 4.6, Leading zero omitted, Abs format (unit mm)*
G04 Created by KiCad (PCBNEW 10.0.0) date 2026-05-05 13:40:19*
%MOMM*%
%LPD*%
G01*
G04 APERTURE LIST*
G04 Aperture macros list*
%AMRoundRect*
0 Rectangle with rounded corners*
0 $1 Rounding radius*
0 $2 $3 $4 $5 $6 $7 $8 $9 X,Y pos of 4 corners*
0 Add a 4 corners polygon primitive as box body*
4,1,4,$2,$3,$4,$5,$6,$7,$8,$9,$2,$3,0*
0 Add four circle primitives for the rounded corners*
1,1,$1+$1,$2,$3*
1,1,$1+$1,$4,$5*
1,1,$1+$1,$6,$7*
1,1,$1+$1,$8,$9*
0 Add four rect primitives between the rounded corners*
20,1,$1+$1,$2,$3,$4,$5,0*
20,1,$1+$1,$4,$5,$6,$7,0*
20,1,$1+$1,$6,$7,$8,$9,0*
20,1,$1+$1,$8,$9,$2,$3,0*%
G04 Aperture macros list end*
%ADD10RoundRect,0.250000X-0.475000X0.337500X-0.475000X-0.337500X0.475000X-0.337500X0.475000X0.337500X0*%
%ADD11RoundRect,0.250000X0.475000X-0.337500X0.475000X0.337500X-0.475000X0.337500X-0.475000X-0.337500X0*%
%ADD12RoundRect,0.100000X-0.100000X0.850000X-0.100000X-0.850000X0.100000X-0.850000X0.100000X0.850000X0*%
%ADD13RoundRect,0.250000X0.337500X0.475000X-0.337500X0.475000X-0.337500X-0.475000X0.337500X-0.475000X0*%
%ADD14RoundRect,0.250000X-0.450000X0.325000X-0.450000X-0.325000X0.450000X-0.325000X0.450000X0.325000X0*%
%ADD15RoundRect,0.375000X0.625000X0.375000X-0.625000X0.375000X-0.625000X-0.375000X0.625000X-0.375000X0*%
%ADD16RoundRect,0.500000X0.500000X1.400000X-0.500000X1.400000X-0.500000X-1.400000X0.500000X-1.400000X0*%
%ADD17RoundRect,0.250000X0.350000X0.450000X-0.350000X0.450000X-0.350000X-0.450000X0.350000X-0.450000X0*%
%ADD18R,2.300000X1.500000*%
%ADD19RoundRect,0.090000X-0.660000X-0.360000X0.660000X-0.360000X0.660000X0.360000X-0.660000X0.360000X0*%
%ADD20RoundRect,0.250000X-0.337500X-0.475000X0.337500X-0.475000X0.337500X0.475000X-0.337500X0.475000X0*%
%ADD21RoundRect,0.250000X0.325000X0.450000X-0.325000X0.450000X-0.325000X-0.450000X0.325000X-0.450000X0*%
%ADD22RoundRect,0.237500X0.250000X0.237500X-0.250000X0.237500X-0.250000X-0.237500X0.250000X-0.237500X0*%
%ADD23RoundRect,0.375000X-0.625000X-0.375000X0.625000X-0.375000X0.625000X0.375000X-0.625000X0.375000X0*%
%ADD24RoundRect,0.500000X-0.500000X-1.400000X0.500000X-1.400000X0.500000X1.400000X-0.500000X1.400000X0*%
%ADD25RoundRect,0.250000X0.312500X1.450000X-0.312500X1.450000X-0.312500X-1.450000X0.312500X-1.450000X0*%
%ADD26RoundRect,0.237500X-0.250000X-0.237500X0.250000X-0.237500X0.250000X0.237500X-0.250000X0.237500X0*%
%ADD27RoundRect,0.250000X-0.325000X-0.450000X0.325000X-0.450000X0.325000X0.450000X-0.325000X0.450000X0*%
%ADD28RoundRect,0.150000X0.512500X0.150000X-0.512500X0.150000X-0.512500X-0.150000X0.512500X-0.150000X0*%
%ADD29RoundRect,0.150000X0.500000X-0.150000X0.500000X0.150000X-0.500000X0.150000X-0.500000X-0.150000X0*%
%ADD30RoundRect,0.075000X0.575000X-0.075000X0.575000X0.075000X-0.575000X0.075000X-0.575000X-0.075000X0*%
%ADD31RoundRect,0.250001X0.944999X-0.872499X0.944999X0.872499X-0.944999X0.872499X-0.944999X-0.872499X0*%
%ADD32RoundRect,0.250000X0.450000X-0.350000X0.450000X0.350000X-0.450000X0.350000X-0.450000X-0.350000X0*%
%ADD33R,0.900000X1.250000*%
%ADD34R,0.800000X0.900000*%
%ADD35RoundRect,0.250000X0.450000X0.350000X-0.450000X0.350000X-0.450000X-0.350000X0.450000X-0.350000X0*%
%ADD36RoundRect,0.250000X-0.350000X-0.450000X0.350000X-0.450000X0.350000X0.450000X-0.350000X0.450000X0*%
%ADD37RoundRect,0.075000X-0.700000X-0.075000X0.700000X-0.075000X0.700000X0.075000X-0.700000X0.075000X0*%
%ADD38RoundRect,0.075000X-0.075000X-0.700000X0.075000X-0.700000X0.075000X0.700000X-0.075000X0.700000X0*%
G04 APERTURE END LIST*
D10*
%TO.C,C4*%
X131180000Y-95505000D03*
X131180000Y-93430000D03*
%TD*%
D11*
%TO.C,C26*%
X113180000Y-90575000D03*
X113180000Y-88500000D03*
%TD*%
D12*
%TO.C,U2*%
X108150000Y-83500000D03*
X107500000Y-83500000D03*
X106850000Y-83500000D03*
X106200000Y-83500000D03*
X105550000Y-83500000D03*
X104900000Y-83500000D03*
X104250000Y-83500000D03*
X103600000Y-83500000D03*
X102950000Y-83500000D03*
X102300000Y-83500000D03*
X101650000Y-83500000D03*
X101000000Y-83500000D03*
X101000000Y-90500000D03*
X101650000Y-90500000D03*
X102300000Y-90500000D03*
X102950000Y-90500000D03*
X103600000Y-90500000D03*
X104250000Y-90500000D03*
X104900000Y-90500000D03*
X105550000Y-90500000D03*
X106200000Y-90500000D03*
X106850000Y-90500000D03*
X107500000Y-90500000D03*
X108150000Y-90500000D03*
%TD*%
D11*
%TO.C,C23*%
X136980000Y-111967500D03*
X136980000Y-109892500D03*
%TD*%
D13*
%TO.C,C1*%
X129217500Y-77430000D03*
X127142500Y-77430000D03*
%TD*%
D14*
%TO.C,D3*%
X129180000Y-107430000D03*
X129180000Y-109480000D03*
%TD*%
D15*
%TO.C,U3*%
X145980000Y-115730000D03*
X145980000Y-113430000D03*
D16*
X139680000Y-113430000D03*
D15*
X145980000Y-111130000D03*
%TD*%
D17*
%TO.C,R4*%
X147180000Y-80930000D03*
X145180000Y-80930000D03*
%TD*%
D18*
%TO.C,SW2*%
X114680000Y-73430000D03*
X121380000Y-73430000D03*
%TD*%
D17*
%TO.C,R17*%
X155500000Y-62000000D03*
X153500000Y-62000000D03*
%TD*%
D11*
%TO.C,C14*%
X124180000Y-105967500D03*
X124180000Y-103892500D03*
%TD*%
D13*
%TO.C,C24*%
X128180000Y-90930000D03*
X126105000Y-90930000D03*
%TD*%
D10*
%TO.C,C18*%
X151180000Y-111930000D03*
X151180000Y-114005000D03*
%TD*%
D19*
%TO.C,D1*%
X116280000Y-87930000D03*
X116280000Y-91230000D03*
X121180000Y-91230000D03*
X121180000Y-87930000D03*
%TD*%
D20*
%TO.C,C7*%
X135680000Y-93930000D03*
X137755000Y-93930000D03*
%TD*%
D21*
%TO.C,D4*%
X137705000Y-101430000D03*
X135655000Y-101430000D03*
%TD*%
D20*
%TO.C,C2*%
X142462500Y-78500000D03*
X144537500Y-78500000D03*
%TD*%
D22*
%TO.C,R8*%
X159180000Y-78930000D03*
X157355000Y-78930000D03*
%TD*%
D11*
%TO.C,C8*%
X148680000Y-105005000D03*
X148680000Y-102930000D03*
%TD*%
D23*
%TO.C,U6*%
X115380000Y-106130000D03*
X115380000Y-108430000D03*
D24*
X121680000Y-108430000D03*
D23*
X115380000Y-110730000D03*
%TD*%
D20*
%TO.C,C21*%
X122000000Y-77500000D03*
X124075000Y-77500000D03*
%TD*%
D25*
%TO.C,F1*%
X159680000Y-89430000D03*
X155405000Y-89430000D03*
%TD*%
D10*
%TO.C,C20*%
X118000000Y-81962500D03*
X118000000Y-84037500D03*
%TD*%
D26*
%TO.C,R7*%
X156680000Y-86430000D03*
X158505000Y-86430000D03*
%TD*%
D27*
%TO.C,D5*%
X149230000Y-120350000D03*
X151280000Y-120350000D03*
%TD*%
D20*
%TO.C,C15*%
X119105000Y-113430000D03*
X121180000Y-113430000D03*
%TD*%
D17*
%TO.C,R10*%
X151180000Y-117930000D03*
X149180000Y-117930000D03*
%TD*%
D10*
%TO.C,C22*%
X136980000Y-114392500D03*
X136980000Y-116467500D03*
%TD*%
D28*
%TO.C,U5*%
X152275000Y-83930000D03*
X152275000Y-82980000D03*
X152275000Y-82030000D03*
X150000000Y-82030000D03*
X150000000Y-82980000D03*
X150000000Y-83930000D03*
%TD*%
D10*
%TO.C,C6*%
X110500000Y-88462500D03*
X110500000Y-90537500D03*
%TD*%
D29*
%TO.C,J3*%
X162680000Y-85880000D03*
X162680000Y-85080000D03*
D30*
X162680000Y-83930000D03*
X162680000Y-82930000D03*
X162680000Y-82430000D03*
X162680000Y-81430000D03*
D29*
X162680000Y-80280000D03*
X162680000Y-79480000D03*
X162680000Y-79480000D03*
X162680000Y-80280000D03*
D30*
X162680000Y-80930000D03*
X162680000Y-81930000D03*
X162680000Y-83430000D03*
X162680000Y-84430000D03*
D29*
X162680000Y-85080000D03*
X162680000Y-85880000D03*
%TD*%
D31*
%TO.C,C9*%
X111000000Y-83557500D03*
X111000000Y-78442500D03*
%TD*%
D10*
%TO.C,C17*%
X148980000Y-112092500D03*
X148980000Y-114167500D03*
%TD*%
D11*
%TO.C,C19*%
X125000000Y-84037500D03*
X125000000Y-81962500D03*
%TD*%
D32*
%TO.C,R6*%
X126680000Y-109430000D03*
X126680000Y-107430000D03*
%TD*%
D13*
%TO.C,C25*%
X120500000Y-102000000D03*
X118425000Y-102000000D03*
%TD*%
D17*
%TO.C,R1*%
X163180000Y-95380000D03*
X161180000Y-95380000D03*
%TD*%
D27*
%TO.C,D2*%
X161130000Y-92930000D03*
X163180000Y-92930000D03*
%TD*%
D17*
%TO.C,R2*%
X136630000Y-74430000D03*
X134630000Y-74430000D03*
%TD*%
D33*
%TO.C,S3*%
X132430000Y-116005000D03*
X129430000Y-116005000D03*
X127930000Y-116005000D03*
D34*
X133980000Y-114980000D03*
X126380000Y-114980000D03*
X133980000Y-112880000D03*
X126380000Y-112880000D03*
%TD*%
D35*
%TO.C,Y3*%
X122700000Y-82037500D03*
X120500000Y-82037500D03*
X120500000Y-83737500D03*
X122700000Y-83737500D03*
%TD*%
D13*
%TO.C,C13*%
X116680000Y-113430000D03*
X114605000Y-113430000D03*
%TD*%
D33*
%TO.C,S4*%
X140180000Y-71930000D03*
X137180000Y-71930000D03*
X135680000Y-71930000D03*
D34*
X141730000Y-70905000D03*
X134130000Y-70905000D03*
X141730000Y-68805000D03*
X134130000Y-68805000D03*
%TD*%
D17*
%TO.C,R3*%
X147180000Y-82930000D03*
X145180000Y-82930000D03*
%TD*%
D10*
%TO.C,C16*%
X124180000Y-109355000D03*
X124180000Y-111430000D03*
%TD*%
D20*
%TO.C,C3*%
X140680000Y-90930000D03*
X142755000Y-90930000D03*
%TD*%
D36*
%TO.C,R9*%
X135680000Y-98930000D03*
X137680000Y-98930000D03*
%TD*%
D37*
%TO.C,U1*%
X129180000Y-80430000D03*
X129180000Y-80930000D03*
X129180000Y-81430000D03*
X129180000Y-81930000D03*
X129180000Y-82430000D03*
X129180000Y-82930000D03*
X129180000Y-83430000D03*
X129180000Y-83930000D03*
X129180000Y-84430000D03*
X129180000Y-84930000D03*
X129180000Y-85430000D03*
X129180000Y-85930000D03*
X129180000Y-86430000D03*
X129180000Y-86930000D03*
X129180000Y-87430000D03*
X129180000Y-87930000D03*
D38*
X131105000Y-89855000D03*
X131605000Y-89855000D03*
X132105000Y-89855000D03*
X132605000Y-89855000D03*
X133105000Y-89855000D03*
X133605000Y-89855000D03*
X134105000Y-89855000D03*
X134605000Y-89855000D03*
X135105000Y-89855000D03*
X135605000Y-89855000D03*
X136105000Y-89855000D03*
X136605000Y-89855000D03*
X137105000Y-89855000D03*
X137605000Y-89855000D03*
X138105000Y-89855000D03*
X138605000Y-89855000D03*
D37*
X140530000Y-87930000D03*
X140530000Y-87430000D03*
X140530000Y-86930000D03*
X140530000Y-86430000D03*
X140530000Y-85930000D03*
X140530000Y-85430000D03*
X140530000Y-84930000D03*
X140530000Y-84430000D03*
X140530000Y-83930000D03*
X140530000Y-83430000D03*
X140530000Y-82930000D03*
X140530000Y-82430000D03*
X140530000Y-81930000D03*
X140530000Y-81430000D03*
X140530000Y-80930000D03*
X140530000Y-80430000D03*
D38*
X138605000Y-78505000D03*
X138105000Y-78505000D03*
X137605000Y-78505000D03*
X137105000Y-78505000D03*
X136605000Y-78505000D03*
X136105000Y-78505000D03*
X135605000Y-78505000D03*
X135105000Y-78505000D03*
X134605000Y-78505000D03*
X134105000Y-78505000D03*
X133605000Y-78505000D03*
X133105000Y-78505000D03*
X132605000Y-78505000D03*
X132105000Y-78505000D03*
X131605000Y-78505000D03*
X131105000Y-78505000D03*
%TD*%
M02*
